<svg id="Layer_25" viewBox="0 0 72 72" xmlns="http://www.w3.org/2000/svg" width="300" height="300" version="1.1" xmlns:xlink="http://www.w3.org/1999/xlink" xmlns:svgjs="http://svgjs.dev/svgjs"><g width="100%" height="100%" transform="matrix(1,0,0,1,0,0)"><path d="m66 43h-6c-1.72656 0-3.38184.39258-4.91406 1.16455-1.15527.57324-2.20508 1.35254-3.08691 2.28613-2.0625-2.1792-4.9707-3.45068-7.99902-3.45068h-6c-1.6543 0-3 1.3457-3 3v16c0 1.6543 1.3457 3 3 3h6c2.81836 0 5.50977 1.3457 7.2002 3.6001.18848.25146.48535.3999.7998.3999s.61133-.14844.7998-.3999c1.69043-2.25439 4.38184-3.6001 7.2002-3.6001h6c1.6543 0 3-1.3457 3-3v-16c0-1.6543-1.3457-3-3-3zm-22 20h-6c-.55176 0-1-.44873-1-1v-16c0-.55127.44824-1 1-1h6c2.71454 0 5.30194 1.25751 7 3.36371v17.16754c-1.95337-1.60858-4.43097-2.53125-7-2.53125zm23-1c0 .55127-.44824 1-1 1h-6c-2.56903 0-5.04663.92267-7 2.53125v-17.16815c.80249-.99945 1.8194-1.8335 2.98047-2.40997 1.25586-.63232 2.6084-.95312 4.01953-.95312h6c.55176 0 1 .44873 1 1v16z" fill="#ffffff" fill-opacity="1" data-original-color="#000000ff" stroke="none" stroke-opacity="1"/><path d="m45 47h-4c-.55273 0-1 .44775-1 1s.44727 1 1 1h4c.55273 0 1-.44775 1-1s-.44727-1-1-1z" fill="#ffffff" fill-opacity="1" data-original-color="#000000ff" stroke="none" stroke-opacity="1"/><path d="m45 51h-4c-.55273 0-1 .44775-1 1s.44727 1 1 1h4c.55273 0 1-.44775 1-1s-.44727-1-1-1z" fill="#ffffff" fill-opacity="1" data-original-color="#000000ff" stroke="none" stroke-opacity="1"/><path d="m45 55h-4c-.55273 0-1 .44775-1 1s.44727 1 1 1h4c.55273 0 1-.44775 1-1s-.44727-1-1-1z" fill="#ffffff" fill-opacity="1" data-original-color="#000000ff" stroke="none" stroke-opacity="1"/><path d="m45 59h-4c-.55273 0-1 .44775-1 1s.44727 1 1 1h4c.55273 0 1-.44775 1-1s-.44727-1-1-1z" fill="#ffffff" fill-opacity="1" data-original-color="#000000ff" stroke="none" stroke-opacity="1"/><path d="m63 47h-4c-.55273 0-1 .44775-1 1s.44727 1 1 1h4c.55273 0 1-.44775 1-1s-.44727-1-1-1z" fill="#ffffff" fill-opacity="1" data-original-color="#000000ff" stroke="none" stroke-opacity="1"/><path d="m63 51h-4c-.55273 0-1 .44775-1 1s.44727 1 1 1h4c.55273 0 1-.44775 1-1s-.44727-1-1-1z" fill="#ffffff" fill-opacity="1" data-original-color="#000000ff" stroke="none" stroke-opacity="1"/><path d="m63 55h-4c-.55273 0-1 .44775-1 1s.44727 1 1 1h4c.55273 0 1-.44775 1-1s-.44727-1-1-1z" fill="#ffffff" fill-opacity="1" data-original-color="#000000ff" stroke="none" stroke-opacity="1"/><path d="m63 59h-4c-.55273 0-1 .44775-1 1s.44727 1 1 1h4c.55273 0 1-.44775 1-1s-.44727-1-1-1z" fill="#ffffff" fill-opacity="1" data-original-color="#000000ff" stroke="none" stroke-opacity="1"/><path d="m13.16895 23.49268 6.33691 4.8833c.54443.41943 1.18848.62256 1.82764.62256.89941 0 1.78955-.40186 2.37939-1.16748.84705-1.09894.80115-2.59827-.00574-3.651.32202-.18884.62177-.42487.86316-.73816l1.50305-1.9505c1.27844-.32147 2.59637-.49139 3.92664-.49139 8.82227 0 16 7.17773 16 16 0 1.34521-.1709 2.68751-.50781 3.98975-.13867.53467.18262 1.08008.7168 1.21875.08398.02148.16895.03174.25195.03174.44434 0 .85059-.29883.9668-.74951.37988-1.46533.57227-2.97656.57227-4.49072 0-9.92529-8.0752-18-18-18-.70624 0-1.40894.04834-2.10663.12958l2.40015-3.11469c11.44287.1593 20.70648 9.50458 20.70648 20.98511 0 2.01172-.2793 3.98633-.83008 5.86914-.15527.53027.14941 1.08545.67969 1.24072.09277.02734.1875.04053.28027.04053.43359 0 .83203-.2832.95996-.71973.60352-2.06494.91016-4.22852.91016-6.43066 0-12.08008-9.36298-22.00775-21.21252-22.92383l.7179-.93164c.48926-.63477.70215-1.42188.59912-2.2168-.05981-.46124-.23242-.88617-.48206-1.26288l2.1925-3.08575c.15674-.22021.21729-.49463.16846-.76074-.04932-.26562-.20361-.50049-.42871-.65039l-3-2c-.42188-.28125-.98486-.20264-1.31396.18115l-2.31232 2.69733c-1.18219-.40265-2.53912-.04816-3.34344.99408l-7.93506 10.29736c-.23743.30804-.40674.65295-.50946 1.01617-.47925-.19922-.99982-.28284-1.5257-.21246-.79443.10303-1.50146.50928-1.99072 1.14404s-.70215 1.42188-.59912 2.2168c.10303.79443.50928 1.50146 1.14404 1.99023zm18.01367-18.16895 1.40527.93701-1.45068 2.04199-.71906-.55408-.79156-.61011 1.55603-1.81482zm-12.94873 13.23486 7.93506-10.29688c.19678-.25537.49365-.38965.79346-.38965.21289 0 .42725.06787.60889.20752l3.16846 2.44238c.21143.1626.34717.39795.38135.66309.03418.26465-.03662.52686-.19971.73877l-7.93506 10.29736c-.33643.4375-.96436.51807-1.40234.18164l-3.1687-2.44171c-.21118-.16315-.34692-.39874-.3811-.66327-.03418-.26514.03662-.52734.19971-.73926zm-4.02588 1.94776c.16309-.21143.39893-.34717.66357-.38135.04395-.00537.0874-.0083.13037-.0083.21973 0 .43164.07178.6084.20801l6.33691 4.88281c.21143.16309.34717.39893.38135.66357.03418.26514-.03662.52734-.19971.73926-.33643.43799-.96533.51855-1.40234.18164l-6.33691-4.88379c-.21143-.1626-.34717-.39795-.38135-.66309-.03418-.26465.03662-.52686.19971-.73877z" fill="#ffffff" fill-opacity="1" data-original-color="#000000ff" stroke="none" stroke-opacity="1"/><path d="m33.41016 63h-19.91016c-.82715 0-1.5-.67285-1.5-1.5 0-.39746.15967-.78516.43652-1.0625.27832-.27784.66602-.4375 1.06348-.4375h19.5c.55225 0 1-.44775 1-1v-6c0-1.06689-.4165-2.0708-1.17285-2.82715s-1.76025-1.17285-2.82715-1.17285c-2.03381 0-3.69922 1.53137-3.94928 3.49835-5.97034-1.51349-10.60602-6.44019-11.76001-12.49835h2.70929c.81104 0 1.56641-.31689 2.10791-.87354.5752-.56006.89209-1.31543.89209-2.12646 0-1.6543-1.3457-3-3-3h-11c-.81104 0-1.56641.31689-2.10791.87354-.5752.56006-.89209 1.31543-.89209 2.12646 0 1.6543 1.3457 3 3 3h1.21619c1.05078 7.98846 6.30591 14.78918 13.47852 18h-7.1947c-.93701 0-1.81689.36328-2.47754 1.02344-.65918.65967-1.02246 1.53955-1.02246 2.47656 0 1.92969 1.57031 3.5 3.5 3.5h19.91016c.55225 0 1-.44775 1-1s-.44775-1-1-1zm-5.41016-10c0-1.10303.89697-2 2-2 .53271 0 1.03467.2085 1.41309.58691s.58691.88037.58691 1.41309v5h-4zm-23-16c0-.26709.10205-.51318.30615-.7124.18066-.18555.42676-.2876.69385-.2876h11c.55127 0 1 .44873 1 1 0 .26709-.10205.51318-.30615.7124-.18066.18555-.42676.2876-.69385.2876h-11c-.55127 0-1-.44873-1-1zm4.23248 3h3.03503c1.2019 7.13348 6.68213 12.93518 13.73248 14.53326v3.06067c-8.68683-1.68414-15.5014-8.83136-16.76752-17.59393z" fill="#ffffff" fill-opacity="1" data-original-color="#000000ff" stroke="none" stroke-opacity="1"/></g></svg>