<svg id="Layer_1" enable-background="new 0 0 500 500" viewBox="0 0 500 500" xmlns="http://www.w3.org/2000/svg" width="300" height="300" version="1.1" xmlns:xlink="http://www.w3.org/1999/xlink" xmlns:svgjs="http://svgjs.dev/svgjs"><g width="100%" height="100%" transform="matrix(1,0,0,1,0,0)"><g><path d="m302.289 475h-104.578c-4.155 0-7.524-3.368-7.524-7.523v-155.043h-30.502c-4.155 0-7.524-3.367-7.524-7.523v-114.557c0-31.143 25.336-56.482 56.48-56.482h82.71c31.148 0 56.485 25.339 56.485 56.482v114.557c0 4.155-3.367 7.523-7.523 7.523h-30.503v155.043c.002 4.155-3.366 7.523-7.521 7.523zm-97.055-15.045h89.533v-155.043c0-4.154 3.367-7.523 7.523-7.523h30.503v-107.035c0-22.848-18.589-41.437-41.44-41.437h-82.71c-22.844 0-41.433 18.589-41.433 41.437v107.035h30.503c4.154 0 7.523 3.368 7.523 7.523v155.043z" fill="#ffffff" fill-opacity="1" data-original-color="#000000ff" stroke="none" stroke-opacity="1"/><path d="m249.999 475c-4.154 0-7.523-3.368-7.523-7.523v-136.87c0-4.155 3.368-7.524 7.523-7.524s7.523 3.368 7.523 7.524v136.87c0 4.155-3.367 7.523-7.523 7.523z" fill="#ffffff" fill-opacity="1" data-original-color="#000000ff" stroke="none" stroke-opacity="1"/><path d="m429.505 475h-93.294c-4.154 0-7.523-3.368-7.523-7.523v-127.308c0-4.156 3.368-7.523 7.523-7.523s7.523 3.367 7.523 7.523v119.785h78.249v-137.508c0-4.154 3.368-7.523 7.523-7.523h26.406v-94.678c0-19.935-16.22-36.156-36.156-36.156h-54.84c-4.155 0-7.523-3.368-7.523-7.523s3.367-7.523 7.523-7.523h54.84c28.234 0 51.202 22.968 51.202 51.202v102.201c0 4.155-3.368 7.523-7.524 7.523h-26.405v137.509c0 4.154-3.368 7.522-7.524 7.522z" fill="#ffffff" fill-opacity="1" data-original-color="#000000ff" stroke="none" stroke-opacity="1"/><path d="m382.858 475c-4.154 0-7.523-3.368-7.523-7.523v-122.107c0-4.156 3.368-7.523 7.523-7.523s7.524 3.367 7.524 7.523v122.107c0 4.155-3.368 7.523-7.524 7.523z" fill="#ffffff" fill-opacity="1" data-original-color="#000000ff" stroke="none" stroke-opacity="1"/><path d="m429.505 329.969c-4.154 0-7.523-3.367-7.523-7.523v-91.119c0-4.155 3.368-7.523 7.523-7.523s7.524 3.368 7.524 7.523v91.119c0 4.156-3.368 7.523-7.524 7.523z" fill="#ffffff" fill-opacity="1" data-original-color="#000000ff" stroke="none" stroke-opacity="1"/><path d="m463.434 475h-426.869c-4.156 0-7.523-3.368-7.523-7.523s3.367-7.523 7.523-7.523h426.869c4.156 0 7.524 3.367 7.524 7.523 0 4.155-3.368 7.523-7.524 7.523z" fill="#ffffff" fill-opacity="1" data-original-color="#000000ff" stroke="none" stroke-opacity="1"/><path d="m163.788 475h-93.3c-4.154 0-7.522-3.368-7.522-7.523v-137.508h-26.4c-4.156 0-7.523-3.367-7.523-7.523v-102.2c0-28.234 22.967-51.202 51.202-51.202h54.84c4.154 0 7.523 3.368 7.523 7.523s-3.368 7.523-7.523 7.523h-54.84c-19.935 0-36.157 16.221-36.157 36.156v94.678h26.4c4.156 0 7.524 3.368 7.524 7.523v137.509h78.254v-119.787c0-4.156 3.367-7.523 7.523-7.523 4.155 0 7.523 3.367 7.523 7.523v127.308c-.002 4.155-3.369 7.523-7.524 7.523z" fill="#ffffff" fill-opacity="1" data-original-color="#000000ff" stroke="none" stroke-opacity="1"/><path d="m117.14 475c-4.155 0-7.523-3.368-7.523-7.523v-122.107c0-4.156 3.367-7.523 7.523-7.523s7.523 3.367 7.523 7.523v122.107c0 4.155-3.367 7.523-7.523 7.523z" fill="#ffffff" fill-opacity="1" data-original-color="#000000ff" stroke="none" stroke-opacity="1"/><path d="m70.487 329.969c-4.154 0-7.522-3.367-7.522-7.523v-91.119c0-4.155 3.368-7.523 7.522-7.523 4.156 0 7.524 3.368 7.524 7.523v91.119c0 4.156-3.368 7.523-7.524 7.523z" fill="#ffffff" fill-opacity="1" data-original-color="#000000ff" stroke="none" stroke-opacity="1"/><path d="m252.339 118.741c-25.842 0-46.87-21.026-46.87-46.871 0-25.844 21.028-46.87 46.87-46.87 25.841 0 46.87 21.026 46.87 46.87.001 25.846-21.029 46.871-46.87 46.871zm0-78.695c-17.549 0-31.825 14.275-31.825 31.824s14.276 31.825 31.825 31.825 31.824-14.276 31.824-31.825-14.275-31.824-31.824-31.824z" fill="#ffffff" fill-opacity="1" data-original-color="#000000ff" stroke="none" stroke-opacity="1"/><path d="m115.049 158.089c-24.114 0-43.732-19.618-43.732-43.735s19.618-43.735 43.732-43.735c24.119 0 43.737 19.618 43.737 43.735s-19.618 43.735-43.737 43.735zm0-72.425c-15.816 0-28.687 12.871-28.687 28.689s12.871 28.689 28.687 28.689c15.821 0 28.692-12.871 28.692-28.689s-12.872-28.689-28.692-28.689z" fill="#ffffff" fill-opacity="1" data-original-color="#000000ff" stroke="none" stroke-opacity="1"/><path d="m384.951 158.089c-24.12 0-43.738-19.618-43.738-43.735s19.618-43.735 43.738-43.735c24.114 0 43.732 19.618 43.732 43.735.001 24.117-19.618 43.735-43.732 43.735zm0-72.425c-15.822 0-28.693 12.871-28.693 28.689s12.871 28.689 28.693 28.689c15.815 0 28.686-12.871 28.686-28.689s-12.871-28.689-28.686-28.689z" fill="#ffffff" fill-opacity="1" data-original-color="#000000ff" stroke="none" stroke-opacity="1"/><path d="m259.145 309.238h-18.29c-7.675 0-13.918-6.242-13.918-13.914v-32.054h-32.054c-7.669 0-13.911-6.241-13.911-13.914v-18.293c0-7.673 6.242-13.914 13.911-13.914h32.054v-32.054c0-7.673 6.242-13.914 13.918-13.914h18.29c7.675 0 13.916 6.242 13.916 13.914v32.054h32.049c7.676 0 13.917 6.242 13.917 13.914v18.293c0 7.673-6.241 13.914-13.917 13.914h-32.049v32.054c.001 7.672-6.241 13.914-13.916 13.914zm-17.161-15.047h16.033v-38.445c0-4.155 3.367-7.523 7.523-7.523h38.443v-16.03h-38.443c-4.156 0-7.523-3.368-7.523-7.523v-38.446h-16.033v38.446c0 4.155-3.368 7.523-7.524 7.523h-38.442v16.03h38.442c4.155 0 7.524 3.368 7.524 7.523z" fill="#ffffff" fill-opacity="1" data-original-color="#000000ff" stroke="none" stroke-opacity="1"/><path d="m302.289 312.434c-4.156 0-7.523-3.367-7.523-7.523v-16.652c0-4.155 3.367-7.523 7.523-7.523 4.155 0 7.523 3.368 7.523 7.523v16.652c0 4.156-3.368 7.523-7.523 7.523z" fill="#ffffff" fill-opacity="1" data-original-color="#000000ff" stroke="none" stroke-opacity="1"/><path d="m197.711 312.434c-4.155 0-7.524-3.367-7.524-7.523v-16.652c0-4.155 3.368-7.523 7.524-7.523 4.154 0 7.523 3.368 7.523 7.523v16.652c0 4.156-3.369 7.523-7.523 7.523z" fill="#ffffff" fill-opacity="1" data-original-color="#000000ff" stroke="none" stroke-opacity="1"/></g></g></svg>