<svg id="Layer_1" enable-background="new 0 0 500 500" viewBox="0 0 500 500" xmlns="http://www.w3.org/2000/svg" width="300" height="300" version="1.1" xmlns:xlink="http://www.w3.org/1999/xlink" xmlns:svgjs="http://svgjs.dev/svgjs"><g width="100%" height="100%" transform="matrix(1,0,0,1,0,0)"><g><path d="m153.224 475h-84.828c-4.106 0-7.433-3.327-7.433-7.432v-124.436h-23.412c-4.105 0-7.432-3.327-7.432-7.432v-92.923c0-25.996 21.154-47.144 47.15-47.144h67.09c25.995 0 47.143 21.147 47.143 47.144v92.923c0 4.106-3.327 7.432-7.432 7.432h-23.412v124.436c-.002 4.105-3.328 7.432-7.434 7.432zm-77.396-14.865h69.964v-124.435c0-4.106 3.327-7.432 7.432-7.432h23.412v-85.49c0-17.798-14.481-32.279-32.278-32.279h-67.09c-17.803 0-32.286 14.481-32.286 32.279v85.49h23.413c4.104 0 7.432 3.327 7.432 7.432v124.435z" fill="#ffffff" fill-opacity="1" data-original-color="#000000ff" stroke="none" stroke-opacity="1"/><path d="m110.813 475c-4.106 0-7.432-3.327-7.432-7.432v-111.028c0-4.106 3.327-7.432 7.432-7.432s7.432 3.327 7.432 7.432v111.028c0 4.105-3.327 7.432-7.432 7.432z" fill="#ffffff" fill-opacity="1" data-original-color="#000000ff" stroke="none" stroke-opacity="1"/><path d="m68.396 343.132c-4.106 0-7.433-3.327-7.433-7.432v-82.849c0-4.105 3.328-7.432 7.433-7.432 4.104 0 7.432 3.328 7.432 7.432v82.849c0 4.105-3.327 7.432-7.432 7.432z" fill="#ffffff" fill-opacity="1" data-original-color="#000000ff" stroke="none" stroke-opacity="1"/><path d="m153.224 343.132c-4.105 0-7.432-3.327-7.432-7.432v-82.849c0-4.105 3.327-7.432 7.432-7.432 4.106 0 7.432 3.328 7.432 7.432v82.849c0 4.105-3.326 7.432-7.432 7.432z" fill="#ffffff" fill-opacity="1" data-original-color="#000000ff" stroke="none" stroke-opacity="1"/><path d="m110.813 187.707c-22.617 0-41.012-18.396-41.012-41.012s18.396-41.012 41.012-41.012c22.617 0 41.012 18.396 41.012 41.012s-18.396 41.012-41.012 41.012zm0-67.159c-14.418 0-26.147 11.729-26.147 26.147s11.729 26.146 26.147 26.146 26.147-11.728 26.147-26.146-11.729-26.147-26.147-26.147z" fill="#ffffff" fill-opacity="1" data-original-color="#000000ff" stroke="none" stroke-opacity="1"/><path d="m431.605 475h-84.829c-4.106 0-7.432-3.327-7.432-7.432v-124.436h-23.412c-4.106 0-7.432-3.327-7.432-7.432v-92.923c0-25.996 21.147-47.144 47.144-47.144h67.09c25.995 0 47.149 21.147 47.149 47.144v92.923c0 4.106-3.327 7.432-7.432 7.432h-23.412v124.436c-.002 4.105-3.329 7.432-7.434 7.432zm-77.397-14.865h69.965v-124.435c0-4.106 3.327-7.432 7.432-7.432h23.412v-85.49c0-17.798-14.482-32.279-32.284-32.279h-67.09c-17.798 0-32.279 14.481-32.279 32.279v85.49h23.412c4.105 0 7.432 3.327 7.432 7.432z" fill="#ffffff" fill-opacity="1" data-original-color="#000000ff" stroke="none" stroke-opacity="1"/><path d="m389.187 475c-4.106 0-7.432-3.327-7.432-7.432v-111.028c0-4.106 3.327-7.432 7.432-7.432s7.432 3.327 7.432 7.432v111.028c.001 4.105-3.326 7.432-7.432 7.432z" fill="#ffffff" fill-opacity="1" data-original-color="#000000ff" stroke="none" stroke-opacity="1"/><path d="m431.605 343.132c-4.106 0-7.432-3.327-7.432-7.432v-82.849c0-4.105 3.327-7.432 7.432-7.432 4.104 0 7.432 3.328 7.432 7.432v82.849c0 4.105-3.327 7.432-7.432 7.432z" fill="#ffffff" fill-opacity="1" data-original-color="#000000ff" stroke="none" stroke-opacity="1"/><path d="m346.776 343.132c-4.106 0-7.432-3.327-7.432-7.432v-82.849c0-4.105 3.327-7.432 7.432-7.432s7.432 3.328 7.432 7.432v82.849c0 4.105-3.327 7.432-7.432 7.432z" fill="#ffffff" fill-opacity="1" data-original-color="#000000ff" stroke="none" stroke-opacity="1"/><path d="m389.187 187.707c-22.617 0-41.012-18.396-41.012-41.012s18.395-41.012 41.012-41.012 41.012 18.396 41.012 41.012-18.395 41.012-41.012 41.012zm0-67.159c-14.418 0-26.147 11.729-26.147 26.147s11.729 26.146 26.147 26.146 26.147-11.728 26.147-26.146c.001-14.418-11.729-26.147-26.147-26.147z" fill="#ffffff" fill-opacity="1" data-original-color="#000000ff" stroke="none" stroke-opacity="1"/><path d="m250.003 274.104c-24.021 0-47.863-4.93-68.941-14.249-3.751-1.661-5.453-6.051-3.792-9.807 1.667-3.752 6.033-5.441 9.807-3.792 38.393 16.991 87.453 16.991 125.847 0 3.774-1.649 8.147.041 9.807 3.792 1.661 3.757-.041 8.147-3.791 9.807-21.079 9.318-44.92 14.249-68.937 14.249z" fill="#ffffff" fill-opacity="1" data-original-color="#000000ff" stroke="none" stroke-opacity="1"/><path d="m383.258 121.105c-3.025 0-5.87-1.864-6.979-4.872-16.508-44.966-68.431-76.368-126.277-76.368-57.845 0-109.774 31.403-126.282 76.368-1.422 3.856-5.719 5.807-9.54 4.419-3.856-1.416-5.83-5.69-4.419-9.54 18.913-51.504 75.272-86.112 140.242-86.112 64.971 0 121.323 34.608 140.236 86.112 1.411 3.85-.563 8.124-4.419 9.54-.842.308-1.708.453-2.562.453z" fill="#ffffff" fill-opacity="1" data-original-color="#000000ff" stroke="none" stroke-opacity="1"/><path d="m258.974 220.177h-17.948c-7.554 0-13.704-6.148-13.704-13.704v-31.39h-31.391c-7.554 0-13.703-6.15-13.703-13.704v-17.948c0-7.555 6.148-13.704 13.703-13.704h31.391v-31.39c0-7.554 6.15-13.704 13.704-13.704h17.948c7.555 0 13.704 6.149 13.704 13.704v31.391h31.391c7.554 0 13.704 6.148 13.704 13.704v17.948c0 7.554-6.149 13.704-13.704 13.704h-31.391v31.39c-.001 7.555-6.149 13.703-13.704 13.703zm-16.787-14.865h15.626v-37.661c0-4.106 3.327-7.432 7.432-7.432h37.661v-15.626h-37.661c-4.106 0-7.432-3.328-7.432-7.432v-37.663h-15.626v37.663c0 4.104-3.327 7.432-7.432 7.432h-37.661v15.626h37.661c4.106 0 7.432 3.327 7.432 7.432z" fill="#ffffff" fill-opacity="1" data-original-color="#000000ff" stroke="none" stroke-opacity="1"/><path d="m208.097 419.681c-4.105 0-7.433-3.328-7.433-7.433v-4.517c0-4.106 3.328-7.432 7.433-7.432s7.432 3.327 7.432 7.432v4.517c0 4.106-3.327 7.433-7.432 7.433z" fill="#ffffff" fill-opacity="1" data-original-color="#000000ff" stroke="none" stroke-opacity="1"/><path d="m208.097 435.324c-4.105 0-7.433-3.327-7.433-7.432v-4.518c0-4.104 3.328-7.432 7.433-7.432s7.432 3.328 7.432 7.432v4.518c0 4.105-3.327 7.432-7.432 7.432z" fill="#ffffff" fill-opacity="1" data-original-color="#000000ff" stroke="none" stroke-opacity="1"/><path d="m218.177 425.244h-4.518c-4.106 0-7.432-3.327-7.432-7.432 0-4.106 3.327-7.432 7.432-7.432h4.518c4.105 0 7.432 3.327 7.432 7.432.001 4.105-3.327 7.432-7.432 7.432z" fill="#ffffff" fill-opacity="1" data-original-color="#000000ff" stroke="none" stroke-opacity="1"/><path d="m202.534 425.244h-4.518c-4.105 0-7.432-3.327-7.432-7.432 0-4.106 3.328-7.432 7.432-7.432h4.518c4.105 0 7.432 3.327 7.432 7.432s-3.327 7.432-7.432 7.432z" fill="#ffffff" fill-opacity="1" data-original-color="#000000ff" stroke="none" stroke-opacity="1"/><path d="m268.294 352.637c-4.105 0-7.432-3.327-7.432-7.432v-4.517c0-4.106 3.327-7.433 7.432-7.433 4.106 0 7.432 3.328 7.432 7.433v4.517c0 4.106-3.326 7.432-7.432 7.432z" fill="#ffffff" fill-opacity="1" data-original-color="#000000ff" stroke="none" stroke-opacity="1"/><path d="m268.294 368.281c-4.105 0-7.432-3.328-7.432-7.432v-4.518c0-4.106 3.327-7.432 7.432-7.432 4.106 0 7.432 3.327 7.432 7.432v4.518c0 4.104-3.326 7.432-7.432 7.432z" fill="#ffffff" fill-opacity="1" data-original-color="#000000ff" stroke="none" stroke-opacity="1"/><path d="m278.374 358.201h-4.518c-4.105 0-7.432-3.328-7.432-7.432 0-4.106 3.328-7.432 7.432-7.432h4.518c4.106 0 7.432 3.327 7.432 7.432 0 4.104-3.326 7.432-7.432 7.432z" fill="#ffffff" fill-opacity="1" data-original-color="#000000ff" stroke="none" stroke-opacity="1"/><path d="m262.731 358.201h-4.517c-4.106 0-7.432-3.328-7.432-7.432 0-4.106 3.327-7.432 7.432-7.432h4.517c4.106 0 7.433 3.327 7.433 7.432 0 4.104-3.328 7.432-7.433 7.432z" fill="#ffffff" fill-opacity="1" data-original-color="#000000ff" stroke="none" stroke-opacity="1"/><path d="m462.449 475h-424.898c-4.105 0-7.432-3.327-7.432-7.432s3.328-7.432 7.432-7.432h424.899c4.106 0 7.432 3.328 7.432 7.432 0 4.105-3.327 7.432-7.433 7.432z" fill="#ffffff" fill-opacity="1" data-original-color="#000000ff" stroke="none" stroke-opacity="1"/></g></g></svg>