<svg clip-rule="evenodd" fill-rule="evenodd" height="1.707in" image-rendering="optimizeQuality" shape-rendering="geometricPrecision" text-rendering="geometricPrecision" viewBox="0 0 1707 1707" width="1.707in" xmlns="http://www.w3.org/2000/svg">
                  <g id="Layer_x0020_1">
                    <path d="m1305 1194h-903c-11 0-20-9-20-20v-210c0-11 9-20 20-20h903c11 0 20 9 20 20v210c0 11-9 20-20 20zm-883-40h863v-170h-863z"></path>
                    <path d="m402 1398c-11 0-20-9-20-20v-716c0-27 40-27 40 0v716c0 11-9 20-20 20z"></path>
                    <path d="m1305 1398c-11 0-20-9-20-20v-589c0-26 40-26 40 0v589c0 11-9 20-20 20z"></path>
                    <path d="m667 984h-265c-11 0-20-9-20-20v-185c0-27 38-20 72-20 108 0 233 91 233 205 0 11-9 20-20 20zm-245-40h223c-14-82-110-145-191-145h-32z"></path>
                    <path d="m891 739c-129 0-113 12-113-146-158 0-146 16-146-113 0-21 17-38 39-38h107c0-158-16-146 113-146 21 0 38 17 38 39v107c158 0 146-16 146 113 0 21-18 38-39 38h-107v107c0 21-17 39-38 39zm-73-40h71v-126c0-11 9-20 20-20h126v-71h-126c-11 0-20-9-20-20v-126h-71v126c0 11-9 20-20 20h-126v71h126c11 0 20 9 20 20z"></path>
                    <path d="m1544 1706h-1381c-90 0-163-73-163-162v-1381c0-90 73-163 163-163h1381c89 0 162 73 162 163v1381c0 89-73 162-162 162zm-1381-1666c-68 0-123 55-123 123v1381c0 67 55 122 123 122h1381c67 0 122-55 122-122v-1381c0-68-55-123-122-123z"></path>
                    <path d="m1544 1573h-1381c-16 0-29-13-29-29v-1381c0-16 13-29 29-29h1381c16 0 29 13 29 29v1381c0 16-13 29-29 29zm-1370-40h1359v-1359h-1359z"></path>
                  </g>
                </svg>