<svg id="Layer_1" viewBox="0 0 64 64" xmlns="http://www.w3.org/2000/svg" data-name="Layer 1">
                  <path d="m19.066 14.214c-3.857 0-6.995 3.138-6.995 6.995s3.138 6.995 6.995 6.995 6.995-3.138 6.995-6.995-3.138-6.995-6.995-6.995zm0 11.99c-2.754 0-4.995-2.241-4.995-4.995s2.241-4.995 4.995-4.995 4.995 2.241 4.995 4.995-2.241 4.995-4.995 4.995z"></path>
                  <path d="m25.977 28.563h-13.815c-2.236 0-4.056 1.815-4.056 4.047v6.837c0 2.49 1.782 4.568 4.137 5.036v13.62c0 2.149 1.752 3.897 3.905 3.897 1.046 0 2.026-.404 2.76-1.138.061-.061.105-.132.161-.196.715.811 1.749 1.334 2.913 1.334 1.042 0 2.022-.402 2.772-1.143.73-.741 1.133-1.72 1.133-2.755v-13.617c.991-.195 1.904-.679 2.636-1.41.954-.953 1.501-2.275 1.501-3.629v-6.837c0-2.231-1.815-4.047-4.047-4.047zm2.047 10.884c0 .826-.333 1.633-.915 2.214-.351.35-.768.607-1.222.76v-4.671c0-.553-.447-1-1-1s-1 .447-1 1v20.353c0 .507-.198.986-.547 1.341-.364.359-.846.557-1.358.557-1.046 0-1.897-.852-1.897-1.897v-13.736c0-.553-.447-1-1-1-.006 0-.01.003-.016.003-.005 0-.01-.003-.016-.003-.553 0-1 .447-1 1v13.736c0 .507-.199.984-.56 1.346-.355.355-.834.552-1.346.552-1.051 0-1.905-.852-1.905-1.897v-20.353c0-.553-.447-1-1-1s-1 .447-1 1v4.671c-1.241-.419-2.137-1.594-2.137-2.974v-6.837c0-1.129.922-2.047 2.056-2.047h13.815c1.129 0 2.047.918 2.047 2.047v6.837z"></path>
                  <path d="m44.937 28.204c3.857 0 6.996-3.138 6.996-6.995s-3.139-6.995-6.996-6.995-6.995 3.138-6.995 6.995 3.138 6.995 6.995 6.995zm0-11.99c2.755 0 4.996 2.241 4.996 4.995s-2.241 4.995-4.996 4.995-4.995-2.241-4.995-4.995 2.241-4.995 4.995-4.995z"></path>
                  <path d="m51.848 28.563h-13.816c-2.235 0-4.055 1.815-4.055 4.047v6.837c0 2.49 1.782 4.568 4.137 5.036v13.62c0 2.149 1.752 3.897 3.905 3.897 1.046 0 2.026-.404 2.761-1.139.06-.061.104-.132.161-.195.715.811 1.749 1.334 2.913 1.334 1.04 0 2.021-.402 2.773-1.144.729-.742 1.132-1.72 1.132-2.754v-13.617c.991-.195 1.904-.679 2.636-1.41.954-.953 1.501-2.275 1.501-3.629v-6.837c0-2.231-1.815-4.047-4.047-4.047zm2.047 10.884c0 .826-.333 1.633-.915 2.214-.351.35-.768.607-1.222.76v-4.671c0-.553-.447-1-1-1s-1 .447-1 1v20.353c0 .506-.198.986-.547 1.341-.364.358-.847.557-1.358.557-1.046 0-1.897-.852-1.897-1.897v-13.736c0-.553-.447-1-1-1-.006 0-.01.003-.016.003-.005 0-.01-.003-.016-.003-.553 0-1 .447-1 1v13.736c0 .506-.199.984-.56 1.346-.355.355-.834.552-1.346.552-1.051 0-1.905-.852-1.905-1.897v-20.353c0-.553-.447-1-1-1s-1 .447-1 1v4.671c-1.241-.419-2.137-1.594-2.137-2.974v-6.837c0-1.129.922-2.047 2.055-2.047h13.816c1.129 0 2.047.918 2.047 2.047v6.837z"></path>
                  <path d="m34.342 2h-4.685c-.553 0-1 .447-1 1v2.929h-2.929c-.553 0-1 .447-1 1v4.685c0 .553.447 1 1 1h2.929v2.931c0 .553.447 1 1 1h4.685c.553 0 1-.447 1-1v-2.931h2.93c.553 0 1-.447 1-1v-4.685c0-.553-.447-1-1-1h-2.93v-2.929c0-.553-.447-1-1-1zm2.93 5.929v2.685h-2.93c-.553 0-1 .447-1 1v2.931h-2.685v-2.931c0-.553-.447-1-1-1h-2.929v-2.685h2.929c.553 0 1-.447 1-1v-2.929h2.685v2.929c0 .553.447 1 1 1z"></path>
                </svg>