<svg clip-rule="evenodd" fill-rule="evenodd" stroke-linejoin="round" stroke-miterlimit="2" viewBox="0 0 510 510" xmlns="http://www.w3.org/2000/svg">
                  <path d="m151.863 318.462v-242.877c0-19.356 15.837-35.169 35.168-35.169h21.883v-25.416c0-3.866 3.134-7 7-7h36.209c3.866 0 7 3.134 7 7v25.416h42.694v-25.416c0-3.866 3.134-7 7-7h36.228c3.866 0 7 3.134 7 7v25.416h42.695v-25.416c0-3.866 3.134-7 7-7h36.208c3.866 0 7 3.134 7 7v25.416h21.883c19.332 0 35.169 15.813 35.169 35.169v242.877c0 19.332-15.837 35.169-35.169 35.169h-44.668c-3.863 0-7-3.137-7-7s3.137-7 7-7h44.668c11.636 0 21.169-9.533 21.169-21.169v-201.614h-322.137v201.614c0 5.388 2.05 10.322 5.402 14.068 2.575 2.88 2.328 7.309-.551 9.885-2.88 2.575-7.309 2.328-9.885-.551-5.572-6.231-8.966-14.443-8.966-23.402zm57.051-264.046h-21.883c-11.636 0-21.168 9.518-21.168 21.169v27.263h322.137v-27.263c0-11.651-9.533-21.169-21.169-21.169h-21.883v24.802c0 3.866-3.134 7-7 7h-36.208c-3.866 0-7-3.134-7-7v-24.802h-42.695v24.802c0 3.866-3.134 7-7 7h-36.228c-3.866 0-7-3.134-7-7v-24.802h-42.694v24.802c0 3.866-3.134 7-7 7h-36.209c-3.866 0-7-3.134-7-7zm36.209 17.802v-50.218h-22.209v50.218zm92.922 0v-50.218h-22.228v50.218zm92.903 0v-50.218h-22.208v50.218zm-268.881 321.046c-4.585-.058-9.154-1.824-12.673-5.302l-12.41-12.266v26.345l10.234 76.335c.725 5.409-.728 10.886-4.041 15.224-3.312 4.338-8.212 7.183-13.622 7.908l-2.295.308c-10.312 1.383-20.034-5.148-22.653-15.217l-10.152-39.028-10.059 38.986c-2.604 10.089-12.336 16.64-22.663 15.256l-2.271-.305c-5.41-.725-10.311-3.57-13.623-7.908-3.313-4.338-4.766-9.815-4.041-15.224l10.234-76.335v-26.345l-12.409 12.266c-7.214 7.131-18.843 7.063-25.973-.151l.05.021c-.133-.115-.262-.235-.386-.361l-.01-.01c-7.131-7.214-7.063-18.842.151-25.973l28.618-28.287c9.023-8.919 21.199-13.921 33.886-13.921h5.91c-13.543-5.114-23.186-18.204-23.186-33.528 0-19.772 16.053-35.825 35.825-35.825s35.825 16.053 35.825 35.825c0 15.324-9.643 28.414-23.186 33.528h5.911c12.687 0 24.862 5.002 33.885 13.921l28.618 28.287c3.797 3.753 5.614 8.752 5.444 13.697 5.192-3.713 11.289-5.997 17.671-6.596-6.617-5.01-10.895-12.95-10.895-21.881 0-15.138 12.29-27.428 27.428-27.428s27.428 12.29 27.428 27.428c0 8.931-4.278 16.871-10.895 21.881 5.813.546 11.389 2.489 16.261 5.637.081-4.627 1.901-9.227 5.452-12.738l28.618-28.287c9.023-8.919 21.199-13.921 33.886-13.921h5.91c-13.543-5.114-23.186-18.204-23.186-33.528 0-19.772 16.053-35.825 35.825-35.825 1.295 0 2.573.069 3.832.203-1.191-1.255-1.922-2.951-1.922-4.819v-34.163c0-3.866 3.134-7 7-7h34.163c3.866 0 7 3.134 7 7v34.163c0 3.866-3.134 7-7 7h-30.205c13.423 5.175 22.957 18.203 22.957 33.441 0 15.324-9.643 28.414-23.186 33.528h5.911c12.687 0 24.862 5.002 33.885 13.921l28.618 28.287c7.214 7.131 7.282 18.759.151 25.973l-.345.35c-7.131 7.214-18.759 7.282-25.973.151l-12.41-12.266v24.928l18.705 40.7c.996 2.167.82 4.693-.467 6.701s-3.508 3.222-5.894 3.222h-5.747l3.637 27.129c.725 5.409-.728 10.886-4.041 15.224-3.312 4.338-8.212 7.183-13.622 7.908l-2.295.308c-10.312 1.383-20.034-5.148-22.653-15.217l-9.196-35.352h-1.905l-9.11 35.31c-2.604 10.089-12.336 16.64-22.663 15.256l-2.271-.305c-5.41-.725-10.311-3.57-13.623-7.908-3.313-4.338-4.766-9.815-4.041-15.224l3.637-27.129h-5.747c-2.385 0-4.606-1.214-5.893-3.222-1.288-2.008-1.464-4.534-.468-6.701l18.705-40.7v-24.928l-12.409 12.266c-3.177 3.14-7.21 4.884-11.338 5.237l5.799 5.732c5.914 5.845 5.969 15.378.124 21.291l-.245.248c-5.845 5.913-15.377 5.969-21.291.123l-5.321-5.26v13.652l7.234 53.962c.586 4.37-.588 8.794-3.264 12.298-2.676 3.505-6.634 5.803-11.004 6.388l-1.626.219c-8.33 1.116-16.183-4.159-18.298-12.292l-5.214-20.042-5.162 20.008c-2.103 8.149-9.964 13.442-18.306 12.323l-1.61-.216c-4.37-.585-8.328-2.883-11.004-6.388-2.676-3.504-3.85-7.928-3.264-12.298l7.235-53.962v-13.652l-5.322 5.26c-5.914 5.846-15.446 5.79-21.291-.123l-.238-.241-.007-.007c-5.845-5.913-5.789-15.446.124-21.291zm3.343-15.295.345-.349c1.695-1.715 1.679-4.48-.035-6.175l-28.619-28.287c-6.402-6.329-15.041-9.878-24.043-9.878h-37.099c-9.002 0-17.642 3.549-24.044 9.878l-28.618 28.287c-1.715 1.695-1.731 4.46-.036 6.175l.01.009.001.002c.114.116.223.234.327.356l.008-.018c1.695 1.715 4.459 1.731 6.174.036l24.33-24.049c2.009-1.985 5.013-2.569 7.619-1.481s4.302 3.635 4.302 6.459v43.574c0 .311-.02.622-.062.93l-10.296 76.798c-.232 1.73.233 3.481 1.292 4.868s2.626 2.297 4.356 2.529l2.271.304c3.302.443 6.414-1.652 7.247-4.878l16.807-65.138c2.289-7.041 11.435-7.029 13.557-.015l16.952 65.169c.838 3.219 3.946 5.307 7.243 4.865l2.295-.307c1.73-.232 3.297-1.142 4.356-2.529s1.524-3.138 1.292-4.868l-10.296-76.798c-.041-.308-.062-.619-.062-.93v-43.574c0-2.824 1.697-5.371 4.302-6.459 2.606-1.088 5.611-.504 7.619 1.481l24.33 24.049c1.715 1.695 4.48 1.679 6.175-.036zm197.574 17.186v-36.221c0-2.824 1.697-5.371 4.302-6.459 2.606-1.088 5.611-.504 7.619 1.481l24.33 24.049c1.715 1.695 4.48 1.679 6.175-.036l.345-.349c1.695-1.715 1.679-4.48-.035-6.175l-28.619-28.287c-6.402-6.329-15.041-9.878-24.043-9.878h-37.099c-9.002 0-17.642 3.549-24.044 9.878l-28.618 28.287c-1.715 1.695-1.731 4.46-.036 6.175l.01.009.001.002c.114.116.223.234.327.356l.008-.018c1.695 1.715 4.459 1.731 6.174.036l24.33-24.049c2.009-1.985 5.013-2.569 7.619-1.481s4.302 3.635 4.302 6.459v36.221zm-72.375 42.092h87.799l-12.911-28.092h-61.978zm59.268 14 8.279 31.828c.838 3.219 3.946 5.307 7.243 4.865l2.295-.307c1.73-.232 3.297-1.142 4.356-2.529s1.524-3.138 1.292-4.868l-3.886-28.989zm-50.316 0-3.887 28.989c-.232 1.73.233 3.481 1.292 4.868s2.626 2.297 4.356 2.529l2.271.304c3.302.443 6.414-1.652 7.247-4.878l8.208-31.812zm-35.555-40.619.245-.248c.41-.414.406-1.082-.009-1.492l-20.281-20.047c-4.156-4.107-9.763-6.411-15.606-6.411h-26.292c-5.843 0-11.45 2.304-15.606 6.411l-20.281 20.047c-.414.41-.418 1.078-.009 1.492l.007.007.001.001.237.24c.41.414 1.078.418 1.492.009l17.243-17.044c2.008-1.985 5.013-2.569 7.618-1.481 2.606 1.088 4.303 3.636 4.303 6.46v30.88c0 .311-.021.622-.062.93l-7.297 54.426c-.093.69.093 1.388.515 1.941.423.553 1.047.916 1.737 1.009l1.61.215c1.317.177 2.558-.659 2.89-1.945l11.911-46.163c1.956-8.701 11.661-8.683 13.556-.014l12.014 46.184c.334 1.284 1.573 2.117 2.888 1.941l1.627-.218c.69-.093 1.315-.456 1.737-1.009s.608-1.251.515-1.941l-7.296-54.426c-.042-.308-.062-.619-.062-.93v-30.88c0-2.824 1.696-5.372 4.302-6.46s5.61-.504 7.618 1.481l17.243 17.044c.415.409 1.082.405 1.492-.009zm-48.797-77.348c-7.411 0-13.428 6.017-13.428 13.428s6.017 13.428 13.428 13.428 13.428-6.017 13.428-13.428-6.017-13.428-13.428-13.428zm-120.701-69.353c-12.045 0-21.825 9.78-21.825 21.825s9.78 21.825 21.825 21.825c12.046 0 21.825-9.78 21.825-21.825s-9.779-21.825-21.825-21.825zm240 0c-12.045 0-21.825 9.78-21.825 21.825s9.78 21.825 21.825 21.825c12.046 0 21.825-9.78 21.825-21.825s-9.779-21.825-21.825-21.825zm36.073-25.616v-20.163h-20.163v20.163zm74.116-53.116h-34.163c-3.866 0-7-3.134-7-7v-34.164c0-3.866 3.134-7 7-7h34.163c3.866 0 7 3.134 7 7v34.164c0 3.866-3.134 7-7 7zm-7-14 .001-20.164h-20.164v20.164zm-60.116 14h-34.163c-3.866 0-7-3.134-7-7v-34.164c0-3.866 3.134-7 7-7h34.163c3.866 0 7 3.134 7 7v34.164c0 3.866-3.134 7-7 7zm-7-14v-20.164h-20.163v20.164zm74.116 81.116h-34.163c-3.866 0-7-3.134-7-7v-34.163c0-3.866 3.134-7 7-7h34.163c3.866 0 7 3.134 7 7v34.163c0 3.866-3.134 7-7 7zm-7-14 .001-20.163h-20.164v20.163zm7 81.136h-34.163c-3.866 0-7-3.134-7-7v-34.163c0-3.866 3.134-7 7-7h34.163c3.866 0 7 3.134 7 7v34.163c0 3.866-3.134 7-7 7zm-7-14 .001-20.163h-20.164v20.163zm-221.623-135.11v-24.544c0-3.866 3.134-7 7-7h36.431c3.866 0 7 3.134 7 7v24.544h24.544c3.866 0 7 3.134 7 7v36.43c0 3.866-3.134 7-7 7h-24.544v24.544c0 3.866-3.134 7-7 7h-36.431c-3.866 0-7-3.134-7-7v-24.544h-24.544c-3.866 0-7-3.134-7-7v-36.43c0-3.866 3.134-7 7-7zm7 14h-24.544v22.43h24.544c3.866 0 7 3.134 7 7v24.544h22.431v-24.544c0-3.866 3.134-7 7-7h24.544v-22.43h-24.544c-3.866 0-7-3.134-7-7v-24.544h-22.431v24.544c0 3.866-3.134 7-7 7z"></path>
                </svg>