<svg id="Line" viewBox="0 0 64 64" xmlns="http://www.w3.org/2000/svg">
                  <path d="m57 19.67285h-13.07812v-6.24463h10.543a2.98019 2.98019 0 0 0 -.0001-5.95995h-44.92962a2.98017 2.98017 0 0 0 .00009 5.96h10.54288v6.24463h-13.07813a3.00328 3.00328 0 0 0 -3 3v30.85884a3.00328 3.00328 0 0 0 3 3h50a3.00328 3.00328 0 0 0 3-3v-30.85889a3.00328 3.00328 0 0 0 -3-3zm-48.44434-9.22461a.98078.98078 0 0 1 .9795-.98h44.92968a.98011.98011 0 0 1 -.00005 1.96h-44.92963a.98078.98078 0 0 1 -.9795-.98zm13.52247 2.98h19.84375v6.24463h-19.84375zm35.92187 40.1035a1.001 1.001 0 0 1 -1 1h-50a1.001 1.001 0 0 1 -1-1v-30.85889a1.001 1.001 0 0 1 1-1h14.05878c.00667-.02656 21.82371.01915 21.84372-.00006.03806-.00422 14.05479.00315 14.09759.00005a1.001 1.001 0 0 1 .99991 1z"></path>
                  <path d="m51.77417 39.30963a6.5969 6.5969 0 0 0 -6.25952-4.65582h-21.74024a6.53583 6.53583 0 0 0 -4.65332 1.92139c-.18853.43972-.00557-9.304-.06751-9.22216a2.90994 2.90994 0 0 0 -2.9071-2.90675h-1.335a2.91013 2.91013 0 0 0 -2.90718 2.90671v17.832a.99974.99974 0 0 0 1 1h1.99121v4.57373a.99973.99973 0 0 0 1 1h4.86133a.99974.99974 0 0 0 1-1v-4.57367h20.47754v4.57373a.99973.99973 0 0 0 1 1h4.86132a.99973.99973 0 0 0 1-1v-4.57373h2a.99974.99974 0 0 0 1-1v-5.14893a.9901.9901 0 0 0 -.32153-.7265zm-27.99976-2.65582h21.74024a4.5921 4.5921 0 0 1 3.99377 2.38232h-29.754a4.564 4.564 0 0 1 4.01999-2.38232zm-9.87011-9.30081a.90815.90815 0 0 1 .90722-.90674h1.335a.90816.90816 0 0 1 .90723.90674v11.6831h-3.14945zm5.85254 22.40576h-2.86133v-3.5737h2.86133zm27.33886 0h-2.86132v-3.5737h2.86132zm1.00482-5.57373c-2.94019-.00061-23.88255.00043-27.33886 0-1.33338-.00044-5.57022.00031-6.85735 0v-3.1489h4.14941c.0312.21689 32.40529-.41795 32.04191.22088l.00008 2.928z"></path>
                </svg>