<svg id="Bahan" viewBox="0 0 64 64" xmlns="http://www.w3.org/2000/svg">
                  <path d="m27 32.8c.21 6.61 9.79 6.61 10 0-.21-6.6-9.79-6.6-10 0zm8 0a3 3 0 0 1 -6 0 3 3 0 0 1 6 0zm6 15c-.47-11.93-17.53-11.92-18 0v3a1 1 0 0 0 1 1h16a1 1 0 0 0 1-1zm-2 2h-2v-2.66a1 1 0 0 0 -2 0v2.69h-6v-2.69a1 1 0 0 0 -2 0v2.69h-2v-2a7 7 0 0 1 14 0zm6-7.8c.21 6.61 9.79 6.61 10 0-.21-6.64-9.79-6.64-10 0zm8 0a3 3 0 0 1 -6 0 3 3 0 0 1 6 0zm-3 6a9 9 0 0 0 -9 9v3a1 1 0 0 0 1 1h16a1 1 0 0 0 1-1v-3a9 9 0 0 0 -9-9zm7 11h-2v-2.7a1 1 0 0 0 -2 0v2.7h-6v-2.7a1 1 0 0 0 -2 0v2.7h-2v-2a7 7 0 0 1 14 0zm-43-12c6.61-.21 6.61-9.79 0-10-6.61.18-6.61 9.76 0 10zm0-8a3 3 0 0 1 0 6 3 3 0 0 1 0-6zm0 9a9 9 0 0 0 -9 9v3a1 1 0 0 0 1 1h16a1 1 0 0 0 1-1v-3a9 9 0 0 0 -9-9zm7 11h-2v-2.7a1 1 0 0 0 -2 0v2.7h-6v-2.7a1 1 0 0 0 -2 0v2.7h-2v-2a7 7 0 0 1 14 0zm4.47-42.57h3.08v3.08a3.45 3.45 0 0 0 6.9 0v-3.08h3.08a3.45 3.45 0 0 0 0-6.9h-3.08v-3.08a3.45 3.45 0 0 0 -6.9 0v3.08h-3.08a3.45 3.45 0 0 0 0 6.9zm0-4.9h4.08a1 1 0 0 0 1-1v-4.08a1.45 1.45 0 0 1 2.9 0v4.08a1 1 0 0 0 1 1h4.08a1.45 1.45 0 1 1 0 2.9c-6.11.09-5-1-5.08 5.08a1.45 1.45 0 0 1 -2.9 0v-4.08a1 1 0 0 0 -1-1h-4.08a1.45 1.45 0 0 1 0-2.9zm17.93 5.27a1 1 0 0 1 1.2-1.6 21 21 0 0 1 8 21 1 1 0 0 1 -2-.4 19 19 0 0 0 -7.2-19zm-32 19.4a21 21 0 0 1 7.9-20.92 1 1 0 0 1 1.21 1.59 19 19 0 0 0 -7.13 18.93 1 1 0 0 1 -1.96.4z"></path>
                </svg>