<svg version="1.1" id="Capa_1" xmlns="http://www.w3.org/2000/svg" xmlns:xlink="http://www.w3.org/1999/xlink" x="0px" y="0px" viewBox="0 0 512 512" style="enable-background:new 0 0 512 512;" xml:space="preserve">
                  <g>
                    <g>
                      <path d="M483.59,232.475h-80.84c11.571-22.884,17.656-48.255,17.656-74.139c0-34.964-10.709-68.065-31.034-96.153
                        c1.642-3.149,2.575-6.724,2.575-10.515c0-12.591-10.243-22.833-22.833-22.833c-12.59,0-22.833,10.243-22.833,22.833
                        c0,12.59,10.243,22.832,22.833,22.832c3.227,0,6.298-0.677,9.083-1.89c17.726,25.158,27.061,54.626,27.061,85.725
                        c0,26.111-6.807,51.648-19.7,74.139H126.442c-12.893-22.492-19.7-48.029-19.7-74.139c0-30.954,9.274-60.358,26.881-85.471
                        c2.621,1.051,5.477,1.635,8.47,1.635c12.59,0,22.833-10.243,22.833-22.832c0-12.591-10.243-22.833-22.833-22.833
                        c-12.59,0-22.833,10.243-22.833,22.833c0,4.048,1.063,7.851,2.919,11.151c-20.025,27.964-30.585,60.86-30.585,95.517
                        c0,25.883,6.085,51.254,17.655,74.139H28.41C12.745,232.475,0,245.22,0,260.886c0,4.183,3.391,7.574,7.574,7.574
                        c4.183,0,7.574-3.391,7.574-7.574c0-7.313,5.949-13.261,13.262-13.261h93.663c0.016,0,0.031,0.003,0.047,0.003
                        c0.015,0,0.029-0.003,0.044-0.003h267.688c0.01,0,0.02,0.002,0.029,0.002c0.01,0,0.021-0.002,0.031-0.002h93.678
                        c7.313,0,13.262,5.949,13.262,13.261V390.68c0,7.313-5.949,13.262-13.262,13.262h-8.198v-28.365c0-5.52-4.49-10.01-10.009-10.01
                        h-90.084v-43.923c11.078-3.275,19.187-13.537,19.187-25.663c0-14.756-12.005-26.761-26.761-26.761s-26.761,12.005-26.761,26.761
                        c0,12.126,8.109,22.388,19.187,25.663v43.923H46.894c-5.519,0-10.009,4.49-10.009,10.01v28.365H28.41
                        c-7.313,0-13.262-5.95-13.262-13.262v-98.957c0-4.183-3.391-7.574-7.574-7.574c-4.183,0-7.574,3.39-7.574,7.574v98.957
                        c0,15.666,12.745,28.41,28.41,28.41h220.155v13.025c0,28.15,22.902,51.051,51.052,51.051h24.63
                        c28.15,0,51.052-22.901,51.052-51.051v-51.399h84.945v23.227h-62.223c-4.183,0-7.574,3.391-7.574,7.574
                        c0,4.183,3.391,7.574,7.574,7.574h85.569c15.666,0,28.41-12.745,28.41-28.41V260.886C512,245.22,499.255,232.475,483.59,232.475z
                        M369.113,59.353c-4.238,0-7.685-3.447-7.685-7.684c0-4.238,3.447-7.685,7.685-7.685c4.238,0,7.685,3.448,7.685,7.685
                        S373.351,59.353,369.113,59.353z M142.093,43.983c4.238,0,7.685,3.448,7.685,7.685c0,4.237-3.447,7.684-7.685,7.684
                        s-7.685-3.447-7.685-7.684S137.855,43.983,142.093,43.983z M360.151,432.115c0,19.796-16.107,35.903-35.904,35.903h-24.63
                        c-19.797,0-35.904-16.107-35.904-35.903V419.09h96.438V432.115z M360.151,403.941H52.033v-23.227h308.118V403.941z
                        M367.724,307.594c-6.403,0-11.613-5.209-11.613-11.613c0-6.403,5.21-11.613,11.613-11.613s11.613,5.21,11.613,11.613
                        S374.127,307.594,367.724,307.594z"></path>
                    </g>
                  </g>
                  <g>
                    <g>
                      <circle cx="439.88" cy="345.87" r="7.574"></circle>
                    </g>
                  </g>
                  <g>
                    <g>
                      <circle cx="412.44" cy="345.87" r="7.574"></circle>
                    </g>
                  </g>
                  <g>
                    <g>
                      <circle cx="44.46" cy="345.87" r="7.574"></circle>
                    </g>
                  </g>
                  <g>
                    <g>
                      <path d="M307.706,111.034h-24.862V86.173c0-8.519-6.93-15.45-15.45-15.45h-22.788c-8.519,0-15.45,6.931-15.45,15.45
                        c0,4.183,3.391,7.574,7.574,7.574s7.574-3.391,7.574-7.574c0-0.167,0.136-0.302,0.302-0.302h22.788
                        c0.166,0,0.302,0.135,0.302,0.302v32.436c0,4.183,3.391,7.574,7.574,7.574h32.436c0.166,0,0.302,0.135,0.302,0.302v22.789
                        c0,0.167-0.136,0.302-0.302,0.302H275.27c-4.183,0-7.574,3.391-7.574,7.574v32.436c0,0.167-0.136,0.302-0.302,0.302h-22.788
                        c-0.166,0-0.302-0.135-0.302-0.302V157.15c0-4.183-3.391-7.574-7.574-7.574h-32.436c-0.166,0-0.302-0.135-0.302-0.302v-22.789
                        c0-0.167,0.136-0.302,0.302-0.302h32.436c4.183,0,7.574-3.391,7.574-7.574v-5.641c0-4.183-3.391-7.574-7.574-7.574
                        c-3.515,0-6.47,2.394-7.325,5.641h-25.111c-8.519,0-15.45,6.931-15.45,15.45v22.789c0,8.518,6.931,15.449,15.45,15.449h24.862
                        v24.862c0,8.519,6.93,15.45,15.45,15.45h22.788c8.519,0,15.45-6.931,15.45-15.45v-24.862h24.862c8.519,0,15.45-6.931,15.45-15.45
                        v-22.789C323.156,117.965,316.226,111.034,307.706,111.034z"></path>
                    </g>
                  </g>
                  <g></g>
                  <g></g>
                  <g></g>
                  <g></g>
                  <g></g>
                  <g></g>
                  <g></g>
                  <g></g>
                  <g></g>
                  <g></g>
                  <g></g>
                  <g></g>
                  <g></g>
                  <g></g>
                  <g></g>
                </svg>