<svg xmlns="http://www.w3.org/2000/svg" id="Icons" viewBox="0 0 70 70" width="512" height="512">
                  <path d="M57.8,31.33H45.65a1,1,0,1,1,0-2H56.8V5.79A2.79,2.79,0,0,0,54,3H16A2.79,2.79,0,0,0,13.2,5.79V29.33H24.35a1,1,0,0,1,0,2H12.2a1,1,0,0,1-1-1V5.79A4.8,4.8,0,0,1,16,1H54A4.8,4.8,0,0,1,58.8,5.79V30.33A1,1,0,0,1,57.8,31.33Z"></path>
                  <path d="M20.87,56.12H5.18a1,1,0,0,1-.8-.39,1,1,0,0,1-.16-.88l7-24.8a1,1,0,0,1,1-.73H24.35a1,1,0,0,1,0,2H13L6.5,54.12H20.87a1,1,0,0,1,0,2Z"></path>
                  <path d="M20,63.17H5.18a1,1,0,0,1-1-1V55.12a1,1,0,0,1,1-1H20.87a1,1,0,0,1,0,2H6.18v5.05H20a1,1,0,0,1,0,2Z"></path>
                  <path d="M61.52,69H55.69a1,1,0,0,1-1-1V62.17a1,1,0,0,1,1-1h5.83a1,1,0,0,1,1,1V68A1,1,0,0,1,61.52,69Zm-4.83-2h3.83V63.17H56.69Z"></path>
                  <path d="M15.22,69H9.39a1,1,0,0,1-1-1V62.17a1,1,0,0,1,1-1h5.83a1,1,0,0,1,1,1V68A1,1,0,0,1,15.22,69Zm-4.83-2h3.83V63.17H10.39Z"></path>
                  <path d="M41,37.48H29a2.19,2.19,0,0,1-2.2-2.19v-8a2.2,2.2,0,0,1,2.2-2.2H41a2.2,2.2,0,0,1,2.19,2.2v8A2.19,2.19,0,0,1,41,37.48ZM29,27.05a.2.2,0,0,0-.2.2v8a.19.19,0,0,0,.2.19H41a.18.18,0,0,0,.19-.19v-8a.19.19,0,0,0-.19-.2Z"></path>
                  <path d="M44.61,37.48H41a1,1,0,0,1,0-2h3.57a.77.77,0,0,0,.6-.28.73.73,0,0,0,.17-.63,96,96,0,0,0-1.94-9.77c-.29-.88-1.86-1.67-4.12-2.11a7.44,7.44,0,0,1-8.63,0c-2.27.44-3.83,1.24-4.13,2.1-.36,1.07-1,4.54-1.94,9.78a.76.76,0,0,0,.17.63.78.78,0,0,0,.61.28H29a1,1,0,0,1,0,2H25.4a2.81,2.81,0,0,1-2.13-1,2.77,2.77,0,0,1-.62-2.26,94.62,94.62,0,0,1,2-10.09c.74-2.17,3.72-3.1,6.1-3.51a1.05,1.05,0,0,1,.79.2,5.39,5.39,0,0,0,6.89,0,1,1,0,0,1,.78-.2c2.38.41,5.37,1.34,6.11,3.51.52,1.52,1.38,6.32,2,10.09a2.79,2.79,0,0,1-2.75,3.24Z"></path>
                  <path d="M35,21c-3.35,0-5.69-3.88-5.69-7.36A5.51,5.51,0,0,1,35,7.8a5.51,5.51,0,0,1,5.69,5.83C40.69,17.11,38.26,21,35,21ZM35,9.8a3.52,3.52,0,0,0-3.69,3.83C31.31,16.34,33.14,19,35,19s3.69-2.65,3.69-5.36A3.52,3.52,0,0,0,35,9.8Z"></path>
                  <path d="M48.65,68.42a4.28,4.28,0,0,1-2.58-.81,2.5,2.5,0,0,0-3,0,4.51,4.51,0,0,1-5.16,0,2.49,2.49,0,0,0-3,0,4.51,4.51,0,0,1-5.16,0,2.5,2.5,0,0,0-3,0,4.26,4.26,0,0,1-2.58.81,5.85,5.85,0,0,1-2.59-.52l-.34-.14A3.43,3.43,0,0,1,19,64.59a37.47,37.47,0,0,1,.16-4.21c.1-.53.26-1.06.41-1.58A6,6,0,0,0,20,55.74c-.58-2.05-1.18-4.22-1.77-6.4S17,45,16.47,43c-.41-1.43-1.35-4.78,1-6.64a4.27,4.27,0,0,1,2.71-.87c2.29,0,3,0,3.66,0H48.08a4.39,4.39,0,0,0,1.3-.38,3.39,3.39,0,0,1,2.73-.29,2.56,2.56,0,0,1,1.3,1.63A6,6,0,0,1,53.63,39c-.19,1.66-.51,4-.85,6.4-.55,4-1.39,10.06-1.25,11.12a10.59,10.59,0,0,0,.85,1.29c.27.38.56.76.81,1.19.6,1,.69,4.1.71,4.71a4.53,4.53,0,0,1-3,4.33A6.1,6.1,0,0,1,48.65,68.42Zm-4.08-3.31a4.31,4.31,0,0,1,2.58.81,2.31,2.31,0,0,0,1.5.5,4.08,4.08,0,0,0,1.59-.24,2.53,2.53,0,0,0,1.66-2.41A13.78,13.78,0,0,0,51.46,60c-.2-.35-.45-.68-.69-1a10.27,10.27,0,0,1-1.07-1.66c-.38-.77-.18-2.94,1.1-12.2.34-2.43.66-4.72.84-6.35a4,4,0,0,0-.13-1.72,1,1,0,0,0-.24-.45,3.54,3.54,0,0,0-1.15.33,5.54,5.54,0,0,1-2,.53H20.2a2.39,2.39,0,0,0-1.48.44c-.92.73-1,2.08-.33,4.52.58,2,1.17,4.22,1.77,6.38s1.18,4.34,1.76,6.38a7.63,7.63,0,0,1-.39,4.17c-.14.5-.28,1-.37,1.41-.06.3-.13,2.13-.12,3.8A1.43,1.43,0,0,0,22,65.89l.39.16a3.85,3.85,0,0,0,1.82.37,2.31,2.31,0,0,0,1.5-.5,4.51,4.51,0,0,1,5.16,0,2.31,2.31,0,0,0,1.5.5,2.35,2.35,0,0,0,1.5-.5,4.5,4.5,0,0,1,5.15,0,2.5,2.5,0,0,0,3,0A4.26,4.26,0,0,1,44.57,65.11Z"></path>
                  <path d="M64.82,56.12H50.57a1,1,0,0,1,0-2H63.5L57,31.32H45.65a1,1,0,0,1,0-2H57.8a1,1,0,0,1,1,.73l7,24.8a1,1,0,0,1-.16.88A1,1,0,0,1,64.82,56.12Z"></path>
                  <path d="M64.82,63.17h-12a1,1,0,0,1,0-2h11V56.12H50.57a1,1,0,0,1,0-2H64.82a1,1,0,0,1,1,1v7.05A1,1,0,0,1,64.82,63.17Z"></path>
                </svg>