<svg clip-rule="evenodd" fill-rule="evenodd" height="512" image-rendering="optimizeQuality" shape-rendering="geometricPrecision" text-rendering="geometricPrecision" viewBox="0 0 1.70666 1.70666" width="512" xmlns="http://www.w3.org/2000/svg">
                  <g id="Layer_x0020_1">
                    <path d="m1.2732.682791h-.205248c-.0110394 0-.02-.00895669-.02-.0199961v-.0903898c0-.00395669-.00333071-.00729134-.00729134-.00729134h-.374673c-.00395669 0-.00730709.00335039-.00730709.00729134v.0903898c0 .0110394-.00896063.0199961-.02.0199961h-.205244c-.0110394 0-.02-.00895669-.02-.0199961v-.14689c0-.0474685.0300984-.0816811.0748858-.0851142.035248-.00269291.0899803-.0724016.0944685-.120291.00333465-.0355827.0201535-.0789685.0814016-.0836654.0997598-.00766535.278472-.00765354.37824 0 .061248.00469291.0780827.0480827.0813976.0836654.00447244.0478898.0592244.117594.0944567.120291.0448189.00344488.0749173.037748.0749173.0853583v.146638c.00000394.0110472-.00896457.0200039-.0200039.0200039zm-.185236-.0399961h.165236v-.126638c0-.0270394-.0138346-.043626-.0379409-.0454685-.058252-.00445669-.125457-.0947756-.13122-.156445-.00365354-.0390394-.0236142-.0458976-.0446535-.0475118-.0977244-.00748819-.274394-.00748425-.372118 0-.0210276.00161417-.0409843.00848819-.0446378.0475118-.00576378.0616693-.0729724.15198-.131232.156445-.0237638.0018189-.0379409.0187323-.0379409.0452205v.126886h.16524v-.0703898c0-.0260827.0212244-.0472874.0473071-.0472874h.374669c.0260827 0 .0473071.0212047.0473071.0472874v.0703898h-.00001575z"></path>
                    <path d="m1.4038 1.28386h-1.10068c-.0126929 0-.0222244-.0118425-.0195433-.0242362l.130319-.601067c.002-.00919685.010126-.0157638.0195433-.0157638h.205244c.0425787 0 .00343307.101902.0273071.101902l.374673-.00000394c.0238386 0-.0152756-.101906.0272913-.101906l.205248.00000787c.00941732 0 .0175512.00656693.0195433.0157638l.131055.605303c-.00000394.0110472-.00894882.02-.0200039.02zm-1.07589-.0400079h1.0508l-.121634-.561063h-.169122c0 .0372913.00962205.101906-.0473071.101906l-.374657-.00000394c-.0569291 0-.0473071-.0646102-.0473071-.101906l-.169118.00000394-.121654.561063z"></path>
                    <path d="m1.37988 1.1748h-1.0531c-.0263268 0-.0263268-.04 0-.04h1.0531c.0263268 0 .0263307.04 0 .04z"></path>
                    <path d="m1.32062.901413h-.934579c-.0263268 0-.0263268-.04 0-.04h.934579c.0263307 0 .026315.04 0 .04z"></path>
                    <path d="m1.47217 1.57016h-1.23768c-.0110394 0-.02-.0089685-.02-.02v-.217665c0-.0488858.0397638-.0886496.0886378-.0886496l1.10039.00000787c.0488858 0 .0886496.0397638.0886496.0886496v.217665c0 .0110394-.00896063.0199921-.02.0199921zm-1.21768-.0400079h1.19767v-.19765c0-.0268346-.0218031-.0486417-.0486378-.0486417h-1.10039c-.0268189 0-.0486378.0218071-.0486378.0486417l.00000394.19765z"></path>
                    <path d="m.334488 1.47018c-.0110394 0-.02-.00897244-.02-.02v-.0863189c0-.0110394.00896063-.02.02-.02h.262661c.0263228 0 .0263228.04 0 .04h-.242665c0 .0421417.00848031.0863189-.0199961.0863189z"></path>
                    <path d="m1.32267 1.70665h-.0653189c-.0077874 0-.0148583-.00452756-.0181496-.0115945l-.0633071-.136484c-.00612205-.0132126.00357874-.0284134.0181535-.0284134h.128622c.0110394 0 .02.0089685.02.02v.136496c0 .0110394-.00895669.0199961-.02.0199961zm-.0525394-.0399961h.0325394v-.0964724h-.0772913l.044752.0964724z"></path>
                    <path d="m.449287 1.70665c-.0415787 0-.085315.0083937-.085315-.0199961v-.136488c0-.0110394.00896063-.02.02-.02h.128622c.0145827 0 .0242717.0152087.0181339.0284173l-.0633031.136484c-.00327559.00705512-.0103465.0115827-.0181378.0115827zm-.045315-.0399961h.0325394l.044748-.0964724h-.0772874z"></path>
                    <path d="m1.04067.784693h-.374689c-.0260827 0-.0472913-.0212087-.0472913-.0472913v-.165c0-.0260827.0212087-.0472913.0472913-.0472913l.374689.00000787c.0260866 0 .0473071.0212047.0473071.0472874v.165c.00001181.026063-.0212205.0472874-.0473071.0472874zm-.374689-.219594c-.00395669 0-.00729134.00335039-.00729134.00729134v.165c0 .00396063.00335039.00729134.00729134.00729134h.374689c.00396063 0 .00729134-.00334646.00729134-.00729134v-.165c0-.00395669-.00333071-.00729134-.00729134-.00729134z"></path>
                    <path d="m.433441.682791c-.0110394 0-.02-.00895669-.02-.0199961v-.478909c0-.0263307.04-.0263307.04 0v.478909c0 .0110394-.00895669.0199961-.02.0199961z"></path>
                    <path d="m.433441.203886c-.0562087 0-.101929-.0457244-.101929-.101933 0-.0562087.0457205-.101937.101929-.101937.0562087 0 .101929.0457205.101929.101937 0 .0561929-.0457205.101933-.101929.101933zm0-.16389c-.0814921 0-.0815276.123874 0 .123874.0815197 0 .0815039-.123874 0-.123874z"></path>
                    <path d="m1.2732.682791c-.0110394 0-.02-.00895669-.02-.0199961v-.478909c0-.0263268.04-.0263268.04 0v.478909c.00000787.0110394-.00896063.0199961-.02.0199961z"></path>
                    <path d="m1.2732.203886c-.0562087 0-.101941-.0457244-.101941-.101933 0-.0562087.0457362-.101937.101941-.101937.0562008 0 .101937.0457205.101937.101937 0 .0561929-.0457283.101933-.101937.101933zm0-.16389c-.0815079 0-.0815236.123874 0 .123874.0815197 0 .0815039-.123874 0-.123874z"></path>
                  </g>
                </svg>