<svg xmlns="http://www.w3.org/2000/svg" width="300" height="300" viewBox="0 0 128 128" version="1.1" xmlns:xlink="http://www.w3.org/1999/xlink" xmlns:svgjs="http://svgjs.dev/svgjs"><g width="100%" height="100%" transform="matrix(1,0,0,1,0,0)"><g><path d="M128,77.673a15.908,15.908,0,0,0-15.89-15.89h-3.22A15.88,15.88,0,0,0,104.75,93h0a23.5,23.5,0,0,1-47,0V81.062H59.5a1.751,1.751,0,0,0,1.75-1.75V70.754A6.257,6.257,0,0,1,67.5,64.5a1.749,1.749,0,0,0,1.75-1.75V61A34.9,34.9,0,0,0,104,26.145V23A16.77,16.77,0,0,0,87.25,6.254h-13.6V6.221a6.219,6.219,0,1,0-12.438,0V17.789a6.219,6.219,0,0,0,12.438,0v-.035h13.6A5.256,5.256,0,0,1,92.5,23v3.141A23.385,23.385,0,0,1,69.25,49.5V47.754A1.75,1.75,0,0,0,67.5,46h-31a1.751,1.751,0,0,0-1.75,1.75V49.5A23.385,23.385,0,0,1,11.5,26.145V23a5.256,5.256,0,0,1,5.25-5.25h13.6v.035a6.219,6.219,0,0,0,12.438,0V6.221a6.219,6.219,0,0,0-12.438,0v.033H16.75A16.77,16.77,0,0,0,0,23v3.141A34.9,34.9,0,0,0,34.75,61v1.752A1.75,1.75,0,0,0,36.5,64.5a6.257,6.257,0,0,1,6.25,6.25v8.558a1.751,1.751,0,0,0,1.75,1.75h1.75V93a35,35,0,0,0,70,0h0A15.9,15.9,0,0,0,128,77.673ZM70.149,17.789a2.719,2.719,0,0,1-5.438,0V6.221a2.719,2.719,0,1,1,5.438,0ZM33.851,6.221a2.719,2.719,0,0,1,5.438,0V17.789a2.719,2.719,0,0,1-5.438,0ZM96,26.145V23a8.76,8.76,0,0,0-8.75-8.75H73.75v-4.5h13.5A13.265,13.265,0,0,1,100.5,23v3.141A31.4,31.4,0,0,1,69.25,57.5V53A26.889,26.889,0,0,0,96,26.145ZM57.234,49.5v.172a5.234,5.234,0,1,1-10.468,0V49.5ZM3.5,26.145V23A13.265,13.265,0,0,1,16.75,9.754h13.5v4.5H16.75A8.76,8.76,0,0,0,8,23v3.141A26.889,26.889,0,0,0,34.75,53v4.5A31.4,31.4,0,0,1,3.5,26.145ZM38.25,61.162V49.5h5.016v.172a8.734,8.734,0,1,0,17.468,0V49.5H65.75V61.162a9.766,9.766,0,0,0-8,9.592v6.808H46.25V70.754A9.766,9.766,0,0,0,38.25,61.162Zm74.5,32.4A31.5,31.5,0,0,1,49.75,93V81.062h4.5V93a27,27,0,0,0,53.994.565h4.5Zm-.625-3.5h-3.24a12.39,12.39,0,0,1,.01-24.78h3.22a12.39,12.39,0,0,1,.01,24.78Z" fill="#ffffff" fill-opacity="1" data-original-color="#000000ff" stroke="none" stroke-opacity="1"/><path d="M112.11,69.783h-3.22a7.89,7.89,0,1,0,0,15.78h3.22a7.89,7.89,0,1,0,0-15.78Zm0,12.28h-3.22a4.39,4.39,0,1,1,0-8.78h3.22a4.39,4.39,0,1,1,0,8.78Z" fill="#ffffff" fill-opacity="1" data-original-color="#000000ff" stroke="none" stroke-opacity="1"/></g></g></svg>