<svg id="Outline" height="300" viewBox="0 0 148 148" width="300" xmlns="http://www.w3.org/2000/svg" version="1.1" xmlns:xlink="http://www.w3.org/1999/xlink" xmlns:svgjs="http://svgjs.dev/svgjs"><g width="100%" height="100%" transform="matrix(1,0,0,1,0,0)"><path d="m74 145a71 71 0 1 1 71-71 71.0806 71.0806 0 0 1 -71 71zm0-138a67 67 0 1 0 67 67 67.076 67.076 0 0 0 -67-67z" fill="#ffffff" fill-opacity="1" data-original-color="#000000ff" stroke="none" stroke-opacity="1"/><path d="m74 137a63 63 0 1 1 63-63 63.0714 63.0714 0 0 1 -63 63zm0-122a59 59 0 1 0 59 59 59.0668 59.0668 0 0 0 -59-59z" fill="#ffffff" fill-opacity="1" data-original-color="#000000ff" stroke="none" stroke-opacity="1"/><path d="m82 125h-16a6.0066 6.0066 0 0 1 -6-6v-29a2.002 2.002 0 0 0 -2-2h-29a6.0066 6.0066 0 0 1 -6-6v-16a6.0066 6.0066 0 0 1 6-6h29a2.002 2.002 0 0 0 2-2v-29a6.0066 6.0066 0 0 1 6-6h16a6.0066 6.0066 0 0 1 6 6v29a2.002 2.002 0 0 0 2 2h29a6.0066 6.0066 0 0 1 6 6v16a6.0066 6.0066 0 0 1 -6 6h-29a2.002 2.002 0 0 0 -2 2v29a6.0066 6.0066 0 0 1 -6 6zm-53-61a2.002 2.002 0 0 0 -2 2v16a2.002 2.002 0 0 0 2 2h29a6.0066 6.0066 0 0 1 6 6v29a2.002 2.002 0 0 0 2 2h16a2.002 2.002 0 0 0 2-2v-29a6.0066 6.0066 0 0 1 6-6h29a2.002 2.002 0 0 0 2-2v-16a2.002 2.002 0 0 0 -2-2h-29a6.0066 6.0066 0 0 1 -6-6v-29a2.002 2.002 0 0 0 -2-2h-16a2.002 2.002 0 0 0 -2 2v29a6.0066 6.0066 0 0 1 -6 6z" fill="#ffffff" fill-opacity="1" data-original-color="#000000ff" stroke="none" stroke-opacity="1"/></g></svg>