<svg clip-rule="evenodd" fill-rule="evenodd" stroke-linejoin="round" stroke-miterlimit="2" viewBox="0 0 510 510" xmlns="http://www.w3.org/2000/svg" width="300" height="300" version="1.1" xmlns:xlink="http://www.w3.org/1999/xlink" xmlns:svgjs="http://svgjs.dev/svgjs"><g width="100%" height="100%" transform="matrix(1,0,0,1,0,0)"><path d="m244.262 421.829-44.259 76.671c-1.375 2.383-4.02 3.739-6.758 3.465-2.737-.273-5.061-2.125-5.939-4.733l-15.793-46.946-48.554 9.812c-2.698.545-5.464-.541-7.071-2.775-1.606-2.235-1.754-5.203-.378-7.586l40.435-70.028c-23.279-24.502-37.564-57.63-37.564-94.092 0-75.434 61.174-136.609 136.629-136.609 75.434 0 136.609 61.175 136.609 136.609 0 36.458-14.282 69.582-37.553 94.082l40.424 70.039c1.376 2.383 1.228 5.351-.379 7.585-1.606 2.235-4.373 3.32-7.07 2.775l-48.552-9.811-15.774 46.943c-.877 2.608-3.2 4.461-5.938 4.735-2.739.274-5.383-1.081-6.759-3.464l-44.276-76.671c-3.541.276-7.12.416-10.732.416-3.618 0-7.202-.141-10.748-.417zm-77.868-32.218-31.003 53.692 39.401-7.962c3.459-.699 6.897 1.285 8.022 4.629l12.817 38.1 33.624-58.248c-23.693-4.52-45.216-15.16-62.861-30.211zm177.224-.007c-17.647 15.057-39.173 25.7-62.868 30.219 10.538 18.248 33.635 58.244 33.635 58.244l12.801-38.095c1.124-3.345 4.562-5.33 8.022-4.631l39.404 7.963zm-88.608-226.596c-67.722 0-122.629 54.905-122.629 122.609 0 67.722 54.906 122.629 122.629 122.629 67.703 0 122.609-54.907 122.609-122.629 0-67.703-54.906-122.609-122.609-122.609zm0 218.296c-52.711 0-95.687-42.976-95.687-95.687 0-52.69 42.976-95.688 95.687-95.688 52.69 0 95.688 42.998 95.688 95.688 0 52.711-42.998 95.687-95.688 95.687zm0-14c44.981 0 81.688-36.688 81.688-81.687 0-44.981-36.707-81.688-81.688-81.688-44.999 0-81.687 36.707-81.687 81.688 0 44.999 36.688 81.687 81.687 81.687zm-22.879-104.567v-17.426c0-6.946 5.631-12.577 12.577-12.577h20.605c6.946 0 12.577 5.631 12.576 12.577v17.426h17.427c6.946 0 12.577 5.631 12.577 12.577v20.605c0 6.946-5.631 12.577-12.577 12.577h-17.427v17.427c.001 6.946-5.63 12.577-12.576 12.577h-20.605c-6.946 0-12.577-5.631-12.577-12.577v-17.427h-17.427c-6.946 0-12.577-5.631-12.577-12.577v-20.605c0-6.946 5.631-12.577 12.577-12.577zm-16.004 14v17.759h23.004c3.866 0 7 3.134 7 7v23.004h17.758v-23.004c0-3.866 3.135-7 7-7h23.004v-17.759h-23.004c-3.865 0-7-3.134-7-7v-23.003h-17.758v23.003c0 3.866-3.134 7-7 7zm45.53-263.9 11.541 35.52h37.348c3.033 0 5.72 1.952 6.658 4.836.937 2.885-.09 6.044-2.543 7.827l-30.215 21.952 11.541 35.52c.937 2.884-.09 6.044-2.543 7.826-2.454 1.783-5.776 1.783-8.229 0l-30.215-21.952-30.215 21.952c-2.453 1.783-5.775 1.783-8.229 0-2.453-1.782-3.48-4.942-2.543-7.826l11.541-35.52-30.215-21.952c-2.453-1.783-3.48-4.942-2.543-7.827.938-2.884 3.625-4.836 6.658-4.836h37.348l11.541-35.52c.937-2.884 3.624-4.837 6.657-4.837s5.72 1.953 6.657 4.837zm-6.657 24.815-6.455 19.868c-.937 2.884-3.625 4.837-6.658 4.837h-20.889l16.9 12.278c2.453 1.783 3.48 4.942 2.543 7.826l-6.456 19.868 16.901-12.279c2.453-1.782 5.775-1.782 8.228 0l16.901 12.279-6.456-19.868c-.937-2.884.09-6.043 2.543-7.826l16.9-12.278h-20.889c-3.033 0-5.721-1.953-6.658-4.837zm150.891 28.012 11.541 35.52h37.348c3.033 0 5.72 1.953 6.657 4.837s-.089 6.044-2.543 7.826l-30.214 21.953 11.541 35.519c.937 2.885-.09 6.044-2.543 7.827-2.454 1.782-5.776 1.782-8.229 0l-30.215-21.953-30.215 21.953c-2.454 1.782-5.776 1.782-8.229 0-2.454-1.783-3.48-4.942-2.543-7.827l11.541-35.519-30.215-21.953c-2.453-1.782-3.48-4.942-2.543-7.826s3.625-4.837 6.658-4.837h37.347l11.541-35.52c.938-2.884 3.625-4.837 6.658-4.837 3.032 0 5.72 1.953 6.657 4.837zm-6.657 24.816-6.455 19.867c-.938 2.884-3.625 4.837-6.658 4.837h-20.89l16.901 12.279c2.453 1.782 3.48 4.942 2.542 7.826l-6.455 19.867 16.9-12.278c2.454-1.783 5.776-1.783 8.229 0l16.9 12.278-6.455-19.867c-.937-2.884.09-6.044 2.543-7.826l16.9-12.279h-20.89c-3.032 0-5.72-1.953-6.657-4.837zm-281.81-24.816 11.541 35.52h37.347c3.033 0 5.721 1.953 6.658 4.837s-.09 6.044-2.543 7.826l-30.215 21.953 11.541 35.519c.937 2.885-.089 6.044-2.543 7.827-2.453 1.782-5.775 1.782-8.229 0l-30.215-21.953-30.215 21.953c-2.453 1.782-5.775 1.782-8.229 0-2.453-1.783-3.48-4.942-2.543-7.827l11.541-35.519-30.214-21.953c-2.454-1.782-3.48-4.942-2.543-7.826s3.624-4.837 6.657-4.837h37.348l11.541-35.52c.937-2.884 3.625-4.837 6.657-4.837 3.033 0 5.72 1.953 6.658 4.837zm-6.658 24.816-6.455 19.867c-.937 2.884-3.625 4.837-6.657 4.837h-20.89l16.9 12.279c2.453 1.782 3.48 4.942 2.543 7.826l-6.455 19.867 16.9-12.278c2.453-1.783 5.775-1.783 8.229 0l16.9 12.278-6.455-19.867c-.938-2.884.089-6.044 2.542-7.826l16.901-12.279h-20.89c-3.033 0-5.72-1.953-6.658-4.837z" fill="#ffffff" fill-opacity="1" data-original-color="#000000ff" stroke="none" stroke-opacity="1"/></g></svg>