<svg xmlns="http://www.w3.org/2000/svg" data-name="Layer 1" id="Layer_1" viewBox="0 0 24 24" width="300" height="300" version="1.1" xmlns:xlink="http://www.w3.org/1999/xlink" xmlns:svgjs="http://svgjs.dev/svgjs"><g width="100%" height="100%" transform="matrix(1,0,0,1,0,0)"><title/><path d="M6.435,2.853a.367.367,0,1,0,.651-.338l-.627-1.2a.367.367,0,1,0-.651.339Z" fill="#ffffff" fill-opacity="1" data-original-color="#000000ff" stroke="none" stroke-opacity="1"/><path d="M4.12,3.786l1.232.52a.422.422,0,0,0,.084.024.367.367,0,0,0,.2-.7L4.405,3.11a.367.367,0,1,0-.285.676Z" fill="#ffffff" fill-opacity="1" data-original-color="#000000ff" stroke="none" stroke-opacity="1"/><path d="M8.453,2.683l.02,0A.366.366,0,0,0,8.889,2.4L9.172,1.1A.367.367,0,1,0,8.455.94L8.172,2.247A.367.367,0,0,0,8.453,2.683Z" fill="#ffffff" fill-opacity="1" data-original-color="#000000ff" stroke="none" stroke-opacity="1"/><path d="M18.192,1.649a.367.367,0,0,0-.652-.339l-.627,1.205a.368.368,0,0,0,.157.495.366.366,0,0,0,.5-.157Z" fill="#ffffff" fill-opacity="1" data-original-color="#000000ff" stroke="none" stroke-opacity="1"/><path d="M20.075,3.305a.366.366,0,0,0-.481-.2l-1.231.519a.367.367,0,0,0,.2.7.442.442,0,0,0,.084-.024l1.232-.52A.367.367,0,0,0,20.075,3.305Z" fill="#ffffff" fill-opacity="1" data-original-color="#000000ff" stroke="none" stroke-opacity="1"/><path d="M15.828,2.247,15.545.94a.367.367,0,0,0-.718.156L15.11,2.4a.367.367,0,0,0,.417.285l.02,0A.367.367,0,0,0,15.828,2.247Z" fill="#ffffff" fill-opacity="1" data-original-color="#000000ff" stroke="none" stroke-opacity="1"/><path d="M5.679,21.35a.366.366,0,0,1-.294-.148A36.16,36.16,0,0,0,2.342,17.5,5.54,5.54,0,0,1,.275,11.762L.566,9.831c.139-.935.278-1.87.427-2.8.09-.571.184-1.142.292-1.71.041-.212.083-.423.132-.632l.022-.1A1.169,1.169,0,0,1,1.765,3.9a1.209,1.209,0,0,1,.746-.306,1.015,1.015,0,0,1,.943.533A3.935,3.935,0,0,1,3.859,6a21.138,21.138,0,0,1-.22,3.511c.587.128.867.72,1.182,1.387a8.114,8.114,0,0,0,1.763,2.6,11.609,11.609,0,0,1,3,5.457.363.363,0,0,1-.18.391L5.854,21.306A.367.367,0,0,1,5.679,21.35ZM2.577,4.314H2.561a.5.5,0,0,0-.3.114.565.565,0,0,0-.11.3l-.026.12c-.046.2-.087.4-.125.605-.107.561-.2,1.124-.289,1.688-.148.932-.287,1.864-.426,2.8L.991,11.872a4.782,4.782,0,0,0,1.8,5.049,32.541,32.541,0,0,1,3,3.6l3.03-1.667a11.024,11.024,0,0,0-2.734-4.826A8.864,8.864,0,0,1,4.165,11.21c-.4-.848-.53-1.037-.886-.987h0a1.31,1.31,0,0,0-.193.047.434.434,0,0,0-.3.266c-.208.546.215,1.72,1.258,3.488l.672,1.21a.363.363,0,1,1-.635.35l-.662-1.191c-.814-1.381-1.7-3.1-1.31-4.115a1.15,1.15,0,0,1,.756-.7L2.9,9.567A21.042,21.042,0,0,0,3.134,6.03a3.38,3.38,0,0,0-.3-1.53A.317.317,0,0,0,2.577,4.314Z" fill="#ffffff" fill-opacity="1" data-original-color="#000000ff" stroke="none" stroke-opacity="1"/><path d="M5.8,23.349a.962.962,0,0,1-.845-.5l-.329-.595A.967.967,0,0,1,5,20.945l4.641-2.552a.964.964,0,0,1,1.308.38l.328.6a.963.963,0,0,1-.38,1.307L6.26,23.23h0A.952.952,0,0,1,5.8,23.349Zm.288-.437h0ZM10.106,19a.232.232,0,0,0-.112.03L5.352,21.581a.24.24,0,0,0-.093.324l.328.595a.24.24,0,0,0,.323.094l4.64-2.553a.239.239,0,0,0,.113-.143.232.232,0,0,0-.019-.179l-.328-.6a.232.232,0,0,0-.143-.113A.2.2,0,0,0,10.106,19Z" fill="#ffffff" fill-opacity="1" data-original-color="#000000ff" stroke="none" stroke-opacity="1"/><path d="M18.321,21.35a.364.364,0,0,1-.175-.044l-3.552-1.954a.364.364,0,0,1-.181-.391,11.605,11.605,0,0,1,3-5.457,8.081,8.081,0,0,0,1.762-2.6c.316-.666.6-1.259,1.183-1.387A20.989,20.989,0,0,1,20.141,6a3.919,3.919,0,0,1,.405-1.878,1,1,0,0,1,.943-.533,1.209,1.209,0,0,1,.746.307,1.164,1.164,0,0,1,.325.681l.023.1c.049.211.09.422.131.634.109.568.2,1.139.293,1.71.145.912.281,1.824.417,2.737l.3,2A5.5,5.5,0,0,1,21.7,17.456,36,36,0,0,0,18.614,21.2.364.364,0,0,1,18.321,21.35Zm-3.134-2.5,3.03,1.666A32.6,32.6,0,0,1,21.17,16.96a4.816,4.816,0,0,0,1.838-5.088l-.3-2c-.136-.91-.271-1.821-.416-2.73-.09-.563-.182-1.127-.289-1.688-.039-.2-.078-.4-.125-.605l-.026-.122a.565.565,0,0,0-.11-.3.5.5,0,0,0-.3-.115c-.1-.011-.193.056-.272.186a3.371,3.371,0,0,0-.3,1.529A20.893,20.893,0,0,0,21.1,9.567l.044.014a1.147,1.147,0,0,1,.753.7c.389,1.017-.495,2.732-1.307,4.113l-.664,1.194a.363.363,0,1,1-.636-.35l.674-1.213c1.042-1.768,1.464-2.94,1.256-3.485a.422.422,0,0,0-.3-.265,1.32,1.32,0,0,0-.2-.048h0c-.359-.051-.485.14-.886.987a8.83,8.83,0,0,1-1.914,2.814A10.987,10.987,0,0,0,15.187,18.85Z" fill="#ffffff" fill-opacity="1" data-original-color="#000000ff" stroke="none" stroke-opacity="1"/><path d="M18.2,23.348a.947.947,0,0,1-.461-.118L13.1,20.676a.963.963,0,0,1-.379-1.307l.327-.6a.958.958,0,0,1,.576-.461.969.969,0,0,1,.733.081L19,20.945a.966.966,0,0,1,.379,1.308l-.328.6A.966.966,0,0,1,18.2,23.348ZM13.893,19a.191.191,0,0,0-.066.011.231.231,0,0,0-.143.112l-.328.6a.228.228,0,0,0-.019.179.233.233,0,0,0,.112.143h0l4.64,2.553a.236.236,0,0,0,.323-.094l.328-.6a.239.239,0,0,0-.094-.323l-4.64-2.552A.242.242,0,0,0,13.893,19Z" fill="#ffffff" fill-opacity="1" data-original-color="#000000ff" stroke="none" stroke-opacity="1"/><path d="M12,15c-.168,0-.562,0-5.148-4.459a4.53,4.53,0,0,1-.023-6.226,3.97,3.97,0,0,1,5.17-.3,3.967,3.967,0,0,1,5.17.3,4.5,4.5,0,0,1,0,6.2C12.558,15,12.167,15,12,15ZM9.48,3.94a2.91,2.91,0,0,0-2.128.882,3.788,3.788,0,0,0,0,5.2A61.96,61.96,0,0,0,12,14.245a62.536,62.536,0,0,0,4.657-4.235,3.773,3.773,0,0,0-.009-5.186,3.293,3.293,0,0,0-4.428-.065.359.359,0,0,1-.44,0A3.81,3.81,0,0,0,9.48,3.94Z" fill="#ffffff" fill-opacity="1" data-original-color="#000000ff" stroke="none" stroke-opacity="1"/></g></svg>