<svg id="Layer_1" enable-background="new 0 0 64 64" viewBox="0 0 64 64" xmlns="http://www.w3.org/2000/svg"><path d="m64 36.8v-3.2c0-1.2-1-2.3-2.2-2.3v-.8h.3c.3 0 .5-.2.5-.5v-1.2h.5c.5 0 .9-.4.9-.9v-1.2c0-.5-.4-.9-.9-.9h-12.7c-.5 0-.9.4-.9.9v1.3c0 .5.4.9.9.9h.5v1.2c0 .3.2.5.5.5h.3v.8c-1.2 0-2.2 1.1-2.2 2.3v3.2s0 0 0 0v16.9c0 1.3 1 2.3 2.3 2.3h9.9c1.3 0 2.3-1 2.3-2.3v-17c0 .1 0 .1 0 0zm-12.1-7.9h9.7v.7h-9.7zm8.9 1.7v.8h-8.1v-.8zm2.2 19.1h-12.5v-12.4h12.5zm0-13.3h-12.5v-2.7c0-.7.6-1.3 1.3-1.3h.4s0 0 0 0h9.1s0 0 0 0h.4c.7 0 1.3.6 1.3 1.3z"></path><path d="m51.9 44.9c.3 0 .5-.2.5-.5v-.4h.7c.1.6.3 1.2.7 1.7l-.5.5-.2-.2c-.2-.2-.5-.2-.7 0s-.2.5 0 .7l1.2 1.2c.1.1.2.1.3.1s.3 0 .3-.1c.2-.2.2-.5 0-.7l-.2-.3.5-.5c.5.4 1.1.6 1.7.7v.7h-.4c-.3 0-.5.2-.5.5s.2.5.5.5h1.7c.3 0 .5-.2.5-.5s-.2-.5-.5-.5h-.4v-.7c.6-.1 1.2-.3 1.7-.7l.5.5-.3.3c-.2.2-.2.5 0 .7.1.1.2.1.3.1s.3 0 .3-.1l1.2-1.2c.2-.2.2-.5 0-.7s-.5-.2-.7 0l-.3.3-.5-.5c.4-.5.6-1.1.7-1.7h.7v.4c0 .3.2.5.5.5s.5-.2.5-.5v-1.7c0-.3-.2-.5-.5-.5s-.5.2-.5.5v.2h-.7c-.1-.7-.3-1.2-.7-1.7l.5-.5.3.3c.1.1.2.1.3.1s.3 0 .3-.1c.2-.2.2-.5 0-.7l-.6-.6-.6-.6c-.2-.2-.5-.2-.7 0s-.2.5 0 .7l.3.3-.1.4c-.5-.4-1.1-.6-1.7-.7v-.7h.4c.3 0 .5-.2.5-.5s-.2-.5-.5-.5h-1.7c-.3 0-.5.2-.5.5s.2.5.5.5h.4v.7c-.7.1-1.2.3-1.7.7l-.7-.5.3-.3c.2-.2.2-.5 0-.7s-.5-.2-.7 0l-1.2 1.2c-.2.2-.2.5 0 .7.1.1.2.1.3.1s.3 0 .3-.1l.3-.3.5.5c-.4.5-.6 1.1-.7 1.7h-.7v-.4c0-.3-.2-.5-.5-.5s-.5.2-.5.5v1.7c0 .4.2.7.5.7z"></path><path d="m50 15.5c.2.1.5.2.7.2h.3c.4-.1.7-.3.9-.6s.2-.7.2-1.1c-.1-.4-.3-.7-.6-.8l-1.5-.9 1.1-1.9.7.5c.2.1.5.2.7.2.5 0 .9-.2 1.1-.6.2-.3.2-.7.1-1-.1-.4-.3-.6-.6-.8l-4.1-2.7c-.6-.4-1.4-.2-1.8.5-.2.3-.2.7-.2 1 .1.4.3.6.6.8l.7.4-1.1 1.9-1.5-.9c-.6-.4-1.5-.2-1.9.5s-.2 1.5.5 1.9l.5.3-1.2 1.9-3.4 5.7c-.5.8-.4 1.7 0 2.4l-.5.8c-.3.6-.3 1.2.1 1.7l-.8 1.3c-1.3-2.1-2.7-3.6-4.2-4.6-1-.7-2.1-.9-3.2-.7-2.1.4-3.2 2.3-3.2 5.9l.1 1.3-1.9-1.3c-.4-.3-.7-.8-.7-1.3v-14.8c0-.7-.6-1.3-1.3-1.3h-1.4c-.3 0-.7.1-.9.4-.2.2-.4.6-.4.9v14.6c0 .5-.3 1-.7 1.3l-1.8 1.3.1-1.2c0-3.6-1.1-5.5-3.2-5.9-1-.2-2.2.1-3.2.7-2.1 1.4-3.9 3.7-5.4 6.9l-5 7.8c-1.1 1.7-1.8 3.6-2.2 5.5-.7 4-1.5 11.3 2 15.4.6.7 1.4 1.1 2.3 1.1.6 0 1.2-.2 1.8-.6l2.4-1.7c.3-.2.6-.4 1-.6 1.7-.9 3.1-1.3 4.1-1.3s2.5-.1 3.8-.8h.1c1.6-.9 2.5-2.7 2.5-4.6v-2.9c0-1.5-.2-3-.5-4.4l-.4-1.6c-.4-1.7-.6-3.5-.5-5.3v-.1l4-3c.5-.4 1.2-.4 1.7 0l4 3.1v.1c.1 1.8 0 3.6-.5 5.3l-.4 1.6c-.3 1.4-.5 2.9-.5 4.4v2.9c0 1.9 1 3.7 2.5 4.6h.1c1.3.7 2.8.8 3.8.8 1.1 0 2.4.4 4.1 1.3.3.2.6.4 1 .6l2.4 1.7c.5.4 1.2.6 1.8.6.9 0 1.7-.4 2.3-1.1 3.4-4 2.7-11.4 2-15.4-.4-1.9-1.1-3.8-2.2-5.5l-5-7.7c-.2-.5-.5-.9-.7-1.4l1.1-1.8h.3.4c.4-.1.7-.3.9-.7l.5-.8h.3c.8 0 1.5-.4 1.9-1.1l.2-.3 1-1.7 1-1.7 1-1.7 1.2-1.9zm-32.8 14.3s-2 2.5-3.6 5.4c.6 1.2 3.3 6.3 2.7 9.8 0 .2-.2.4-.5.4h-.1c-.3 0-.5-.3-.4-.6.4-2.8-1.4-6.8-2.3-8.6-.7 1.5-1 3.2-1.1 4.8-.2 5.3-1.4 8.5-3.9 9.8-.1 0-.1 0-.2 0-.2 0-.4-.1-.4-.3-.1-.2 0-.5.2-.7 2-1 3.1-3.9 3.3-8.6-.5-.1-1.7 0-3 2-.3.8-1.4 2.1-3.2 2.1-.3 0-.7 0-1.1-.2-.3-.1-.4-.3-.3-.6s.4-.4.6-.3c2.2.6 3.1-1.4 3.1-1.5 1.5-2.4 3.1-2.6 3.9-2.5.1-1.7.5-3.3 1.2-4.8.1-.2.2-.4.3-.6v-.1c.2-.4.4-.7.6-1.1.6-1 1.1-1.9 1.7-2.6-.6-.2-1.8-.1-3.3 1.4-.5.5-1 .9-1.6 1.3l-2.4 1.6c-.1.1-.2.1-.3.1-.2 0-.3-.1-.4-.2 0 .1.1-.2.3-.4l2.4-1.6c.6-.4 1-.8 1.5-1.2 2.1-2.1 3.8-1.9 4.6-1.5.5-.7.9-1.2 1-1.2.2-.2.5-.2.7-.1s.2.4 0 .6zm8.3.6c-.9-.6-2.1-.6-2.9 0l-3.3 2.5.2-3.7 2.5-1.7c.7-.5 1.1-1.3 1.1-2.1v-14.7c0-.1 0-.1.1-.2.1 0 .1-.1.2-.1h1.4c.2 0 .3.1.3.3v14.6c0 .8.4 1.6 1.1 2.1l2.5 1.8.2 3.7zm15.6 4.4c.2.1.3.5.1.7-.1.1-.2.2-.4.2-.1 0-.2 0-.3-.1l-2.4-1.6c-.6-.4-1.2-.9-1.6-1.3-1.5-1.5-2.7-1.5-3.3-1.4.8 1.2 1.8 2.7 2.6 4.4.7 1.5 1.1 3.1 1.2 4.8.8-.1 2.4.1 3.9 2.4.1.2 1 2.2 3.2 1.6.3-.1.5.1.6.3.1.3-.1.5-.3.6-.4.1-.7.2-1.1.2-1.8 0-2.9-1.4-3.2-2.2-1.3-2-2.4-2-3-1.9.2 4.7 1.3 7.5 3.3 8.6.2.1.3.4.2.7-.1.2-.3.3-.4.3s-.1 0-.2 0c-2.4-1.3-3.7-4.5-3.9-9.8 0-1.7-.4-3.3-1.1-4.8-.9 1.7-2.7 5.8-2.3 8.6 0 .3-.1.5-.4.6h-.1c-.2 0-.5-.2-.5-.4-.5-3.6 2.1-8.7 2.8-9.8-1.5-2.9-3.6-5.3-3.6-5.4-.2-.2-.1-.5.1-.7s.5-.1.7.1c0 0 .4.5 1 1.2.8-.3 2.5-.6 4.6 1.5.4.4.9.8 1.5 1.2zm6.2-17.7-.6.9-1.2-.7c-.2-.1-.5-.1-.7.2-.1.2-.1.5.2.7l1.2.7-.5.9-1.2-.7c-.2-.1-.5-.1-.7.2-.1.2-.1.5.2.7l1.2.7-.5.9-1.2-.7c-.2-.1-.5-.1-.7.2-.1.2-.1.5.2.7l1.2.7c-.2.2-.4.4-.7.5-.2 0-.4 0-.6 0 0 0 0 0-.1 0s-.2-.1-.2-.1l-.9-.5c-.1-.1-.2-.1-.3-.2-.4-.4-.4-1-.1-1.5l3.1-5.2zm.5-.8-3-1.8.9-1.5 3.1 1.8zm.3-5.2 1.1-1.9 1 .6-1.1 1.9z"></path></svg>


























