<svg height="56" viewBox="0 0 56 56" width="56" xmlns="http://www.w3.org/2000/svg"><g id="Page-1" fill-rule="evenodd"><g id="056---Heartbeat" fill-rule="nonzero"><path id="Shape" d="m47.96 12.39c-.423-.212-1.392.865-1.78 1.92-.3.827-.439 2.441.1 2.62.522.217 1.435-1.017 1.78-1.92.305-.843.432-2.41-.1-2.62z"></path><path id="Shape" d="m35.96 18.96c-.2932757.1816909-.5621214.4001281-.8.65-.3428295.4258288-.9606023.5052567-1.4.18-.4300826-.3338877-.5185019-.9484023-.2-1.39.4461678-.530775.9891318-.9719332 1.6-1.3.01 0 .01-.01.02-.01 1.62-.93 4.4-1.72 8.76-.79-.0827977-.9090331.0402482-1.8250408.36-2.68.301357-.8315915.7828479-1.5862687 1.41-2.21-.29-.11-.57-.23-.86-.32-9.63-3.16-16 2.84-18.49 5.87 4.07 2.53 6.06 7.17 6.76 9.16.13.38.2.59.2.59.1601626.5301934-.1398066 1.0898374-.67 1.25s-1.0898374-.1398066-1.25-.67c0-.01-.06-.2-.17-.51-.52-1.5-2.57-6.57-6.8-8.61-.952539-.4565516-1.9783555-.7409363-3.03-.84-1.5995343-.1318693-3.2087834.0795151-4.72.62-3.1878374 1.1728603-5.6466778 3.7648108-6.65 7.01-1.30358376 3.8953599-1.38731317 8.095785-.24 12.04h5.18l3.24-8.11c.4599263-1.1531658 1.5826388-1.9039032 2.8240423-1.8883856 1.2414035.0155175 2.3449998.7940838 2.7759577 1.9583856l4.21 11.43 3.17-8.44c.4240269-1.1526833 1.5120147-1.9269812 2.74-1.95 1.2185493-.0005667 2.3250157.7110124 2.83 1.82l2.22 5.18h5.71c.46-7.1-1.9-13.11-4.58-15.96-1.0172995-1.2610359-2.5309048-2.0196622-4.15-2.08z"></path><path id="Shape" d="m34.19 41.05-3.38 9c-.436624 1.1785775-1.5616329 1.9600456-2.8184863 1.9578132-1.2568535-.0022324-2.3790792-.7876921-2.8115137-1.9678132l-4.3-11.67-1.09 2.74c-.4548819 1.1421631-1.5605885 1.8911901-2.79 1.89h-4.68c.09.16.28.49.29.5 2.4846365 3.947719 6.0155026 7.1289602 10.2 9.19 2.2136949 1.1402293 4.5394066 2.0483962 6.94 2.71 3.57.91 6.32.69 8.42-.68 3.19-2.08 4.65-6.7 5.64-11.72h-6.81c-1.2387221-.0405924-2.3385175-.8037956-2.81-1.95z"></path><path id="Shape" d="m24.48 5.31c-1.147781.47179204-2.3791468.70649989-3.62.69-1.171372.0123762-2.3347196-.19451652-3.43-.61.0248122 1.70445435.3532842 3.39083612.97 4.98.31-.08.61-.17.91-.22.3622082-.0963397.7478784.0179511.999115.2960811.2512365.2781301.3258533.6733974.1933018 1.0239772-.1325516.3505798-.4500142.5976049-.8224168.6399417-.49.1-.99.22-1.49.37-2.74.82-5.84 2.61-6.76 6.48 1.2854193-1.3202965 2.8651726-2.3174944 4.61-2.91 1.5158469-.516344 3.1087494-.7699909 4.71-.75.424135-1.4358324.9972514-2.8233775 1.71-4.14.6608917-1.20369545 1.492887-2.30516287 2.47-3.27-.211762-.84807774-.3621512-1.7103095-.45-2.58z"></path><path id="Shape" d="m20.86 2c-1.028 0-3.265.362-3.5 1.02.11.25 1.32.98 3.5.98 2.15 0 3.36-.71 3.5-1-.14-.29-1.35-1-3.5-1z"></path><path id="Shape" d="m32.36 0c-.8284271 0-1.5.67157288-1.5 1.5v2.91c.43-.13.85-.26 1.29-.36.56-.12 1.13-.22 1.71-.3v-2.25c0-.82842712-.6715729-1.5-1.5-1.5z"></path><path id="Shape" d="m41.2.83c-.1719234-.35717657-.4827591-.62825421-.86-.75-.7842018-.26446106-1.6344239.15617516-1.9.94l-.98 2.62c1.0048563.07391606 1.9998047.24811578 2.97.52l.87-2.23c.111354-.36568111.075471-.7603939-.1-1.1z"></path><path id="Shape" d="m46.61 4.67c-.2200475-.33162071-.562864-.56219886-.9529769-.64097165s-.7955394.00071782-1.1270231.22097165l-1.57 1.05c.8737466.55204247 1.6119992 1.29371285 2.16 2.17l1.08-.72c.3306049-.21953546.5607378-.5611389.64-.95.0822413-.39226787-.0009699-.80108826-.23-1.13z"></path><path id="Shape" d="m32.59 6c-2.179572.43690069-4.2027362 1.44848279-5.86 2.93-1.8819235 1.8059242-3.2487893 4.0805822-3.96 6.59.602139.1289631 1.1937892.3027813 1.77.52 2.39-3.03 8.91-9.65 18.96-7.39-1.831-3.15-7.32-3.471-10.91-2.65z"></path><path id="Shape" d="m28 50c-.4176605-.0013517-.7904909-.2621337-.935-.654l-6.1-16.558-3.033 7.583c-.1522144.3810076-.5217146.6303806-.932.629h-16c-.55228475 0-1-.4477153-1-1s.44771525-1 1-1h15.323l3.748-9.371c.1535278-.3844959.5281139-.6346264.9420911-.629083.4139772.0055433.7817314.2656141.9249089.654083l6.07 16.476 5.055-13.482c.1437021-.3824194.505572-.6389749.914-.648.40525.001215.7728871.2377204.942.606l2.74 6.394h17.341c.5522847 0 1 .4477153 1 1s-.4477153 1-1 1h-18c-.3999561-.0000442-.7614173-.2383962-.919-.606l-2.019-4.711-5.125 13.669c-.1467373.3901885-.5201322.6484168-.937.648z"></path></g></g></svg>