<svg id="Layer_2" viewBox="0 0 64 64" xmlns="http://www.w3.org/2000/svg" data-name="Layer 2"><path d="m46.04 41.16c-.11-.3-.2-.58-.27-.85-.01-.05-.03-.1-.04-.15-.07-.27-.13-.53-.17-.76 0 0 0-.02 0-.03-.06-.37-.1-.73-.14-1.08-.02-.13-.04-.28-.05-.41-.03-.28-.03-.54-.05-.81-.01-.2-.03-.4-.03-.59 0-.26 0-.5.02-.75 0-.18 0-.38.01-.56.02-.25.05-.48.08-.71.02-.16.03-.34.06-.5.04-.24.1-.46.16-.68.03-.14.06-.29.1-.43.07-.22.15-.43.23-.63.05-.13.09-.26.14-.38.09-.2.2-.39.3-.58.06-.11.11-.23.18-.33.11-.18.25-.35.38-.52.07-.09.13-.19.2-.27 0 0 .01-.01.02-.02s.02-.03.03-.04c.22-.26.46-.48.69-.68 0 0 .02-.02.03-.02.26-.22.52-.4.78-.56 1.34-.82 2.67-.98 3.22-1.01h.21c.18-.02 1.12-.1 2.3.21-.7-14.07-12.48-25.37-26.68-25.37s-26.75 11.96-26.75 26.7 11.98 26.71 26.71 26.71c8.11 0 15.65-3.59 20.73-9.87-1.07-1.87-1.89-3.59-2.4-5.01 0 0 0-.02-.01-.03zm-1.91-22.1s0 0 0 0l-4.92 1.68-1.33 2.37c1.09.22 2.08.82 2.73 1.69 1.04 1.4 1.12 3.19 1.2 4.77.03.73.06 1.48-.11 2.24-.38 1.71-1.86 3.12-3.59 3.44-.39.07-.77.09-1.14.11-.46.02-.9.06-1.29.18l1.02 1.71 2.96-.23c.59-.04 1.16.14 1.61.52s.72.92.77 1.5c.09 1.22-.83 2.29-2.04 2.38l-2.64.21-.83 4.28c-.2 1.06-1.13 1.8-2.18 1.8-.14 0-.28-.01-.41-.04-1.2-.23-1.99-1.39-1.76-2.59l.99-5.11-1.54-2.6c-.52.41-1.17.64-1.82.64-.59 1.67-2.27 2.89-4.06 2.89-.04 0-.07 0-.11 0-.9-.03-1.77-.38-2.5-.97l-.68 1.5 1.88 2.29c.37.45.55 1.03.49 1.62s-.34 1.12-.79 1.5c-.41.33-.9.49-1.4.49-.64 0-1.28-.28-1.72-.81l-1.68-2.05-3.98 1.78c-1.12.49-2.43-.02-2.92-1.13-.24-.53-.26-1.14-.05-1.69.21-.56.63-.99 1.17-1.23l4.77-2.11.59-1.31c-.51-.04-1.01-.14-1.47-.33-1.69-.7-2.88-2.41-2.97-4.25-.01-.32 0-.65.02-.97.03-.54.06-1.05-.08-1.49-.13-.4-.4-.75-.68-1.13-.17-.23-.35-.46-.49-.7-1.03-1.68-.84-3.98.43-5.46.65-.77 1.59-1.29 2.64-1.5l-.92-1.37-2.94.4c-.59.09-1.17-.07-1.64-.43s-.77-.88-.85-1.47.07-1.17.43-1.64.88-.77 1.47-.85l2.64-.35.59-4.33c.16-1.21 1.29-2.05 2.49-1.89 1.21.16 2.05 1.28 1.89 2.49l-.7 5.15 1.54 2.29c.78-.74 1.72-1.25 2.71-1.45 1.83-.37 3.87.31 5.15 1.68 1.13-1.12 2.86-1.61 4.41-1.2.59.16 1.15.44 1.63.83l1-1.78-1.67-2.45c-.68-1.01-.42-2.39.58-3.07.49-.34 1.08-.46 1.66-.35s1.09.44 1.42.93l1.49 2.19 4.12-1.42c.56-.19 1.16-.15 1.69.11s.93.71 1.12 1.27c.39 1.16-.23 2.42-1.38 2.82z"></path><path d="m52.51 44.31c-2.89-4.21-4.59-7.46-5.2-9.94-.02-.08-.03-.14-.04-.19v-.02s0 0 0-.01c-.01-.06-.02-.13-.03-.2-.11-.58-.15-1.13-.1-1.66 0-.01 0-.02 0-.03 0-.1.02-.2.03-.29-.89 1.76-1.09 4.18-.58 7.24.31 1.89 1.99 5.39 4.28 8.93.91 1.42 1.91 2.89 2.97 4.37 2.37 3.33 4.77 6.43 6.19 8.23-.34-1.63-.74-2.94-.75-2.96-.06-.2 0-.42.16-.56s.38-.17.57-.08c.51.24 1.85.55 2.98.78-2.3-2.8-5.06-6.21-7.51-9.46-1.09-1.45-2.1-2.85-2.98-4.14z"></path><path d="m44.41 58.88c1.1-.35 2.4-.8 2.88-1.09.08-.05.18-.07.27-.07.11 0 .22.03.31.1.17.12.26.33.22.54 0 .02-.26 1.36-.44 3.02 1.19-1.89 3.18-5.09 5.14-8.54-.82-1.16-1.6-2.3-2.34-3.42-1.99 3.28-4.18 6.65-6.04 9.46z"></path><path d="m57.58 33.65s0 .09-.02.16c-.35 2.51-1.65 5.83-3.99 10.18.69.99 1.44 2.05 2.25 3.14 1.7-3.48 2.84-6.78 2.95-8.56.18-3.09-.27-5.48-1.33-7.14.02.09.05.19.07.29 0 .01 0 .02.01.04.12.58.14 1.22.07 1.89z"></path><path d="m52.16 28.85c-2.33.12-3.77 1.41-3.96 3.54-.02.18-.02.36-.02.54 1.07-.87 2.5-1.42 4.03-1.51 1.59-.1 3.12.29 4.34 1.09-.01-.19-.04-.37-.07-.54-.4-2.02-1.8-3.12-3.96-3.12-.12 0-.23 0-.35 0z"></path><path d="m36.98 24.07c-.51 0-1.02.1-1.46.33-.07.04-.16.06-.24.06-.09 0-.17-.02-.25-.06-.15-.08-.26-.24-.27-.41-.08-.71-.41-1.41-.93-1.97-.45-.49-1.03-.85-1.65-1.01-1.34-.36-2.9.19-3.71 1.31-.1.14-.26.22-.43.22-.17 0-.33-.08-.43-.22-.99-1.38-2.84-2.1-4.5-1.77-.85.17-1.68.64-2.33 1.3-.06.07-.14.16-.2.25-.1.14-.18.27-.25.39-.32.5-.68 1.07-1.3 1.32-.15.06-.3.1-.46.12-.05 0-.09.01-.14.02-.11.01-.23.02-.34.02-.02 0-.04 0-.06 0-.03 0-.05 0-.08 0-.17 0-.33 0-.49-.02l-.33-.02c-.25-.02-.44-.01-.59.01-.87.14-1.66.57-2.17 1.18-.97 1.13-1.12 2.94-.34 4.21.13.21.28.41.44.62.32.43.66.88.84 1.44.21.64.17 1.28.14 1.9-.02.29-.04.58-.02.86.07 1.41 1.02 2.78 2.32 3.32.56.24 1.19.32 1.83.25.1-.01.21-.04.31-.05.7-.12 1.34-.42 1.83-.88.06-.06.14-.09.23-.11.02 0 .04 0 .06-.01.02 0 .05-.01.07-.01.06 0 .12.01.18.03.19.07.32.23.35.42.09.58.35 1.13.76 1.58.61.7 1.46 1.12 2.31 1.15 1.46.06 2.92-1.09 3.23-2.52.03-.14.12-.26.24-.34s.27-.1.41-.07c.62.15 1.35-.15 1.75-.71.14-.18.23-.39.27-.6.04-.2.2-.36.4-.41.2-.04.41.02.54.19.19.24.67.21 1.03.06.25-.1.46-.24.68-.37.14-.09.29-.18.43-.26.17-.09.33-.16.49-.23.6-.23 1.2-.26 1.79-.29.35-.02.68-.03 1-.09 1.32-.24 2.45-1.32 2.74-2.62.14-.63.11-1.3.08-1.96-.07-1.42-.15-3.04-.99-4.19-.61-.82-1.66-1.34-2.74-1.36h-.02zm-17.1 6.97c-1.51 0-2.75-1.23-2.75-2.75s1.23-2.75 2.75-2.75 2.75 1.23 2.75 2.75-1.23 2.75-2.75 2.75zm6.15 5.06c-1.6 0-2.89-1.3-2.89-2.89s1.3-2.89 2.89-2.89 2.89 1.3 2.89 2.89-1.3 2.89-2.89 2.89zm4.57-6.34c-1.6 0-2.9-1.3-2.9-2.9s1.3-2.89 2.9-2.89 2.89 1.3 2.89 2.89-1.3 2.9-2.89 2.9z"></path><path d="m43.91 15.92c-.28-.14-.59-.16-.88-.06l-4.51 1.55c-.23.08-.48 0-.61-.2l-1.72-2.53c-.18-.25-.44-.43-.74-.48-.31-.06-.61 0-.86.18-.52.36-.66 1.07-.3 1.6l1.85 2.72c.11.17.12.38.02.56l-1.31 2.33c.38.48.66 1.03.82 1.6.33-.1.67-.16 1.02-.18l1.68-2.98c.06-.11.17-.2.29-.24l5.11-1.74c.61-.21.92-.86.72-1.47-.1-.29-.3-.52-.58-.66z"></path><path d="m17.52 22.88c.42.03.81.05 1.09-.06.32-.13.56-.51.81-.91.02-.03.04-.06.06-.09l-1.84-2.73c-.07-.11-.1-.24-.09-.37l.73-5.36c.09-.63-.35-1.21-.98-1.29-.62-.09-1.21.35-1.29.98l-.64 4.73c-.03.24-.22.42-.46.46l-3.04.4c-.3.04-.57.2-.76.44s-.27.55-.22.85c.04.31.2.58.44.76.24.19.55.26.85.22l3.27-.44c.2-.03.4.06.51.23l1.47 2.18z"></path><path d="m21.34 41.3.99-2.18c-.24-.32-.44-.67-.57-1.04-.53.33-1.14.56-1.78.66l-.9 1.98c-.05.12-.15.21-.27.27l-4.95 2.19c-.28.12-.49.35-.6.64s-.1.6.03.88c.26.58.94.84 1.52.59l4.35-1.94c.07-.03.14-.05.22-.05.16 0 .31.07.41.2l1.93 2.36c.4.49 1.13.57 1.63.17.23-.19.38-.47.41-.78s-.06-.61-.25-.84l-2.09-2.55c-.13-.16-.16-.37-.07-.56z"></path><path d="m33.95 36.4c-.47.21-1.08.28-1.6.11l1.83 3.08c.07.11.09.25.06.37l-1.03 5.31c-.12.62.29 1.23.91 1.35.62.11 1.23-.29 1.35-.91l.9-4.68c.05-.24.24-.41.48-.43l3.05-.24c.63-.05 1.1-.6 1.06-1.24-.03-.31-.17-.58-.4-.78s-.52-.29-.83-.27l-3.29.25c-.2.02-.39-.09-.5-.26l-1.24-2.07c-.24.15-.48.3-.76.41z"></path><circle cx="19.88" cy="28.3" r="1.68"></circle><path d="m30.6 25.03c-1.01 0-1.83.82-1.83 1.83s.82 1.83 1.83 1.83 1.83-.82 1.83-1.83-.82-1.83-1.83-1.83z"></path><circle cx="26.03" cy="33.2" r="1.83"></circle></svg>