<svg height="512" viewBox="0 0 512 512" width="512" xmlns="http://www.w3.org/2000/svg"><g id="MEDICAL"><path d="m496.86 90.39a205.25 205.25 0 0 0 -45.39-68.39 75.07 75.07 0 0 0 -106.34 106 48 48 0 0 0 -17.87 21.15h-9.7a52.29 52.29 0 0 0 -52.26 53.66v186.46c-3.32-.13-6.49-.19-9.3-.16s-6 0-9.3.16v-186.5a52.29 52.29 0 0 0 -52.26-53.65h-9.7a48 48 0 0 0 -17.87-21.12 75.07 75.07 0 0 0 -106.34-106 206.54 206.54 0 0 0 0 292.25 75.07 75.07 0 0 0 106.34-106 48.07 48.07 0 0 0 17.87-21.14h9.7a14.28 14.28 0 0 1 14.27 14.77v.61 191.78c-10.61 3.91-22.71 11.39-28.49 19.64-4.2 6.58-8.92 15.43-9 28.54.11 13.15 4.77 23.83 8.87 31.82 7.29 13.42 25.07 27.84 36.89 31.67 7.58 2.76 26.75 6.41 39.05 6 12.3.38 31.48-3.27 39.05-6 11.82-3.84 29.6-18.24 36.89-31.67 4.1-8 8.76-18.67 8.87-31.82-.1-13.1-4.82-22-9-28.54-5.78-8.25-17.88-15.73-28.49-19.64v-191.77c0-.2 0-.4 0-.61a14.28 14.28 0 0 1 14.27-14.77h9.7a48.07 48.07 0 0 0 17.87 21.14 75.07 75.07 0 0 0 106.34 106 206.78 206.78 0 0 0 45.33-223.87zm-355.64 126.81c-.15.14-15.23 13.67-18.38 34.85a14 14 0 0 1 -13.84 11.95 14.68 14.68 0 0 1 -2.08-.16 14 14 0 0 1 -11.79-15.91c4.74-31.76 26.87-51.09 27.77-51.93a14 14 0 1 1 18.32 21.16zm7.42-62.89a14 14 0 0 1 -13.67 11 13.86 13.86 0 0 1 -3-.32q-4.23-.92-8.18-2c-4 1.68-13.19 6.64-21.44 19.33a14 14 0 1 1 -23.48-15.25 87 87 0 0 1 14.51-17.17c-18.62-11.29-27.15-23.7-27.68-24.49a14 14 0 0 1 23.3-15.6c.14.2 14.52 20.41 49 27.86a14 14 0 0 1 10.64 16.64zm256.43 109.53a14.68 14.68 0 0 1 -2.07.16 14 14 0 0 1 -13.83-11.95c-3.15-21.18-18.23-34.71-18.38-34.85a14 14 0 1 1 18.31-21.2c.94.8 23 20.13 27.76 51.89a14 14 0 0 1 -11.79 15.95zm41.23-138.43c-.53.79-9.06 13.2-27.68 24.49a87 87 0 0 1 14.49 17.18 14 14 0 1 1 -23.48 15.25c-8.25-12.69-17.39-17.65-21.44-19.33q-3.94 1.11-8.18 2a13.86 13.86 0 0 1 -3 .32 14 14 0 0 1 -2.94-27.68c34.44-7.45 48.82-27.66 49-27.86a14 14 0 0 1 23.25 15.6z"></path></g></svg>