<svg clip-rule="evenodd" fill-rule="evenodd" height="512" image-rendering="optimizeQuality" shape-rendering="geometricPrecision" text-rendering="geometricPrecision" viewBox="0 0 1707 1707" width="512" xmlns="http://www.w3.org/2000/svg"><g id="Layer_x0020_1"><path d="m1048 987c-87 0-169-34-230-95-128-127-128-334 0-461 61-62 143-96 230-96s169 34 230 96c128 127 128 334 0 461-61 61-143 95-230 95zm-104-395c7 0 12-6 12-13s-5-13-12-13h-1c-7 0-12 6-12 13s5 13 13 13zm126 83c8 0 13-6 13-13s-5-13-13-13c-7 0-13 6-13 13s6 13 13 13zm-13-65c7 0 13-5 13-13 0-7-6-12-13-12-8 0-13 5-13 12 0 8 6 13 13 13zm-36 95c8 0 13-6 13-13s-5-12-13-12c-7 0-12 5-12 12s5 13 12 13zm-62 3c7 0 13-5 13-13 0-7-6-12-13-12-7 0-13 5-13 12 0 8 6 13 13 13zm43-59c7 0 12-6 12-13s-5-13-12-13h-1c-7 0-12 6-12 13s6 13 13 13zm-66-2c7 0 13-6 13-13s-6-13-13-13c-7 0-13 6-13 13s6 13 13 13zm59-64c7 0 12-6 12-13s-5-12-12-12h-1c-7 0-12 5-12 12s6 13 13 13zm53 320c65 0 125-25 171-71 94-94 95-247 0-342-46-46-106-71-171-71s-125 25-171 71-71 107-71 171c0 65 25 126 71 171 46 46 106 71 171 71zm0-458c58 0 112 22 153 63 84 85 85 222 0 306-41 41-95 64-153 64s-112-23-153-64c-41-40-64-95-64-153s23-112 64-153 95-63 153-63z"></path><path d="m1382 1018c-6 0-12-2-16-7l-120-119c-9-9-9-24 0-32 9-9 24-9 32 0l120 119c9 9 9 23 0 32-5 5-10 7-16 7z"></path><path d="m1551 1245c-22 0-42-9-57-24l-128-128c-16-15-24-35-24-57s8-42 24-57c15-15 35-24 57-24 21 0 42 9 57 24l128 128c31 32 31 83 0 114-15 15-36 24-57 24z"></path><path d="m440 481c-1 0-3 0-4 0-11-2-19-11-19-22 0-87 17-162 45-224 208-68 420-68 626 15 8 4 16 8 24 11 4 2 10 4 15 6 5 18 10 37 14 57-30-8-61-12-93-12-63 0-123 16-175 47-26-2-52-4-78-4-168 0-311 48-334 111-3 9-12 15-21 15zm38-278c72-133 200-203 322-203 114 0 251 64 316 236-10-5-21-10-26-13-201-79-409-81-612-20z"></path><path d="m785 1017c-44 0-89-11-132-33-147-78-236-274-236-525 0-13 10-23 23-23s23 10 23 23c0 234 79 415 211 484 82 43 173 36 251-18 10-7 24-4 32 6 7 10 4 24-6 32-52 36-109 54-166 54z"></path><path d="m599 1117h1v1 1h1v1 1 1h1v1 1 1 1 1 1 1 1 1 1 1 1h-1v1 1l-1 1v1l-1 1c-4 7-11 12-20 12h-21c11 115 109 205 227 205s216-90 227-205h-22c-12 0-22-11-22-23 0-13 10-23 22-23h170c28 0 54 3 80 10v592h-910v-592c26-7 53-10 80-10h169c9 0 16 5 20 12zm430 450c7 0 12-6 12-13s-5-13-12-13h-488c-7 0-12 6-12 13s5 13 12 13zm237-445c133 44 229 170 229 318v244c0 12-10 23-23 23h-206zm-962 585h-206c-13 0-23-11-23-23v-244c0-144 94-272 229-318z"></path><path d="m580 1151c-1 0-2 0-3-1-13-1-22-13-20-25l26-204c1-13 13-22 25-20 13 1 22 13 20 25l-26 205c-1 11-11 20-22 20z"></path><path d="m990 1151c-11 0-21-9-22-20l-22-174c-2-13 7-24 19-26 13-1 24 8 26 20l22 174c2 12-7 24-20 25-1 1-2 1-3 1z"></path></g></svg>