<svg id="Layer_1" enable-background="new 0 0 124 124" height="512" viewBox="0 0 124 124" width="512" xmlns="http://www.w3.org/2000/svg"><path d="m37.716 88.476c-4.58 0-8.306 3.651-8.306 8.138v7.709c0 2.811-2.363 5.098-5.268 5.098-2.904 0-5.267-2.287-5.267-5.098v-6.503h2.985c1.141 0 2.067-.92 2.067-2.054v-17.338c0-1.134-.925-2.054-2.067-2.054h-2.985c0-.001 0-.001 0-.002v-9.62c0-1.141-.925-2.067-2.067-2.067s-2.067.925-2.067 2.067v9.62.002h-3.675c-1.141 0-2.067.92-2.067 2.054v17.338c0 1.134.925 2.054 2.067 2.054h3.675v6.503c0 5.076 4.217 9.206 9.4 9.206 5.184 0 9.401-4.129 9.401-9.206v-7.709c0-2.222 1.871-4.03 4.172-4.03 2.3 0 4.172 1.808 4.172 4.03v25.333c0 1.134.925 2.054 2.067 2.054 1.141 0 2.067-.92 2.067-2.054v-25.334c.001-4.487-3.724-8.137-8.304-8.137z"></path><path d="m109.192 85.775v-40.423c0-5.887-3.245-10.581-7.542-11.17v-1.313c0-3.983-2.072-7.656-4.983-8.702 0 0-.002 0-.003 0v-22.113c0-1.134-.925-2.054-2.067-2.054s-2.067.92-2.067 2.054v22.181c-2.794 1.138-4.73 4.567-4.73 8.451v1.263c-4.548.272-8.054 5.102-8.054 11.221v3.768h11.468c1.141 0 2.067.92 2.067 2.054s-.925 2.054-2.067 2.054h-11.467v8.596h11.468c1.141 0 2.067.92 2.067 2.054s-.925 2.054-2.067 2.054h-11.468v8.596h11.468c1.141 0 2.067.92 2.067 2.054s-.925 2.054-2.067 2.054h-11.468v7.806c-2.345 1.091-3.836 3.445-3.836 6.006 0 3.666 3.002 6.648 6.691 6.648h4.175v13.656c-1.905.943-3.196 2.899-3.196 5.102 0 3.152 2.58 5.716 5.752 5.716h10.527c3.172 0 5.752-2.564 5.752-5.716 0-2.318-1.415-4.338-3.452-5.223v-13.538h5.563c3.689 0 6.69-2.982 6.69-6.648.001-3.166-2.236-5.822-5.221-6.488z"></path><ellipse id="XMLID_4053_" cx="108.66" cy="5.572" rx="3.835" ry="3.811"></ellipse><ellipse id="XMLID_4052_" cx="120.165" cy="17.005" rx="3.835" ry="3.811"></ellipse><path d="m28.485.777c-.007 0-.015 0-.022 0l-23.351.095c-2.819.011-5.112 2.24-5.112 4.967v26.094h33.618v-26.189c0-1.306-.519-2.539-1.463-3.472-.974-.964-2.277-1.495-3.67-1.495z"></path><path d="m11.325 57.575v5.087h10.968v-5.087c-.031.004-10.937.004-10.968 0z"></path><path d="m33.618 40.386v-4.346h-33.618v4.346c0 1.117.395 2.213 1.113 3.088l7.587 9.248c.969 1.182 2.495 1.879 4.02 1.879h8.179c1.525 0 3.051-.697 4.02-1.879l7.586-9.247c.718-.875 1.113-1.972 1.113-3.089z"></path></svg>