<svg id="Glyph" enable-background="new 0 0 32 32" height="512" viewBox="0 0 32 32" width="512" xmlns="http://www.w3.org/2000/svg"><path d="m6.5 8.5c0-.552.448-1 1-1s1 .448 1 1-.448 1-1 1-1-.448-1-1z"></path><path d="m11.5 8.5c0-.552.448-1 1-1s1 .448 1 1-.448 1-1 1-1-.448-1-1z"></path><path d="m9.68 21.685c-2.217 1.069-4.655 1.715-7.22 1.871-.293-1.181-.46-2.523-.46-4.056 0-.92.094-1.81.263-2.66 2.031 2.189 4.997 3.877 7.417 4.845z"></path><path d="m18 19.5c0 7.269-3.582 10.5-8 10.5-3.075 0-5.741-1.57-7.08-4.972 5.963-.46 11.267-3.375 14.836-8.079.156.818.244 1.671.244 2.551z"></path><path d="m2.741 15.087c.231-.653.513-1.265.837-1.837 1.459 1.967 3.791 3.25 6.422 3.25s4.963-1.283 6.422-3.249c.321.567.602 1.173.832 1.819-1.555 2.323-3.534 4.237-5.82 5.656-2.552-.817-6.593-2.893-8.693-5.639z"></path><path d="m10 15c3.584 0 6.5-2.916 6.5-6.5s-2.916-6.5-6.5-6.5-6.5 2.916-6.5 6.5 2.916 6.5 6.5 6.5zm-1.535-11.234c-.406 1.388.138 3.248 1.535 3.411.736.086 1.04-1.056.368-1.404-.158-.105-.281-.243-.37-.398-.503-.874.442-1.932 1.41-1.648 2.071.607 3.592 2.507 3.592 4.773 0 3.114-2.861 5.572-6.092 4.884-1.913-.408-3.443-1.978-3.813-3.899-.507-2.637 1.076-4.972 3.37-5.719z"></path><path d="m28 21.75v1.982c0 .167-.084.323-.223.416l-2.027 1.352v3.75c0 .414-.336.75-.75.75s-.75-.336-.75-.75v-3.75l-2.027-1.352c-.139-.092-.223-.248-.223-.416v-13.732h-1c-.553 0-1-.448-1-1s.447-1 1-1h8c.553 0 1 .448 1 1s-.447 1-1 1h-1v2.25h-1.25c-.414 0-.75.336-.75.75s.336.75.75.75h1.25v2.5h-1.25c-.414 0-.75.336-.75.75s.336.75.75.75h1.25v2.5h-1.25c-.414 0-.75.336-.75.75s.336.75.75.75z"></path><path d="m28.5 4c0 .552-.447 1-1 1h-1.5v1.5h-2v-1.5h-1.5c-.553 0-1-.448-1-1s.447-1 1-1h5c.553 0 1 .448 1 1z"></path></svg>