<svg id="Capa_1" enable-background="new 0 0 512 512" height="512" viewBox="0 0 512 512" width="512" xmlns="http://www.w3.org/2000/svg"><g><path d="m42.109 112.981c49.794-40.614 115.816-62.981 185.904-62.981s136.11 22.367 185.904 62.98c16.521 13.475 30.605 28.434 42.109 44.509-23.234-46.792-55.837-86.009-94.34-113.449-40.428-28.811-86.651-44.04-133.673-44.04s-93.245 15.229-133.673 44.04c-38.503 27.44-71.106 66.657-94.34 113.449 11.504-16.074 25.588-31.033 42.109-44.508z"></path><path d="m126.836 98.473c-49.528 19.122-89.47 51.819-112.305 92.059 22.084 24.609 50.095 45.317 82.078 60.513 10.417 4.949 21.217 9.282 32.306 12.993-19.262-22.678-30.902-52.022-30.902-84.038 0-30.847 10.807-59.213 28.823-81.527z"></path><path d="m359.418 251.045c31.983-15.196 59.994-35.905 82.078-60.513-22.835-40.24-62.778-72.937-112.305-92.059 18.016 22.315 28.823 50.681 28.823 81.528 0 32.016-11.64 61.359-30.901 84.038 11.088-3.712 21.888-8.045 32.305-12.994z"></path><circle cx="228.013" cy="180" r="15"></circle><path d="m482 414.581v-37.581c0-5.359-2.859-10.311-7.5-12.99l-32.548-18.792c.494-2.667.766-5.411.766-8.218 0-24.813-20.187-45-45-45s-45 20.187-45 45c0 2.808.271 5.552.766 8.218l-29.067 16.782h-81.404v-83.125c48.05-7.259 85-48.832 85-98.875 0-55.141-44.86-100-100-100s-100 44.859-100 100c0 50.043 36.95 91.616 85 98.875v98.125c0 8.284 6.716 15 15 15h85.423v22.58c-17.459 6.192-30 22.865-30 42.42 0 24.813 20.187 45 45 45 11.143 0 21.345-4.08 29.213-10.813l32.569 18.804c4.641 2.679 10.359 2.679 15 0l32.569-18.804c7.868 6.733 18.07 10.813 29.213 10.813 24.813 0 45-20.187 45-45 0-19.554-12.541-36.227-30-42.419zm-298.987-234.581c0-24.813 20.187-45 45-45s45 20.187 45 45-20.187 45-45 45-45-20.186-45-45zm268.987 234.581c-17.459 6.192-30 22.865-30 42.42 0 2.808.271 5.552.766 8.218l-25.048 14.461-25.048-14.461c.494-2.667.766-5.411.766-8.218 0-19.555-12.541-36.228-30-42.42v-28.92l25.069-14.473c7.868 6.733 18.07 10.813 29.213 10.813s21.346-4.08 29.213-10.813l25.069 14.472z"></path></g></svg>