<svg id="Layer_1" viewBox="0 0 512 512" xmlns="http://www.w3.org/2000/svg" data-name="Layer 1"><path d="m389.79 338.64c-27.47 54.83-31.1 89.63-29.88 152.43v10.1h-188.31v-10.1c.03-8.58.68-20.3-2.21-29.78 3.19-.74 6.26-1.5 9.22-2.3 13.91-3.74 26.45-8.38 38.44-13.88 4-1.83 5.77-6.56 3.94-10.56s-6.56-5.77-10.56-3.94c-27.47 12.6-53.82 17.89-83.47 21.82-34.62 2.99-64.28 2.63-64.28-32.45 0-18.23 2.6-66.51 2.14-82.34-.45-15.4-33.16-11.98-44.21-16.42-14.07-5.65-12.53-18.9 3.66-43.99 12.55-19.21 25.74-33.55 33.32-43.82 7.08-9.59 7.41-12.89 5.65-24.44-2.23-14.7-8.49-26.82-8.38-47.56.2-37.56 11.57-63.67 38.15-90.86 38.18-39.07 97.72-60.72 153.48-59.68 58.34 1.08 117.07 22.65 154.8 65.94-14.44 5.28-27.72 14.27-39.26 25.52-24.21-23.62-56.05-37.24-90.29-27.62-37.88 10.65-61.94 45.43-66.05 83.63-3.83 35.61 10.18 68.48 31.28 96.46 29.48 39.09 74.06 70.77 116.03 95.12 2.74 1.59 5.86 2.43 9.03 2.43s6.29-.84 9.04-2.43c6.2-3.6 12.46-7.36 18.72-11.27zm-34.59-151.29c.07-4.41 3.72-7.93 8.12-7.86 3.79.06 6.93-2.97 6.99-6.77s-2.97-6.93-6.77-7c-4.41-.07-7.93-3.7-7.86-8.12l.33-35.48c-55.19-62.81-125.54-25.83-132.42 38.14-1.65 15.31.58 31.43 7.23 48.11l63.94.76c3.39-8.63 11.87-14.68 21.66-14.52 9.8.16 18.08 6.48 21.18 15.22l17.22.28.37-22.77zm145.28-27.07c-6.71-62.44-73.9-99.16-128.43-42.47l-.28 33.52c8.63 3.39 14.68 11.86 14.52 21.66s-6.48 18.07-15.22 21.17l-.26 16.22 21.76.35c4.41.07 7.93 3.71 7.86 8.12-.06 3.79 2.97 6.93 6.77 6.99 3.79.06 6.93-2.98 6.99-6.77.07-4.41 3.71-7.93 8.12-7.86l69.35.97c7.88-18.03 10.59-35.44 8.82-51.91zm-93.54 81.55c-9.8-.16-18.08-6.48-21.18-15.22l-15.21-.25-.37 22.76c-.07 4.41-3.7 7.93-8.12 7.86-3.79-.06-6.94 2.97-7 6.77-.06 3.79 2.98 6.93 6.77 6.99 4.41.07 7.93 3.71 7.85 8.12l-.69 51.41c58-34.62 94.85-69.27 114.46-102.21l-54.86-.76c-3.39 8.63-11.87 14.68-21.66 14.52zm-52.63.48.26-16.21-23.77-.39c-4.41-.07-7.93-3.7-7.86-8.12.06-3.8-2.97-6.94-6.77-7-3.79-.06-6.93 2.97-6.99 6.77-.07 4.41-3.71 7.93-8.12 7.86l-62.52-.77c18.81 33.61 55.57 69.1 114.49 104.58l.58-43.89c-8.61-3.39-14.68-11.87-14.52-21.66.16-9.8 6.5-18.06 15.22-21.18z" fill-rule="evenodd"></path></svg>