<svg id="Icon" enable-background="new 0 0 100 100" viewBox="0 0 100 100" xmlns="http://www.w3.org/2000/svg"><g><path d="m25.63 35.13c.63.74 1.84 1.92 3.04 2.93 0 0 3.06 2.46 3.78 4.08.72-1.63 3.78-4.08 3.78-4.08 1.21-1.01 2.41-2.2 3.04-2.93.14-.17.28-.34.4-.52.32-.47.58-.98.76-1.52.49-1.5.22-2.71-.23-3.59-.71-1.36-2.08-2.27-3.62-2.37-2.88-.19-4.14 2.72-4.14 2.72s-1.26-2.91-4.14-2.72c-1.53.1-2.91 1-3.62 2.37-.46.88-.72 2.08-.23 3.59.18.54.44 1.06.76 1.52.14.18.28.36.42.52z"></path><path d="m99.05 93.51-11.81-13.96 1.38-1.71c2.35-2.87 2.82-6.73 1.23-10.07-1.59-3.33-4.86-5.4-8.55-5.4-.01 0-.03 0-.05 0-1.38.01-2.7.3-3.89.84-.08.03-.15.06-.22.11-1.91.93-3.48 2.5-4.43 4.53-1.56 3.36-1.06 7.22 1.32 10.06l5.26 6.29c-.51.46-1.02.92-1.56 1.37-8.1 6.82-18.13 10.52-28.28 10.45l-.49-.01c-25.33-.46-45.96-21.46-45.98-46.81-.01-12.53 4.87-24.32 13.74-33.18 8.85-8.84 20.61-13.71 33.12-13.71h.08c25.29.04 46.27 20.64 46.77 45.92.13 6.66-1.11 13.11-3.67 19.18-.25.59.03 1.27.61 1.51.59.25 1.27-.03 1.51-.61 2.69-6.37 3.99-13.14 3.85-20.12-.52-26.53-22.53-48.15-49.07-48.19-.03 0-.05 0-.08 0-13.13 0-25.47 5.11-34.75 14.39-9.31 9.29-14.43 21.66-14.42 34.82.02 26.6 21.66 48.63 48.24 49.12l.51.01h.35c10.57 0 21.02-3.9 29.44-10.99.53-.45 1.05-.9 1.55-1.36l11.36 13.61c.2.24.49.39.8.41h.09c.28 0 .56-.1.77-.29l5.15-4.58c.48-.43.53-1.15.12-1.63zm-13.33-15.76-5.5-6.51c-1.45-1.74-1.99-3.94-1.51-6.1.8-.31 1.66-.47 2.56-.48h.03c2.79 0 5.26 1.56 6.46 4.08 1.21 2.53.85 5.45-.93 7.62z"></path><path d="m19.39 56.64c-2.99-1.04-4.9 3.22-2.12 4.75l1.53.55c3.06 1.1 6.43.99 9.41-.32.85-.37 1.8.19 1.87 1.11 1.16 13.96 9.7 17.21 20.65 12.36.23-.1.45-.21.67-.32 13.05-6.5 19.37-15.53 19.37-15.53 4.12-5.12 6.29-9.85 7.39-13.8 2.01-7.2.19-15.02-4.93-20.46-3.12-3.31-6.52-4.76-9.48-5.3-5.04-.93-10.27 1-13.47 5-4.24 5.29-2.04 10.63-.55 13.1.57.95.61 2.12.08 3.1 0 0-3.3 1.82-.96 6.79-.49-.19-.97-.4-1.42-.66l-.05-.01c-2.05-1.14-4.62.06-5.05 2.37l-2.08 7.61c-.68 2.49-4.13 2.71-5.11.32-1.28-3.09-5.02-4.32-7.88-2.59-3.62 2.17-4.73 3.02-7.87 1.93z"></path></g></svg>