<svg clip-rule="evenodd" fill-rule="evenodd" stroke-linejoin="round" stroke-miterlimit="2" viewBox="0 0 510 510" xmlns="http://www.w3.org/2000/svg"><path d="m362.218 140.879h-49.282c-2.761 0-5-2.238-5-5v-61.279c0-2.761 2.239-5 5-5h49.282v-49.282c0-2.761 2.239-4.999 5-4.999h61.279c2.762 0 5 2.238 5 4.999v49.282h49.282c2.761 0 5 2.239 5 5v61.279c0 2.762-2.239 5-5 5h-49.282v49.282c0 2.761-2.238 5-5 5h-61.279c-2.761 0-5-2.239-5-5zm-173.514 346.157-25.528-4.226 23.444-150.93c.593-3.82-2.023-7.398-5.843-7.992-11.486-1.784-19.362-12.557-17.578-24.042s12.557-19.362 24.043-17.578c5.78.898 10.645 4.074 13.826 8.47 1.095 1.514 2.75 2.527 4.597 2.814 1.846.287 3.731-.177 5.234-1.287 4.364-3.224 9.964-4.775 15.744-3.877 11.485 1.784 19.361 12.557 17.578 24.043-1.784 11.485-12.558 19.361-24.043 17.577-3.82-.593-7.398 2.023-7.991 5.843zm-106.095-414.938 21.762-14.003 80.697 130.634c2.032 3.289 6.345 4.308 9.634 2.277 9.889-6.109 22.876-3.04 28.985 6.849 6.108 9.888 3.04 22.876-6.849 28.984-4.977 3.074-10.738 3.823-16.013 2.549-1.816-.439-3.733-.134-5.322.848-1.59.983-2.721 2.559-3.142 4.38-1.221 5.287-4.47 10.104-9.446 13.179-9.889 6.108-22.876 3.039-28.985-6.849-6.108-9.889-3.039-22.877 6.849-28.985 3.289-2.032 4.308-6.345 2.277-9.634zm66.67 408.97-40.663-6.156c-2.098-.317-3.768-1.925-4.164-4.011-13.25-70.498-3.796-138.158 31.865-202.541-47.639-39.147-84.938-90.701-113.634-152.58-1.046-2.263-.264-4.951 1.832-6.3 11.512-7.409 46.319-29.805 46.319-29.805l77 124.65c-11.906 11.172-14.724 29.555-5.815 43.978 10.17 16.463 31.791 21.572 48.254 11.402 6.298-3.891 10.936-9.458 13.691-15.772 6.879.363 13.933-1.292 20.232-5.183 16.462-10.169 21.571-31.791 11.402-48.253-8.91-14.423-26.61-20.132-41.93-14.485 0 0-56.903-92.116-77.521-125.493l47.828-30.775c2.293-1.475 5.346-.84 6.862 1.427 40.102 59.872 89.157 125.784 118.986 196.873 5.552 13.266 7.767 27.692 6.449 42.014-7.434 79.243-34.554 156.613-51.823 230.75-.589 2.545-3.037 4.208-5.62 3.817-10.67-1.615-36.283-5.493-36.283-5.493l22.508-144.907c16.309-.753 30.399-12.893 33.001-29.646 2.97-19.12-10.143-37.055-29.263-40.025-7.317-1.136-14.459.081-20.656 3.089-4.993-4.746-11.43-8.073-18.746-9.209-19.12-2.97-37.055 10.142-40.025 29.263-2.602 16.752 7.141 32.594 22.454 38.259-3.916 25.211-18.576 119.593-22.54 145.112z"></path></svg>