<svg id="bold" enable-background="new 0 0 32 32" viewBox="0 0 32 32" xmlns="http://www.w3.org/2000/svg"><g><path d="m32 16c0-1.6-.7-3-1.9-3.9.6-.8.9-1.7.9-2.6 0-2-1.3-3.7-3.1-4.3.1-.2.1-.4.1-.7 0-1.9-1.6-3.5-3.5-3.5-.7 0-1.3.2-1.8.5-.8-.9-2-1.5-3.3-1.5-1.1 0-2.2.6-2.9 1.4v29.2c.7.8 1.8 1.4 2.9 1.4 1.3 0 2.5-.6 3.3-1.5.5.3 1.1.5 1.8.5 1.9 0 3.5-1.6 3.5-3.5 0-.3 0-.5-.1-.7 1.8-.6 3.1-2.3 3.1-4.3 0-1-.3-1.9-.9-2.6 1.2-.9 1.9-2.3 1.9-3.9zm-8.4-5.8c.8-1.3 2.3-2.2 3.9-2.2.3 0 .5.2.5.5s-.2.5-.5.5c-1.9 0-3.5 1.6-3.5 3.5v1c0 .3-.2.5-.5.5s-.5-.2-.5-.5v-1-1c0-.8-.7-1.5-1.5-1.5-.3 0-.5-.2-.5-.5s.2-.5.5-.5c.9 0 1.7.5 2.1 1.2zm-5.2-6.2c.3-.1.5.1.6.4l.3 1.3c.1.4.4.7.8.8s.8 0 1.1-.3c.2-.2.5-.2.7 0s.2.5 0 .7c-.4.4-.9.6-1.5.6-.2 0-.4 0-.6-.1-.7-.2-1.3-.8-1.5-1.5l-.3-1.3c-.1-.2.1-.5.4-.6zm-.9 12c-.1 0-.1 0-.2 0-.3-.1-.4-.4-.3-.6l.4-1.1c.4-1.3 1.7-2.2 3.1-2.2.3 0 .5.2.5.5s-.2.4-.5.4c-1 0-1.8.6-2.2 1.6l-.3 1.1c-.1.2-.3.3-.5.3zm4.4 9.9c-.2.2-.5.2-.7 0-.3-.3-.7-.4-1.1-.3s-.7.4-.8.8l-.3 1.2c-.1.2-.3.4-.5.4h-.1c-.3-.1-.4-.3-.4-.6l.3-1.3c.2-.7.7-1.3 1.5-1.5.7-.2 1.5 0 2 .5.2.2.2.6.1.8zm5.6-1.9c-1.6 0-3.1-.9-3.9-2.2-.4.7-1.2 1.2-2.1 1.2-.3 0-.5-.2-.5-.5s.2-.5.5-.5c.8 0 1.5-.7 1.5-1.5v-1-1c0-.3.2-.5.5-.5s.5.2.5.5v1c0 1.9 1.6 3.5 3.5 3.5.3 0 .5.2.5.5s-.2.5-.5.5zm1.2-9.1c-1.1.5-2.2.9-3.4 1 .1.1.3.3.4.4l1.2 1.8c.2.2.1.5-.1.7s-.5.1-.7-.1l-1.2-1.8c-.4-.6-1-.9-1.8-.9-1.2 0-2.1.9-2.1 2.1v1.4c0 .3-.2.5-.5.5s-.5-.2-.5-.5v-1.4c0-1.7 1.4-3.1 3.1-3.1h.2.2.8c1.4 0 2.8-.3 4-.9.2-.1.5 0 .7.2.1.2 0 .5-.3.6z"></path><path d="m12.6 0c-1.3 0-2.5.6-3.3 1.5-.5-.3-1.1-.5-1.8-.5-1.9 0-3.5 1.6-3.5 3.5 0 .3 0 .5.1.7-1.8.6-3.1 2.3-3.1 4.3 0 1 .3 1.9.9 2.6-1.2.9-1.9 2.3-1.9 3.9s.7 3 1.9 3.9c-.6.7-.9 1.6-.9 2.6 0 2 1.3 3.7 3.1 4.3-.1.2-.1.4-.1.7 0 1.9 1.6 3.5 3.5 3.5.7 0 1.3-.2 1.8-.5.8.9 2 1.5 3.3 1.5 1.1 0 2.2-.6 2.9-1.4v-29.2c-.7-.9-1.8-1.4-2.9-1.4zm-2.5 6.1c.2-.2.5-.2.7 0 .3.3.7.4 1.1.3s.7-.4.8-.8l.3-1.2c.1-.3.3-.4.6-.4.3.1.4.3.4.6l-.3 1.3c-.2.7-.7 1.3-1.5 1.5-.2.1-.4.1-.6.1-.5 0-1.1-.2-1.5-.6-.1-.2-.1-.6 0-.8zm-5.6 1.9c1.6 0 3.1.9 3.9 2.2.4-.7 1.2-1.2 2.1-1.2.3 0 .5.2.5.5s-.2.5-.5.5c-.8 0-1.5.7-1.5 1.5v1 1c0 .3-.2.5-.5.5s-.5-.2-.5-.5v-1c0-1.9-1.6-3.5-3.5-3.5-.3 0-.5-.2-.5-.5s.2-.5.5-.5zm-1 10c-.2 0-.4-.1-.4-.3-.1-.2 0-.5.2-.7 1.1-.5 2.2-.9 3.4-1-.1-.1-.3-.3-.4-.4l-1.2-1.8c-.2-.2-.1-.5.1-.7s.5-.1.7.1l1.2 1.8c.4.6 1 .9 1.8.9 1.2 0 2.1-.9 2.1-2.1v-1.4c0-.3.2-.5.5-.5s.5.2.5.5v1.4c0 1.7-1.4 3.1-3.1 3.1-.1 0-.2 0-.2 0s-.1 0-.2 0h-.8c-1.4 0-2.8.3-4 .9 0 .2-.1.2-.2.2zm4.9 3.8c-.8 1.3-2.3 2.2-3.9 2.2-.3 0-.5-.2-.5-.5s.2-.5.5-.5c1.9 0 3.5-1.6 3.5-3.5v-1c0-.3.2-.5.5-.5s.5.2.5.5v1 1c0 .8.7 1.5 1.5 1.5.3 0 .5.2.5.5s-.2.5-.5.5c-.9 0-1.7-.5-2.1-1.2zm5.2 6.2h-.1c-.2 0-.4-.2-.5-.4l-.3-1.3c-.1-.4-.4-.7-.8-.8s-.8 0-1.1.3c-.2.2-.5.2-.7 0s-.2-.5 0-.7c.5-.5 1.3-.7 2-.5s1.3.8 1.5 1.5l.3 1.3c.2.2 0 .5-.3.6zm1.4-11.3-.4 1.1c-.4 1.3-1.7 2.2-3.1 2.2-.3 0-.5-.2-.5-.5s.2-.5.5-.5c1 0 1.8-.6 2.2-1.6l.4-1.1c.1-.3.4-.4.6-.3s.4.4.3.7z"></path></g></svg>