<svg id="Capa_1" enable-background="new 0 0 512.002 512.002" height="512" viewBox="0 0 512.002 512.002" width="512" xmlns="http://www.w3.org/2000/svg"><g><path d="m293.865 252.489c-8.49-25.201-24.564-47.764-45.769-64.062-21.799-16.757-47.542-26.235-74.841-27.677l-19.098-23.51c-2.19-2.695-3.396-6.094-3.396-9.568v-.891c0-8.368 6.809-15.177 15.178-15.177 8.368 0 15.177 6.809 15.177 15.177 0 8.284 6.716 15 15 15s15-6.716 15-15c0-24.91-20.267-45.177-45.177-45.177-24.911 0-45.178 20.267-45.178 45.177v.891c0 10.343 3.592 20.459 10.112 28.485l6.084 7.49c-19.212 4.182-37.253 12.533-53.185 24.78-21.203 16.299-37.277 38.86-45.768 64.062-20.677 2.546-36.901 19.875-37.949 40.769-.601 11.988 3.614 23.369 11.867 32.046 6.912 7.268 16.204 11.901 26.08 13.132 8.49 25.205 24.565 47.769 45.771 64.069 23.739 18.247 52.149 27.893 82.16 27.893 30.01 0 58.421-9.646 82.16-27.893 21.205-16.301 37.28-38.862 45.771-64.069 9.876-1.231 19.169-5.865 26.08-13.133 8.254-8.678 12.468-20.058 11.866-32.045-1.045-20.894-17.268-38.223-37.945-40.769zm-71.478 99.429c-15.078 15.079-35.127 23.384-56.452 23.384s-41.374-8.305-56.453-23.384c-5.858-5.857-5.858-15.355 0-21.213 5.857-5.857 15.355-5.857 21.213 0 9.413 9.413 21.928 14.597 35.24 14.597s25.826-5.184 35.239-14.597c5.857-5.857 15.355-5.859 21.213 0 5.859 5.857 5.859 15.354 0 21.213z"></path><path d="m497.002 133.708h-144.23c-8.284 0-15 6.716-15 15s6.716 15 15 15h4.606v155.28c0 16.214 9.93 34.593 30.357 56.188 8.431 8.913 16.802 16.367 22.151 20.906v57.742c0 8.284 6.716 15 15 15s15-6.716 15-15v-57.742c5.349-4.539 13.721-11.993 22.151-20.906 20.428-21.596 30.357-39.975 30.357-56.188v-15.258h-50.008c-8.284 0-15-6.716-15-15s6.716-15 15-15h50.008v-40.012h-50.008c-8.284 0-15-6.716-15-15s6.716-15 15-15h50.008v-40.011h4.606c8.284 0 15-6.716 15-15s-6.714-14.999-14.998-14.999z"></path><path d="m352.771 73.177h26.938v30.531h90.354v-30.531h26.938c8.284 0 15-6.716 15-15s-6.716-15-15-15h-144.23c-8.284 0-15 6.716-15 15s6.716 15 15 15z"></path></g></svg>