<svg id="Capa_1" enable-background="new 0 0 512.001 512.001" height="512" viewBox="0 0 512.001 512.001" width="512" xmlns="http://www.w3.org/2000/svg"><g><path d="m163.785 142.901 48.964 49.18-21.23 21.18-40.842-41.03c-26.225 2.01-46.886 23.93-46.886 50.7v.61c-24.347 3.76-42.98 24.82-42.98 50.25 0 5.65.919 11.08 2.618 16.16 0 .001.001.001.001.002 12.064-5.196 25.348-8.08 39.293-8.08 14.499 0 28.663 3.122 41.654 9.105 7.471-5.79 16.524-9.602 27.083-11.4l.001-38.081h29.972l-.002 66.88h-14.985c-12.41 0-21.138 2.964-26.684 9.062-10.432 11.471-9.595 29.298 1.865 39.739l-20.175 22.186c-18.07-16.464-23.342-41.81-15.257-63.43-7.476-2.671-15.396-4.061-23.471-4.061-38.47 0-69.768 31.327-69.768 69.833 0 33.101 23.136 60.876 54.066 68.027-1.04-16.186 1.909-33.471 9.545-47.862l26.47 14.07c-4.221 7.955-6.361 16.594-6.361 25.676 0 37.459 31.924 70.384 69.778 70.384 22.224 0 42.003-10.597 54.779-26.956v-349.03c-9.189-9.144-21.85-14.794-35.826-14.794-17.215 0-32.431 8.57-41.622 21.68z"></path><path d="m348.592 142.821c-9.191-13.07-24.387-21.6-41.561-21.6-13.976 0-26.638 5.65-35.826 14.794v349.031c12.775 16.359 32.555 26.956 54.779 26.956 37.793 0 69.778-33.001 69.778-70.384 0-9.082-2.141-17.721-6.361-25.676l26.471-14.07c7.636 14.391 10.584 31.676 9.545 47.862 30.93-7.152 54.065-34.927 54.065-68.027 0-38.506-31.298-69.833-69.768-69.833-8.064 0-15.973 1.386-23.439 4.05 8.354 22.241 2.084 47.613-15.289 63.441l-20.174-22.186c5.551-5.059 8.803-11.978 9.155-19.483s-2.237-14.699-7.291-20.256c-5.546-6.099-14.274-9.062-26.683-9.062h-14.985l-.003-66.879 29.972-.002.001 38.082c10.559 1.798 19.612 5.61 27.083 11.4 12.99-5.983 27.154-9.105 41.653-9.105 13.945 0 27.229 2.884 39.294 8.081 0-.001.001-.002.001-.003 1.698-5.08 2.618-10.51 2.618-16.16 0-25.43-18.633-46.49-42.98-50.25v-.61c0-26.81-20.731-48.76-47.006-50.71l-40.752 41.03-21.25-21.15z"></path><path d="m163.785 142.901-35.533-35.696 36.095-18.657h52.817v-30h-60.099l-51.005 26.363-84.866-84.729-21.193 21.213 150.676 150.836c.214-5.443.087-10.804 4.551-16.932 4.175-5.732 5.5-8.038 8.557-12.398z"></path><path d="m361.699 172.151 57.204-57.27 21.196 21.091s59.336-59.742 59.336-59.742c16.823-16.938 16.742-44.419-.179-61.257-8.483-9.342-20.191-15.077-32.894-14.972-11.601-.001-22.514 4.542-30.693 12.778 0 0-59.336 59.743-59.336 59.743l21.164 21.06.146.145-49.052 49.095c3.057 4.36 4.381 6.666 8.557 12.398 4.465 6.127 4.337 11.489 4.551 16.931z"></path></g></svg>