<svg id="Glyph" enable-background="new 0 0 32 32" height="512" viewBox="0 0 32 32" width="512" xmlns="http://www.w3.org/2000/svg"><path d="m6.5 8.5c0-.552.448-1 1-1s1 .448 1 1-.448 1-1 1-1-.448-1-1z"></path><path d="m11.5 8.5c0-.552.448-1 1-1s1 .448 1 1-.448 1-1 1-1-.448-1-1z"></path><path d="m9.68 21.685c-2.217 1.069-4.655 1.715-7.22 1.871-.293-1.181-.46-2.523-.46-4.056 0-.92.094-1.81.263-2.66 2.031 2.189 4.997 3.877 7.417 4.845z"></path><path d="m18 19.5c0 7.269-3.582 10.5-8 10.5-3.075 0-5.741-1.57-7.08-4.972 5.963-.46 11.267-3.375 14.836-8.079.156.818.244 1.671.244 2<svg xmlns="http://www.w3.org/2000/svg" id="Layer_3" data-name="Layer 3" viewBox="0 0 64 64" width="512" height="512"><path d="M45.852,23.72,44.281,30H45a1,1,0,0,0,.8-.4l1.45-1.933A3.782,3.782,0,0,0,48,25.414a2.4,2.4,0,0,0-2.032-2.377A5.266,5.266,0,0,1,45.852,23.72Z"></path><path d="M14,21.04V19a1.063,1.063,0,0,1,.025-.225l.5-2.148A14.932,14.932,0,0,1,29.137,5h1.726A14.932,14.932,0,0,1,45.479,16.627l.5,2.148A1.063,1.063,0,0,1,46,19v2.04c.08.008.16.012.239.024L47,15.1A12.353,12.353,0,0,0,41.488,4.861,11.046,11.046,0,0,0,35.343,3H24.657a11.046,11.046,0,0,0-6.145,1.861A12.353,12.353,0,0,0,13,15.1l.761,5.967C13.84,21.052,13.92,21.048,14,21.04Z"></path><path d="M14.2,29.6a1,1,0,0,0,.8.4h.719l-1.57-6.28a5.076,5.076,0,0,1-.117-.683A2.4,2.4,0,0,0,12,25.414a3.787,3.787,0,0,0,.751,2.255Z"></path><path d="M36.121,48.464l.438-.438a9.365,9.365,0,0,1-2.4-4.721,8.983,8.983,0,0,1-3.476.7H29.313a8.983,8.983,0,0,1-3.476-.7,9.373,9.373,0,0,1-2.4,4.721l.438.438a8.655,8.655,0,0,0,12.242,0Z"></path><path d="M30.863,7H29.137a12.932,12.932,0,0,0-12.579,9.759l3.36-2.24A14.96,14.96,0,0,1,28.239,12h3.522a14.96,14.96,0,0,1,8.321,2.519l3.36,2.24A12.931,12.931,0,0,0,30.863,7Z"></path><path d="M48.241,37.349l1.518,1.3A25.943,25.943,0,0,0,56,21.78V19c.345.462.738.987,1.2,1.6l1.6-1.2s-2.772-3.693-2.982-3.976a.964.964,0,0,0-.241-.24c-.439-.312-.637-.451-1.34.308l-.069-.047a1,1,0,0,0-.16.306c-.568.662-1.418,1.8-2.808,3.649l1.6,1.2L54,19v2.78A23.936,23.936,0,0,1,48.241,37.349Z"></path><path d="M6,21.78V19l1.2,1.6,1.6-1.2c-1.39-1.853-2.24-2.987-2.808-3.649a1,1,0,0,0-.16-.306l-.069.047c-.7-.76-.9-.621-1.34-.308a.964.964,0,0,0-.241.24C3.972,15.707,1.2,19.4,1.2,19.4l1.6,1.2c.462-.615.855-1.14,1.2-1.6V21.78a25.943,25.943,0,0,0,6.241,16.871l1.518-1.3A23.936,23.936,0,0,1,6,21.78Z"></path><path d="M59,54l-1.793,1.793-3-3L57,50l-3-3-2,2-9-9-.793.793L38.5,37.086l1.618-1.618a5.006,5.006,0,0,0,1.316-2.322l2.477-9.911A3.015,3.015,0,0,0,44,22.508V19.535l-5.027-3.352A12.966,12.966,0,0,0,31.761,14H28.239a12.966,12.966,0,0,0-7.212,2.183L16,19.535v2.973a2.967,2.967,0,0,0,.09.727l2.476,9.91a5,5,0,0,0,1.316,2.323l4.482,4.482A6.954,6.954,0,0,0,29.313,42h1.374a6.954,6.954,0,0,0,4.949-2.05l1.45-1.45,3.707,3.707L40,43l9,9-1.24,1.24a6.163,6.163,0,0,0-.467-.533l-.163-.164A5.239,5.239,0,0,0,43.4,51a9.342,9.342,0,0,1-5.325-1.662l-.541.54a10.654,10.654,0,0,1-15.07,0l-.541-.54A9.342,9.342,0,0,1,16.6,51a5.24,5.24,0,0,0-3.73,1.544l-.161.162A5.792,5.792,0,0,0,11,56.829V61h4v-.171a7.777,7.777,0,0,1,2.293-5.536l1.414,1.414A5.791,5.791,0,0,0,17,60.829V61H43v-.171a5.791,5.791,0,0,0-1.707-4.122l1.414-1.414A7.777,7.777,0,0,1,45,60.829V61h4V56.829a5.9,5.9,0,0,0-.076-.905L50,57l2.793-2.793,3,3L54,59l3,3,5-5ZM18.562,24.193l-.527-1.93,1.93-.526.526,1.93Zm1.052,3.859-.526-1.93,1.93-.526.526,1.929Zm.526,1.929,1.929-.526.527,1.929-1.93.527Zm2.99,5.563L21.716,34.13l1.414-1.414,1.414,1.414Zm2.829,2.829-1.415-1.414,1.414-1.415,1.415,1.414ZM40.035,21.737l1.93.526-.527,1.93-1.929-.526ZM38.982,25.6l1.93.526-.526,1.93-1.93-.527Zm-1.051,3.859,1.929.526-.526,1.93-1.93-.527Zm-3.89,8.918-1.414-1.415,1.415-1.414,1.414,1.415Zm2.829-2.829L35.456,34.13l1.414-1.414,1.414,1.414Z"></path></svg>