<svg id="Layer_1" enable-background="new 0 0 66 66" height="512" viewBox="0 0 66 66" width="512" xmlns="http://www.w3.org/2000/svg"><g><path d="m59.94 11.22h-41.69c-2.24 0-4.06 1.82-4.06 4.05v3.46h8.01c1.66 0 3.01 1.35 3.01 3.01v.19h38.79v-6.66c0-2.23-1.82-4.05-4.06-4.05z"></path><path d="m27.68 6.73h22.84v2.49h4.05v-2.49c0-2.24-1.82-4.05-4.05-4.05h-22.84c-2.24 0-4.05 1.82-4.05 4.05v2.49h4.05z"></path><path d="m25.21 23.93v.88c0 1.15-.65 2.15-1.6 2.66h3.22v-3.54z"></path><path d="m51.36 23.93h5.42v3.54h-5.42z"></path><path d="m58.78 28.47c0 .55-.44 1-1 1h-7.42c-.55 0-1-.45-1-1v-4.54h-20.53v4.54c0 .55-.45 1-1 1h-4.98c.52 1.08 1.27 2.08 2.25 2.96 2.87 2.59 4.52 6.28 4.52 10.14v4.64h30.32c2.24 0 4.06-1.82 4.06-4.06v-19.22h-5.22zm-11.58 7.26c0 .64-.52 1.16-1.16 1.16h-4.63v4.63c0 .64-.52 1.16-1.16 1.16h-2.31c-.64 0-1.16-.52-1.16-1.16v-4.63h-4.63c-.64 0-1.16-.52-1.16-1.16v-2.32c0-.64.52-1.16 1.16-1.16h4.63v-4.63c0-.64.52-1.16 1.16-1.16h2.31c.64 0 1.16.52 1.16 1.16v4.63h4.63c.64 0 1.16.52 1.16 1.16z"></path><path d="m24.36 51.56c.93-.93 2.04-1.6 3.26-1.98v-6.45h-25.62v13.74h20.02c.08-1.93.87-3.84 2.34-5.31zm-6.09-.56h-2.46v2.46c0 .56-.45 1-1 1s-1-.44-1-1v-2.46h-2.46c-.55 0-1-.45-1-1s.45-1 1-1h2.46v-2.46c0-.55.45-1 1-1s1 .45 1 1v2.46h2.46c.55 0 1 .45 1 1s-.45 1-1 1z"></path><path d="m7.42 25.82h14.78c.56 0 1.01-.45 1.01-1.01v-3.07c0-.56-.45-1.01-1.01-1.01h-14.78c-.56 0-1.01.45-1.01 1.01v3.07c0 .56.45 1.01 1.01 1.01z"></path><path d="m23.76 33.92c-1.81-1.63-3.08-3.75-3.53-6.1h-10.84c-.45 2.34-1.71 4.47-3.53 6.1-2.03 1.83-3.41 4.36-3.77 7.21h25.43c-.35-2.85-1.73-5.38-3.76-7.21z"></path><path d="m22.17 58.87h-20.17v.4c0 2.24 1.81 4.05 4.04 4.05h17.54c.36 0 .7-.05 1.03-.13-.09-.07-.17-.15-.25-.23-1.16-1.16-1.89-2.59-2.19-4.09z"></path><path d="m25.77 52.97c-2.12 2.12-2.33 5.43-.64 7.79l8.43-8.43c-2.36-1.68-5.66-1.48-7.79.64z"></path><path d="m26.55 62.18c2.37 1.69 5.67 1.49 7.79-.64 2.12-2.12 2.33-5.43.64-7.79z"></path></g></svg>