<svg id="glyph" height="512" viewBox="0 0 64 64" width="512" xmlns="http://www.w3.org/2000/svg"><path d="m13.48999 6.25c1.21727 1.40697 7.47107 1.41753 8.51002-.08016-.15003-.33988-1.62-1.16984-4.27002-1.16984-2.69658.03574-4.2583.79325-4.23999 1.25z"></path><path d="m44.03998 15.13c-.2888-.00737-1.12794.63824-1.58997 2.14995-.31285 1.24384-.32196 2.14431.15989 2.65006 1.08147.00469 2.50383-3.76919 1.43009-4.80001z"></path><path d="m59.40002 31.31h-7.71002c-1.37-1.25-3.38-1.72003-5.22998-1.04004-2.11598.73349-3.54174 2.9771-3.32999 5.19002-.00003-.00002-5.2513 3.23784-5.55 3.42 1.52128-.20975 5.003-.6788 6.47999-.89001 1.29288 1.85742 3.80236 2.63303 5.92997 1.83996.64001-.22996 1.21002-.57994 1.69-1.02995h7.72003c.54999 0 1-.45001 1-1v-5.48999c0-.54999-.45001-1-1-1zm-10.78003 4.82001c-1.43748.49564-2.20727-1.61586-.78993-2.16005 1.4309-.49486 2.21092 1.61377.78993 2.16005z"></path><path d="m35.41998 46.31c.00827 1.30049-1.93902 1.38378-2.00001.05994-.07691-2.29997-.59433-4.05588-1.33994-5.54-1.20003-2.44994-2.80001-3.64995-2.90005-3.72997-.45001-.33002-.53998-.95996-.21997-1.39996.32996-.44.94995-.54004 1.38995-.22003.11005.08002 1.70001 1.26001 3.07001 3.62 0 0 7.21002-4.45001 7.21002-4.45001-.83002-6.19-3.81-10.35999-8.87-12.38 2.77896-1.70287 5.39498-1.88038 9.87997-.58011-3.09539-1.89634-.63723-9.48157 3.08992-8.42991-9.93992-4.40996-17.93992.14003-21.93992 3.38008.59003-2.49005 1.21002-6.10004 1.21002-10.41003-.54004 3.56674-7.39029 3.50072-10.07992 2.5001-1.22007-.45011-2.1301-1.1301-2.3801-2.03007.55005 2.33997 1.08002 7.50995-.71997 8.56995-3.72998 2.19-4.85004 7.15002-5.06 8.27002 3.31264-5.37167 11.54452-7.03673 16.64993-3.90999 5.27006 3.13002 7.12009 9.76003 7.20005 10.03999.15002.53998-.16998 1.09003-.70001 1.22998-.52997.15002-1.07996-.16998-1.22998-.69995-1.22817-4.32106-6.05353-12.73972-15.25007-9.42988-12.3419 4.53171-5.77785 24.91554 1.93987 31.62976 6.46223 5.72684 18.48977 10.20757 22.76031 2.67032 1.63992-3.2502 3.34988-8.91024 3.69992-14.6202 0 0-6.36005.87-6.36005.87.52002 1.39996.90002 3.06.95001 4.98999zm-5.28998 9.79999c-4.52971.02266-10.32773-2.50714-14.7-6.34999-.96855-.87343.34157-2.36809 1.32005-1.49994 4.04994 3.54994 9.28993 5.84993 13.33998 5.84993 1.28633.01901 1.32679 1.93143.03998 2z"></path></svg>