<svg id="Capa_1" enable-background="new 0 0 512 512" height="512" viewBox="0 0 512 512" width="512" xmlns="http://www.w3.org/2000/svg"><g><path d="m467.613 30.125h-39.427v-15.125c0-8.284-6.716-15-15-15h-120.424c-8.284 0-15 6.716-15 15v15.125h-39.427c-24.476 0-44.388 19.912-44.388 44.388v70.877c17.884-8.188 36.962-12.425 56.777-12.597l1.176-.005c8.772 0 17.425.827 25.876 2.425.155-8.15 6.798-14.713 14.986-14.713h120.423c8.284 0 15 6.716 15 15s-6.716 15-15 15h-93.517c10.92 6.151 21.087 13.83 30.23 22.933 2.381 2.371 4.661 4.814 6.852 7.317h56.435c8.284 0 15 6.716 15 15s-6.716 15-15 15h-36.272c4.804 9.615 8.483 19.752 10.982 30.25h25.291c8.284 0 15 6.716 15 15s-6.716 15-15 15h-21.446c.029 1.303.044 2.609.038 3.918-.044 9.091-.481 17.845-1.3 26.332h22.708c8.284 0 15 6.716 15 15s-6.716 15-15 15h-27.481c-1.246 5.498-2.68 10.897-4.317 16.212-.33 1.069-.745 2.45-1.243 4.103l-.068.226c-.815 2.706-1.801 5.977-2.946 9.71h36.055c8.284 0 15 6.716 15 15s-6.716 15-15 15h-45.745c-5.933 17.39-13.403 37.503-22.121 56.91-.508 1.132-1.017 2.231-1.526 3.34h123.819c24.476 0 44.388-19.912 44.388-44.388v-332.85c-.001-24.476-19.913-44.388-44.388-44.388z"></path><path d="m317.954 436.117c16.358-36.413 28.299-76.054 33.398-92.981.549-1.823 1.006-3.34 1.365-4.507 5.985-19.427 8.949-40.313 9.062-63.851.141-30.286-11.595-58.729-33.046-80.086-20.926-20.834-48.514-32.142-77.749-31.9-16.681.145-32.691 3.952-47.583 11.315-14.306 7.074-30.715 7.074-45.021 0-14.893-7.363-30.902-11.171-47.578-11.315-29.222-.231-56.828 11.064-77.754 31.9-21.451 21.357-33.187 49.8-33.046 80.087.113 23.537 3.077 44.423 9.061 63.85.359 1.167.816 2.683 1.365 4.505 5.099 16.927 17.04 56.566 33.397 92.981 23.256 51.772 45.715 75.885 70.677 75.885 11.39 0 27.839-1.316 39.136-12.698 14.582-14.691 14.408-37.724 14.121-75.883-.042-5.637-.088-11.65-.091-18.056-.003-7.461 5.769-13.678 12.867-13.858 3.613-.078 7.006 1.238 9.578 3.746 2.579 2.514 3.999 5.884 3.999 9.489 0 6.623-.046 12.751-.091 18.679-.288 38.158-.461 61.191 14.121 75.883 11.296 11.382 27.745 12.698 39.136 12.698 24.962 0 47.42-24.112 70.676-75.883z"></path></g></svg>