<svg id="Layer_15" viewBox="0 0 64 64" xmlns="http://www.w3.org/2000/svg" data-name="Layer 15"><path d="m60 32c-1.1 0-2 .9-2 2h-4.12c-.22-1.9601-.76-3.8-1.54-5.52 4.66-2.34 7.66-7.1 7.66-12.48 0-7.72-6.28-14-14-14s-14 6.28-14 14c0 .8199.08 1.64.22 2.4399-3.0599.66-5.9 2.12-8.22 4.2001v-6.64c1.1 0 2-.9 2-2v-10c0-1.1-.9-2-2-2h-20c-1.1 0-2 .9-2 2v10c0 1.1.9 2 2 2v36c0 5.52 4.48 10 10 10s10-4.48 10-10v-2.64c2.78 2.48 6.26 4.08 10 4.5v4.14c-1.1 0-2 .9-2 2s.9 2 2 2h4c1.1 0 2-.9 2-2s-.9-2-2-2v-4.12c3.46-.38 6.64-1.76 9.22-3.8201l2.92 2.92c-.78.78-.78 2.04 0 2.8199.4.38.9.5801 1.42.5801.5 0 1.0199-.2001 1.4199-.5801l2.8201-2.8199c.7799-.8.7799-2.0601 0-2.84s-2.04-.78-2.8201 0l-2.9199-2.92c2.0599-2.58 3.4399-5.76 3.8199-9.22h4.12c0 1.1.9 2 2 2s2-.9 2-2v-4c0-1.1-.9-2-2-2zm-40 1.6599c-1.62.7001-3.08.2001-5.26-.6799-1.92-.76-4.1799-1.64-6.74-1.12v-15.86h12zm2-21.6599h-16v-6h16zm25-4c1.66 0 3 1.34 3 3s-1.34 3-3 3-3-1.3401-3-3 1.34-3 3-3zm-7 4c1.1 0 2 .9 2 2s-.9 2-2 2-2-.9-2-2 .9-2 2-2zm7.2 32.36-1.7799-1.78c-.78-.78-2.0601-.78-2.8401 0-.7799.78-.7799 2.0601 0 2.84l1.78 1.78c-2.3199 1.74-5.22 2.8-8.36 2.8-4.9 0-9.48-2.6-12-6.8v-14.4c2.52-4.2 7.1-6.7999 12-6.7999 7.72 0 14 6.28 14 14 0 3.14-1.0601 6.0399-2.8 8.36zm2.8-24.36c-1.1 0-2-.9-2-2s.9-2 2-2 2 .9 2 2-.9 2-2 2z"></path><path d="m33 26c-3.86 0-7 3.14-7 7s3.14 7 7 7 7-3.14 7-7-3.14-7-7-7zm0 10c-1.66 0-3-1.3401-3-3s1.34-3 3-3 3 1.34 3 3-1.34 3-3 3z"></path><circle cx="30" cy="44" r="2"></circle><circle cx="44" cy="36" r="2"></circle><circle cx="38" cy="46" r="2"></circle><circle cx="42" cy="28" r="2"></circle></svg>