<svg id="f849b2be-efbb-4221-96f5-dec4623c9ffe" height="512" viewBox="0 0 64 64" width="512" xmlns="http://www.w3.org/2000/svg" data-name="glyph"><path d="m54.68127 19.80835c-2.77471-3.31146-8.33427-3.13935-11.4129-2.74435a4.06862 4.06862 0 0 1 -2.64306-.476c-3.61524-2.19751-2.99756-6.99762-2.56208-8.96222a2.01857 2.01857 0 0 0 -1.29623-2.33922l-3.3013-1.16456a2.03021 2.03021 0 0 0 -2.6734 1.55951 27.25494 27.25494 0 0 0 3.84814 18.08636 8.56228 8.56228 0 0 1 .69873 7.36219c-3.08917 7.8808-12.07317 5.80394-14.99774 3.36188-6.62866-4.23114-12.37457-.225-14.35974 4.41547-4.35315 9.40271 3.179 18.007 8.55731 20.83057a2.05332 2.05332 0 0 0 2.8252-.85059l1.41766-2.84552a2.02871 2.02871 0 0 0 -.75946-2.63293c-7.08875-4.40522-6.31909-9.20527-5.23553-11.67621 2.11267-4.10547 5.34375.37433 6.16711 2.40008 4.94189 7.62543 9.35724 8.74951 9.99518 8.871 7.74695 2.05579 13.01288.33423 13.16473.2735 8.12171-2.157 13.52942-9.87359 13.74207-10.17743a20.9546 20.9546 0 0 0 3.433-10.77484c.42527-7.94955-3.87862-11.89904-4.60769-12.51669zm-3.97979 22.87628c-3.699 5.88281-11.61463 9.538-18.43061 6.937-2.61023-.85614-7.01867-4.60089-5.256-7.54455a2.15446 2.15446 0 0 1 1.70136-.84052l1.36712-.081c3.109-.17682 6.49842-1.42133 8.223-3.76715 1.16833-1.45764 1.94323-3.0066 1.39758-6.50135a4.49463 4.49463 0 0 1 .89093-3.60516c2.1723-2.39429 8.38678-3.07446 11.45349 2.93658 1.51623 2.68759.96013 9.18264-1.34687 12.46615z"></path><path d="m45.6684 27.616c-2.64136-.186-4.33442.92785-3.97968 2.8761a11.40345 11.40345 0 0 1 -.84082 6.98736 2.538 2.538 0 0 0 3.332 1.68091 4.54152 4.54152 0 0 1 5.15442 1.82306c2.98331-5.51865 1.69077-12.72336-3.66592-13.36743zm-1.22528 7.41278a1.05828 1.05828 0 0 1 .00006-2.11646 1.05828 1.05828 0 0 1 -.00006 2.11649zm1.043-4.57727a1.05328 1.05328 0 0 1 2.10638 0 1.05328 1.05328 0 0 1 -2.10635.00003zm2.10641 7.62549a1.05844 1.05844 0 0 1 .00006-2.11646 1.05844 1.05844 0 0 1 -.00006 2.11646z"></path><path d="m46.68109 41.22638a2.55937 2.55937 0 0 0 -2.03546-.10126 4.53777 4.53777 0 0 1 -5.20508-1.91406c-2.192 2.46368-5.76037 3.75659-9.23559 3.95972l-1.36719.081c-.30994.01355-.217.08679-.21265.38477a7.10235 7.10235 0 0 0 4.36463 4.09124 10.73849 10.73849 0 0 0 5.64062.58734c1.50678-.01611 3.49365-.81347 6.12671-2.45068.98267-.66247 2.96808-1.91772 3.22052-3.07837a2.49347 2.49347 0 0 0 -1.29651-1.5597zm-13.61035 4.8305a1.05847 1.05847 0 0 1 .00006-2.11651 1.05847 1.05847 0 0 1 -.00006 2.11651zm5.63049-1.06329a1.0532 1.0532 0 0 1 .00006-2.10638 1.0532 1.0532 0 0 1 -.00006 2.10638zm5.04315-.243a1.05844 1.05844 0 0 1 .00007-2.11652 1.05844 1.05844 0 0 1 -.00007 2.11648z"></path></svg>