<svg id="Capa_1" enable-background="new 0 0 512.209 512.209" height="512" viewBox="0 0 512.209 512.209" width="512" xmlns="http://www.w3.org/2000/svg"><g><g id="Page-1_12_"><g id="_x30_13---Cancer-Microscope" transform="translate(-1)"><path id="Shape_21_" d="m126.764 256.015c.606.076 1.218.107 1.829.091h.549c.793.015 1.587-.015 2.377-.091 33.093-.549 64.672-13.961 88.046-37.394v-.091h.091c36.302-36.279 47.401-90.744 28.189-138.335s-65.013-79.088-116.327-79.997c-.606-.076-1.218-.107-1.829-.091h-.549c-.793-.015-1.587.015-2.377.091-69.798 1.18-125.763 58.1-125.763 127.908s55.965 126.729 125.764 127.909zm-80.183-107.703c.012-3.755.598-7.485 1.737-11.063h-10.605c-5.049 0-9.143-4.093-9.143-9.143s4.093-9.143 9.143-9.143h23.223c1.191-.936 2.443-1.791 3.749-2.56-1.312-4.047-1.99-8.272-2.011-12.526.008-5.735 1.223-11.405 3.566-16.64l-4.846-4.846h-14.539c-5.049 0-9.143-4.093-9.143-9.143 0-5.049 4.093-9.143 9.143-9.143h9.143v-9.143c0-5.049 4.093-9.143 9.143-9.143s9.143 4.093 9.143 9.143v14.537l3.109 3.017c7.291-6.263 16.538-9.787 26.149-9.966 1.676-9.407 7.811-17.417 16.457-21.486v-13.529c-.001-4.345 3.057-8.091 7.314-8.96 1.207-.244 2.45-.244 3.657 0 4.258.869 7.315 4.615 7.314 8.96v11.337c11.839 2.491 20.924 12.012 22.857 23.954 1.189-.091 2.286-.366 3.474-.366 6.722.05 13.347 1.613 19.383 4.571v-12.068c0-5.049 4.093-9.143 9.143-9.143s9.143 4.093 9.143 9.143v9.143h9.143c5.049 0 9.143 4.093 9.143 9.143 0 5.049-4.093 9.143-9.143 9.143h-9.234c5.113 7.525 7.852 16.411 7.863 25.509-.019 3.735-.51 7.452-1.463 11.063h11.977c5.049 0 9.143 4.093 9.143 9.143s-4.093 9.143-9.143 9.143h-21.211c-1.522 1.735-3.139 3.383-4.846 4.937 4.845 6.395 7.477 14.194 7.497 22.217-.033 3.186-.494 6.354-1.371 9.417h10.789c5.049 0 9.143 4.093 9.143 9.143s-4.093 9.143-9.143 9.143h-9.143v9.143c0 5.049-4.093 9.143-9.143 9.143s-9.143-4.093-9.143-9.143v-5.029c-10.077 6.305-22.587 7.328-33.554 2.743-1.847 3.635-4.359 6.891-7.406 9.6-1.486 1.26-3.077 2.391-4.754 3.383v16.731c.001 4.345-3.057 8.091-7.314 8.96-1.207.244-2.45.244-3.657 0-4.258-.869-7.315-4.615-7.314-8.96v-11.703c-17.476-.385-31.743-14.096-32.823-31.543-1.097.091-2.194.183-3.2.183-2.613.007-5.218-.269-7.771-.823l-1.92 1.92v14.537c0 5.049-4.093 9.143-9.143 9.143s-9.143-4.093-9.143-9.143v-9.143h-9.143c-5.049 0-9.143-4.093-9.143-9.143s4.093-9.143 9.143-9.143h9.966c-6.559-6.875-10.225-16.007-10.242-25.508z"></path><g clip-rule="evenodd" fill-rule="evenodd"><path id="Path_127_" d="m83.939 167.366c3.219-.005 6.385-.819 9.207-2.368 2.27-1.301 4.239-3.068 5.778-5.184-2.585-4.774-3.946-10.114-3.959-15.543.02-3.463.578-6.902 1.655-10.194-3.473-3.145-7.996-4.88-12.681-4.864-1.575-.015-3.145.192-4.663.613-3.174.825-6.087 2.442-8.466 4.699l-.091.091c-3.746 3.577-5.861 8.535-5.851 13.714.044 10.509 8.562 19.011 19.071 19.036z"></path><path id="Path_126_" d="m128.309 177.588c-5.79-.069-11.462-1.644-16.457-4.571-1.71 1.969-3.626 3.75-5.714 5.312-.591 1.58-.9 3.251-.914 4.937.01 8.539 6.93 15.46 15.47 15.47 1.537.022 3.067-.229 4.517-.741 2.096-.607 4.03-1.675 5.659-3.127 2.215-1.942 3.825-4.482 4.635-7.314-2.428-3.033-4.368-6.426-5.751-10.057-.494.054-.96.091-1.445.091z"></path><path id="Path_125_" d="m83.939 110.899c8.311.002 16.38 2.797 22.912 7.936 3.687-3.138 8.01-5.44 12.672-6.747-.128-1.39-.357-2.743-.357-4.151-.018-6.033 1.186-12.008 3.538-17.563-3.025-4.2-7.361-7.275-12.325-8.741-2.04-.578-4.152-.865-6.272-.85-12.767.01-23.116 10.355-23.131 23.122.026 2.418.436 4.816 1.216 7.104.586-.027 1.153-.11 1.747-.11z"></path><path id="Path_124_" d="m504.913 493.821h-303.543c-4.664.512-8.195 4.451-8.195 9.143s3.531 8.631 8.195 9.143h303.543c4.664-.512 8.195-4.451 8.195-9.143-.001-4.692-3.532-8.632-8.195-9.143z"></path><path id="Rectangle_4_" d="m330.284 64.106h45.714c10.099 0 18.286 8.187 18.286 18.286v137.143c0 10.099-8.187 18.286-18.286 18.286h-45.714c-10.099 0-18.286-8.187-18.286-18.286v-137.143c0-10.099 8.187-18.286 18.286-18.286z"></path><path id="Path_123_" d="m143.322 67.891c0-.101.046-.192.046-.293-.005-6.088-4.939-11.021-11.026-11.026-5.592.066-10.239 4.327-10.789 9.893 4.467 2.097 8.519 4.983 11.959 8.521 2.937-2.794 6.236-5.18 9.81-7.095z"></path><path id="Path_122_" d="m311.998 356.678h-164.571c-10.099 0-18.286 8.187-18.286 18.286s8.187 18.286 18.286 18.286h164.571z"></path><path id="Path_121_" d="m254.005 438.964h57.993v-27.429h-96.786l19.401 19.401c5.156 5.124 12.123 8.008 19.392 8.028z"></path><path id="Path_120_" d="m412.57 108.047v39.259c42.137 19.35 67.539 63.123 63.433 109.308-4.105 46.186-36.83 84.791-81.719 96.406v37.486c65.514-12.433 114.31-67.627 118.617-134.171s-36.966-127.569-100.331-148.343z"></path><path id="Path_119_" d="m330.284 402.392v73.143h45.714v-118.857h-9.143-36.571z"></path><path id="Path_118_" d="m357.713.106h-9.143c-5.049 0-9.143 4.093-9.143 9.143v36.571h27.429v-36.571c-.001-5.049-4.094-9.143-9.143-9.143z"></path><path id="Path_117_" d="m141.338 94.022c-2.55 4.193-3.895 9.008-3.886 13.915.005 1.498.13 2.993.375 4.471 8.212 2.45 15.179 7.944 19.474 15.36 2.408-.484 4.858-.732 7.314-.741 5.272.019 10.48 1.16 15.278 3.346 7.492-4.996 11.961-13.432 11.886-22.437-.024-11.955-7.854-22.493-19.294-25.965s-23.806.935-30.471 10.861c-.254.38-.48.778-.676 1.19z"></path><path id="Path_116_" d="m164.615 145.313c-7.726-.004-14.693 4.647-17.652 11.784s-1.327 15.353 4.134 20.817c5.462 5.464 13.677 7.1 20.815 4.144s11.793-9.921 11.793-17.646c-.009-10.54-8.549-19.084-19.09-19.099z"></path><path id="Path_115_" d="m129.653 129.313c-.409-.033-.815-.094-1.216-.183-5.51.05-10.582 3.014-13.33 7.79-1.219 2.244-1.848 4.761-1.829 7.314-.005 3.503 1.225 6.896 3.474 9.582l.704.814c2.714 2.817 6.413 4.475 10.322 4.626 1.275-9.132 5.903-17.462 12.983-23.369-2.523-3.753-6.604-6.168-11.108-6.574z"></path><path id="Path_114_" d="m357.713 283.535c5.049 0 9.143-4.093 9.143-9.143v-18.286h-27.429v18.286c0 5.049 4.093 9.143 9.143 9.143z"></path></g></g></g></g></svg>