<svg id="Capa_1" enable-background="new 0 0 512.005 512.005" height="512" viewBox="0 0 512.005 512.005" width="512" xmlns="http://www.w3.org/2000/svg"><g><path d="m240.909 95.472-.016-95.472-30 .005.016 95.463c-.005 14.095-11.477 25.562-25.572 25.562h-7.59c13.142-43.688-21.321-87.947-66.639-87.765-63.07-.914-106.022 59.439-105.198 118.711-.001-.001-.001 39.129-.001 39.129-.819 59.259 42.135 119.65 105.201 118.719 45.331.153 79.785-44.07 66.63-87.794h7.597c14.095 0 25.566 11.467 25.572 25.554l-.016 264.421h30l.016-264.426c-.012-30.63-24.941-55.549-55.572-55.549h-20.59c5.118-12.936 5.115-28.059-.006-41h20.596c30.63 0 55.56-24.92 55.572-55.558z"></path><path d="m481.729 75.395c-27.603-40.819-93.297-59.431-130.63-21.32-17.51 17.416-23.972 43.57-17.028 66.955h-7.59c-14.095 0-25.566-11.467-25.572-25.553l.016-95.472-30-.005-.016 95.48c.012 30.63 24.941 55.55 55.572 55.55h20.596c-5.121 12.941-5.124 28.064-.006 41h-20.59c-30.63 0-55.56 24.919-55.572 55.556l.016 264.419h30l-.016-264.414c.005-14.094 11.477-25.561 25.572-25.561h7.597c-8.443 27.597 2.875 59.186 27.031 75.355 8.946-17.864 26.655-30.223 46.8-32.12v-64.26h30v64.27c12.493 1.153 24.32 6.438 33.55 14.76 22.579-23.791 34.377-56.289 34.45-88.93.333-43.957 2.733-77.573-24.18-115.71z"></path><path d="m460.909 323.585c.023-15.893-13.074-28.639-28.59-28.58h-18.83c-15.884-.019-28.634 13.043-28.58 28.58v25.42h76z"></path><path d="m460.909 409.005v-30h-76v30c-7.232 0-21.791 0-29 0v30h52v43h-30v30h90v-30h-30v-43h52v-30c-7.204 0-21.777 0-29 0z"></path></g></svg>