<svg id="_x33_0" enable-background="new 0 0 64 64" height="512" viewBox="0 0 64 64" width="512" xmlns="http://www.w3.org/2000/svg"><g><path d="m34.538 53.848 2.201 7.152h16.907l-3.081-10.014z"></path><path d="m3 61h18v-6h-18zm14-4h2v2h-2zm-4 0h2v2h-2zm-4 0h2v2h-2zm-4 0h2v2h-2z"></path><path d="m24.069 51.471c1.057 1.174 2.699 1.734 4.243 1.457l25.863-4.618c.478-.085.825-.499.825-.985v-2.325h-36.755z"></path><path d="m10 45c-1.654 0-3-1.346-3-3 0-.896.403-1.693 1.028-2.243-1.827-1.264-3.028-3.372-3.028-5.757 0-3.86 3.14-7 7-7h5v2c1.685 0 3.129 1.046 3.718 2.523l.282-.141v-6.382h4.82l2-10h25.18v-2h-3v-11h-4v11h-4v-7h-4v7h-4v-5h-4v5h-3.82l-2 10h-3.18v-11c0-4.624-3.507-8.441-8-8.941v8.941h2c.552 0 1 .448 1 1v2c0 .552-.448 1-1 1h-2v9h-2v-9h-2c-.552 0-1-.448-1-1v-2c0-.552.448-1 1-1h2v-8.941c-4.493.5-8 4.317-8 8.941v41h18v-1.95l-5.445-6.05z"></path><path d="m60 31c-.718 0-1.341.486-1.515 1.183l-.704 2.817h-17.781v-2h8.586l-1.293-1.293 1.414-1.414 2.707 2.707h3.383l-3.913-4.472c-.85-.971-2.078-1.528-3.368-1.528-.811 0-1.606.221-2.302.638l-8.989 5.394-8.769-.975c-1.768-.194-3.592.129-5.182.925l-3.274 1.636v-1.618c0-1.103-.897-2-2-2h-2v-2h-3c-2.757 0-5 2.243-5 5s2.243 5 5 5h8.184c-.112-.314-.184-.648-.184-1 0-1.654 1.346-3 3-3h12c1.654 0 3 1.346 3 3 0 .352-.072.686-.184 1h22.184c.551 0 1-.448 1-1v-6c0-.551-.449-1-1-1z"></path><path d="m60 41h-50c-.551 0-1 .448-1 1s.449 1 1 1h50c.551 0 1-.448 1-1s-.449-1-1-1z"></path><path d="m35 39c.551 0 1-.448 1-1s-.449-1-1-1h-12c-.551 0-1 .448-1 1s.449 1 1 1z"></path><path d="m29 17h22v2h-22z"></path><path d="m29 21h13v2h-13z"></path><path d="m29 25h9v2h-9z"></path></g></svg>