<svg id="Capa_1" enable-background="new 0 0 512 512" height="512" viewBox="0 0 512 512" width="512" xmlns="http://www.w3.org/2000/svg"><g id="XMLID_401_"><path id="XMLID_536_" d="m283.818.039h-20.411c-119.152-2.15-190.506 85.293-190.506 190.506l-33.986 64.091c-4.107 10.472 2.401 22.081 13.477 24.042l17.251 2.812 56.882-74.409.33-.376c9.663-11.029 23.614-17.354 38.277-17.354h76.277c22.415 0 42.142 15.116 47.973 36.761 1.945 7.221 7.702 12.655 15.024 14.18l.977.238 4.777 1.335c24.379 6.81 41.356 28.383 42.243 53.682l.009.516.129 215.937h53.456c-14.021-63.554-1.289-130.077 35.209-183.963l2.106-3.109c26.571-39.231 31.012-85.525 31.012-132.907v-1.475c0-105.214-85.292-190.507-190.506-190.507z"></path><path id="XMLID_537_" d="m302.099 270.717-4.338-1.212c-18.186-3.993-32.454-17.589-37.306-35.602-2.315-8.593-10.147-14.595-19.047-14.595h-76.277c-5.886 0-11.494 2.478-15.455 6.815l-32.139 42.043h113.263l56.448 58.848v50.49l-25.802 18.923v115.573h61.137l-.13-215.635c-.522-12.096-8.676-22.386-20.354-25.648z"></path><path id="XMLID_573_" d="m191.08 361.521h-104.808c-.224 8.112 2.794 16.049 8.509 21.973l2.37 2.456v22.269c0 16.094 11.596 29.846 27.458 32.565l22.331 3.828c15.098 2.588 26.135 15.678 26.135 30.996v36.392h58.415v-116.224z"></path><path id="XMLID_574_" d="m247.14 369.769 10.152-7.445v-23.265l-39.266-40.935h-139.974l-2.028 17.415c-.911 5.463-.343 10.973 1.505 16.024h124.54z"></path></g></svg>