<svg id="Layer_1" enable-background="new 0 0 68 68" height="512" viewBox="0 0 68 68" width="512" xmlns="http://www.w3.org/2000/svg"><g><path d="m22.09375 41.4421387c-.8291016 0-1.5917969-.1523438-2.2460938-.4863281-.5224609-.2670898-1.0424805-.6882324-1.4438477-1.3339844-.432373 2.1223145-.3408203 4.3510742 1.5991211 5.1069336 3.2519531 1.2683105 9.782959-2.0869141 11.932373-6.0383301-.338623-.432373-.5522461-.9594727-.5993652-1.5383301-2.6630858 2.4370117-6.3515624 4.2895508-9.2421874 4.2900391z"></path><path d="m46.7426758 31.7580566c-1.4365234.7026367-2.8378906.9726563-4.1435547.9726563-2.2873535 0-4.2768555-.8291016-5.651123-1.6142578-.0854492.2607422-.2097168.5073242-.3666992.7355957 3.2990723 3.3283691 7.6984863 4.9875488 10.1691895 3.7824707 1.6420898-.802002 2.4321289-2.7890625 2.3591309-5.7744141-.5251466.7475586-1.3159181 1.3830567-2.3669435 1.8979492z"></path><path d="m47.1889648 36.532959c-.7133789.3486328-1.5058594.5058594-2.3413086.5058594-2.5258789 0-5.4348145-1.4467773-7.7617188-3.3833008-.017334.574707-.1982422 1.125-.5297852 1.590332.1806641.2502441.315918.5273438.4064941.8205566 3.4890137 3.4311523 8.5344238 5.2683105 10.8547363 3.9294434 1.3525391-.7792969 1.7915039-2.5966797 1.3037109-5.2832031-.547363.9245605-1.248779 1.4868164-1.9321287 1.8203125z"></path><path d="m45.5083008 25.1228027c1.2670898-.7075195 1.9326172-1.4863281 1.9790039-2.3154297.0576172-1.0383301-.8349609-1.9777832-1.3388672-2.4243164-.0744629.083252-.1289063.1669922-.2124023.25-1.0068359.996582-2.3540039 1.6665039-3.8959961 1.9379883-.7734375.1352539-1.7763672.253418-2.9189453.253418-.6728516 0-1.4047852-.0639648-2.1557617-.1665039.0820313.2695313.1274414.552002.1274414.8422852 0 .6074219-.1879883 1.1894531-.5366211 1.6787109.1079102.1494141.1945801.3105469.270752.4765625 2.3073729.7255859 5.6149901 1.185791 8.6813964-.5327149z"></path><path d="m20.3027344 40.0651855c2.6306152 1.3430176 8.2348633-1.0493164 11.5297852-4.8525391-.3361817-.4885253-.5200196-1.0578612-.5200196-1.6450194 0-.0891113.0126953-.1762695.020752-.263916-2.3898926 2.1271973-5.4663086 3.7458496-8.1428223 3.7458496-.8291016.0004883-1.6181641-.1542969-2.3359375-.4956055-.701416-.3334961-1.421875-.9040527-1.9804688-1.8505859-.3930664 2.1630859-.3164062 4.4699706 1.428711 5.3618163z"></path><path d="m36.6816406 21.6181641c2.0725098.3493652 3.9438477.185791 5.1855469-.0319824 1.340332-.2363281 2.5039063-.8110352 3.3642578-1.6625977.6630859-.6606445.9365234-1.2792969.8120117-1.8364258-.2055664-.9179688-1.4282227-1.6276855-2.1394043-1.9401855-.2504883.2995605-.5627441.6015625-.9533691.9060059-1.3911133 1.0869141-3.0859375 1.6420898-4.9716797 1.6420898-.4389648 0-.8913574-.0402832-1.3498535-.1005859.2976074.4584961.463623.9916992.463623 1.5537109 0 .524414-.1479492 1.0263671-.4111328 1.4699707z"></path><path d="m46.3032227 30.8596191c1.4008789-.6860352 2.2387695-1.59375 2.4897461-2.6972656.3366699-1.479248-.4277344-2.9938965-.894043-3.7451172-.4160156.5717773-1.0463867 1.1005859-1.9023438 1.578125-1.7275391.96875-3.5161133 1.3134766-5.1850586 1.3134766-1.3552246 0-2.6225586-.2304688-3.7248535-.534668.0007324.0263672.0061035.052002.0061035.0786133 0 .6176758-.1845703 1.190918-.5371094 1.6811523.3168945.4404297.4899902.9506836.5231934 1.4980469 1.9020996 1.1704102 5.4445801 2.675293 9.2243653.8276367z"></path><path d="m29.52 54.138h10.485v6.417h-10.485z"></path><path d="m29.0195313 61.5544434h-11.0009766c-1.2348633 0-2.2392578 1.0048828-2.2392578 2.2397461v.796875h38.1835938v-.796875c0-1.2348633-1.0048828-2.2397461-2.2397461-2.2397461h-11.21875z"></path><path d="m22.4863281 25.1223145c3.2526855 1.8205566 6.7529297 1.2258301 9.1767578.3686523.0578613-.1066895.1179199-.2124023.1894531-.3120117-.3505859-.4960938-.5400391-1.078125-.5400391-1.6787109 0-.309082.0510254-.6113281.1464844-.8986816-.9084473.1516113-1.7849121.2145996-2.5942383.2145996-1.1176758 0-2.1108398-.1118164-2.8955078-.2441406-1.5507813-.2714844-2.9013672-.9414063-3.9077148-1.9375-.0825195-.0820313-.1362305-.1645508-.2097168-.2468262-.5065918.4484863-1.3974609 1.3862305-1.3405762 2.4226074.0458985.8281249.709961 1.605957 1.9750977 2.3120117z"></path><path d="m21.6928711 30.8596191c3.9929199 1.9516602 7.6970215.2080078 9.6586914-1.1069336.0715332-.4348145.2419434-.8500977.5024414-1.2172852-.3554687-.4975585-.5415039-1.071289-.5415039-1.6826171 0-.0688477.0109863-.135498.0158691-.2036133-1.2209473.3759766-2.6337891.6650391-4.1428223.6650391-1.6757813 0-3.4580078-.3510742-5.1870117-1.3188477-.8522949-.4758301-1.4807129-1.0021973-1.8964844-1.5712891-.4680176.753418-1.230957 2.2646484-.8959961 3.7407227.2500001 1.1025391 1.0864259 2.0092774 2.4868165 2.6948242z"></path><path d="m21.2841797 35.651123c2.5722656 1.2250977 7.0776367-.5554199 10.3886719-4.0563965-.1196289-.2194824-.2075195-.4509277-.2670898-.690918-1.4567871.892334-3.5634766 1.8337402-5.9926758 1.8337402-1.3120117.0004883-2.7163086-.2744141-4.159668-.9794922-1.0507813-.5146484-1.8410645-1.1496582-2.3652344-1.8969727-.0720215 3.0043947.7299805 4.9975588 2.3959961 5.7900392z"></path><path d="m26.1391602 21.5861816c1.3515625.229248 3.3647461.3847656 5.5429688-.0437012-.2373048-.428955-.369629-.9042968-.369629-1.394287 0-.5852051.1811523-1.1467285.5112305-1.6262207-.6159668.1064453-1.2207031.1730957-1.8022461.1730957-1.8842773 0-3.5737305-.5541992-4.9663086-1.6420898-.3911133-.3041992-.7038574-.605957-.9550781-.9052734-.7143555.3149414-1.942627 1.0283203-2.1464844 1.9433594-.1240234.5561523.1494141 1.1728516.8125 1.8339844.8598633.8505858 2.0263672 1.4257811 3.3730469 1.6611326z"></path><path d="m60.7729492 7.4089355h-53.5458984c-.4008789 0-.7270508.3261719-.7270508.7270508v40.2749023c0 .4008789.3261719.7270508.7270508.7270508h53.5458984c.4008789 0 .7270508-.3261719.7270508-.7270508v-40.2749023c0-.4008789-.3261719-.7270508-.7270508-.7270508zm-50.7729492 3h9.5878906c.2763672 0 .5.2236328.5.5s-.2236328.5-.5.5h-9.5878906c-.2763672 0-.5-.2236328-.5-.5s.2236328-.5.5-.5zm4.3378906 4.791504h-4.3378906c-.2763672 0-.5-.2236328-.5-.5s.2236328-.5.5-.5h4.3378906c.2763672 0 .5.2236328.5.5s-.2236328.5-.5.5zm34.09375 30.434082c-.590332.2421875-1.2705078.3549805-2.0068359.3549805-3.7124023 0-8.8388672-2.8674316-11.0229492-6.4477539-.3666992.168457-.7705078.2685547-1.199707.2685547-.5517578 0-1.0625-.1635742-1.5014648-.4331055-2.1052246 3.6152344-7.3598633 6.6088867-11.1376953 6.6088867-.7021484 0-1.3530273-.1035156-1.9228516-.3256836-1.3862305-.5400391-3.4702148-2.253418-1.8564453-7.6645508.0026855-.0087891.0092773-.0146484.0124512-.0234375-.2158203-1.1791992-.1491699-2.7539063.4133301-4.8720703.0009766-.003418.003418-.0058594.0043945-.0090332-.3830566-1.4196777-.487793-3.3410645-.0849609-5.9587402.0012207-.0078125.0063477-.0136719.0078125-.0214844.1113281-1.828125 1.2011719-3.3867188 1.4599609-3.730957-.0429688-.1704102-.074707-.3430176-.0839844-.5195313-.0812988-1.5227051 1.1398926-2.765625 1.7563477-3.2939453-.3015137-.5673828-.416748-1.1345215-.2910156-1.6958008.3022461-1.3481445 1.798584-2.2089844 2.5888672-2.5773926-.145752-.3691406-.1828613-.732666-.1030273-1.088623.3671875-1.6362305 2.9916992-2.2675781 3.2900391-2.3339844.2670898-.0620117.5361328.109375.5966797.378418.0600586.269043-.1088867.5366211-.378418.597168-.5957031.1342773-2.3393555.7124023-2.5327148 1.5776367-.1386719.6220703.5922852 1.3442383 1.2304688 1.840332 1.8903809 1.4765625 4.0825195 1.5693359 5.7592773 1.3183594-.0732425-.255127-.1166995-.5185547-.1166995-.7871094 0-.5986328.1933594-1.190918.5400391-1.6806641-.3466797-.4902343-.5400391-1.0830078-.5400391-1.6816406 0-1.5878906 1.2963867-2.8798828 2.8896484-2.8798828 1.59375 0 2.890625 1.2919922 2.890625 2.8798828 0 .6147461-.1875 1.1972656-.5351563 1.6816406.3476563.4833984.5351563 1.065918.5351563 1.6806641 0 .2868652-.045166.5671387-.1262207.8354492 2.0915527.2368164 3.8967285-.2163086 5.3688965-1.3662109.6367188-.496582 1.3657227-1.21875 1.2260742-1.8413086-.1953125-.8691406-1.934082-1.4438477-2.527832-1.5771484-.2695313-.0600586-.4389648-.3276367-.378418-.597168.0600586-.269043.3256836-.4389648.597168-.378418.2973633.0664063 2.9174805.6977539 3.284668 2.3334961.0800781.3557129.043457.7192383-.1013184 1.0881348.7873535.3674316 2.2814941 1.2282715 2.583252 2.5759277.1254883.5603027.0109863 1.126709-.2890625 1.6933594.6123047.5241699 1.8381348 1.769043 1.7558594 3.296875-.0092773.1745605-.0402832.3452148-.0825195.5136719.248291.3300781 1.3552246 1.9050293 1.4604492 3.7512207.0007324.0031738.0029297.0056152.003418.0090332.404541 2.6210938.3000488 4.5439453-.083252 5.9633789.0004883.0014648.001709.0026855.0021973.0043945.5615234 2.1123047.6286621 3.684082.4157715 4.8588867.0053711.0131836.015625.0229492.0197754.0371094 1.5942382 5.3520508-.4370118 7.0825195-1.7900392 7.6381836z"></path><path d="m36.0927734 13.4333496c0-1.0366211-.8481445-1.8798828-1.890625-1.8798828-1.0419922 0-1.8896484.8432617-1.8896484 1.8798828 0 .4907227.1992188.9765625.5463867 1.3325195.1894531.1943359.1894531.5043945 0 .6982422-.347168.355957-.5463867.8413086-.5463867 1.331543 0 .4892578.1953125.9643555.550293 1.3369141.1860352.1948242.184082.5014648-.0039063.6938477-.352539.3608398-.5463867.830078-.5463867 1.3217773 0 .4892578.1953125.9638672.550293 1.3364258.1745605.1826172.1772461.4621582.0214844.6552734-.0029297.0046387-.0061035.0087891-.0090332.0136719-.0065918.0075684-.0090332.0175781-.0163574.0249023-.3525391.3613281-.5463868.8305664-.5463868 1.3217773 0 .4892578.1953125.9643555.550293 1.3369141.1860352.1948242.184082.5014648-.0043945.6943359-.3520508.3598633-.5458985.8295899-.5458985 1.3212891 0 .6269531.2993164 1.0732422.5507813 1.3369141.1835938.1933594.1835938.4970703-.0004883.6899414-.2509766.2631836-.550293.7084961-.550293 1.3354492 0 .4897461.1953125.9638672.550293 1.3359375.1855469.1948242.184082.5014648-.0039063.6943359-.352539.3613282-.5463867.8310547-.5463867 1.3222657 0 .4892578.1953125.9638672.550293 1.3364258.0192871.0200195.027832.0454102.0429688.067627.0078125.0124512.0168457.0231934.0231934.0361328.1064453.1889648.0881348.4282227-.0700684.5900879-.3525391.3608397-.5463868.830078-.5463868 1.3217772 0 .545166.2353516 1.0332031.6054688 1.3786621.0004883.0004883.0012207.0009766.001709.0014648.3376465.314209.7861328.510498 1.2824707.510498 1.0424805 0 1.890625-.8481445 1.890625-1.890625 0-.4995117-.1928711-.9672852-.5424805-1.3173828-.1938477-.1933594-.1953125-.5068359-.0043945-.7026367.3525391-.3613281.546875-.8344727.546875-1.3320313 0-.4995117-.1928711-.9677734-.5424805-1.3178711-.1938477-.1938477-.1953125-.5073242-.0039063-.703125.3525391-.3603516.5463867-.8334961.5463867-1.331543 0-.5048828-.1889648-.965332-.5463867-1.3310547-.1899414-.1943359-.1899414-.5043945-.0004883-.6987305.3579102-.3666992.546875-.8276367.546875-1.3325195 0-.5-.1923828-.9677734-.5424805-1.3173828-.1938477-.1933594-.1958008-.5068359-.0043945-.7026367.3525391-.3613281.546875-.8344727.546875-1.3325195 0-.4990234-.1928711-.9672852-.5424805-1.3173828-.1938477-.1938477-.1953125-.5068359-.0043945-.7026367.3525391-.3613281.546875-.8344727.546875-1.3320313 0-.4995117-.1928711-.9672852-.5424805-1.3173828-.1938477-.1933594-.1953125-.5068359-.0043945-.7026367.3525391-.3613281.546875-.8344727.546875-1.3325195 0-.5058594-.1928711-.9770508-.5424805-1.3271484-.1953125-.1953125-.1953125-.5117188 0-.7070313.3496094-.3500975.5424805-.8217772.5424805-1.3281249z"></path><path d="m48.3168945 40.8625488c-.7094727.4082031-1.546875.5922852-2.4575195.5922852-2.7797852 0-6.2358398-1.7148438-8.8239746-3.967041-.1154785.5756836-.4020996 1.0891113-.8044434 1.4865723 2.3381348 3.8969727 8.6789551 7.0244141 11.8208008 5.7348633 1.8950195-.7775879 1.9765625-2.9960938 1.5463867-5.1010742-.3623047.5888671-.8203125.9887694-1.28125 1.2543944z"></path><path d="m65.5 50.1564941v-43.7666015c0-1.6435547-1.3374023-2.980957-2.980957-2.980957h-57.0375977c-1.644043-.0000001-2.9814453 1.3374023-2.9814453 2.980957v43.7666016c0 1.644043 1.3374023 2.9814453 2.9814453 2.9814453h23.5380859 11.4848633 22.0146485c1.6435547 0 2.980957-1.3374024 2.980957-2.9814454zm-3-1.7456054c0 .9521484-.7749023 1.7270508-1.7270508 1.7270508h-53.5458984c-.9521485 0-1.7270508-.7749024-1.7270508-1.7270508v-40.2749024c0-.9521484.7749023-1.7270508 1.7270508-1.7270508h53.5458984c.9521485 0 1.7270508.7749024 1.7270508 1.7270508z"></path></g></svg>