<svg id="Layer_1" enable-background="new 0 0 512 512" viewBox="0 0 512 512" xmlns="http://www.w3.org/2000/svg"><g clip-rule="evenodd" fill-rule="evenodd"><path d="m453.9 232.5 23.2 4.5c5.8 1.1 10 5.1 10.8 11l2.5 17.1 3.5.7c4.8.9 8.9 4.3 8.9 9.5v62.5c5.1.9 9.1 5.3 9.1 10.7v15c0 6-4.9 10.9-10.8 10.9h-490.2c-6 0-10.9-4.9-10.9-10.9v-15c0-6 4.9-10.8 10.9-10.8h3.5v-179.6c0-6.3 5.2-11.5 11.5-11.5h386.4c1.7 0 3.3.5 4.7 1.6 3.3 2.6 3.7 7.8 3.8 11.7 0 1.4 0 6.9.5 8z" fill="#911a1d"/><path d="m25.9 149.8h376.6 9.9c7.9 0 4.1 15.4 6.2 19.5l33.4 66 24.8 4.8c4.5.9 7.7 3.8 8.3 8.3l2.8 19.4 5.7 1.1c3.4.6 6.4 2.9 6.4 6.4v62.3h-482.5v-179.5c0-4.5 3.8-8.3 8.4-8.3zm274.1 18.1c-5.1 0-9.3 4.2-9.3 9.3v52.4c0 5.1 4.2 9.3 9.3 9.3h58c5.1 0 9.3-4.2 9.3-9.3v-52.4c0-5.1-4.2-9.3-9.3-9.3zm78 0c-3.6 0-6.5 2.9-6.5 6.5v58c0 3.6 2.9 6.5 6.5 6.5h26.8c.5 4 4 7 8.1 7h6.1c4.5 0 8.1-3.7 8.1-8.1v-5.4l9.5 6.6v-7.1l-9.5-6.6v-22.4c0-4.5-3.7-8.1-8.1-8.1h-1.3l-4.8-21c-.7-3.2-3-5.8-6.4-5.8h-28.5zm98.4 102.8c-4.5-.9-8.3 3.3-8.3 7.6v17.3c0 4.2 3.4 7.7 7.7 7.7h11.6c4.2 0 7.7-3.4 7.7-7.7v-15.1c0-4.1-3.2-6.9-7.1-7.6zm-97.7-10.3v2.3c0 1.3 1 2.3 2.3 2.3h11.6c1.3 0 2.3-1 2.3-2.3v-2.3zm-77-6.3v2.3c0 1.2 1 2.3 2.3 2.3h11.6c1.3 0 2.3-1 2.3-2.3v-2.3zm-277.7 52.5s-.1.1-.1.1c-.6.6-.9 1.4-.9 2.2v16c0 3.7 3 6.7 6.7 6.7h7.3c3.7 0 6.7-3 6.7-6.7v-16c0-.9-.4-1.8-1.1-2.4 0 0 .1-.1.1-.1.6-.6.9-1.4.9-2.2l-.1-23.9c0-3.7-3-6.7-6.7-6.7h-7.3c-3.7 0-6.7 3-6.7 6.7l.1 23.9c0 1 .4 1.9 1.1 2.4z" fill="#e21f26"/><path d="m499.8 289.7v47.8h-482.6v-47.8h5.7v14.5c0 .9.4 1.8 1.1 2.4 0 0-.1.1-.1.1-.6.6-.9 1.4-.9 2.2v16c0 3.7 3 6.7 6.7 6.7h7.3c3.7 0 6.7-3 6.7-6.7v-16c0-.9-.4-1.8-1.1-2.4 0 0 .1-.1.1-.1.6-.6.9-1.4.9-2.2v-14.5h424.5v6c0 4.2 3.4 7.7 7.7 7.7h11.6c4.2 0 7.7-3.4 7.7-7.7v-6z" fill="#fff"/><path d="m475.8 273.8 11.6 2.3c2.4.5 4.5 2 4.5 4.5v15.1c0 2.5-2 4.5-4.5 4.5h-11.6c-2.5 0-4.5-2-4.5-4.5v-17.3c0-2.5 2.1-5 4.5-4.6z" fill="#7dabc1"/><path d="m300 171.1h58c3.4 0 6.1 2.8 6.1 6.1v52.4c0 3.4-2.8 6.1-6.1 6.1h-58c-3.4 0-6.1-2.7-6.1-6.1v-52.4c0-3.4 2.8-6.1 6.1-6.1zm78 0h28.5c1.8 0 2.9 1.5 3.3 3.3l4.6 20.3h-1.5c-4.5 0-8.1 3.7-8.1 8.1v32.8h-26.8c-1.8 0-3.3-1.5-3.3-3.3v-58c0-1.7 1.5-3.2 3.3-3.2z" fill="#6baac8"/><path d="m316.9 171.1h18.9l28.4 50.2v8.3c0 3.4-2.8 6.1-6.1 6.1h-4.7zm14.6 64.6-35.6-62.9c-1.2 1.1-1.9 2.7-1.9 4.5v25.7l18.6 32.8h18.9z" fill="#4697bc"/><path d="m26.1 304.3-.1-24c0-2 1.6-3.6 3.6-3.6h7.3c2 0 3.6 1.6 3.6 3.6l.1 23.9h-14.5z" fill="#e21f26"/><path d="m26.1 325v-16h14.4v16c0 2-1.6 3.6-3.6 3.6h-7.3c-1.9 0-3.5-1.6-3.5-3.6z" fill="#f26822"/><path d="m10.9 340.7h14.4 33.2 442.7c4.2 0 7.7 3.5 7.7 7.7v15c0 4.2-3.5 7.7-7.7 7.7h-442.8-33.2-14.3c-4.2 0-7.7-3.5-7.7-7.7v-15c0-4.3 3.4-7.7 7.7-7.7z" fill="#fff"/><path d="m378.6 171.1 26.2 46.3v18.3h-8.5l-21.6-37.9v-23.4c0-1.8 1.5-3.3 3.3-3.3zm35.3 23.6h.5l-4.6-20.3c-.4-1.8-1.5-3.3-3.3-3.3h-5.9z" fill="#4697bc"/><path d="m119.8 400.6c26.2 0 47.5-21.3 47.5-47.5s-21.3-47.5-47.5-47.5-47.5 21.3-47.5 47.5c0 26.1 21.3 47.5 47.5 47.5z" fill="#010101"/><path d="m411.4 400.6c26.2 0 47.5-21.3 47.5-47.5s-21.3-47.5-47.5-47.5-47.5 21.3-47.5 47.5c0 26.1 21.4 47.5 47.5 47.5z" fill="#010101"/><path d="m119.8 321.8c17.3 0 31.3 14 31.3 31.3s-14 31.3-31.3 31.3-31.3-14-31.3-31.3 14-31.3 31.3-31.3zm0 18.9c-6.8 0-12.3 5.5-12.3 12.3s5.5 12.3 12.3 12.3 12.3-5.5 12.3-12.3c0-6.7-5.5-12.3-12.3-12.3zm0-13.2c-2.3 0-4.2 1.9-4.2 4.2s1.9 4.2 4.2 4.2 4.2-1.9 4.2-4.2-1.9-4.2-4.2-4.2zm0 43.8c-2.3 0-4.2 1.9-4.2 4.2s1.9 4.2 4.2 4.2 4.2-1.9 4.2-4.2c-.1-2.3-1.9-4.2-4.2-4.2zm18.4-36.2c-1.6-1.6-4.3-1.6-5.9 0s-1.6 4.3 0 5.9 4.3 1.6 5.9 0 1.6-4.3 0-5.9zm-31 31c-1.6-1.6-4.3-1.6-5.9 0s-1.6 4.3 0 5.9 4.3 1.6 5.9 0c1.6-1.7 1.6-4.3 0-5.9zm38.6-12.6c0-2.3-1.9-4.2-4.2-4.2s-4.2 1.9-4.2 4.2 1.9 4.2 4.2 4.2c2.4 0 4.2-1.9 4.2-4.2zm-43.8 0c0-2.3-1.9-4.2-4.2-4.2s-4.2 1.9-4.2 4.2 1.9 4.2 4.2 4.2 4.2-1.9 4.2-4.2zm36.2 18.5c1.6-1.6 1.6-4.3 0-5.9s-4.3-1.6-5.9 0-1.6 4.3 0 5.9 4.3 1.6 5.9 0zm-31-31c1.6-1.6 1.6-4.3 0-5.9s-4.3-1.6-5.9 0-1.6 4.3 0 5.9c1.7 1.6 4.3 1.6 5.9 0z" fill="#fff"/><path d="m411.4 321.8c17.3 0 31.3 14 31.3 31.3s-14 31.3-31.3 31.3-31.3-14-31.3-31.3c.1-17.3 14.1-31.3 31.3-31.3zm0 18.9c-6.8 0-12.3 5.5-12.3 12.3s5.5 12.3 12.3 12.3 12.3-5.5 12.3-12.3c.1-6.7-5.5-12.3-12.3-12.3zm0-13.2c-2.3 0-4.2 1.9-4.2 4.2s1.9 4.2 4.2 4.2 4.2-1.9 4.2-4.2-1.9-4.2-4.2-4.2zm0 43.8c-2.3 0-4.2 1.9-4.2 4.2s1.9 4.2 4.2 4.2 4.2-1.9 4.2-4.2-1.9-4.2-4.2-4.2zm18.5-36.2c-1.6-1.6-4.3-1.6-5.9 0s-1.6 4.3 0 5.9 4.3 1.6 5.9 0 1.6-4.3 0-5.9zm-31 31c-1.6-1.6-4.3-1.6-5.9 0s-1.6 4.3 0 5.9 4.3 1.6 5.9 0c1.6-1.7 1.6-4.3 0-5.9zm38.6-12.6c0-2.3-1.9-4.2-4.2-4.2s-4.2 1.9-4.2 4.2 1.9 4.2 4.2 4.2 4.2-1.9 4.2-4.2zm-43.8 0c0-2.3-1.9-4.2-4.2-4.2s-4.2 1.9-4.2 4.2 1.9 4.2 4.2 4.2 4.2-1.9 4.2-4.2zm36.2 18.5c1.6-1.6 1.6-4.3 0-5.9s-4.3-1.6-5.9 0-1.6 4.3 0 5.9 4.2 1.6 5.9 0zm-31-31c1.6-1.6 1.6-4.3 0-5.9s-4.3-1.6-5.9 0-1.6 4.3 0 5.9 4.3 1.6 5.9 0z" fill="#fff"/><path d="m377.7 132.6.1-5.6c.1-8.6 7.2-15.6 15.8-15.6s15.6 7.1 15.5 15.7l-.1 5.5c2 .3 3.5 2.1 3.4 4.1l-.1 9.1c0 2.2-1.9 4.1-4.1 4.1h-30c-2.3 0-4.1-1.9-4.1-4.2l.1-9.1c0-2.1 1.5-3.7 3.5-4z" fill="#911a1d"/><g><path d="m383.1 143.7h20.2c1.3 0 2.4-1.1 2.4-2.4l.2-14.2c.1-6.9-5.4-12.5-12.3-12.5-6.9 0-12.5 5.6-12.6 12.5l-.2 14.2c0 1.3 1 2.4 2.3 2.4z" fill="#e21f26"/><path d="m378.3 135.7h30c.5 0 .9.4.9.9l-.1 9.1c0 .5-.4.9-1 .9h-30c-.5 0-.9-.4-.9-.9l.1-9.1c.1-.5.5-.9 1-.9z" fill="#1a1a1a"/></g><path d="m126.4 178.2h-13.2c-3.6 0-6.6 3-6.6 6.6v24h-24c-3.6 0-6.6 3-6.6 6.6v13.2c0 3.6 3 6.6 6.6 6.6h24v24c0 3.6 3 6.6 6.6 6.6h13.2c3.6 0 6.6-3 6.6-6.6v-24h24c3.6 0 6.6-3 6.6-6.6v-13.2c0-3.6-3-6.6-6.6-6.6h-24v-24c-.1-3.6-3-6.6-6.6-6.6z" fill="#fff"/><g fill="#e21f26"><path d="m189.6 307.5.6 3-2.2 9.3v.2.2.2.2c0 .3.1.5.2.8.1.2.3.4.6.5l.4.2c.1.1.2.2.3.3s.1.3.1.4c0 .2-.1.4-.2.5-.2.1-.4.2-.7.2h-3.1c-.3 0-.5-.1-.7-.2s-.3-.3-.3-.6c0-.2 0-.3.1-.4s.2-.2.4-.3c.5-.3.9-.6 1.1-.9.2-.4.5-.9.6-1.6zm.9-3.7h4.9l3.4 16.9v.1.1c.1.3.2.5.3.7.1.1.2.2.4.3h.1.1c.2.1.3.2.3.3.1.1.1.3.1.4 0 .2-.1.4-.2.5-.2.1-.4.2-.7.2h-6.2c-.2 0-.4-.1-.6-.2-.1-.1-.2-.3-.2-.5 0-.1 0-.2 0-.3s.1-.1.1-.2c0 0 .1-.1.2-.1s.1-.1.2-.2h.1.1c.1-.1.2-.2.3-.3 0-.1.1-.3.1-.4v-.4l-.4-2.1h-3.4l.3-1.8h2.7l-2.2-11.6z"/><path d="m207.5 303.8 2.4 8.1 1-4.4v4.8l-2.8 11.2h-.6l-4.8-16.6c0-.1 0-.1-.1-.2 0-.1 0-.1-.1-.2-.1-.3-.2-.6-.4-.7-.1-.1-.3-.3-.6-.3-.3-.1-.5-.2-.6-.3s-.2-.3-.2-.6.1-.4.2-.6c.2-.1.4-.2.6-.2zm-4.8 6.6 1.3 4.4v4.3c0 .7.1 1.2.2 1.6s.4.7.7 1l.4.3c.2.1.3.3.4.4s.1.3.1.4c0 .2-.1.4-.2.5-.2.1-.4.2-.7.2h-3.1c-.3 0-.5-.1-.7-.2s-.2-.3-.2-.5c0-.1 0-.2 0-.3s.1-.1.1-.2c0 0 .1 0 .1-.1 0 0 .1-.1.1-.1.5-.3.8-.7 1-1.2s.3-1.1.3-1.8v-8.7zm9.3-6.6h5.5.3c.3 0 .5.1.7.2.1.1.2.3.2.6 0 .2 0 .3-.1.5-.1.1-.2.2-.4.3-.1 0-.1 0-.2.1-.1 0-.1.1-.2.1-.2.1-.3.2-.3.3s-.1.3-.1.6v14.4c0 .3 0 .5.1.6 0 .1.1.2.3.3.1 0 .1 0 .2.1.1 0 .1.1.2.1.2.1.3.2.4.3s.1.3.1.5c0 .3-.1.4-.2.6-.1.1-.4.2-.7.2h-.3-5.5-.4c-.4 0-.6-.1-.8-.2s-.3-.3-.3-.6c0-.2 0-.4.1-.5s.2-.2.4-.3h.2.2c.3-.1.4-.2.5-.4.1-.1.1-.4.1-.7z"/><path d="m227.4 303.8v19.6h-5.4-.3c-.3 0-.5-.1-.7-.2-.1-.1-.2-.3-.2-.6 0-.2 0-.3.1-.5.1-.1.2-.2.4-.3.1 0 .1 0 .2-.1.1 0 .1-.1.2-.1.2-.1.3-.2.3-.3s.1-.3.1-.6v-14.4c0-.3 0-.5-.1-.6 0-.1-.2-.2-.3-.3-.1 0-.1 0-.2-.1 0 0-.1-.1-.2-.1-.2-.1-.3-.2-.4-.3s-.1-.3-.1-.5c0-.3.1-.5.2-.6.2-.1.4-.2.7-.2h.3 5.4zm1 1.6v-1.6h1.4c1.8 0 3.2.4 4.2 1.3 1 .8 1.5 2 1.5 3.5 0 .8-.1 1.5-.4 2.1-.3.7-.7 1.2-1.2 1.5-.1 0-.1.1-.2.1 0 0-.1.1-.2.1-.2.1-.3.2-.5.3s-.4.2-.6.3c-.1.1-.3.1-.5.2-.2 0-.4.1-.6.2.3.1.5.1.7.2.2 0 .4.1.5.2.1 0 .3.1.4.1.1.1.2.1.4.2.1 0 .2 0 .2.1.1 0 .1.1.2.1.7.4 1.2.9 1.5 1.7.4.7.5 1.6.5 2.5s-.2 1.7-.5 2.4-.8 1.3-1.4 1.7c0 0-.1 0-.1.1 0 0-.1 0-.1.1-.5.3-1 .5-1.6.7-.6.1-1.3.2-2.2.2h-1.4v-1.5c.6 0 1-.2 1.3-.6s.4-.9.4-1.6v-3.3c0-.7-.1-1.3-.4-1.7s-.7-.6-1.3-.7v-1.5c.6 0 1.1-.2 1.3-.6s.4-1 .4-1.9v-2.5c0-.7-.1-1.2-.4-1.5-.4-.6-.8-.8-1.3-.9z"/><path d="m245.4 321.9v1.9h-.4c-.7 0-1.3 0-1.9-.1-.5-.1-1-.2-1.5-.4-.1 0-.2-.1-.3-.1-.1-.1-.2-.1-.3-.2-1-.6-1.6-1.2-2-2s-.6-1.9-.6-3.3v-11.3c0-.3 0-.5-.1-.6 0-.1-.1-.2-.3-.3 0 0-.1 0-.1-.1-.1 0-.1-.1-.2-.1-.2-.1-.3-.2-.4-.3s-.1-.3-.1-.5c0-.3.1-.5.2-.6.2-.1.4-.2.6-.2h.4 5.5.3c.3 0 .5.1.7.2s.2.3.2.6c0 .2 0 .3-.1.5-.1.1-.2.2-.4.3-.1 0-.1 0-.2.1-.1 0-.1.1-.1.1-.2.1-.3.2-.3.3s-.1.3-.1.6v12 1.6c0 .3.1.6.2.8.1.3.3.5.4.7.2.2.5.3.9.4zm1 1.9v-1.9c.9-.1 1.6-.6 2.2-1.4.5-.8.8-1.8.8-3.1v-9.4c0-.6-.1-1.2-.3-1.6-.2-.5-.5-.8-.9-1.1-.1-.1-.2-.1-.2-.2-.1-.1-.1-.1-.2-.1-.1-.1-.1-.2-.1-.3s0-.2 0-.3c0-.3.1-.4.2-.5.2-.1.4-.2.7-.2h3 .5c.1 0 .2 0 .2.1s0 0 0 0c.1.1.2.2.2.3.1.1.1.2.1.3v.3c0 .1 0 .1-.1.2 0 .1-.1.1-.2.2s-.2.2-.4.3c-.4.2-.6.6-.8 1.1s-.3 1-.3 1.6v9.3c0 1.7-.4 3.2-1.1 4.3s-2 1.9-3.3 2.1z"/><path d="m261 323.4h-5.4-.3c-.3 0-.5-.1-.7-.2-.1-.1-.2-.3-.2-.6 0-.2 0-.3.1-.5.1-.1.2-.2.4-.3.1 0 .1 0 .2-.1 0 0 .1-.1.2-.1.2-.1.3-.2.3-.3s.1-.3.1-.6v-14.4c0-.3 0-.5-.1-.6 0-.1-.2-.2-.3-.3-.1 0-.1 0-.2-.1 0 0-.1-.1-.2-.1-.2-.1-.3-.2-.4-.3s-.1-.3-.1-.5c0-.3.1-.5.2-.6.2-.1.4-.2.7-.2h.3 5.5.4c.4 0 .6.1.8.3.2.1.3.3.3.6 0 .2 0 .4-.1.5s-.2.2-.4.3c-.1 0-.1 0-.2.1-.1 0-.1 0-.1 0-.3.1-.4.2-.5.4-.1.1-.1.4-.1.7v16.9zm1 0v-1.6c.3 0 .6-.1.8-.2s.4-.2.5-.3c.4-.3.8-.7 1.1-1.3s.6-1.3.8-2.1c.1-.2.1-.3.1-.5 0-.1.1-.3.1-.4.1-.2.2-.3.3-.4s.2-.1.3-.1c.2 0 .4.1.5.2s.1.4.1.7v5.8h-4.6z"/><path d="m271.7 307.5.6 3-2.2 9.3v.2.2.2.2c0 .3.1.5.2.8.1.2.3.4.6.5l.4.2.3.3c.1.1.1.3.1.4 0 .2-.1.4-.2.5-.2.1-.4.2-.7.2h-3.1c-.3 0-.5-.1-.7-.2s-.3-.3-.3-.6c0-.2 0-.3.1-.4s.2-.2.4-.3c.5-.3.9-.6 1.1-.9.2-.4.5-.9.6-1.6zm.9-3.7h4.9l3.4 16.9v.1.1c.1.3.2.5.3.7.1.1.2.2.4.3h.1.1c.2.1.3.2.3.3.1.1.1.3.1.4 0 .2-.1.4-.2.5-.2.1-.4.2-.7.2h-6.1c-.2 0-.4-.1-.6-.2-.1-.1-.2-.3-.2-.5 0-.1 0-.2 0-.3s.1-.1.1-.2c0 0 .1-.1.2-.1s.1-.1.2-.2h.1.1l.3-.3c0-.1.1-.3.1-.4v-.4l-.4-2.1h-3.4l.3-1.8h2.7l-2.2-11.6z"/><path d="m285 308.8 1.3 2.6v7.7c0 .7.1 1.2.3 1.7.2.4.5.8.9 1.1l.4.2c.1.1.2.2.2.3.1.1.1.2.1.4 0 .3-.1.4-.2.5-.2.1-.4.2-.8.2h-2.8c-.4 0-.6-.1-.8-.2s-.3-.3-.3-.6c0-.1 0-.1 0-.2s0-.1.1-.1c0-.1.1-.1.2-.2l.3-.3c.4-.3.7-.6.9-1.1s.3-1 .3-1.7v-10.3zm5.1-5 6.5 13.3v6.4h-3.3l-8.3-16.8c-.1-.2-.2-.3-.3-.5-.1-.1-.2-.2-.2-.3-.1-.1-.1-.1-.2-.2-.1 0-.1-.1-.2-.1l-.4-.2c-.1 0-.2-.1-.3-.2s-.1-.3-.1-.4c0-.2 0-.3.1-.5l.3-.3c.1 0 .2-.1.4-.1h.7zm6.5 11-1.3-2.6v-4c0-.8-.1-1.4-.3-1.8s-.6-.8-1.1-1.1c0 0 0 0-.1 0 0 0 0 0-.1 0-.1-.1-.2-.2-.3-.3 0-.1-.1-.2-.1-.4 0-.3.1-.4.2-.6.1-.1.4-.2.7-.2h3.1c.4 0 .6.1.8.2s.2.3.2.6v.3c0 .1-.1.1-.1.2s-.1.1-.2.2-.2.1-.3.2c-.4.3-.7.6-.9 1.1s-.3 1-.3 1.7v6.5z"/><path d="m306.7 303.4v1.7c-.5.1-.8.4-1 .8s-.3 1-.3 1.8v11.9.6c0 .6.1 1 .4 1.4.2.3.6.5 1 .6v1.7c-2.3-.1-4-1-5.3-2.7s-1.9-4.1-1.9-7.2c0-1.4.1-2.6.4-3.8s.7-2.2 1.2-3.1c.4-.7 1-1.3 1.6-1.9s1.2-1 1.9-1.3c.3-.2.6-.3.9-.4s.6-.1.9-.1zm1 20.4v-1.8c.8 0 1.6-.4 2.3-1s1.1-1.4 1.4-2.4c.1-.3.2-.5.3-.7.1-.1.2-.2.4-.2s.4.1.5.3.2.4.2.6c0 .3-.1.6-.2.9s-.3.7-.5 1-.3.6-.5.9-.4.5-.6.8c-.5.5-1 .9-1.5 1.2-.6.3-1.2.4-1.8.4zm0-18.6v-1.7h.1.1.2.2c.2.1.4.1.6.2s.6.2 1 .4c.2.1.4.2.5.2s.2.1.3.1h.1s0 0 .1 0 .2-.1.2-.1c.1-.1.1-.2.2-.3l.1-.4c.1-.1.1-.1.2-.2s.2-.1.3-.1c.2 0 .4.1.5.2.1.2.2.4.2.7v5.9c0 .4-.1.6-.2.8s-.3.3-.5.3-.4-.1-.5-.2c-.1-.2-.2-.4-.3-.7-.4-1.6-.8-2.8-1.5-3.7-.4-.8-1.1-1.3-1.9-1.4z"/><path d="m321.2 303.8v19.6h-5.4-.3c-.3 0-.5-.1-.7-.2-.1-.1-.2-.3-.2-.6 0-.2 0-.3.1-.5.1-.1.2-.2.4-.3.1 0 .1 0 .2-.1 0 0 .1-.1.2-.1.2-.1.3-.2.3-.3s.1-.3.1-.6v-14.4c0-.3 0-.5-.1-.6 0-.1-.2-.2-.3-.3-.1 0-.1 0-.2-.1 0 0-.1-.1-.2-.1-.2-.1-.3-.2-.4-.3s-.1-.3-.1-.5c0-.3.1-.5.2-.6.2-.1.4-.2.7-.2h.3 5.4zm1.1 19.6v-1.6c1-.1 1.8-.5 2.4-1.1s1.1-1.5 1.4-2.6c0-.1 0-.1.1-.2 0-.1.1-.1.1-.2.1-.1.2-.2.2-.3.1-.1.2-.1.3-.1.3 0 .4.1.5.2s.1.4.1.8v5h-5.1zm0-9.1v-1.7c.5-.3.8-.5 1-.8s.4-.7.5-1.3c.1-.4.2-.6.3-.8.1-.1.3-.2.5-.2s.4.1.5.3.1.5.1 1v5.4c0 .5 0 .8-.1 1s-.2.3-.5.3c-.2 0-.3-.1-.4-.2s-.2-.4-.3-.7c-.1-.7-.3-1.2-.6-1.5-.3-.5-.6-.7-1-.8zm0-10.5h4.9v5.1c0 .3 0 .5-.1.7-.1.1-.2.2-.5.2-.2 0-.3 0-.4-.1s-.2-.2-.2-.4c0 0 0 0 0-.1v-.1c-.3-1.1-.8-2-1.4-2.6s-1.4-.9-2.3-1z"/></g></g></svg>