<svg id="Icon" height="300" viewBox="0 0 64 64" width="300" xmlns="http://www.w3.org/2000/svg" version="1.1" xmlns:xlink="http://www.w3.org/1999/xlink" xmlns:svgjs="http://svgjs.dev/svgjs"><g width="100%" height="100%" transform="matrix(1,0,0,1,0,0)"><path d="m42.90283 14.08643c2.23047 0 4.04541-1.81445 4.04541-4.04492v-3.74609c0-2.23047-1.81494-4.04541-4.04541-4.04541s-4.04541 1.81494-4.04541 4.04541v3.74609c0 2.23047 1.81494 4.04492 4.04541 4.04492z" fill="#b7202e" fill-opacity="1" data-original-color="#000000ff" stroke="none" stroke-opacity="1"/><path d="m16.90283 14.08643c2.23047 0 4.04541-1.81445 4.04541-4.04492v-3.74609c0-2.23047-1.81494-4.04541-4.04541-4.04541s-4.04541 1.81494-4.04541 4.04541v3.74609c0 2.23047 1.81494 4.04492 4.04541 4.04492z" fill="#b7202e" fill-opacity="1" data-original-color="#000000ff" stroke="none" stroke-opacity="1"/><path d="m49.45801 47.68994c-.14063-.14063-.21973-.33154-.21973-.53027v-2.99121c0-.68945-.56055-1.25-1.25-1.25s-1.25.56055-1.25 1.25v3.81982c0 .33398.12988.64795.36621.88428l4.52832 4.52783c.4873.4873 1.28027.4873 1.76758 0 .48462-.46533.48541-1.30261 0-1.76758z" fill="#b7202e" fill-opacity="1" data-original-color="#000000ff" stroke="none" stroke-opacity="1"/><path d="m47.98828 34.22705c-7.58789 0-13.76123 6.17334-13.76123 13.76123 0 7.58838 6.17334 13.76172 13.76123 13.76172 7.58838 0 13.76172-6.17334 13.76172-13.76172 0-7.58789-6.17334-13.76123-13.76172-13.76123zm6.47266 20.23389c-1.02301 1.06659-2.86566 1.06653-3.88867 0l-4.52832-4.52783c-.51953-.51953-.80566-1.20996-.80566-1.94482v-3.81982c0-1.51611 1.23389-2.75 2.75-2.75s2.75 1.23389 2.75 2.75v2.68066l3.72266 3.72314c.51953.51904.80566 1.20947.80566 1.94434-.00049.73438-.28613 1.42529-.80566 1.94434z" fill="#b7202e" fill-opacity="1" data-original-color="#000000ff" stroke="none" stroke-opacity="1"/><rect height="8.5" rx="1.25" width="8.5" x="25.653" y="22.73" fill="#b7202e" fill-opacity="1" data-original-color="#000000ff" stroke="none" stroke-opacity="1"/><rect height="8.5" rx="1.25" width="8.5" x="8.653" y="37.918" fill="#b7202e" fill-opacity="1" data-original-color="#000000ff" stroke="none" stroke-opacity="1"/><rect height="8.5" rx="1.25" width="8.5" x="8.653" y="22.73" fill="#b7202e" fill-opacity="1" data-original-color="#000000ff" stroke="none" stroke-opacity="1"/><rect height="8.5" rx="1.25" width="8.5" x="42.653" y="22.73" fill="#b7202e" fill-opacity="1" data-original-color="#000000ff" stroke="none" stroke-opacity="1"/><path d="m57.55566 10.17822c0-1.51611-1.2334-2.75-2.75-2.75h-6.35742v2.61328c0 3.05762-2.48779 5.54492-5.54541 5.54492s-5.54541-2.4873-5.54541-5.54492v-2.61328h-14.90918v2.61328c0 3.05762-2.48779 5.54492-5.54541 5.54492s-5.54541-2.4873-5.54541-5.54492v-2.61328h-6.35742c-1.5166 0-2.75 1.23389-2.75 2.75v6.60645h55.30566z" fill="#b7202e" fill-opacity="1" data-original-color="#000000ff" stroke="none" stroke-opacity="1"/><path d="m32.90283 37.91846h-6c-.68945 0-1.25.56055-1.25 1.25v6c0 .68945.56055 1.25 1.25 1.25h5.90491c.17572-1.71167.64929-3.33252 1.34509-4.83032v-2.41968c0-.68945-.56055-1.25-1.25-1.25z" fill="#b7202e" fill-opacity="1" data-original-color="#000000ff" stroke="none" stroke-opacity="1"/><path d="m32.73059 47.91846h-5.82776c-1.5166 0-2.75-1.2334-2.75-2.75v-6c0-1.5166 1.2334-2.75 2.75-2.75h6c1.47766 0 2.67737 1.1734 2.73853 2.63629 2.7652-3.81079 7.23566-6.30573 12.28906-6.32477h-4.02759c-1.5166 0-2.75-1.2334-2.75-2.75v-6c0-1.5166 1.2334-2.75 2.75-2.75h6c1.5166 0 2.75 1.2334 2.75 2.75v6c0 1.5166-1.2334 2.75-2.75 2.75h-1.85669c3.59869.01355 6.90393 1.2818 9.50952 3.38538v-17.83069h-55.30566v31.3291c0 1.51611 1.2334 2.75 2.75 2.75h28.3736c-.41614-1.38739-.64655-2.85443-.64655-4.37549 0-.02356.00342-.04626.00354-.06982zm-8.57776-23.93848c0-1.5166 1.2334-2.75 2.75-2.75h6c1.5166 0 2.75 1.2334 2.75 2.75v6c0 1.5166-1.2334 2.75-2.75 2.75h-6c-1.5166 0-2.75-1.2334-2.75-2.75zm-5.5 21.18848c0 1.5166-1.2334 2.75-2.75 2.75h-6c-1.5166 0-2.75-1.2334-2.75-2.75v-6c0-1.5166 1.2334-2.75 2.75-2.75h6c1.5166 0 2.75 1.2334 2.75 2.75zm0-15.18848c0 1.5166-1.2334 2.75-2.75 2.75h-6c-1.5166 0-2.75-1.2334-2.75-2.75v-6c0-1.5166 1.2334-2.75 2.75-2.75h6c1.5166 0 2.75 1.2334 2.75 2.75z" fill="#b7202e" fill-opacity="1" data-original-color="#000000ff" stroke="none" stroke-opacity="1"/></g></svg>