<svg id="Layer_1" enable-background="new 0 0 512 512" viewBox="0 0 512 512" xmlns="http://www.w3.org/2000/svg"><g><path d="m511 452.7v12.3c0 18.9-15.2 34.1-34.1 34.1h-441.8c-18.8.1-34.1-15.2-34.1-34.1v-12.4h510z" fill="#6a88c8"/><path d="m346.6 452.7c1.2 12.2-7.8 23.3-20.3 23.2h-140.6c-12.5.1-21.6-11.1-20.3-23.2z" fill="#44569b"/><path d="m65.7 154.4v24.1h-22.3v274.2h-24.1v-281.6c0-9.2 7.5-16.7 16.6-16.7z" fill="#4c9ced"/><path d="m490.4 171.1v281.6h-24.1v-274.1h-40.3l-3.2-24.1h51c9.2-.1 16.6 7.5 16.6 16.6z" fill="#4c9ced"/><path d="m381.3 52.3v38.5h-315.6v-38.5c0-9.3 7.6-16.8 16.9-16.8h30.6v12.7c0 5.5 4.5 9.9 9.9 9.9 5.3-.1 9.9-4.3 9.9-9.9v-12.7h30.5v12.7c0 5.5 4.4 9.9 9.9 9.9s9.8-4.6 9.8-9.9v-12.7h30.5v12.7c0 5.4 4.4 9.9 9.9 9.9s9.9-4.4 9.9-9.9v-12.7h30.5v12.7c0 5.5 4.5 9.9 9.9 9.9s9.8-4.4 9.8-9.9v-12.7h30.5v12.7c0 5.4 4.4 9.9 9.9 9.9s9.9-4.4 9.9-9.9v-12.7h30.6c9.2 0 16.7 7.5 16.7 16.8z" fill="#78e7dc"/><path d="m381.3 90.8v252.7c0 9.3-7.6 16.8-16.8 16.8h-281.9c-9.3 0-16.8-7.5-16.8-16.8v-252.7z" fill="#eaeffe"/><path d="m466.2 178.6v274.1h-422.8v-274.1h22.3v164.9c0 9.3 7.6 16.8 16.8 16.8h281.9c9.3 0 16.8-7.5 16.8-16.8v-13.9h49.3c8.4 0 14.3-6.8 13.2-15.3l-17.7-135.7z" fill="#fff"/><path d="m430.7 329.6h-49.3v-277.3c0-9.3-7.6-16.8-16.8-16.8h27.4c8.4 0 16.1 6.8 17.2 15.2 4.6 34.3 12.3 93.4 16.9 127.9 0 0 17.8 135.7 17.8 135.7 1 8.5-4.9 15.3-13.2 15.3z" fill="#d5dcf8"/><path d="m126.7 57.4c-6.3 2.7-13.6-2.3-13.5-9.2v-25.5c-.1-6.9 7.3-11.9 13.5-9.2-3.7 1.4-6.3 5-6.3 9.2v25.5c0 4.2 2.6 7.8 6.3 9.2z" fill="#f3ae83"/><path d="m132.9 22.7v25.5c0 4.2-2.6 7.8-6.2 9.2-3.7-1.4-6.3-5-6.3-9.2v-25.5c0-4.2 2.6-7.8 6.3-9.2 3.7 1.5 6.2 5 6.2 9.2z" fill="#f6c9af"/><path d="m176.9 57.4c-6.3 2.7-13.6-2.3-13.5-9.2v-25.5c-.2-6.8 7.2-11.9 13.5-9.2-3.7 1.4-6.2 5-6.2 9.2v25.5c0 4.2 2.5 7.8 6.2 9.2z" fill="#f3ae83"/><path d="m183.1 22.7v25.5c0 4.2-2.6 7.8-6.2 9.2-3.7-1.4-6.2-5-6.2-9.2v-25.5c0-4.2 2.6-7.8 6.2-9.2 3.7 1.5 6.2 5 6.2 9.2z" fill="#f6c9af"/><path d="m227.2 57.4c-6.2 2.7-13.7-2.3-13.5-9.2v-25.5c-.1-6.8 7.3-11.9 13.5-9.2-3.7 1.4-6.3 5-6.3 9.2v25.5c0 4.2 2.6 7.8 6.3 9.2z" fill="#f3ae83"/><path d="m233.4 22.7v25.5c0 4.2-2.6 7.8-6.2 9.2-3.7-1.4-6.3-5-6.3-9.2v-25.5c0-4.2 2.6-7.8 6.3-9.2 3.6 1.5 6.2 5 6.2 9.2z" fill="#f6c9af"/><path d="m277.4 57.4c-6.2 2.7-13.6-2.3-13.5-9.2v-25.5c-.1-6.8 7.2-11.9 13.5-9.2-3.7 1.4-6.2 5-6.2 9.2v25.5c0 4.2 2.5 7.8 6.2 9.2z" fill="#f3ae83"/><path d="m283.6 22.7v25.5c0 4.2-2.6 7.8-6.2 9.2-3.7-1.4-6.2-5-6.2-9.2v-25.5c0-4.2 2.6-7.8 6.2-9.2 3.7 1.5 6.2 5 6.2 9.2z" fill="#f6c9af"/><path d="m327.6 57.4c-6.3 2.8-13.7-2.3-13.5-9.2v-25.5c-.2-6.8 7.2-11.9 13.5-9.2-3.7 1.4-6.2 5-6.2 9.2v25.5c0 4.2 2.6 7.8 6.2 9.2z" fill="#f3ae83"/><path d="m333.9 22.7v25.5c0 4.2-2.6 7.8-6.3 9.2-3.7-1.4-6.2-5-6.2-9.2v-25.5c0-4.2 2.6-7.8 6.2-9.2 3.7 1.5 6.3 5 6.3 9.2z" fill="#f6c9af"/><g><g fill="#f44a7e"><path d="m130.5 169.2h-34.8c-.4 0-.7-.3-.7-.7v-34.8c0-.4.3-.7.7-.7h34.8c.4 0 .7.3.7.7v34.8c0 .4-.3.7-.7.7z"/><path d="m130.5 237.1h-34.8c-.4 0-.7-.3-.7-.7v-34.8c0-.4.3-.7.7-.7h34.8c.4 0 .7.3.7.7v34.8c0 .4-.3.7-.7.7z"/><path d="m198.9 169.2h-34.8c-.4 0-.7-.3-.7-.7v-34.8c0-.4.3-.7.7-.7h34.8c.4 0 .7.3.7.7v34.8c0 .4-.3.7-.7.7z"/><path d="m198.9 237.1h-34.8c-.4 0-.7-.3-.7-.7v-34.8c0-.4.3-.7.7-.7h34.8c.4 0 .7.3.7.7v34.8c0 .4-.3.7-.7.7z"/><path d="m198.9 305h-34.8c-.4 0-.7-.3-.7-.7v-34.8c0-.4.3-.7.7-.7h34.8c.4 0 .7.3.7.7v34.8c0 .4-.3.7-.7.7z"/><path d="m130.5 305h-34.8c-.4 0-.7-.3-.7-.7v-34.8c0-.4.3-.7.7-.7h34.8c.4 0 .7.3.7.7v34.8c0 .4-.3.7-.7.7z"/></g><path d="m339.4 131.9h-4.3c.1-7.1-10.5-7.3-10.7-.2v9.4c-.1 6.1 8.8 7.3 10.4 1.5h4.6c4 0 7.3 3.3 7.3 7.3v23.1c-1.7 48-70.9 48-72.6 0v-23.2c0-4 3.3-7.3 7.3-7.3h3.3c1.5 5.8 10.4 4.6 10.4-1.5v-9.4c-.1-7.1-10.7-6.9-10.7.2-10.9-1.2-21.1 6.7-21 18v23.2c0 24.1 18.2 44 41.6 46.6v54.8c-1.2 38-56.3 38-57.4 0v-22.2c20.6-6.2 16.3-36.6-5.3-36.9-21.7.3-25.9 30.7-5.3 36.9v22.2c1.8 52.1 76.9 52.1 78.7 0v-54.8c23.4-2.7 41.6-22.5 41.6-46.6v-23.2c.1-9.8-8-17.9-17.9-17.9zm-105.3 102.3c.2-10.8 16.3-10.8 16.5 0-.2 10.9-16.3 10.8-16.5 0z" fill="#44569b"/></g></g></svg>