<svg id="Layer_1" enable-background="new 0 0 512 512" height="512" viewBox="0 0 512 512" width="512" xmlns="http://www.w3.org/2000/svg" fill="#ffffff"><path d="m276.113 271.415h151.097c13.561 0 24.593-11.032 24.593-24.592v-47.945c0-41.598-33.843-75.441-75.442-75.441h-49.397c-41.598 0-75.44 33.843-75.44 75.441v47.945c-.002 13.56 11.03 24.592 24.589 24.592zm-.591-72.537c0-28.365 23.076-51.441 51.44-51.441h49.397c28.366 0 51.442 23.076 51.442 51.441v47.945c0 .299-.293.592-.593.592h-151.095c-.299 0-.591-.293-.591-.592zm76.14-86.299c30.648 0 55.583-24.935 55.583-55.583s-24.934-55.582-55.583-55.582-55.583 24.934-55.583 55.583 24.935 55.582 55.583 55.582zm0-87.165c17.415 0 31.583 14.168 31.583 31.583s-14.168 31.583-31.583 31.583-31.583-14.168-31.583-31.583 14.168-31.583 31.583-31.583zm136.192 352.924c-14.097-7.809-28.36-15.445-43.46-23.53-12.781-6.844-25.998-13.92-39.038-21.076-11.152-6.121-22.619-9.224-34.082-9.224-11.04 0-21.522 2.9-31.156 8.623l-8.052 4.781c-7.798 4.631-16.535 7.078-25.265 7.078-11.636 0-23.051-4.373-32.143-12.313-33.417-29.183-66.521-62.248-95.735-95.621-14.227-16.253-16.283-38.746-5.236-57.305l4.786-8.041c11.569-19.438 11.388-42.529-.509-65.023-14.339-27.106-26.856-49.932-40.107-74.098l-4.614-8.416c-8.172-14.91-22.979-24.173-38.641-24.173-3.864 0-7.743.554-11.528 1.646-29.904 8.629-59.815 39.75-74.429 77.438-11.999 30.945-11.398 60.895 1.647 82.169 40.744 66.447 93.598 132.679 152.849 191.534 58.59 58.198 121.659 108.114 187.453 148.361 11.769 7.199 25.455 10.85 40.679 10.85 49.675 0 106.434-39.824 119.082-83.554 5.612-19.408-3.43-39.545-22.501-50.106zm-.555 43.439c-9.667 33.42-57.232 66.223-96.028 66.223-10.739 0-20.212-2.464-28.155-7.323-64.204-39.274-125.795-88.031-183.063-144.916-57.915-57.529-109.542-122.211-149.302-187.053-9.096-14.833-8.998-37.047.27-60.947 11.854-30.573 35.995-56.502 58.706-63.056 1.622-.468 3.262-.705 4.875-.705 6.895 0 13.637 4.487 17.596 11.709l4.616 8.42c13.207 24.085 25.681 46.834 39.936 73.781 5.542 10.477 10.231 26.187 1.099 41.529l-4.786 8.04c-16.459 27.652-13.397 61.167 7.802 85.386 29.908 34.165 63.798 68.014 98.007 97.889 13.465 11.76 30.487 18.236 47.93 18.236 13.041 0 26.015-3.611 37.519-10.442l8.053-4.782c5.875-3.489 12.235-5.259 18.902-5.259 7.38 0 14.962 2.107 22.536 6.264 13.148 7.216 26.42 14.322 39.255 21.194 15.022 8.044 29.212 15.642 43.16 23.367 6.983 3.868 14.073 12.067 11.072 22.445z"/></svg>