<svg enable-background="new 0 0 32 32" height="512" viewBox="0 0 32 32" width="512" fill="#ffffff" xmlns="http://www.w3.org/2000/svg"><g id="Layer_22"><path d="m16 1.1c-8.216 0-14.9 6.684-14.9 14.9s6.684 14.9 14.9 14.9 14.9-6.684 14.9-14.9-6.684-14.9-14.9-14.9zm0 28c-7.223 0-13.1-5.876-13.1-13.1s5.877-13.1 13.1-13.1 13.1 5.876 13.1 13.1-5.877 13.1-13.1 13.1z"/><path d="m10.92 9.683h-1c-.497 0-.9.403-.9.9s.403.9.9.9h1c.497 0 .9-.403.9-.9s-.403-.9-.9-.9z"/><path d="m22.08 9.683h-7.621c-.497 0-.9.403-.9.9s.403.9.9.9h7.621c.497 0 .9-.403.9-.9s-.403-.9-.9-.9z"/><path d="m10.92 15.1h-1c-.497 0-.9.403-.9.9s.403.9.9.9h1c.497 0 .9-.403.9-.9s-.403-.9-.9-.9z"/><path d="m22.08 15.1h-7.621c-.497 0-.9.403-.9.9s.403.9.9.9h7.621c.497 0 .9-.403.9-.9s-.403-.9-.9-.9z"/><path d="m10.92 20.517h-1c-.497 0-.9.403-.9.9s.403.9.9.9h1c.497 0 .9-.403.9-.9s-.403-.9-.9-.9z"/><path d="m22.08 20.517h-7.621c-.497 0-.9.403-.9.9s.403.9.9.9h7.621c.497 0 .9-.403.9-.9s-.403-.9-.9-.9z"/></g></svg>