<svg id="&#x421;&#x43B;&#x43E;&#x439;_1" viewBox="0 0 128 128" xmlns="http://www.w3.org/2000/svg" fill="#FFCB05"><path d="m50 76.51a2 2 0 1 0 2.25-3.31 33.2 33.2 0 0 0 -9.43-4.44 17.4 17.4 0 0 0 8.18-14.76v-23a9 9 0 0 0 -9-9h-17a9 9 0 0 0 -9 9v23a17.35 17.35 0 0 0 8.2 14.69 33.15 33.15 0 0 0 -24.2 32.31 2 2 0 0 0 4 0 29.44 29.44 0 0 1 46-24.49zm-30-45.51a5 5 0 0 1 5-5h17a5 5 0 0 1 5 5v7h-27zm0 23v-12h27v12a13.26 13.26 0 0 1 -13.38 13.42 13.54 13.54 0 0 1 -13.62-13.42z"/><path d="m92.1 73.36a23.73 23.73 0 0 0 12.9-21.36v-33a11.87 11.87 0 0 0 -12-12h-24c-7 0-13 5.5-13 12v33a23.93 23.93 0 0 0 13.64 21.37 48.08 48.08 0 0 0 -36.64 46.63 2 2 0 0 0 4 0 44 44 0 0 1 24.17-39.26 43.05 43.05 0 0 0 -1.28 7.48c-5.54 1.12-9.89 6.51-9.89 12.78v15a6.59 6.59 0 0 0 6 6 2 2 0 0 0 0-4 2.92 2.92 0 0 1 -2-2v-15c0-4.88 3.66-9 8-9s8 4.12 8 9v15a2.92 2.92 0 0 1 -2 2 2 2 0 0 0 0 4 6.59 6.59 0 0 0 6-6v-15c0-6.34-4.46-11.79-10.09-12.81.24-2.6.88-6.71 2.21-9.37l12.88 17.55a2 2 0 0 0 3.23 0l12.85-17.57c3.11 5.36 4.38 13.57 4.81 17.22a8.83 8.83 0 1 0 4-.09 63.86 63.86 0 0 0 -3.48-15.16 44.15 44.15 0 0 1 23.59 39.23 2 2 0 0 0 4 0c0-22.56-15.33-41.53-35.9-46.64zm8.9-32.14c-10.87-.45-17.89-3.72-21.73-6.22h21.73zm-41-22.22c0-4.26 4.21-8 9-8h24a7.91 7.91 0 0 1 8 8v12h-41zm0 33v-17h12.89c1.52 1.6 10 9.53 28.11 10.22v6.78a19.79 19.79 0 0 1 -20 20c-11.58 0-21-9-21-20zm20.59 39.81-10.59-14.42a43.7 43.7 0 0 1 11-1.39 42.18 42.18 0 0 1 10.24 1.27zm26.33 12.76a4.84 4.84 0 1 1 -4.84-4.83 4.84 4.84 0 0 1 4.84 4.83z"/><path d="m86 19h-3v-3a2 2 0 0 0 -4 0v3h-3a2 2 0 0 0 0 4h3v3a2 2 0 0 0 4 0v-3h3a2 2 0 0 0 0-4z"/></svg>