<svg clip-rule="evenodd" fill-rule="evenodd" height="512" image-rendering="optimizeQuality" fill="#ffffff" shape-rendering="geometricPrecision" text-rendering="geometricPrecision" viewBox="0 0 512 512" width="512" xmlns="http://www.w3.org/2000/svg" xmlns:xodm="http://www.corel.com/coreldraw/odm/2003"><g id="Layer_x0020_1"><g id="_1948159035072"><g><g id="_198045824"><path d="m200.55 334.67c-3.31 0-6-2.69-6-6v-153.86c0-14.91 12.13-27.04 27.04-27.04 14.92 0 27.05 12.13 27.05 27.04v114.41c0 3.31-2.69 6-6 6-3.32 0-6-2.69-6-6v-114.41c0-8.29-6.75-15.04-15.04-15.04-8.3 0-15.04 6.75-15.04 15.04v153.86c-.01 3.31-2.69 6-6.01 6z"/></g><g id="_198042728"><path d="m280.76 322.23c-3.31 0-6-2.69-6-6l.01-82.9c0-8.29-6.75-15.04-15.04-15.04-4.82 0-9.39 2.35-12.22 6.3-1.93 2.69-5.68 3.31-8.37 1.38s-3.31-5.68-1.38-8.37c5.08-7.08 13.29-11.31 21.96-11.31 14.92 0 27.05 12.13 27.05 27.04l-.01 82.9c0 3.31-2.69 6-6 6z"/></g><g id="_198045800"><path d="m318.9 322.23c-3.32 0-6-2.69-6-6v-69.09c0-8.3-6.75-15.04-15.04-15.04-4.82 0-9.39 2.34-12.23 6.27-1.94 2.69-5.69 3.29-8.38 1.36-2.68-1.95-3.29-5.7-1.35-8.38 5.09-7.04 13.29-11.25 21.95-11.25 14.92 0 27.05 12.13 27.05 27.04v69.09c0 3.31-2.69 6-6 6z"/></g><g id="_198045344"><path d="m357.02 334.67c-3.31 0-6-2.69-6-6v-61.81c0-8.29-6.74-15.04-15.03-15.04-4.81 0-9.38 2.36-12.23 6.31-1.93 2.69-5.68 3.3-8.37 1.36s-3.3-5.69-1.36-8.38c5.09-7.07 13.3-11.29 21.95-11.29 14.92 0 27.04 12.13 27.04 27.04v61.81c0 3.31-2.68 6-6 6z"/></g><g id="_198044672"><path d="m179.89 373.04c-2 0-3.94-.99-5.08-2.8l-33-52.26c-7.85-12.42-4.29-28.85 7.88-36.94 4.8-4.49 11.6-6.38 18.78-5.21 8.39 1.38 15.81 6.67 19.36 13.81l18.1 36.36c1.47 2.96.27 6.57-2.7 8.04-2.97 1.48-6.57.27-8.05-2.7l-18.09-36.36c-1.84-3.69-5.98-6.56-10.56-7.3-2.09-.35-6.03-.5-8.85 2.32-.15.15-.32.3-.49.44-.18.14-.36.27-.55.39-7.01 4.43-9.12 13.73-4.69 20.75l33 52.25c1.77 2.81.93 6.51-1.87 8.28-.99.63-2.1.93-3.19.93z"/></g><g id="_198043808"><path d="m213.7 425.38c-2.4 0-4.67-1.46-5.59-3.83-5.52-14.21-18.45-31.4-27.01-42.78-2.42-3.22-4.52-6-6.12-8.28-1.91-2.7-1.27-6.45 1.44-8.36 2.71-1.9 6.46-1.26 8.37 1.45 1.49 2.13 3.53 4.84 5.9 7.98 8.95 11.9 22.49 29.89 28.6 45.65 1.2 3.09-.33 6.56-3.42 7.76-.71.28-1.45.41-2.17.41z"/></g><g id="_198046280"><path d="m339.72 425.38c-1.63 0-3.25-.66-4.44-1.96-2.23-2.45-2.06-6.25.4-8.48 20.08-18.3 18.21-44.55 16.23-72.33-.32-4.48-.65-9.11-.88-13.65-.16-3.31 2.39-6.12 5.7-6.28 3.27-.17 6.13 2.38 6.29 5.69.22 4.4.54 8.97.86 13.38 2.09 29.42 4.26 59.84-20.12 82.06-1.15 1.05-2.6 1.57-4.04 1.57z"/></g><g id="_198046256"><path d="m361.12 466.8h-169.56c-7.29 0-13.23-5.94-13.23-13.24v-26.95c0-7.29 5.94-13.23 13.23-13.23h169.56c7.29 0 13.23 5.94 13.23 13.23v26.95c0 7.3-5.94 13.24-13.23 13.24zm-169.56-41.42c-.66 0-1.23.56-1.23 1.23v26.95c0 .67.57 1.24 1.23 1.24h169.56c.67 0 1.23-.57 1.23-1.24v-26.95c0-.67-.56-1.23-1.23-1.23z"/></g><g id="_198044552"><path d="m201.45 174.75c-.66 0-1.34-.11-2-.34-26.52-9.37-44.35-34.57-44.35-62.72 0-36.66 29.83-66.49 66.49-66.49s66.49 29.83 66.49 66.49c0 28.15-17.82 53.35-44.35 62.72-3.12 1.1-6.55-.54-7.65-3.66-1.11-3.13.53-6.56 3.66-7.66 21.74-7.68 36.34-28.33 36.34-51.4 0-30.04-24.44-54.49-54.49-54.49-30.04 0-54.49 24.45-54.49 54.49 0 23.07 14.61 43.73 36.35 51.4 3.12 1.1 4.76 4.53 3.66 7.66-.87 2.46-3.19 4-5.66 4z"/></g><g id="_198045536"><path d="m208.78 128.85c-1.59 0-3.12-.64-4.24-1.76l-14.59-14.59c-2.34-2.34-2.34-6.14 0-8.48s6.14-2.34 8.49 0l10.34 10.34 35.97-35.97c2.34-2.34 6.14-2.34 8.49 0 2.34 2.34 2.34 6.14 0 8.48l-40.22 40.22c-1.12 1.12-2.65 1.76-4.24 1.76z"/></g><g id="_198045632"><path d="m56.22 312.22c-31 0-56.22-25.22-56.22-56.22s25.22-56.21 56.22-56.21 56.22 25.21 56.22 56.21-25.22 56.22-56.22 56.22zm0-100.44c-24.38 0-44.22 19.84-44.22 44.22s19.84 44.22 44.22 44.22 44.22-19.84 44.22-44.22-19.84-44.22-44.22-44.22z"/></g><g id="_198045488"><path d="m455.78 312.22c-31 0-56.22-25.22-56.22-56.22s25.22-56.21 56.22-56.21 56.22 25.21 56.22 56.21-25.22 56.22-56.22 56.22zm0-100.44c-24.38 0-44.22 19.84-44.22 44.22s19.84 44.22 44.22 44.22 44.22-19.84 44.22-44.22-19.84-44.22-44.22-44.22z"/></g></g></g></g></svg>