<svg id="Layer_1" enable-background="new 0 0 512 512" viewBox="0 0 512 512" xmlns="http://www.w3.org/2000/svg" fill="#ffffff"><path d="m404.45 407.86v-25.04c0-5.3-4.3-9.6-9.6-9.6h-8.69v-118.42c0-71.77-58.39-130.15-130.15-130.15s-130.16 58.38-130.16 130.15v118.42h-8.69c-5.3 0-9.6 4.3-9.6 9.6v25.04c-12.73 1.12-22.75 11.83-22.75 24.85v38.33c-.01 13.76 11.19 24.96 24.95 24.96h292.48c13.76 0 24.96-11.2 24.96-24.96v-38.33c0-13.02-10.02-23.73-22.75-24.85zm-19.2-15.44v15.32h-258.5v-15.32zm-240.2-137.62c0-61.18 49.77-110.95 110.95-110.95s110.95 49.77 110.95 110.95v118.42h-221.9zm262.95 216.24c0 3.12-2.64 5.76-5.76 5.76h-292.48c-3.12 0-5.76-2.64-5.76-5.76v-38.33c0-3.12 2.64-5.76 5.76-5.76h292.48c3.12 0 5.76 2.64 5.76 5.76zm-94.5-246.2h-23.8v-23.8c0-5.3-4.3-9.6-9.6-9.6h-48.2c-5.3 0-9.6 4.3-9.6 9.6v23.8h-23.8c-5.3 0-9.6 4.3-9.6 9.6v48.2c0 5.3 4.3 9.6 9.6 9.6h23.8v23.8c0 5.3 4.3 9.6 9.6 9.6h48.19c5.3 0 9.6-4.3 9.6-9.6v-23.8h23.8c5.3 0 9.6-4.3 9.6-9.6v-48.2c.01-5.3-4.29-9.6-9.59-9.6zm-9.6 48.19h-23.8c-5.3 0-9.6 4.3-9.6 9.6v23.8h-29v-23.8c0-5.3-4.3-9.6-9.6-9.6h-23.8v-29h23.8c5.3 0 9.6-4.3 9.6-9.6v-23.8h28.99v23.8c0 5.3 4.3 9.6 9.6 9.6h23.8v29zm-57.5-185.81v-61.62c0-5.3 4.3-9.6 9.6-9.6s9.6 4.3 9.6 9.6v61.62c0 5.3-4.3 9.6-9.6 9.6s-9.6-4.3-9.6-9.6zm85.68 17.81 30.81-53.36c2.65-4.59 8.52-6.17 13.11-3.51 4.59 2.65 6.17 8.52 3.51 13.11l-30.81 53.36c-1.78 3.08-5 4.8-8.32 4.8-1.63 0-3.28-.41-4.79-1.29-4.59-2.65-6.17-8.52-3.51-13.11zm61.78 71.38c-2.65-4.59-1.08-10.46 3.51-13.11l53.36-30.81c4.59-2.65 10.47-1.08 13.11 3.51 2.65 4.59 1.08 10.46-3.51 13.11l-53.36 30.81c-1.51.87-3.16 1.29-4.79 1.29-3.32 0-6.55-1.72-8.32-4.8zm102.14 79.59c0 5.3-4.3 9.6-9.6 9.6h-61.62c-5.3 0-9.6-4.3-9.6-9.6s4.3-9.6 9.6-9.6h61.62c5.3 0 9.6 4.3 9.6 9.6zm-363.51-194.73c-2.65-4.59-1.08-10.46 3.51-13.11 4.6-2.65 10.47-1.07 13.11 3.51l30.81 53.36c2.65 4.59 1.08 10.46-3.51 13.11-1.51.87-3.16 1.29-4.79 1.29-3.32 0-6.55-1.72-8.32-4.8zm-84.33 74.73c2.65-4.59 8.52-6.17 13.11-3.51l53.36 30.81c4.59 2.65 6.17 8.52 3.51 13.11-1.78 3.08-5 4.8-8.32 4.8-1.63 0-3.28-.41-4.79-1.29l-53.36-30.81c-4.59-2.65-6.17-8.52-3.51-13.11zm39.06 129.6h-61.62c-5.3 0-9.6-4.3-9.6-9.6s4.3-9.6 9.6-9.6h61.62c5.3 0 9.6 4.3 9.6 9.6s-4.3 9.6-9.6 9.6z"/></svg>