<svg enable-background="new 0 0 512 512" height="512" viewBox="0 0 512 512" width="512" xmlns="http://www.w3.org/2000/svg"><g id="doctor_exam_medic_medical_stethoscope"><g><g><path d="m394.775 127.9c-41.283 0-74.726 33.443-74.726 74.725 0 37.656 27.83 68.775 64.05 73.954v32.796c0 30.128-26.729 31.963-32.025 32.025-42.908-3.734-64.049 21.434-64.049 53.375 0 51.498-47.955 53.333-53.375 53.375-51.499 0-53.333-47.955-53.375-53.375v-96.075h21.35l11.916-35.747c84.151-20.584 84.159-122.512 84.159-199.103 0-5.9-4.773-10.675-10.674-10.675h-34.9c-3.69-6.378-10.569-10.675-18.475-10.675h-21.351c-11.801 0-21.35 9.549-21.35 21.35s9.549 21.35 21.35 21.35h21.35c7.906 0 14.785-4.297 18.475-10.675h24.184c-.438 78.668-6.765 141.544-54.268 162.927l.934-2.802-21.35-21.35h-64.05l-21.35 21.35.926 2.778c-47.484-21.392-53.822-84.248-54.259-162.903h24.183c3.69 6.378 10.569 10.675 18.475 10.675h21.35c11.801 0 21.35-9.549 21.35-21.35s-9.549-21.35-21.35-21.35h-21.35c-7.906 0-14.785 4.297-18.475 10.675h-34.9c-5.9 0-10.675 4.775-10.675 10.675 0 76.589.01 178.513 84.158 199.099l11.917 35.751h21.35v96.075c0 25.854 15.616 74.725 74.725 74.725 25.854 0 74.725-15.616 74.725-74.662 1.791-33.338 25.791-33.172 42.699-32.088 18.473 0 53.375-11.154 53.375-53.375v-32.796c36.221-5.179 64.051-36.298 64.051-73.954 0-41.282-33.443-74.725-74.725-74.725z" fill="#384850"/><path d="m153.962 277.35-12.301-36.935 5.754-5.765h46.37l5.754 5.765-12.301 36.935z" fill="#c89d64"/><path d="m394.775 256c-29.44 0-53.375-23.946-53.375-53.375s23.935-53.375 53.375-53.375c29.439 0 53.375 23.946 53.375 53.375s-23.935 53.375-53.375 53.375z" fill="#cbcbcb"/></g><g><path d="m394.775 166.326c-20.016 0-36.3 16.284-36.3 36.299s16.284 36.299 36.3 36.299 36.299-16.284 36.299-36.299-16.283-36.299-36.299-36.299z" fill="#384850"/><circle cx="394.775" cy="202.625" fill="#9b9b9d" r="14.949"/></g></g></g><g id="Layer_1"/></svg>