<svg id="Layer_1" enable-background="new 0 0 64 64" height="300" viewBox="0 0 64 64" width="300" xmlns="http://www.w3.org/2000/svg" version="1.1" xmlns:xlink="http://www.w3.org/1999/xlink" xmlns:svgjs="http://svgjs.dev/svgjs"><g width="100%" height="100%" transform="matrix(1,0,0,1,0,0)"><g fill="#343433"><g><path d="m46.388 54.47-.017.485c0 .247-.009.587-.009.901.009.884-.663 1.284-1.31 1.667-.094.051-.179.102-.264.162-.816.51-1.684 1.029-2.585 1.437-2.908 1.293-6.25 2.194-10.502 2.866-1.454.23-2.798.391-4.141.502-1.344.119-2.619.17-3.903.17h-.417c-1.293 0-2.56-.051-3.903-.17-1.344-.111-2.687-.272-4.141-.502-4.252-.672-7.594-1.573-10.494-2.866-.91-.408-1.777-.927-2.594-1.437-.085-.06-.17-.111-.264-.162-.646-.383-1.31-.782-1.301-1.667 0-.315-.009-.655-.017-.901l-.025-.485c-.043-1.573-.102-3.206.519-4.584.706-1.565 2.16-2.738 3.597-3.801.808-.612 1.667-1.165 2.526-1.658.247.544.519 1.089.799 1.633.162.315.332.629.51.944-1.905 1.505-2.619 4.626-1.811 7.747.06.255.136.51.221.757.034.111.068.213.102.323.111.34.221.689.391 1.037.153.315.621 1.259 1.48 1.259.111 0 .221-.017.332-.043l.043-.017c.179-.043.272-.068.442-.119.323.17.723.204 1.071.085.493-.17.833-.587.918-1.063-.009 0-.009 0-.017-.008.017-.085.025-.179.025-.264 0-.765-.621-1.386-1.378-1.386-.638 0-1.182.434-1.335 1.029-.017-.017-.034-.034-.043-.051-.017-.043-.043-.094-.068-.145-.043-.077-.077-.162-.111-.247-.068-.179-.128-.366-.187-.561-.043-.119-.077-.238-.119-.357-1.054-3.121-.289-6.293 1.709-7.075.247-.068.493-.102.748-.102 1.93 0 3.997 1.964 4.915 4.677.043.111.085.221.119.332l.009.025c.085.238.17.468.221.689-.247-.068-.519-.051-.765.034-.714.238-1.105 1.02-.859 1.743.187.561.714.935 1.301.935.153 0 .298-.025.442-.077.374-.128.672-.4.825-.765.51-.204.774-.655.774-1.335 0-.221-.025-.459-.077-.723-.077-.391-.204-.731-.323-1.063-.043-.111-.077-.213-.111-.323-1.157-3.402-3.827-5.783-6.497-5.783-.23 0-.468.025-.697.059-.238-.425-.468-.85-.68-1.276-.247-.476-.476-.961-.697-1.437.298-.153.587-.306.876-.451l.408-.221c.629-.315 1.259-.646 1.896-.944.017-.009.025-.017.034-.017.663-.306 1.344-.587 2.049-.799.119-.043.238-.094.349-.136.009.009.017.017.025.034.213.323.425.655.646.978.536.782 1.071 1.548 1.616 2.288.91 1.25 1.828 2.441 2.755 3.623.468.595.944 1.182 1.412 1.777.094.119.196.23.289.349.281-1.488.638-3.478.672-3.767l.017-.196v-.025c0-.026-.009-.06-.009-.077l-.009-.043c-.025-.06-.06-.128-.094-.179l-.034-.043c-.255-.4-.519-.799-.774-1.208-.051-.085-.068-.221-.034-.315.085-.247.17-.502.264-.748l.094-.281c.111-.289.213-.587.315-.884.034-.094.085-.085.187-.145.238-.145 3.223-.145 3.538 0 .111.051.162.051.196.145.094.298.204.595.306.884l.102.281c.085.247.17.502.264.748.025.094.009.23-.043.315-.255.408-.519.808-.774 1.208l-.025.043c-.043.051-.068.119-.094.179l-.008.043c-.009.017-.009.051-.009.077v.025l.017.196c.034.289.374 2.211.655 3.691.068-.094.145-.187.221-.272.519-.655 1.037-1.301 1.556-1.956.876-1.123 1.752-2.254 2.602-3.436.553-.757 1.097-1.522 1.641-2.322.213-.315.425-.638.629-.952.009-.017.017-.025.025-.034.119.043.238.094.357.136.697.213 1.378.493 2.041.799.009 0 .017.009.034.017.638.298 1.267.629 1.896.944l.417.221c.561.289 1.157.604 1.76.935-.136.578-.289 1.148-.459 1.692-.451 1.412-1.037 2.721-1.769 3.912-.519-.255-1.114-.4-1.735-.4-2.185 0-3.971 1.777-3.971 3.971 0 2.092 1.633 3.81 3.682 3.954.094.009.196.009.289.009 1.012 0 1.939-.374 2.636-1.003.816-.723 1.335-1.786 1.335-2.959 0-.969-.349-1.854-.918-2.543.731-1.174 1.335-2.441 1.82-3.801.221-.629.408-1.284.578-1.956.604.383 1.199.774 1.769 1.208 1.429 1.063 2.891 2.237 3.597 3.801.625 1.379.566 3.012.515 4.585z" fill="#b7202e" fill-opacity="1" data-original-color="#343433ff" stroke="none" stroke-opacity="1"/><path d="m35.852 50.999c-.247-.09-.514-.14-.792-.14-1.275 0-2.313 1.04-2.313 2.315 0 1.277 1.038 2.315 2.313 2.315 1.277 0 2.317-1.038 2.317-2.315 0-.393-.099-.763-.272-1.087-.268-.499-.715-.892-1.253-1.088z" fill="#b7202e" fill-opacity="1" data-original-color="#343433ff" stroke="none" stroke-opacity="1"/></g><path d="m34.798 22.597c-.154-.021-.307-.056-.455-.085.082-.5.168-.934.225-1.372.275-2.126 0-4.166-1.304-5.91-2.426-3.244-5.773-4.534-9.559-4.766-3.786.232-7.133 1.522-9.559 4.766-1.304 1.743-1.58 3.783-1.304 5.91.057.438.143.872.225 1.372-.148.028-.3.064-.455.085-1.019.144-1.488.586-1.488 1.615.001 1.374.282 2.708.937 3.933.452.846 1.229 1.137 2.172 1.163.075.326.128.647.224.954 1.135 3.659 4.652 8.457 8.857 8.584.13.004.261.004.39 0 .129.004.26.004.39 0 4.205-.126 7.722-4.925 8.857-8.584.096-.307.149-.628.224-.954.943-.026 1.721-.317 2.172-1.163.655-1.226.936-2.559.937-3.933.001-1.029-.467-1.471-1.486-1.615z" fill="#b7202e" fill-opacity="1" data-original-color="#343433ff" stroke="none" stroke-opacity="1"/><path d="m53.406 32.96c.016-.827-.005-1.655-.009-2.483-.007-1.443-.014-2.885-.021-4.344 7.376-1.621 10.716-8.222 10.07-13.674-.711-6-5.484-10.615-11.513-11.081-5.935-.459-11.365 3.418-12.969 9.289-.763 2.792-.527 5.537.658 8.161 1.847 4.089 5.062 6.493 9.399 7.377-.002.57-.006 1.103-.005 1.637.004 1.706.002 3.412.018 5.118.007.768.288 1.424.938 1.869.731.5 1.517.546 2.291.131.78-.418 1.126-1.133 1.143-2zm3.63-11.178c-3.995 3.058-10.193 2.74-13.793-1.73-3.436-4.267-2.724-10.586 1.535-13.985 4.332-3.457 10.585-2.737 14.073 1.575 3.23 3.994 2.916 10.519-1.815 14.14z" fill="#b7202e" fill-opacity="1" data-original-color="#343433ff" stroke="none" stroke-opacity="1"/></g></g></svg>