<svg id="Layer_1" enable-background="new 0 0 133 133" height="300" viewBox="0 0 133 133" width="300" xmlns="http://www.w3.org/2000/svg" xmlns:xlink="http://www.w3.org/1999/xlink" version="1.1" xmlns:svgjs="http://svgjs.dev/svgjs"><g width="100%" height="100%" transform="matrix(1,0,0,1,0,0)"><linearGradient id="lg1"><stop stop-opacity="1" stop-color="#e8effb" offset="0"/><stop stop-opacity="1" stop-color="#adc1e7" offset="1"/></linearGradient><linearGradient id="SVGID_1_" gradientUnits="userSpaceOnUse" x1="60.542" x2="46.042" xlink:href="#lg1" y1="56.581" y2="40.581"/><linearGradient id="SVGID_2_" gradientUnits="userSpaceOnUse" x1="57.639" x2="64.764" xlink:href="#lg1" y1="58.306" y2="64.556"/><linearGradient id="SVGID_3_" gradientUnits="userSpaceOnUse" x1="64.743" x2="64.743" y1="29.552" y2="59.928"><stop offset="0" stop-color="#63b1ff"/><stop offset="1" stop-color="#4ea3ea"/></linearGradient><linearGradient id="lg2"><stop offset="0" stop-color="#f8a695"/><stop offset="1" stop-color="#fa8d77"/></linearGradient><linearGradient id="SVGID_4_" gradientUnits="userSpaceOnUse" x1="80.213" x2="85.079" xlink:href="#lg2" y1="36.661" y2="36.661"/><linearGradient id="SVGID_5_" gradientUnits="userSpaceOnUse" x1="80.213" x2="80.655" xlink:href="#lg2" y1="34.44" y2="34.44"/><linearGradient id="SVGID_6_" gradientUnits="userSpaceOnUse" x1="44.413" x2="49.274" xlink:href="#lg2" y1="36.651" y2="36.651"/><linearGradient id="SVGID_7_" gradientUnits="userSpaceOnUse" x1="64.743" x2="64.743" xlink:href="#lg1" y1="81.462" y2="110.705"/><linearGradient id="SVGID_8_" gradientUnits="userSpaceOnUse" x1="85.984" x2="85.984" xlink:href="#lg1" y1="99.283" y2="94.59"/><linearGradient id="SVGID_9_" gradientUnits="userSpaceOnUse" x1="43.503" x2="43.503" xlink:href="#lg1" y1="99.283" y2="94.59"/><linearGradient id="lg3"><stop offset="0" stop-color="#083f9e"/><stop offset="1" stop-color="#053477"/></linearGradient><linearGradient id="SVGID_10_" gradientUnits="userSpaceOnUse" x1="65.026" x2="64.488" xlink:href="#lg3" y1="82.863" y2="108.542"/><linearGradient id="SVGID_11_" gradientUnits="userSpaceOnUse" x1="64.743" x2="64.743" xlink:href="#lg3" y1="67.813" y2="73.33"/><linearGradient id="SVGID_12_" gradientUnits="userSpaceOnUse" x1="64.744" x2="64.744" xlink:href="#lg2" y1="57.596" y2="64.939"/><linearGradient id="SVGID_13_" gradientUnits="userSpaceOnUse" x1="71.694" x2="71.694" xlink:href="#lg1" y1="59.116" y2="62.405"/><linearGradient id="SVGID_14_" gradientUnits="userSpaceOnUse" x1="57.794" x2="57.794" xlink:href="#lg1" y1="59.116" y2="62.405"/><linearGradient id="SVGID_15_" gradientUnits="userSpaceOnUse" x1="64.744" x2="64.744" xlink:href="#lg2" y1="30.858" y2="48.39"/><linearGradient id="lg4"><stop offset="0" stop-color="#213661"/><stop offset="1" stop-color="#081e4b"/></linearGradient><linearGradient id="SVGID_16_" gradientUnits="userSpaceOnUse" x1="43.4" x2="86.548" xlink:href="#lg4" y1="22.105" y2="22.105"/><linearGradient id="SVGID_17_" gradientUnits="userSpaceOnUse" x1="56.053" x2="59.347" xlink:href="#lg4" y1="36.068" y2="36.068"/><linearGradient id="SVGID_18_" gradientUnits="userSpaceOnUse" x1="70.141" x2="73.435" xlink:href="#lg4" y1="36.068" y2="36.068"/><linearGradient id="SVGID_19_" gradientTransform="matrix(.707 -.707 .707 .707 1119.772 -1421.18)" gradientUnits="userSpaceOnUse" x1="-1801.593" x2="-1789.303" xlink:href="#lg4" y1="367.113" y2="354.822"/><linearGradient id="SVGID_20_" gradientTransform="matrix(.707 -.707 .707 .707 1119.772 -1421.18)" gradientUnits="userSpaceOnUse" x1="-1812.799" x2="-1778.301" y1="335.44" y2="335.44"><stop offset="0" stop-color="#ffd46a"/><stop offset="1" stop-color="#f4883b"/></linearGradient><linearGradient id="SVGID_21_" gradientUnits="userSpaceOnUse" x1="72.811" x2="101.831" y1="85.661" y2="85.661"><stop offset="0" stop-color="#f8a04a"/><stop offset="1" stop-color="#e44d0b"/></linearGradient><linearGradient id="SVGID_22_" gradientUnits="userSpaceOnUse" x1="87.323" x2="87.323" xlink:href="#lg2" y1="93.29" y2="78.609"/><g><g><path d="m129.9358673 72.9166031c-.1199951 1.1401367-.2800293 2.2802734-.4799805 3.4101563 0 .0400391-.0100098.0800781-.0200195.1103516h.0100098c-.1799927 1-.3800049 2-.6100464 2.9897461-1.0999756 4.7700195-2.8299561 9.4799805-5.1999512 13.949707-8.9200439 16.8300781-26.6199951 29.6303711-44.7301025 32.0605469-2.6799316.3496094-5.329834.5-7.9399414.4296875-9.9299316-.1899414-19.3399658-3.2299805-27.6398926-8.0600586-4.6501465-2.6899414-8.960083-5.9399414-12.8200665-9.5600586-19.2700195-18.0800782-35.6300053-43.2998048-23.77002-73.3300782 4.2900395-10.8496094 14.8499756-20.8896484 25.9399395-20.7397461h.130127c6.5200195.1298828 11.9499512 3.6098623 17.8498535 5.8398428.7700195.2802734 1.5400391.550293 2.3200684.7802734.1300049.0297852.25.0698242.3599854.1098633.710083.2001953 1.4000244.3701172 2.1199951.5097656 1.0100098.2001953 2.0400391.340332 3.0700684.4101563 6.7900391.5400391 14-1.2099609 21.0100098-1.6601563 6.8399658-.4296875 13.5400391.4902344 19.7299805 2.590332 10.1499023 3.449707 18.8699951 10.0698242 24.3599854 19.0800781 5.4199832 8.909669 7.549988 19.9697276 6.3099978 31.0795909z" fill="url(#SVGID_1_)" data-original-color="lg1" stroke="none" stroke-opacity="1"/><path d="m32.8024025 14.1809711c-.9162006 20.5959949-1.1380863 41.2133026 1.2164459 61.6731033 1.6387329 14.2195435 4.608696 28.4389954 9.3102531 41.9573288 8.3014488 4.8232422 17.7117233 7.8648376 27.6377563 8.0578995 1.8105621-5.8754654 3.5782318-11.7651596 5.324234-17.66185 8.0864639-27.3797913 15.5218582-54.9528999 22.2987595-82.6834335.2292252-.9162006.4509354-1.8392143.6729965-2.762579-6.1831284-2.1039066-12.8886566-3.0270958-19.7301102-2.5976486-7.0059433.4508495-14.2121124 2.2040176-21.0107651 1.6601334-1.0304642-.0716324-2.0538521-.2074718-3.0699005-.4079571-.715889-.142828-1.4097672-.3076725-2.1112442-.5080681-.1142616-.0429802-.2363892-.0784473-.3650665-.1071873-.7799225-.2362137-1.5457802-.5009937-2.3185425-.7873497-5.9041098-2.2253322-11.3284606-5.7033652-17.8548163-5.8323917z" fill="url(#SVGID_2_)" data-original-color="lg1" stroke="none" stroke-opacity="1"/></g><g><g><g><g><path d="m109.946701 23.4299374v80.6454391c0 2.9621201-2.401268 5.3633957-5.3633881 5.3633957h-79.6801185c-2.9621201 0-5.3633919-2.4012756-5.3633919-5.3633957v-80.6454391c0-2.9621201 2.4012718-5.3633919 5.3633919-5.3633919h79.6801147c2.9621239 0 5.3633919 2.4012718 5.3633919 5.3633919z" fill="#b7202e" data-original-color="SVGID_3_" stroke="none" stroke-opacity="1" fill-opacity="1"/><g fill="#fff"><g><path d="m27.7471771 23.9737797c0 .877367-.7089825 1.5860729-1.5864868 1.5860729-.8889027 0-1.5977478-.7087059-1.5977478-1.5860729 0-.8889046.7088451-1.5981598 1.5977478-1.5981598.8775044 0 1.5864868.7092552 1.5864868 1.5981598z" fill="#ffffff" fill-opacity="1" data-original-color="#ffffffff" stroke="none" stroke-opacity="1"/><path d="m32.0367699 23.9737797c0 .877367-.7089806 1.5860729-1.5864849 1.5860729-.8889027 0-1.5977478-.7087059-1.5977478-1.5860729 0-.8889046.7088451-1.5981598 1.5977478-1.5981598.8775043 0 1.5864849.7092552 1.5864849 1.5981598z" fill="#ffffff" fill-opacity="1" data-original-color="#ffffffff" stroke="none" stroke-opacity="1"/><path d="m36.3263664 23.9737797c0 .877367-.7089806 1.5860729-1.5864868 1.5860729-.8889046 0-1.5977478-.7087059-1.5977478-1.5860729 0-.8889046.7088432-1.5981598 1.5977478-1.5981598.8775063 0 1.5864868.7092552 1.5864868 1.5981598z" fill="#ffffff" fill-opacity="1" data-original-color="#ffffffff" stroke="none" stroke-opacity="1"/></g><path d="m24.9033146 106.5827408c-1.3824177 0-2.5073853-1.1247101-2.5073853-2.5073853v-72.381279c0-1.3826771 1.1249676-2.5073853 2.5073853-2.5073853h79.6797943c1.3824158 0 2.5073853 1.1247082 2.5073853 2.5073853v72.381279c0 1.3826752-1.1249695 2.5073853-2.5073853 2.5073853z" fill="#ffffff" fill-opacity="1" data-original-color="#ffffffff" stroke="none" stroke-opacity="1"/></g></g></g><g><g><path d="m85.0787354 36.6515274c0 2.6752625-2.181015 4.8650551-4.8652725 4.8650551v-4.4235611h.4414902l-.0088348-5.2802505c.0176773-.0090542.0353546-.0090542.044136 0 1.3509979.1323605 2.5342255.8122787 3.3288803 1.8190079.662239.8208999 1.0596008 1.8806609 1.0596008 3.0197486z" fill="#f8a695" data-original-color="lg2" stroke="none" stroke-opacity="1" fill-opacity="1"/><g><path d="m80.654953 37.0930214h-.4414902v-5.306982c.1500931 0 .2913971.0090542.4326553.0267315z" fill="#f8a695" data-original-color="lg2" stroke="none" stroke-opacity="1" fill-opacity="1"/><path d="m44.4129448 36.6508293c0 2.674057 2.1755638 4.8614922 4.8614883 4.8614922v-9.7229843c-2.6859245 0-4.8614883 2.1755638-4.8614883 4.8614921z" fill="#f8a695" data-original-color="lg2" stroke="none" stroke-opacity="1" fill-opacity="1"/></g><g><g><path d="m94.1639328 96.3663101v-24.9729385c0-5.7760468-4.6829529-10.4591103-10.4589996-10.4591103h-37.923359c-5.7760506 0-10.4590034 4.6830635-10.4590034 10.4591103v24.9729385z" fill="url(#SVGID_7_)" data-original-color="lg1" stroke="none" stroke-opacity="1"/><g><path d="m86.9186859 95.978981h-1.869545v-15.8174057c0-.4832535.3917465-.875.875-.875h.1195526c.4832458 0 .8749924.3917465.8749924.875z" fill="url(#SVGID_8_)" data-original-color="lg1" stroke="none" stroke-opacity="1"/><path d="m44.4373665 95.978981h-1.8695488v-15.8174057c0-.4832535.3917503-.875.8749962-.875h.1195526c.4832497 0 .875.3917465.875.875z" fill="url(#SVGID_9_)" data-original-color="lg1" stroke="none" stroke-opacity="1"/></g><path d="m68.8210831 96.3663101-2.500557-25.1772995h-3.1546554l-2.5014229 25.1772995z" fill="#b7202e" data-original-color="lg3" stroke="none" stroke-opacity="1" fill-opacity="1"/><path d="m74.0154648 66.0640335-8.4863358 8.2015457c-.4354172.4178391-1.1196747.4178391-1.5550919 0l-8.5041313-8.2015457z" fill="#b7202e" data-original-color="lg3" stroke="none" stroke-opacity="1" fill-opacity="1"/><path d="m72.7412109 60.9380836-7.9971771 5.262661-7.997097-5.262661 2.406414-7.7907295h11.1814423z" fill="#f8a695" data-original-color="lg2" stroke="none" stroke-opacity="1" fill-opacity="1"/><g><path d="m72.7412109 60.9380836h5.903656l-2.7013016 9.2294426c-.2528076.8637466-1.2334061 1.2793961-2.0299225.8604279l-9.1696091-4.8232574z" fill="url(#SVGID_13_)" data-original-color="lg1" stroke="none" stroke-opacity="1"/><path d="m56.7468605 60.9380836h-5.9036522l2.7012978 9.2294426c.2528076.8637466 1.2334099 1.2793961 2.0299263.8604279l9.1696014-4.8232574z" fill="url(#SVGID_14_)" data-original-color="lg1" stroke="none" stroke-opacity="1"/></g><path d="m80.6532974 32.1821709v7.8880539c0 8.774662-7.1220627 15.9090424-15.9092636 15.9090424-8.7871208 0-15.9091873-7.1343803-15.9091873-15.9090424v-7.8880539c0-8.774662 7.1220665-15.9090424 15.9091873-15.9090424 4.3874817 0 8.3617706 1.7862644 11.254364 4.6549721 1.5557175 1.5554161 2.7831802 3.4271393 3.5853653 5.5178413.6927719 1.7862664 1.0695343 3.7191124 1.0695343 5.736229z" fill="#f8a695" data-original-color="lg2" stroke="none" stroke-opacity="1" fill-opacity="1"/></g></g><path d="m84.0368118 33.6403999-.0176773-.0086212c-.7946548-1.0067291-1.9778824-1.6866474-3.3288803-1.8190079l-.044136-.0267315v.0267315l.0088348 5.2802505h-1.9425812l-.2383728-6.5430793c-3.0198593-.441494-3.2759018-7.9468918-3.2759018-7.9468918-1.1029816 3.7059422-13.1658287 5.6782303-19.9803047 6.5036182-2.6215858.3175335-4.5637512 2.580904-4.4920769 5.2206745l.048954 1.8029289h-1.942585v-3.9027405s-.1589317-.1237373-.4061928-.3617306c-1.7748146-1.6603451-10.5967293-12.8572083.4089546-20.5944309 15.9092255-11.184515 29.1623077 3.7526989 29.1623077 3.7526989 14.6428834-.2943295 6.0396577 18.6163312 6.0396577 18.6163312z" fill="#141414" data-original-color="lg4" stroke="none" stroke-opacity="1" fill-opacity="1"/></g><g><g><path d="m59.3474998 36.0728722c0 1.2846947-.7354774 2.3237534-1.6474075 2.3237534-.9022293 0-1.6474075-1.0390587-1.6474075-2.3237534s.7451782-2.3342857 1.6474075-2.3342857c.9119301-.0000001 1.6474075 1.049591 1.6474075 2.3342857z" fill="#141414" data-original-color="lg4" stroke="none" stroke-opacity="1" fill-opacity="1"/><path d="m73.435463 36.0728722c0 1.2846947-.7354813 2.3237534-1.6474075 2.3237534-.9022369 0-1.6474075-1.0390587-1.6474075-2.3237534s.7451706-2.3342857 1.6474075-2.3342857c.9119262-.0000001 1.6474075 1.049591 1.6474075 2.3342857z" fill="#141414" data-original-color="lg4" stroke="none" stroke-opacity="1" fill-opacity="1"/></g><path d="m59.4021378 44.8729477c.3618698 2.630291 2.6122818 4.658329 5.3419342 4.658329s4.9801712-2.028038 5.3419342-4.658329z" fill="#ffffff" fill-opacity="1" data-original-color="#ffffffff" stroke="none" stroke-opacity="1"/></g></g></g><g><path d="m102.113945 95.8791351 11.1585236 11.0091248c1.2456818 1.2456741 1.2456512 3.2595749-.0000229 4.5052567-1.2435074 1.2434998-3.2595825 1.245697-4.5052567.0000229l-11.1585236-11.0091248c-1.2434998-1.2435074-1.2435303-3.2618027-.0000229-4.5053101.6228409-.6228333 1.4366379-.933197 2.252655-.9331665.8160096.0000229 1.6319581.3125 2.2526475.933197z" fill="#141414" data-original-color="lg4" stroke="none" stroke-opacity="1" fill-opacity="1"/><g><g><path d="m87.3159027 68.4089813c-9.5192642-.0036469-17.2411041 7.7181931-17.2448196 17.2519455.0000229 9.5228958 7.7219238 17.2448044 17.2411957 17.2484512 9.5372925-.0001373 17.2554855-7.7329178 17.2520142-17.2520142.003601-9.5265197-7.7183076-17.2484283-17.2483903-17.2483825zm-.000473 30.6060257c-7.369751-.003891-13.3461533-5.9802933-13.3420715-13.3580093-.0079651-7.3738327 5.968338-13.3501434 13.3460617-13.3542252 7.3738251.0079727 13.350235 5.984375 13.3541183 13.354126-.0038834 7.3779144-5.9801941 13.3542175-13.3581085 13.3581085z" fill="#ffcb05" data-original-color="SVGID_20_" stroke="none" stroke-opacity="1" fill-opacity="1"/></g><path d="m87.3109207 71.1465836c-8.0100098-.0102539-14.5 6.5-14.5 14.5097656 0 8.0200195 6.4899902 14.5200195 14.5 14.5200195 8.0198975 0 14.5299072-6.5 14.5198975-14.5200195 0-8.0097656-6.5-14.5097656-14.5198975-14.5097656zm0 27.8696289c-7.3701172-.0097656-13.3400879-5.9799805-13.3400879-13.3598633-.0100098-7.3701172 5.9699707-13.3500977 13.3499756-13.3500977 7.3699951 0 13.3499756 5.9799805 13.3499756 13.3500977 0 7.3798828-5.9799805 13.3500976-13.3598633 13.3598633z" fill="#ffcb05" data-original-color="SVGID_21_" stroke="none" stroke-opacity="1" fill-opacity="1"/></g><path d="m100.6735382 85.6568985c-.0038834 7.3779144-5.9801941 13.3542175-13.3581085 13.3581085-7.369751-.003891-13.3461533-5.9802933-13.3420715-13.3580093-.0079651-7.3738327 5.968338-13.3501434 13.3460617-13.3542252 7.373825.0079727 13.3502349 5.984375 13.3541183 13.354126z" fill="#ffffff" opacity=".1" fill-opacity="1" data-original-color="#ffffffff" stroke="none" stroke-opacity="1"/></g><path d="m100.6735382 85.6568985c-.0038834 7.3779144-5.9801941 13.3542175-13.3581085 13.3581085-7.369751-.003891-13.3461533-5.9802933-13.3420715-13.3580093-.0079651-7.3738327 5.968338-13.3501434 13.3460617-13.3542252 7.373825.0079727 13.3502349 5.984375 13.3541183 13.354126z" fill="#ffffff" fill-opacity="1" data-original-color="#ffffffff" stroke="none" stroke-opacity="1"/><path d="m94.6639328 83.0712967v5.7566986h-4.4620056v4.4621429h-5.7460098v-4.4621429h-4.4729615v-5.7566986h4.4729615v-4.462143h5.7460098v4.462143z" fill="#f8a695" data-original-color="lg2" stroke="none" stroke-opacity="1" fill-opacity="1"/></g></g></g></svg>