<svg enable-background="new 0 0 32 32" viewBox="0 0 32 32" fill="#ffffff" xmlns="http://www.w3.org/2000/svg"><g id="Grid" display="none"/><g id="approved"/><g id="rejected"/><g id="cv"/><g id="find_a_candidate"/><g id="newspaper"/><g id="interview"/><g id="test"/><g id="telephone"/><g id="office"/><g id="notepad"><path d="m12.96 28.939h-7.96c-1.158 0-2.1-.942-2.1-2.1v-20.159c0-1.158.941-2.1 2.1-2.1h1.855v.624c0 .497.403.9.9.9s.9-.403.9-.9v-.624h4.046v.624c0 .497.403.9.9.9s.9-.403.9-.9v-.624h4.045v.624c0 .497.403.9.9.9s.9-.403.9-.9v-.624h1.854c1.158 0 2.1.942 2.1 2.1v6.73c0 .497.403.9.9.9s.9-.403.9-.9v-6.73c0-2.15-1.75-3.9-3.9-3.9h-1.852v-.619c0-.497-.403-.9-.9-.9s-.9.403-.9.9v.619h-4.045v-.619c0-.497-.403-.9-.9-.9s-.9.403-.9.9v.619h-4.047v-.619c0-.497-.403-.9-.9-.9s-.9.403-.9.9v.619h-1.856c-2.15 0-3.9 1.75-3.9 3.9v20.16c0 2.15 1.75 3.9 3.9 3.9h7.96c.497 0 .9-.403.9-.9s-.403-.901-.9-.901z"/><path d="m19.448 9.924h-11.692c-.497 0-.9.403-.9.9s.403.9.9.9h11.692c.497 0 .9-.403.9-.9s-.403-.9-.9-.9z"/><path d="m19.448 14.152h-11.692c-.497 0-.9.403-.9.9s.403.9.9.9h11.692c.497 0 .9-.403.9-.9s-.403-.9-.9-.9z"/><path d="m13.603 18.379h-5.847c-.497 0-.9.403-.9.9s.403.9.9.9h5.847c.497 0 .9-.403.9-.9s-.403-.9-.9-.9z"/><path d="m30.025 16.179c0-.001 0-.001 0 0-1.165-1.165-3.061-1.164-4.227 0l-9.02 9.02c-.347.347-.59.782-.703 1.257l-.533 2.232c-.132.558.031 1.132.437 1.537.312.312.724.479 1.151.479.128 0 .257-.015.385-.045l2.23-.533c.477-.113.911-.356 1.259-.704l9.02-9.02c.565-.564.876-1.314.876-2.113s-.31-1.546-.875-2.11zm-10.294 11.972c-.111.111-.25.189-.402.225l-1.973.471.47-1.973c.037-.152.115-.292.227-.404l6.492-6.492 1.68 1.68zm9.021-9.02-1.254 1.254-1.68-1.68 1.254-1.254c.231-.231.535-.347.84-.347s.608.116.84.347h.001c.224.224.348.522.348.839s-.124.616-.349.841z"/></g><g id="interviewer"/><g id="target"/><g id="qna"/><g id="briefcase"/><g id="accepted"/><g id="denied"/><g id="negotiation"/><g id="invitation"/><g id="online_interview"/><g id="calendar"/><g id="cover_letter"/><g id="contact"/><g id="clock"/><g id="rating"/><g id="resume"/></svg>