<svg viewBox="0 0 24 24" xmlns="http://www.w3.org/2000/svg" width="300" height="300" version="1.1" xmlns:xlink="http://www.w3.org/1999/xlink" xmlns:svgjs="http://svgjs.dev/svgjs"><g width="100%" height="100%" transform="matrix(1,0,0,1,0,0)"><path d="m12 0a12 12 0 1 0 12 12 12.01375 12.01375 0 0 0 -12-12zm0 23a11 11 0 1 1 11-11 11.01245 11.01245 0 0 1 -11 11z" fill="#ffffff" fill-opacity="1" data-original-color="#000000ff" stroke="none" stroke-opacity="1"/><path d="m13.35352 7.14648a.5.5 0 0 0 -.707.707l3.64648 3.64652h-9.793a.5.5 0 0 0 0 1h9.793l-3.64649 3.64648a.5.5 0 1 0 .707.707l4.5-4.5a.49983.49983 0 0 0 0-.707z" fill="#ffffff" fill-opacity="1" data-original-color="#000000ff" stroke="none" stroke-opacity="1"/></g></svg>