<svg xmlns="http://www.w3.org/2000/svg" id="Layer_1" data-name="Layer 1" viewBox="0 0 512 512">
                  <defs>
                    <style>.cls-1{fill-rule:evenodd;}</style>
                  </defs>
                  <path class="cls-1" d="M230.21,464.18H47.3A24.25,24.25,0,0,1,23.09,440V40.22A24.24,24.24,0,0,1,47.3,16H292.6a7.24,7.24,0,0,1,5.19,2.17l66.87,66.87a7.19,7.19,0,0,1,2.17,5.25V234.1h26.95a43.53,43.53,0,0,1,43.43,43.42V292H472A17,17,0,0,1,488.91,309v170.1A17,17,0,0,1,472,496H247.14a17,17,0,0,1-16.93-16.93V464.18Zm-97.15-28.47h74.26a7.28,7.28,0,0,0,0-14.55H133.06a7.28,7.28,0,0,0,0,14.55Zm0-35.57h74.26a7.28,7.28,0,0,0,0-14.55H133.06a7.28,7.28,0,0,0,0,14.55Zm0-40.36h74.26a7.28,7.28,0,0,0,0-14.55H133.06a7.28,7.28,0,0,0,0,14.55Zm0-35.57h74.26a7.28,7.28,0,0,0,0-14.55H133.06a7.28,7.28,0,0,0,0,14.55Zm0-40.36h128.4a7.28,7.28,0,0,0,0-14.55H133.06a7.28,7.28,0,0,0,0,14.55Zm0-35.57H271.33a7.28,7.28,0,0,0,0-14.55H133.06a7.28,7.28,0,0,0,0,14.55ZM103,389.92l-24,25.8-8.34-9.21A7.24,7.24,0,1,0,60,416.23l13.31,14.71a7.25,7.25,0,0,0,11,.45l29.36-31.59A7.25,7.25,0,1,0,103,389.92ZM103,314l-24,25.8-8.34-9.21A7.24,7.24,0,1,0,60,340.3L73.27,355a7.24,7.24,0,0,0,11,.44l29.36-31.58A7.25,7.25,0,1,0,103,314Zm0-75.93-24,25.8-8.34-9.21A7.24,7.24,0,1,0,60,264.37l13.31,14.71a7.24,7.24,0,0,0,11,.44l29.36-31.58A7.25,7.25,0,0,0,103,238.06Zm249.27-4V97.51h-45.5a21.5,21.5,0,0,1-21.46-21.46V30.55H47.3a9.69,9.69,0,0,0-9.66,9.67V440a9.69,9.69,0,0,0,9.66,9.67H230.21V309A17,17,0,0,1,247.14,292h34.78V277.52a43.52,43.52,0,0,1,43.42-43.42ZM296.46,292h11.92V277.52a17,17,0,0,1,17-17h68.44a17,17,0,0,1,17,17V292h11.92V277.52a29,29,0,0,0-28.88-28.88H325.34a29,29,0,0,0-28.88,28.88V292Zm26.46,0h29.37V275.11h-27a2.45,2.45,0,0,0-2.42,2.41V292Zm43.91-16.92V292H396.2V277.52a2.44,2.44,0,0,0-2.42-2.41ZM380,349.41a7.28,7.28,0,0,0-7.28-7.27H346.4a7.27,7.27,0,0,0-7.27,7.27v24.17H315a7.27,7.27,0,0,0-7.27,7.27v26.33a7.28,7.28,0,0,0,7.27,7.27h24.17v24.16a7.26,7.26,0,0,0,7.27,7.27h26.32a7.27,7.27,0,0,0,7.28-7.27V414.45h24.16a7.27,7.27,0,0,0,7.27-7.27V380.85a7.26,7.26,0,0,0-7.27-7.27H380V349.41Zm-14.55,31.44V356.69H353.67v24.16a7.27,7.27,0,0,1-7.27,7.27H322.24V399.9H346.4a7.28,7.28,0,0,1,7.27,7.28v24.16h11.78V407.18a7.28,7.28,0,0,1,7.27-7.28h24.17V388.12H372.72a7.27,7.27,0,0,1-7.27-7.27Zm-5.89-64.46A77.63,77.63,0,1,0,437.19,394a77.62,77.62,0,0,0-77.63-77.62Zm44.61,33a63.08,63.08,0,1,0,0,89.21,63.07,63.07,0,0,0,0-89.21ZM472,306.58H247.14a2.41,2.41,0,0,0-2.38,2.38v170.1a2.41,2.41,0,0,0,2.38,2.39H472a2.41,2.41,0,0,0,2.38-2.39V309a2.4,2.4,0,0,0-2.38-2.38ZM183.69,133.81V129A14.23,14.23,0,0,1,196,115a7.24,7.24,0,1,0-1.82-14.37,28.7,28.7,0,0,0-25,28.4v4.8a7.28,7.28,0,1,0,14.55,0Zm70,71.46V194.74a10.58,10.58,0,0,0-10.53-10.53H146.79a10.58,10.58,0,0,0-10.53,10.53v10.53Zm14.54-10.53A25.11,25.11,0,0,0,243,169.67V126.19a48,48,0,1,0-96,0v43.48a25.11,25.11,0,0,0-25.25,25.07v17.8a7.27,7.27,0,0,0,7.28,7.27h132a7.27,7.27,0,0,0,7.27-7.27v-17.8Zm-106.7-25.07h66.91V126.19a33.46,33.46,0,1,0-66.91,0v43.48ZM244,87.83,251.85,80a7.27,7.27,0,0,0-10.28-10.29l-7.88,7.88A7.27,7.27,0,1,0,244,87.83Zm11.17,46h13a7.28,7.28,0,0,0,0-14.55h-13a7.28,7.28,0,0,0,0,14.55ZM134.77,119.29h-13a7.28,7.28,0,1,0,0,14.55h13a7.28,7.28,0,1,0,0-14.55Zm21.46-41.74-7.88-7.88A7.27,7.27,0,1,0,138.07,80L146,87.83a7.27,7.27,0,0,0,10.28-10.28Zm46-13.95V53.38a7.27,7.27,0,1,0-14.54,0V63.6a7.27,7.27,0,1,0,14.54,0ZM342,83,299.87,40.83V76.05A7,7,0,0,0,306.79,83Z"></path>
                </svg>