<svg id="Layer_1" viewBox="0 0 64 64" xmlns="http://www.w3.org/2000/svg" data-name="Layer 1">
                  <path d="m58.72 31.58h-5.34v-21.35a.99.99 0 0 0 -1-1h-7.04v-2.19a5.04 5.04 0 0 0 -10.08 0v2.18h-12.85v-2.18a5.04 5.04 0 1 0 -10.08 0v2.19h-7.05a1 1 0 0 0 -1 1v45.38a1 1 0 0 0 1 1h16.24c.01 0 .02.01.03.01s.02-.01.03-.01h4.38v4.39a1 1 0 0 0 1 1h24.17a1.052 1.052 0 0 0 .71-.29l7.58-7.6c.01-.01.02-.03.03-.04a1.065 1.065 0 0 0 .19-.28 1.006 1.006 0 0 0 .08-.39v-20.82a1 1 0 0 0 -1-1zm-21.46-21.34v-3.2a3.04 3.04 0 0 1 6.08 0v3.16c0 .01-.01.02-.01.03a.035.035 0 0 1 .01.02v2.86a3.04 3.04 0 1 1 -6.08 0zm-22.93-.01v-3.19a3.04 3.04 0 1 1 6.08 0v6.07a3.04 3.04 0 1 1 -6.08 0zm6.22 44.38h-14.27v-11.84h14.27zm0-13.84h-14.27v-15.82h14.27zm-14.27-17.82v-11.72h6.05v1.88a5.04 5.04 0 1 0 10.08 0v-1.89h12.85v1.89a5.04 5.04 0 0 0 10.08 0v-1.88h6.04v11.72h-13.83c-.01 0-.01-.01-.02-.01l-.01.01zm45.1 2v6.63h-12.85v-6.63zm-25.42 29.66h-3.41v-11.84h3.41zm0-22.03v8.19h-3.41v-15.82h13.98v6.63h-9.57a1 1 0 0 0 -1 1zm31.76 19.82h-6.6a1 1 0 0 0 -1 1v6.6h-22.16v-26.42h29.76z"></path>
                  <path d="m35.16 43.84v3.56h2.69v-3.56a1 1 0 0 1 1-1h2.84v-2.69h-2.84a1 1 0 0 1 -1-1v-2.13h-2.69v2.13a1 1 0 0 1 -1 1h-2.84v2.69h2.84a1 1 0 0 1 1 1z"></path>
                  <path d="m48.605 38.15h6.066a1 1 0 0 0 0-2h-6.066a1 1 0 0 0 0 2z"></path>
                  <path d="m46.433 41.08h8.238a1 1 0 1 0 0-2h-8.238a1 1 0 0 0 0 2z"></path>
                  <path d="m54.671 42.39h-2.343a1 1 0 0 0 0 2h2.343a1 1 0 1 0 0-2z"></path>
                  <path d="m49.88 42.39h-2.1a1 1 0 0 0 0 2h2.1a1 1 0 1 0 0-2z"></path>
                  <path d="m31.82 52.55h12.06v4.16h-12.06z"></path>
                </svg>