<svg clip-rule="evenodd" fill-rule="evenodd" height="300" image-rendering="optimizeQuality" shape-rendering="geometricPrecision" text-rendering="geometricPrecision" viewBox="0 0 43.3492 43.3492" width="300" xmlns="http://www.w3.org/2000/svg" version="1.1" xmlns:xlink="http://www.w3.org/1999/xlink" xmlns:svgjs="http://svgjs.dev/svgjs"><g width="100%" height="100%" transform="matrix(1,0,0,1,0,0)"><g id="Layer_x0020_1"><path d="m27.3855 5.2801h-4.194c-.3506 0-.6352-.2843-.6351-.6349.0001-.3504.2844-.6348.6349-.6348l4.1942-.0002c.3505-.0001.6347.2846.6348.635s-.2844.6349-.6348.6349z" fill="#f58220" fill-opacity="1" data-original-color="#000000ff" stroke="none" stroke-opacity="1"/><path d="m28.6436 6.4219c-.9934 0-1.8931-.7496-1.8931-1.7767 0-.3504.2844-.6346.6348-.6348.3506-.0002.6349.2843.635.6348 0 .3181.3355.507.6232.507.2883 0 .6232-.1883.6233-.507 0-.3504.2844-.6346.6348-.6348.3512-.0002.6349.2838.635.6348.0001 1.0269-.8996 1.7767-1.893 1.7767z" fill="#f58220" fill-opacity="1" data-original-color="#000000ff" stroke="none" stroke-opacity="1"/><path d="m21.9333 6.4219c-.9934 0-1.8932-.7496-1.8931-1.7767 0-.3504.2843-.6346.6347-.6348.3506-.0002.6349.2843.635.6348.0001.3181.3355.507.6233.507s.6231-.1889.6232-.507c.0001-.3504.2843-.6346.6347-.6348.3507-.0002.635.2843.635.6348.0001 1.0269-.8995 1.7767-1.8928 1.7767z" fill="#f58220" fill-opacity="1" data-original-color="#000000ff" stroke="none" stroke-opacity="1"/><path d="m25.2889 21.247c-.3505 0-.6349-.2843-.6349-.6348l.0002-15.967c0-.3505.2842-.6347.6346-.6347.3506-.0001.6349.2843.6349.6349l.0002 15.9667c0 .3505-.2845.635-.635.6349z" fill="#f58220" fill-opacity="1" data-original-color="#000000ff" stroke="none" stroke-opacity="1"/><path d="m3.8256 19.423.0002-6.3801c0-.8811-.7175-1.5978-1.5979-1.5978l-.63-.0001c-.8816 0-1.5979.7169-1.5979 1.5979l.0001 6.3801z" fill="#f58220" fill-opacity="1" data-original-color="#000000ff" stroke="none" stroke-opacity="1"/><path d="m15.8211 19.4229.0001-1.0793c0-1.2598-1.0254-2.2848-2.2855-2.2848h-8.9218v3.3642z" fill="#f58220" fill-opacity="1" data-original-color="#000000ff" stroke="none" stroke-opacity="1"/><path d="m5.3824 25.5937.0002 3.2322c0 .4966.4041.901.9009.901l30.7824-.0001c.4966 0 .9008-.4041.9008-.9008l.0001-3.2323z" fill="#f58220" fill-opacity="1" data-original-color="#000000ff" stroke="none" stroke-opacity="1"/><path d="m.0001 20.2111v2.9857c0 .8871.7213 1.6089 1.6089 1.6089l40.1311-.0002c.8876 0 1.6091-.7216 1.6091-1.6086l.0001-1.3772c0-.8871-.7216-1.6086-1.6092-1.6086h-37.5181-.0023-.0023-4.2173z" fill="#f58220" fill-opacity="1" data-original-color="#000000ff" stroke="none" stroke-opacity="1"/><path d="m35.2515 38.4924c-1.442 0-2.615-1.1725-2.615-2.614 0-1.4417 1.173-2.6143 2.6148-2.6143 1.4419-.0001 2.6138 1.1728 2.6138 2.6143.0001 1.4415-1.172 2.6142-2.6136 2.614z" fill="#f58220" fill-opacity="1" data-original-color="#000000ff" stroke="none" stroke-opacity="1"/><path d="m8.0979 38.4924c-1.4419 0-2.6139-1.1725-2.6139-2.614.0001-1.4417 1.172-2.6143 2.6138-2.6143 1.4418-.0001 2.6137 1.1728 2.6137 2.6143.0002 1.4415-1.1719 2.6142-2.6136 2.614z" fill="#f58220" fill-opacity="1" data-original-color="#000000ff" stroke="none" stroke-opacity="1"/><path d="m7.29 31.162h1.615v3.355h-1.615z" fill="#f58220" fill-opacity="1" data-original-color="#000000ff" stroke="none" stroke-opacity="1"/><path d="m34.443 31.162h1.615v3.355h-1.615z" fill="#f58220" fill-opacity="1" data-original-color="#000000ff" stroke="none" stroke-opacity="1"/></g></g></svg>