<svg height="300" viewBox="0 0 512 512" width="300" xmlns="http://www.w3.org/2000/svg" version="1.1" xmlns:xlink="http://www.w3.org/1999/xlink" xmlns:svgjs="http://svgjs.dev/svgjs"><g width="100%" height="100%" transform="matrix(1,0,0,1,0,0)"><g id="Layer_29" data-name="Layer 29"><path d="m192 264.81a79.894 79.894 0 0 1 -48 0v11.69a8.008 8.008 0 0 0 8 8h32a8.008 8.008 0 0 0 8-8z" fill="#b7202e" fill-opacity="1" data-original-color="#000000ff" stroke="none" stroke-opacity="1"/><path d="m232 188.5a64 64 0 1 0 -64 64 64.073 64.073 0 0 0 64-64zm-104 0a40 40 0 1 1 40 40 40.047 40.047 0 0 1 -40-40z" fill="#b7202e" fill-opacity="1" data-original-color="#000000ff" stroke="none" stroke-opacity="1"/><path d="m160 300.5h16v184h-16z" fill="#b7202e" fill-opacity="1" data-original-color="#000000ff" stroke="none" stroke-opacity="1"/><circle cx="168" cy="188.5" r="24" fill="#b7202e" fill-opacity="1" data-original-color="#000000ff" stroke="none" stroke-opacity="1"/><path d="m400 308.5a88 88 0 1 0 88 88 88.1 88.1 0 0 0 -88-88zm61.656 69.656-72 72a8 8 0 0 1 -11.312 0l-40-40a8 8 0 0 1 0-11.312l24-24a8 8 0 0 1 11.312 0l10.344 10.344 42.344-42.344a8 8 0 0 1 11.312 0l24 24a8 8 0 0 1 0 11.312z" fill="#b7202e" fill-opacity="1" data-original-color="#000000ff" stroke="none" stroke-opacity="1"/><path d="m389.656 402.156a8 8 0 0 1 -11.312 0l-10.344-10.344-12.688 12.688 28.688 28.688 60.688-60.688-12.688-12.688z" fill="#b7202e" fill-opacity="1" data-original-color="#000000ff" stroke="none" stroke-opacity="1"/><path d="m400 292.5c1.927 0 3.808.186 5.709.29l18.6-13.642a156.388 156.388 0 0 0 63.691-125.687c0-73.313-59.648-132.961-132.965-132.961a133.205 133.205 0 0 0 -85.121 30.82l-8.793 7.328a8.007 8.007 0 0 1 -10.242 0l-8.793-7.328a133.205 133.205 0 0 0 -85.121-30.82c-73.317 0-132.965 59.648-132.965 132.961a156.388 156.388 0 0 0 63.691 125.687l56.309 41.297v-21.42a23.959 23.959 0 0 1 -16-22.525v-18.825a80 80 0 1 1 80 0v18.825a23.96 23.96 0 0 1 -16 22.526v56.621l64 46.931 43.347-31.786c11.489-44.928 52.192-78.292 100.653-78.292zm-79.492-101.188-14.977-39.945-9.769 39.071a8 8 0 0 1 -7.762 6.062h-24v-16h17.754l14.484-57.938a8 8 0 0 1 7.309-6.046 8.094 8.094 0 0 1 7.945 5.172l22.051 58.812h18.457a8 8 0 0 1 7.156 4.422l8.844 17.687 8.844-17.687a8 8 0 0 1 7.156-4.422h80v16h-75.055l-13.789 27.578a8 8 0 0 1 -14.312 0l-13.789-27.578h-19.055a8.005 8.005 0 0 1 -7.492-5.188z" fill="#b7202e" fill-opacity="1" data-original-color="#000000ff" stroke="none" stroke-opacity="1"/></g></g></svg>