<svg id="Capa_1" enable-background="new 0 0 512 512" height="300" viewBox="0 0 512 512" width="300" xmlns="http://www.w3.org/2000/svg" version="1.1" xmlns:xlink="http://www.w3.org/1999/xlink" xmlns:svgjs="http://svgjs.dev/svgjs"><g width="100%" height="100%" transform="matrix(1,0,0,1,0,0)"><g><g><path d="m512 407.014v-205.317l-26.721-31.892h-355.793c-115.867 47.407-99.317 292.202 35.324 326.68h257.72c49.41 0 89.47-40.06 89.47-89.471z" fill="#f5f4fd" fill-opacity="1" data-original-color="#f5f4fdff" stroke="none" stroke-opacity="1"/><path d="m129.486 169.805h-105.524l-23.962 31.892v205.317c0 49.411 40.06 89.471 89.471 89.471h75.339c-54.423-93.962-64.976-220.886-35.324-326.68z" fill="#dbdbfd" fill-opacity="1" data-original-color="#dbdbfdff" stroke="none" stroke-opacity="1"/><path d="m512 182.562c0-49.338-39.936-89.347-89.243-89.471l-21.173-14.826-14.998 14.826c-39.235 0-103.857 0-162.909 0l-18.877-13.447-17.325 13.446c-9.511 0-18.665 0-27.305 0-70.97 22.066-86.128 81.368-38.294 108.606h390.124z" fill="#ba3945" fill-opacity="1" data-original-color="#8397f2ff" stroke="none" stroke-opacity="1"/><path d="m89.253 93.091c-49.307.114-89.253 40.132-89.253 89.471v19.135h121.876c7.933-40.019 21.078-76.782 38.294-108.606-38.251 0-66.437 0-70.917 0z" fill="#b7202e" fill-opacity="1" data-original-color="#6479e5ff" stroke="none" stroke-opacity="1"/><path d="m386.586 90.505v2.586h36.171c-.062-1.025.747-12.081-3.239-25.859-11.948-24.406-37.07-28.186-39.138 0 3.896 6.483 6.206 14.541 6.206 23.273z" fill="#ffcb05" fill-opacity="1" data-original-color="#fdd554ff" stroke="none" stroke-opacity="1"/><path d="m355.556 15.515c-37.221 0-67.232 33.339-67.232 74.99 0 29.257 15.308 57.546 41.881 69.508 11.841 5.336 25.352-3.479 25.352-16.581 0-7.158-4.261-13.529-10.757-16.529-11.212-5.182-19.384-18.246-20.201-33.813-1.208-20.045 11.346-41.374 30.958-41.374 10.152 0 19.164 6.095 24.825 15.515h39.138c-8.754-30.251-34.138-51.716-63.964-51.716z" fill="#ffcb05" fill-opacity="1" data-original-color="#fde784ff" stroke="none" stroke-opacity="1"/><path d="m187.475 90.505v2.586h36.202c-.097-1.561.676-12.22-3.27-25.859-13.481-23.273-37.328-25.341-39.138 0 3.896 6.483 6.206 14.541 6.206 23.273z" fill="#ffcb05" fill-opacity="1" data-original-color="#fdd554ff" stroke="none" stroke-opacity="1"/><path d="m156.444 15.515c-37.221 0-67.232 33.339-67.232 74.99 0 30.086 15.96 57.84 41.881 69.508 11.841 5.336 25.352-3.479 25.352-16.581 0-7.158-4.261-13.529-10.757-16.529-19.424-8.977-26.511-38.965-14.068-59.671 12.425-20.676 37.214-20.693 49.65 0h39.138c-8.753-30.252-34.137-51.717-63.964-51.717z" fill="#ffcb05" fill-opacity="1" data-original-color="#fde784ff" stroke="none" stroke-opacity="1"/><g fill="#00ee9e"><path d="m387.879 427.701v13.446c0 9.144-7.406 16.549-16.549 16.549h-13.446c-9.144 0-16.549-7.406-16.549-16.549v-13.446c0-9.144 7.406-16.549 16.549-16.549h13.446c9.143 0 16.549 7.405 16.549 16.549z" fill="#b7202e" fill-opacity="1" data-original-color="#00ee9eff" stroke="none" stroke-opacity="1"/><path d="m302.545 427.701v13.446c0 9.144-7.406 16.549-16.549 16.549h-13.446c-9.144 0-16.549-7.406-16.549-16.549v-13.446c0-9.144 7.406-16.549 16.549-16.549h13.446c9.144 0 16.549 7.405 16.549 16.549z" fill="#b7202e" fill-opacity="1" data-original-color="#00ee9eff" stroke="none" stroke-opacity="1"/><path d="m473.212 342.368v13.446c0 9.144-7.406 16.549-16.549 16.549h-13.446c-9.144 0-16.549-7.406-16.549-16.549v-13.446c0-9.144 7.406-16.549 16.549-16.549h13.446c9.143-.001 16.549 7.405 16.549 16.549z" fill="#b7202e" fill-opacity="1" data-original-color="#00ee9eff" stroke="none" stroke-opacity="1"/><path d="m387.879 342.368v13.446c0 9.144-7.406 16.549-16.549 16.549h-13.446c-9.144 0-16.549-7.406-16.549-16.549v-13.446c0-9.144 7.406-16.549 16.549-16.549h13.446c9.143-.001 16.549 7.405 16.549 16.549z" fill="#b7202e" fill-opacity="1" data-original-color="#00ee9eff" stroke="none" stroke-opacity="1"/><path d="m302.545 342.368v13.446c0 9.144-7.406 16.549-16.549 16.549h-13.446c-9.144 0-16.549-7.406-16.549-16.549v-13.446c0-9.144 7.406-16.549 16.549-16.549h13.446c9.144-.001 16.549 7.405 16.549 16.549z" fill="#b7202e" fill-opacity="1" data-original-color="#00ee9eff" stroke="none" stroke-opacity="1"/><path d="m302.545 257.034v13.446c0 9.144-7.406 16.549-16.549 16.549h-13.446c-9.144 0-16.549-7.406-16.549-16.549v-13.446c0-9.144 7.406-16.549 16.549-16.549h13.446c9.144 0 16.549 7.406 16.549 16.549z" fill="#b7202e" fill-opacity="1" data-original-color="#00ee9eff" stroke="none" stroke-opacity="1"/><path d="m387.879 257.034v13.446c0 9.144-7.406 16.549-16.549 16.549h-13.446c-9.144 0-16.549-7.406-16.549-16.549v-13.446c0-9.144 7.406-16.549 16.549-16.549h13.446c9.143 0 16.549 7.406 16.549 16.549z" fill="#b7202e" fill-opacity="1" data-original-color="#00ee9eff" stroke="none" stroke-opacity="1"/><path d="m473.212 257.034v13.446c0 9.144-7.406 16.549-16.549 16.549h-13.446c-9.144 0-16.549-7.406-16.549-16.549v-13.446c0-9.144 7.406-16.549 16.549-16.549h13.446c9.143 0 16.549 7.406 16.549 16.549z" fill="#b7202e" fill-opacity="1" data-original-color="#00ee9eff" stroke="none" stroke-opacity="1"/></g><path d="m213.333 349.091c0-39.905-27.407-73.406-64.41-82.739-99.842-.001-99.843 165.476-.001 165.476 36.955-9.323 64.411-42.763 64.411-82.737z" fill="#787878" fill-opacity="1" data-original-color="#54587eff" stroke="none" stroke-opacity="1"/><path d="m148.924 266.352c-53.905-13.596-106.257 27.159-106.257 82.739 0 47.125 38.209 85.333 85.333 85.333 7.216 0 14.224-.906 20.923-2.596-47.354-40.7-47.394-124.742.001-165.476z" fill="#454545" fill-opacity="1" data-original-color="#41446dff" stroke="none" stroke-opacity="1"/><path d="m145.148 379.905v-8.767c0-2.706 2.194-4.9 4.9-4.9h8.767c8.688 0 15.731-7.043 15.731-15.731v-2.835c0-8.688-7.043-15.731-15.731-15.731h-8.767c-2.706 0-4.9-2.194-4.9-4.9v-8.767c0-8.283-6.403-15.066-14.529-15.68-24.998 26.904-24.853 66.582.123 92.981 8.067-.672 14.406-7.429 14.406-15.67z" fill="#ffde62" fill-opacity="1" data-original-color="#61dcffff" stroke="none" stroke-opacity="1"/><path d="m130.619 302.595c-1.125-.085-1.405-.036-4.037-.05-8.688 0-15.731 7.043-15.731 15.731v8.767c0 2.706-2.194 4.9-4.9 4.9h-8.767c-8.688 0-15.731 7.043-15.731 15.731v2.835c0 8.688 7.043 15.731 15.731 15.731h8.767c2.706 0 4.9 2.194 4.9 4.9v8.767c0 8.688 7.043 15.731 15.731 15.731h2.835c.447 0 .887-.023 1.325-.06-4.792-12.466-7.696-28.784-7.696-46.649 0-17.715 2.855-33.909 7.573-46.334z" fill="#ffcb05" fill-opacity="1" data-original-color="#00cafdff" stroke="none" stroke-opacity="1"/></g></g></g></svg>