<svg height="512" viewBox="0 0 64 64" width="512" xmlns="http://www.w3.org/2000/svg"><g id="Icons"><g><g><path d="m44.019 18h-40.019v30c0 2.209 1.791 4 4 4h30v-5.893c0-2 1.437-3.743 3.343-4.054.222-.036.441-.053.657-.053v-7.893c0-2 1.437-3.743 3.343-4.054.222-.036.441-.053.657-.053 2.206 0 4 1.794 4 4v4c.728 0 1.411.195 2 .537v-16.537c-3.262 0-6.154-1.577-7.981-4z" fill="#f0f0f0"/></g><g><path d="m42 12c0-1.422.303-2.774.841-4h-34.841c-2.209 0-4 1.791-4 4v6h40.019c-1.261-1.674-2.019-3.747-2.019-6z" fill="#64c8f0"/></g><g><g><path d="m12 8h-4c-2.209 0-4 1.791-4 4v6h4v-6c0-2.209 1.791-4 4-4z" fill="#46aad2"/></g></g><g><g><path d="m8 48v-30h-4v30c0 2.209 1.791 4 4 4h4c-2.209 0-4-1.791-4-4z" fill="#d2d2d2"/></g></g><g><g><path d="m18 12c-1.105 0-2-.895-2-2v-4c0-1.105.895-2 2-2 1.105 0 2 .895 2 2v4c0 1.105-.895 2-2 2z" fill="#fa6450"/></g></g><g><g><path d="m28 12c-1.105 0-2-.895-2-2v-4c0-1.105.895-2 2-2 1.105 0 2 .895 2 2v4c0 1.105-.895 2-2 2z" fill="#fa6450"/></g></g><g><g><path d="m38 12c-1.105 0-2-.895-2-2v-4c0-1.105.895-2 2-2 1.105 0 2 .895 2 2v4c0 1.105-.895 2-2 2z" fill="#fa6450"/></g></g><g><g><path d="m18 24h4v4h-4z" fill="#505050"/></g></g><g><g><path d="m26 24h4v4h-4z" fill="#505050"/></g></g><g><g><path d="m34 24h4v4h-4z" fill="#505050"/></g></g><g><g><path d="m42 24h4v4h-4z" fill="#fa6450"/></g></g><g><g><path d="m10 32h4v4h-4z" fill="#505050"/></g></g><g><g><path d="m18 32h4v4h-4z" fill="#505050"/></g></g><g><g><path d="m26 32h4v4h-4z" fill="#505050"/></g></g><g><g><path d="m34 32h4v4h-4z" fill="#505050"/></g></g><g><g><path d="m10 40h4v4h-4z" fill="#505050"/></g></g><g><g><path d="m18 40h4v4h-4z" fill="#505050"/></g></g><g><g><path d="m26 40h4v4h-4z" fill="#505050"/></g></g><g><g><path d="m34 40h4v4h-4z" fill="#505050"/></g></g><g><path d="m60 60v-17.893c0-.996-.681-1.92-1.664-2.08-1.253-.204-2.336.758-2.336 1.973 0-1.105-.895-2-2-2-1.104 0-2 .895-2 2 0-1.105-.895-2-2-2-1.104 0-2 .895-2 2v-8c0-1.215-1.083-2.176-2.336-1.973-.983.16-1.664 1.084-1.664 2.08v11.893c0-1.215-1.083-2.176-2.336-1.973-.983.16-1.664 1.084-1.664 2.08v6.236c0 1.061.421 2.078 1.172 2.828l2.243 2.243c.374.375.585.884.585 1.414v1.172z" fill="#f0c8a0"/></g><g><path d="m44.414 57.414-2.243-2.243c-.75-.75-1.171-1.767-1.171-2.828v-8.069c-.612.372-1 1.081-1 1.833v6.236c0 1.061.421 2.078 1.172 2.828l2.243 2.243c.374.375.585.884.585 1.414v1.172h1v-1.172c0-.53-.211-1.039-.586-1.414z" fill="#d2aa82"/></g><g><path d="m57 40.274v7.834h-1v-6.108c0-.739.404-1.38 1-1.726z" fill="#d2aa82"/></g><g><path d="m52 48.107v-6.107c0-.738.405-1.376 1-1.723v7.83z" fill="#d2aa82"/></g><g><path d="m48 42v6h1v-7.723c-.595.347-1 .985-1 1.723z" fill="#d2aa82"/></g><g><path d="m44 48h1v-15.723c-.595.346-1 .984-1 1.723v12z" fill="#d2aa82"/></g><g><circle cx="52" cy="12" fill="#3cc8b4" r="8"/></g><g><path d="m46 12c0-4.079 3.055-7.438 7-7.931-.328-.041-.661-.069-1-.069-4.418 0-8 3.582-8 8s3.582 8 8 8c.339 0 .672-.028 1-.069-3.945-.493-7-3.852-7-7.931z" fill="#1eaa96"/></g><g><path d="m57 10-6 6-4-4 2-2 2 2 4-4z" fill="#f0f0f0"/></g></g></g></svg>