<svg id="Capa_1" enable-background="new 0 0 512 512" height="512" viewBox="0 0 512 512" width="512" xmlns="http://www.w3.org/2000/svg"><path d="m184.481 297.812-7.42-29.068c46.478-11.864 78.939-53.703 78.939-101.744v-92h15c8.284 0 15 6.716 15 15v77c0 61.762-41.746 115.554-101.519 130.812z" fill="#cdf"/><path d="m117.519 297.812c-59.773-15.258-101.519-69.05-101.519-130.812v-77c0-8.284 6.716-15 15-15h15v92c0 48.041 32.461 89.88 78.938 101.744z" fill="#d9f2ff"/><path d="m106 90h-90v-45c0-24.813 20.187-45 45-45h45z" fill="#596c76"/><path d="m286 90h-90v-90h45c24.813 0 45 20.187 45 45z" fill="#465a61"/><path d="m436 227v90c0 41.36-33.64 75-75 75h-30c-24.81 0-45 20.19-45 45 0 41.36-33.65 75-75 75-24.51 0-46.31-11.82-60-30.05-9.42-12.54-15-28.1-15-44.95v-90h30v90c0 24.81 20.19 45 45 45s45-20.19 45-45c0-41.36 33.64-75 75-75h30c24.81 0 45-20.19 45-45v-90z" fill="#ff9100"/><path d="m436 227v90c0 41.36-33.64 75-75 75h-30c-24.81 0-45 20.19-45 45 0 41.36-33.65 75-75 75-24.51 0-46.31-11.82-60-30.05v-134.95h15v90c0 24.81 20.19 45 45 45s45-20.19 45-45c0-41.36 33.64-75 75-75h30c24.81 0 45-20.19 45-45v-90z" fill="#ff641a"/><path d="m421 92c-41.36 0-75 33.64-75 75s33.64 75 75 75 75-33.64 75-75-33.64-75-75-75z" fill="#596c76"/><path d="m406 152h30v30h-30z" fill="#d9f2ff"/><path d="m151 242c-24.81 0-45 20.19-45 45v75h90v-75c0-24.81-20.19-45-45-45z" fill="#ff9100"/><path d="m196 287v75h-45v-120c24.81 0 45 20.19 45 45z" fill="#ff641a"/></svg>