<svg viewBox="0 0 96 96" xmlns="http://www.w3.org/2000/svg"><g id="Book"><path d="m90.69 62.19h-15.69v12.31h15.69l-3.25-6.16z" fill="#f73962"/><path d="m13.87 1.03h64.56v79.97h-64.56z" fill="#7f86db"/><rect fill="#84aeea" height="61.97" rx="3.3" width="46.56" x="22.87" y="10.03"/><path d="m57.43 43.26v4.34a1.23 1.23 0 0 1 -1.23 1.23h-20.1a1.23 1.23 0 0 1 -1.23-1.23v-4.35a1.23 1.23 0 0 1 1.82-1.07 20.44 20.44 0 0 0 18.92 0 1.23 1.23 0 0 1 1.82 1.08z" fill="#a7dbff"/><path d="m13.87 1h-1.57a7 7 0 0 0 -7 7v80a7 7 0 0 1 7-7h1.57z" fill="#4377d1"/><path d="m9.88 1.47a7 7 0 0 0 -4.57 6.53v80a7 7 0 0 1 4.57-6.55z" fill="#4d4fbd"/><path d="m10.19 85.88a3 3 0 0 0 2.11 5.12h66.13v4h-66.13a7 7 0 1 1 0-14h66.13v4h-66.13a3 3 0 0 0 -2.11.88z" fill="#4895ef"/><path d="m24.88 91h-12.58a3 3 0 1 1 0-6h12.58v-4h-12.58a7 7 0 1 0 0 14h12.58z" fill="#70d1ff"/><path d="m9.42 88.75h-4.07a7 7 0 0 0 7 6.22h12.53v-3.97h-12.58a3 3 0 0 1 -2.88-2.25z" fill="#2f63cc"/><path d="m56 90.97h22.43v4h-22.43z" fill="#2f63cc"/><path d="m71 81h7.43v4h-7.43z" fill="#70d1ff"/><path d="m49.31 81h15.61v4h-15.61z" fill="#70d1ff"/><path d="m75 91h-62.7a3 3 0 1 1 0-6h62.7z" fill="#bdbff3"/><circle cx="46.15" cy="24" fill="#cdd7ff" r="16.5"/><circle cx="46.15" cy="24" fill="#a5afff" r="11.5"/><path d="m54.58 21.17h-5.59v-5.6h-5.67v5.6h-5.59v5.66h5.59v5.6h5.67v-5.6h5.59z" fill="#f73962"/><rect fill="#f49656" height="21.67" rx="1.72" width="51.27" x="20.52" y="52.83"/><rect fill="#f4c86f" height="16.75" rx="1.72" width="33" x="29.65" y="52.83"/></g></svg>