<svg id="Layer_1" viewBox="0 0 64 64" xmlns="http://www.w3.org/2000/svg" data-name="Layer 1" fill="#FFCB05"><path d="m28.929 17.237h2.071v2.07c0 .552.448 1 1 1s1-.448 1-1v-2.07h2.071c.552 0 1-.448 1-1s-.448-1-1-1h-2.071v-2.071c0-.552-.448-1-1-1s-1 .448-1 1v2.071h-2.071c-.552 0-1 .448-1 1s.448 1 1 1z"/><path d="m61 5.84h-16.28c-.552 0-1 .448-1 1v20.678h-5.322v-3.591h3.261c.552 0 1-.448 1-1v-13.379c0-.552-.448-1-1-1h-19.317c-.552 0-1 .448-1 1v13.379c0 .552.448 1 1 1h3.261v3.591h-5.322v-20.678c0-.552-.448-1-1-1h-16.281c-.552 0-1 .448-1 1v49.67c0 .552.448 1 1 1h16.28s.008-.002.012-.002h3.216s.008.002.012.002.008-.002.012-.002h18.936s.008.002.012.002.008-.002.012-.002h3.216s.008.002.012.002h16.28c.552 0 1-.448 1-1v-49.67c0-.552-.448-1-1-1zm-1 14.98h-6.39v-2.2h6.39zm-11.76 34.688h-5.76v-11.297c0-.552-.448-1-1-1h-18.96c-.552 0-1 .448-1 1v11.297h-5.76v-19.2h32.48zm-7.76 0h-16.96v-10.297h16.96zm-27.183-21.203v-4.786h37.406v4.786zm10.044-23.757h17.317v11.379h-17.317zm4.261 13.379h8.796v3.591h-8.796zm-23.602-5.307h6.39v2.2h-6.39zm0 23.91h6.39v2.21h-6.39zm0 4.21h7.39c.552 0 1-.448 1-1v-4.21c0-.552-.448-1-1-1h-7.39v-17.71h7.39c.552 0 1-.448 1-1v-4.2c0-.552-.448-1-1-1h-7.39v-8.78h14.28v19.678h-5.983c-.552 0-1 .448-1 1v6.786c0 .552.448 1 1 1h1.463v19.206h-9.76zm46.24 8.77v-19.206h1.463c.552 0 1-.448 1-1v-6.786c0-.552-.448-1-1-1h-5.983v-19.678h14.28v8.78h-7.39c-.552 0-1 .448-1 1v4.2c0 .552.448 1 1 1h7.39v17.71h-7.39c-.552 0-1 .448-1 1v4.21c0 .552.448 1 1 1h7.39v8.77zm9.76-10.77h-6.39v-2.21h6.39z"/></svg>