<svg id="Layer_1" enable-background="new 0 0 32 32" height="300" viewBox="0 0 32 32" width="300" xmlns="http://www.w3.org/2000/svg" version="1.1" xmlns:xlink="http://www.w3.org/1999/xlink" xmlns:svgjs="http://svgjs.dev/svgjs"><g width="100%" height="100%" transform="matrix(1,0,0,1,0,0)"><g><path d="m4.979 13.879c.597 2.127 2.635 3.654 3.758 3.654s3.161-1.527 3.757-3.654c.51-.197.854-.689.854-1.242v-.533c0-.482-.265-.912-.662-1.145.042-.18.082-.375.118-.584.198-1.139.844-4.145-4.067-4.145s-4.266 3.006-4.067 4.145c.036.209.076.404.118.584-.397.232-.662.662-.662 1.145v.533c-.001.552.344 1.045.853 1.242zm-.378-1.775c0-.262.121-.498.312-.656.138.488.258.766.258.766.209.877.418 1.293.418-.461 0-1.752.501-2.572 1.336-1.92.835.65 1.47.564 1.813.564s.978.086 1.813-.564c.835-.652 1.337.168 1.337 1.92 0 1.754.209 1.338.417.461 0 0 .12-.277.258-.766.19.158.312.395.312.656v.533c0 .387-.262.727-.638.828l-.134.037-.034.135c-.503 2.01-2.461 3.422-3.33 3.422s-2.827-1.412-3.33-3.422l-.034-.135-.134-.037c-.376-.102-.638-.441-.638-.828v-.533z" fill="#f58220" fill-opacity="1" data-original-color="#000000ff" stroke="none" stroke-opacity="1"/><path d="m6.707 13.508h.963c.487 0 .884-.459.884-1.025 0-.148-.029-.287-.077-.414h.52c-.049.127-.076.266-.076.414 0 .566.396 1.025.883 1.025h.962c.486 0 .883-.459.883-1.025s-.396-1.025-.883-1.025h-.963c-.221 0-.421.098-.575.254h-.982c-.155-.156-.355-.254-.576-.254h-.963c-.486 0-.883.459-.883 1.025s.397 1.025.883 1.025zm3.096-1.694h.962c.291 0 .526.299.526.668s-.235.668-.526.668h-.962c-.291 0-.526-.299-.526-.668s.235-.668.526-.668zm-3.096 0h.963c.29 0 .526.299.526.668s-.236.668-.526.668h-.963c-.289 0-.525-.299-.525-.668s.236-.668.525-.668z" fill="#f58220" fill-opacity="1" data-original-color="#000000ff" stroke="none" stroke-opacity="1"/><path d="m16.227 13.068c.772 2.752 3.408 4.727 4.861 4.727s4.09-1.975 4.861-4.727c.659-.256 1.104-.893 1.104-1.605v-.693c0-.623-.343-1.176-.856-1.479.054-.232.105-.484.153-.756.257-1.473 1.092-5.363-5.263-5.363-6.354 0-5.519 3.891-5.263 5.363.049.271.1.523.153.756-.514.303-.855.855-.855 1.479v.693c.001.713.446 1.35 1.105 1.605zm-.489-2.298c0-.338.155-.643.402-.848.179.633.334.99.334.99.27 1.135.54 1.676.54-.594s.648-3.328 1.729-2.486c1.08.844 1.901.73 2.345.73s1.265.113 2.345-.73c1.08-.842 1.729.217 1.729 2.486s.27 1.729.54.594c0 0 .155-.357.334-.99.246.205.402.51.402.848v.693c0 .498-.339.938-.824 1.068l-.174.049-.044.174c-.651 2.602-3.185 4.426-4.309 4.426-1.123 0-3.657-1.824-4.308-4.426l-.044-.174-.175-.049c-.485-.131-.823-.57-.823-1.068v-.693z" fill="#f58220" fill-opacity="1" data-original-color="#000000ff" stroke="none" stroke-opacity="1"/><path d="m18.464 12.588h1.245c.629 0 1.143-.596 1.143-1.326 0-.191-.037-.373-.1-.537h.673c-.063.164-.1.346-.1.537 0 .73.512 1.326 1.143 1.326h1.245c.63 0 1.142-.596 1.142-1.326 0-.732-.512-1.326-1.142-1.326h-1.245c-.286 0-.544.125-.745.328h-1.269c-.201-.203-.459-.328-.745-.328h-1.245c-.63 0-1.143.594-1.143 1.326 0 .73.513 1.326 1.143 1.326zm4.004-2.192h1.245c.376 0 .681.387.681.865 0 .477-.305.865-.681.865h-1.245c-.376 0-.682-.389-.682-.865 0-.478.306-.865.682-.865zm-4.004 0h1.245c.376 0 .681.387.681.865 0 .477-.305.865-.681.865h-1.245c-.376 0-.682-.389-.682-.865 0-.478.306-.865.682-.865z" fill="#f58220" fill-opacity="1" data-original-color="#000000ff" stroke="none" stroke-opacity="1"/><path d="m16.134 23.666c-.222.193-.365.473-.365.787 0 .578.469 1.045 1.046 1.045.576 0 1.045-.467 1.045-1.045 0-.576-.469-1.045-1.045-1.045-.039 0-.076.008-.114.012.055.137.107.264.159.383.34.023.61.305.61.65 0 .363-.294.656-.655.656-.362 0-.656-.293-.656-.656 0-.15.054-.287.14-.398-.051-.116-.107-.246-.165-.389z" fill="#f58220" fill-opacity="1" data-original-color="#000000ff" stroke="none" stroke-opacity="1"/><path d="m13.312 18.172c-1.069-.449-2.158-.711-2.158-.711-.714 1.266-2.417 2.182-2.417 2.182s-1.703-.916-2.417-2.182c0 0-3.651.875-4.144 2.182-.491 1.309-.848 4.637-.848 4.637s2.219 1.781 7.408 1.781c.566 0 1.092-.023 1.589-.063.136-1.162.548-4.371 1.124-5.904.266-.707.88-1.34 1.863-1.922z" fill="#f58220" fill-opacity="1" data-original-color="#000000ff" stroke="none" stroke-opacity="1"/><path d="m29.575 20.525c-.26-.691-1.204-1.289-2.229-1.754-.271.809-.587 1.576-.815 2.1l.108.033c.048.174.061.395-.023.678-.243.82 2.053.295 1.142 4.029l-.156-.047c-.065.318-.177.736-.359 1.207.108.111.16.273.113.432-.069.234-.315.367-.55.299-.234-.07-.368-.316-.298-.551.057-.189.229-.307.419-.309.178-.463.283-.871.345-1.176l-.146-.043s.499-1.605-.494-1.963c-.993-.355-1.204-.418-2.231-.66s-1.483 1.377-1.483 1.377l-.146-.045c-.113.289-.248.691-.351 1.174.157.105.239.299.183.488-.069.234-.315.367-.55.299-.234-.07-.367-.316-.298-.551.047-.158.178-.264.328-.299.104-.494.239-.906.357-1.209l-.156-.045c1.27-3.627 2.909-1.936 3.152-2.758.084-.281.215-.461.35-.58l.149.045c.313-.719.604-1.473.833-2.172-.549-.221-1.088-.4-1.529-.535-.605-.186-1.025-.287-1.025-.287.06 1.242-1.005 3.318-1.908 4.842l-.673-2.465c.433-.041.52-.775.469-1.174-.052-.41-1.015-.615-1.015-.615s-.963.205-1.015.615c-.05.398.037 1.133.47 1.174l-.674 2.465c-.902-1.523-1.967-3.6-1.907-4.842 0 0-.42.102-1.025.287-.387.119-.848.271-1.325.455-.209 1.141.35 3.043.892 4.473.101-.021.204-.033.312-.033.864 0 1.568.705 1.568 1.568 0 .865-.704 1.57-1.568 1.57-.865 0-1.569-.705-1.569-1.57 0-.537.272-1.012.687-1.295-.486-1.262-1.063-3.086-.973-4.443-1.074.471-2.087 1.09-2.357 1.811-.636 1.691-1.097 5.996-1.097 5.996s2.869 2.307 9.583 2.307 9.584-2.307 9.584-2.307-.463-4.304-1.099-5.996z" fill="#f58220" fill-opacity="1" data-original-color="#000000ff" stroke="none" stroke-opacity="1"/></g></g></svg>