<svg id="Layer_1" enable-background="new 0 0 124 124" height="512" viewBox="0 0 124 124" width="512" xmlns="http://www.w3.org/2000/svg"><path d="m114.778 89.979c-2.752-3.001-5.494-5.011-7.536-6.303l.038-.002-5.207-5.464-9.948 6.73-9.249-6.601-7.571 7.07c-4.141 3.061-7.779 6.987-10.253 11.522-1.291 2.367-2.013 4.981-2.622 7.592-.645 2.762-1.481 5.621-1.481 8.477h63.051c0-8.692-3.396-16.667-9.222-23.021-2.752-3.001 1.672 1.824 0 0z" fill="#90caf9"/><path d="m98.568 95.702 8.452-12.301-4.947-5.191-9.948 6.73z" fill="#64b5f6"/><path d="m92.125 84.94-9.249-6.601-5.357 5.003 8.494 12.36z" fill="#64b5f6"/><path d="m113.646 100.131h-2.633v-2.776c0-1.104-.896-2-2-2s-2 .896-2 2v2.776h-2.634c-1.104 0-2 .896-2 2s.896 2 2 2h2.634v2.776c0 1.104.896 2 2 2s2-.896 2-2v-2.776h2.633c1.104 0 2-.896 2-2s-.896-2-2-2z" fill="#0d47a1"/><path d="m109.106 16.328c-1.267-3.221-4.303-5.328-7.675-5.328h-17.913c-3.372 0-6.408 2.107-7.675 5.328l-4.02 17.171 41.322.098z" fill="#78909c"/><path d="m113.149 33.613-41.326-.114c-1.034 5.134-.824 10.689-.459 15.321-1.506-2.942-5.929-2.037-5.584 2.587.376 4.43 16.688 21.049 24.154 22.083 1.596.305 3.225.271 4.831.065 7.56-.97 23.997-17.686 24.373-22.116.376-4.656-4.078-5.529-5.552-2.619.664-5.111.571-10.105-.437-15.207z" fill="#ffb74d"/><ellipse cx="92.475" cy="33.615" fill="#fff" rx="9.983" ry="10.094"/><path d="m95.748 32.069h-1.273v-1.373c0-1.104-.896-2-2-2s-2 .896-2 2v1.373h-1.273c-1.104 0-2 .896-2 2s.896 2 2 2h1.273v1.374c0 1.104.896 2 2 2s2-.896 2-2v-1.374h1.273c1.104 0 2-.896 2-2s-.896-2-2-2z" fill="#dd2d2d"/><path d="m47.84 83.17c1.716-.839.035-2.369-.897-2.877-3.049-2.039-2.286-1.396-2.894-1.824-1.996-1.405-4.532-5.57-4.582-6.813.05 1.243 0-2.319 0-2.319h-15.593v2.319c.063 2.058-2.249 5.594-4.304 6.664-2.333 1.215-2.141 1.228-3.368 1.829l.31.516c-.937.517 9.61 13.125 31.328 2.505z" fill="#ff9800"/><path d="m63.051 113h-63.051c-.003-2.499.266-10.333 1.671-14.6.463-1.408 2.311-6.705 6.998-11.948 3.97-4.441 8.208-6.866 10.902-8.132 3.09 3.27 7.382 5.248 11.907 5.226h.048c4.746 0 9.056-2.029 12.155-5.285 1.256.7 3.132 1.835 5.23 3.482 2.921 2.293 9.366 7.489 12.451 16.607.755 2.233 1.698 9.929 1.689 14.65z" fill="#64b5f6"/><g fill="#ffb74d"><path d="m8.355 41.6c-3.158 1.583-5.079 4.959-4.117 8.354.913 3.222 3.919 5.423 7.239 5.246l3.145.379-3.111-14.88z"/><path d="m55.604 41.644c2.589.694 3.912 4.351 2.956 8.168-.957 3.816-3.831 6.347-6.42 5.653l-5.197-.254 6.821-16.092z"/><path d="m55.133 39.962s-9.556-22.979-27.418-20.477c-13.091 1.833-19.689 20.245-19.689 20.245 1.822 11.175 5.71 19.018 8.487 23.627 4.835 8.025 8.48 9.837 10.629 10.595 1.065.376 5.085 1.603 9.564 0 2.671-.956 5.71-3.025 9.83-10.17 2.713-4.704 6.47-12.611 8.312-23.822z"/></g><path d="m11.148 42.79c.7-4.124 1.49-8.65 4.442-11.843 2.558-2.766 5.787-3.424 7.315-3.735 4.936-1.005 9.029.711 10.339 1.202 3.874 1.453 4.165 2.73 7.143 3.632 3.753 1.127 7.062.271 9.725-.731 1.517 6.633 2.464 13.522 1.954 20.315 1.514-3.468 2.522-7.155 2.981-10.912.47-3.842.634-7.71-.266-11.506-1.661-7.01-5.945-13.292-12.696-16.24-2.841-1.241-5.961-1.855-9.06-1.816-12.567-1.328-19.37 6.262-19.37 6.262-4.6 3.357-1.671 8.416-1.671 8.416-1.377 1.237-2.832 2.082-3.355 3.957-.556 1.995-.843 4.081-.842 6.151.002 4.342.964 8.763 2.539 12.797.262-2.437.57-4.464.822-5.949z" fill="#424242"/><path d="m20.51 95.035-2.767-1.581-.08-14.156c-1.245.683-2.651 1.563-4.133 2.684l.077 11.415c-2.635 1.347-5.412 2.495-7.036 5.132-1.579 2.565-1.301 5.476-1.301 8.352 0 1.15.925 2.082 2.067 2.082s2.067-.932 2.067-2.082c0-2.022-.4-4.519.769-6.29 1.183-1.792 3.611-2.616 5.455-3.558 1.884 1.076 4.282 2.025 5.137 4.183.664 1.676.313 3.9.313 5.666 0 1.15.925 2.082 2.067 2.082s2.067-.932 2.067-2.082c0-1.441.049-2.889-.005-4.329-.118-3.164-1.974-5.962-4.697-7.518z" fill="#fff"/><path d="m49.01 92.189v-10.368c-.032-.025-.068-.054-.099-.078-1.511-1.186-2.902-2.102-4.034-2.786v13.232c-1.972.835-3.364 2.824-3.364 5.141 0 3.067 2.436 5.562 5.431 5.562s5.431-2.495 5.431-5.562c-.001-2.317-1.393-4.307-3.365-5.141zm-2.067 6.539c-.715 0-1.297-.627-1.297-1.399 0-.771.582-1.399 1.297-1.399s1.297.627 1.297 1.399-.582 1.399-1.297 1.399z" fill="#fff"/></svg>