<svg clip-rule="evenodd" fill-rule="evenodd" stroke-linejoin="round" stroke-miterlimit="2" fill="#ffffff" viewBox="0 0 32 32" xmlns="http://www.w3.org/2000/svg"><path id="path132" d="m16 2c-.552 0-1 .448-1 1v3c0 .552.448 1 1 1s1-.448 1-1v-3c0-.552-.448-1-1-1zm-6.527 1.742c-.162.004-.324.047-.473.133-.478.276-.641.889-.365 1.367l1.5 2.598c.276.478.887.641 1.365.365s.641-.887.365-1.365l-1.5-2.598c-.19-.328-.538-.509-.892-.5zm13.054 0c-.354-.009-.702.172-.892.5l-1.5 2.598c-.276.478-.113 1.089.365 1.365s1.089.113 1.365-.365l1.5-2.598c.276-.478.113-1.091-.365-1.367-.149-.086-.311-.129-.473-.133zm-6.527 5.258c-6.623 0-12 5.377-12 12v3.174c-1.165.412-2 1.521-2 2.826 0 1.656 1.344 3 3 3h22c1.656 0 3-1.344 3-3 0-1.305-.835-2.414-2-2.826v-3.174c0-6.623-5.377-12-12-12zm0 2c5.519 0 10 4.481 10 10v3h-20v-3c0-5.519 4.481-10 10-10zm2.955 2c-.389.018-.748.264-.892.652-.191.518.071 1.094.589 1.286 0 0 2.453.911 3.414 3.419.198.515.775.774 1.291.577.515-.198.774-.775.577-1.291-1.289-3.364-4.586-4.58-4.586-4.58-.13-.048-.263-.069-.393-.063zm-13.955 13h22c.552 0 1 .448 1 1s-.448 1-1 1h-22c-.552 0-1-.448-1-1s.448-1 1-1z"/></svg>