<svg id="Layer_1" enable-background="new 0 0 133 133" height="512" viewBox="0 0 133 133" width="512" xmlns="http://www.w3.org/2000/svg" xmlns:xlink="http://www.w3.org/1999/xlink"><linearGradient id="lg1"><stop offset="0" stop-color="#e8effb"/><stop offset="1" stop-color="#adc1e7"/></linearGradient><linearGradient id="SVGID_1_" gradientUnits="userSpaceOnUse" x1="30.021" x2="53.022" xlink:href="#lg1" y1="41.268" y2="64.518"/><linearGradient id="SVGID_2_" gradientUnits="userSpaceOnUse" x1="59.482" x2="45.232" xlink:href="#lg1" y1="71.163" y2="56.913"/><linearGradient id="lg2"><stop offset="0" stop-color="#f8a695"/><stop offset="1" stop-color="#fa8d77"/></linearGradient><linearGradient id="SVGID_3_" gradientUnits="userSpaceOnUse" x1="79.589" x2="85.439" xlink:href="#lg2" y1="39.364" y2="39.364"/><linearGradient id="SVGID_4_" gradientUnits="userSpaceOnUse" x1="79.589" x2="80.12" xlink:href="#lg2" y1="36.693" y2="36.693"/><linearGradient id="SVGID_5_" gradientUnits="userSpaceOnUse" x1="36.549" x2="42.394" xlink:href="#lg2" y1="39.351" y2="39.351"/><linearGradient id="SVGID_6_" gradientUnits="userSpaceOnUse" x1="60.994" x2="60.994" xlink:href="#lg1" y1="96.92" y2="137.333"/><linearGradient id="lg3"><stop offset="0" stop-color="#ffd46a"/><stop offset="1" stop-color="#f4883b"/></linearGradient><linearGradient id="SVGID_7_" gradientUnits="userSpaceOnUse" x1="61.402" x2="60.62" xlink:href="#lg3" y1="97.857" y2="135.196"/><linearGradient id="SVGID_8_" gradientUnits="userSpaceOnUse" x1="60.99" x2="60.99" xlink:href="#lg3" y1="76.815" y2="83.448"/><linearGradient id="SVGID_9_" gradientUnits="userSpaceOnUse" x1="60.992" x2="60.992" xlink:href="#lg2" y1="64.532" y2="73.359"/><linearGradient id="SVGID_10_" gradientUnits="userSpaceOnUse" x1="69.348" x2="69.348" xlink:href="#lg1" y1="71.126" y2="76.605"/><linearGradient id="SVGID_11_" gradientUnits="userSpaceOnUse" x1="49.257" x2="53.023" xlink:href="#lg1" y1="72.41" y2="76.176"/><linearGradient id="SVGID_12_" gradientUnits="userSpaceOnUse" x1="60.992" x2="60.992" xlink:href="#lg2" y1="32.386" y2="53.464"/><linearGradient id="lg4"><stop offset="0" stop-color="#213661"/><stop offset="1" stop-color="#081e4b"/></linearGradient><linearGradient id="SVGID_13_" gradientUnits="userSpaceOnUse" x1="35.332" x2="87.205" xlink:href="#lg4" y1="21.863" y2="21.863"/><linearGradient id="SVGID_14_" gradientUnits="userSpaceOnUse" x1="50.543" x2="54.504" xlink:href="#lg4" y1="38.65" y2="38.65"/><linearGradient id="SVGID_15_" gradientUnits="userSpaceOnUse" x1="67.48" x2="71.441" xlink:href="#lg4" y1="38.65" y2="38.65"/><linearGradient id="SVGID_16_" gradientUnits="userSpaceOnUse" x1="61.572" x2="60.525" y1="68.087" y2="118.1"><stop offset="0" stop-color="#5aa6f5"/><stop offset="1" stop-color="#428bd3"/></linearGradient><linearGradient id="lg5"><stop offset="0" stop-color="#083f9e"/><stop offset="1" stop-color="#053477"/></linearGradient><linearGradient id="SVGID_17_" gradientUnits="userSpaceOnUse" x1="73.261" x2="72.358" xlink:href="#lg5" y1="88.111" y2="131.239"/><linearGradient id="SVGID_18_" gradientTransform="matrix(-1 0 0 1 -2044.38 0)" gradientUnits="userSpaceOnUse" x1="-2094.459" x2="-2095.363" xlink:href="#lg5" y1="88.104" y2="131.246"/><linearGradient id="SVGID_19_" gradientUnits="userSpaceOnUse" x1="86.527" x2="86.527" xlink:href="#lg5" y1="125.143" y2="114.305"/><linearGradient id="SVGID_20_" gradientUnits="userSpaceOnUse" x1="35.455" x2="35.455" xlink:href="#lg5" y1="125.143" y2="114.305"/><linearGradient id="SVGID_21_" gradientTransform="matrix(.689 -.725 .725 .689 2393.766 -1714.488)" gradientUnits="userSpaceOnUse" x1="-2905.761" x2="-2891.585" xlink:href="#lg4" y1="-382.624" y2="-396.8"/><linearGradient id="SVGID_22_" gradientTransform="matrix(1 -.026 .026 1 300.709 56.676)" gradientUnits="userSpaceOnUse" x1="-227.765" x2="-187.98" xlink:href="#lg3" y1="37.062" y2="37.062"/><linearGradient id="SVGID_23_" gradientTransform="matrix(1 -.026 .026 1 300.709 56.676)" gradientUnits="userSpaceOnUse" x1="-224.605" x2="-191.133" y1="37.064" y2="37.064"><stop offset="0" stop-color="#f8a04a"/><stop offset="1" stop-color="#e44d0b"/></linearGradient><linearGradient id="SVGID_24_" gradientUnits="userSpaceOnUse" x1="93.873" x2="93.873" xlink:href="#lg2" y1="106.775" y2="91.453"/><g><g><path d="m127.5741959 90.2043762c-2.2799072 5.2697754-5.0899658 9.7797852-8.3199463 13.6398926-.5800781.6999512-1.1700439 1.3798828-1.7900391 2.0300293-.0200195.0100098-.0300293.0200195-.0200195.0300293-1.1298828 1.2099609-2.3000488 2.3498535-3.5100098 3.4199219-.3499756.3100586-.6899414.6101074-1.0400391.8999023-.2099609.1801758-.4199219.3500977-.6398926.5200195-.5600586.4602051-1.1199951.8901367-1.6899414 1.3200684-.5200195.3901367-1.0500488.7700195-1.5800781 1.1298828-.9599609.670166-1.9499512 1.3000488-2.9499512 1.9001465-.1800537.1101074-.3601074.2099609-.5400391.3200684-1.0500488.6098633-2.1099854 1.1899414-3.1899414 1.7299805-.0800781.0400391-.1501465.079834-.2301025.1098633-.5499268.2800293-1.1099854.5400391-1.6700439.8000488-1.0998535.5-2.2299805.9799805-3.3598633 1.4199219-.0100098 0-.0200195.0100098-.0300293.0100098-.5600586.2202148-1.1201172.4301758-1.6800537.6201172-.8499756.3100586-1.7099609.6000977-2.5799561.869873-.6600342.2102051-1.3300781.4101563-2 .6000977-1.1700439.3300781-2.3400879.630127-3.5200195.8999023-8.9799805 2.0900879-18.4299316 2.6501465-27.5000038 2.3601074-5.2299805-.1699219-10.5100098-.9101563-15.6400146-2.2800293-2.1400146-.5700684-4.2600098-1.25-6.3399658-2.0500488-.6700439-.25-1.3400879-.5200195-2-.7998047-6.0600586-2.5600586-11.7199707-6.130127-16.6000977-10.8300781-1.869873-1.7800293-3.6198721-3.7299805-5.2399893-5.8500977-10.9599609-14.3500977-14.3898926-35.6599122-8.8598633-53.6499024 1.4699707-4.7800293 3.5499268-9.2800293 6.119873-13.380127.5300293-.8498535 1.0900879-1.6899414 1.6600342-2.5100098h.0100098c.0100098-.0297852.0300293-.0600586.0599365-.0898438.6501465-.9301758 1.3300781-1.8400879 2.0500488-2.7202148 6.8900138-8.6298827 16.1101066-14.869872 26.1199942-17.2998037 10.1300049-2.4599609 20.8499756-1 30.3499794 3.6899405.3701172.1799316.7399902.3701172 1.1000977.5600586 3.0599365 1.5998535 5.9799805 3.5400391 8.7099609 5.7998047 2.0500488 1.6901855 3.9899902 3.5700684 5.7900391 5.6101074 4.5799561 5.2099609 8.3898926 11.4699707 13.5200195 15.8400879.7700195.6699219 1.5799561 1.2900391 2.4299316 1.8598633.5999756.4001465 1.1999512.7700195 1.8300781 1.1201172.1098633.0500488.2199707.1098633.3299561.1799316.7099609.380127 1.4300537.7299805 2.1700439 1.0700684 1.0699463.4899902 2.1599121.9299316 3.2600098 1.3598633.7799072.3000488 1.5499268.6000977 2.329834.9001465 3.9400635 1.5100098 7.8100586 3.1098633 10.960083 6.1398926l.0899658.0900879c7.8600999 7.6398925 8.2199632 22.0300292 3.630005 32.6101073z" fill="url(#SVGID_1_)"/><path d="m123.8549347 57.5007973c-13.75 15.0302773-28 29.5903358-43.9400635 42.2402382-11.0799561 8.7900391-23.0899658 16.6499023-35.8199463 22.8100586-9.1700439-2.4301758-17.8699951-6.8798828-24.9400635-13.6801758 2.8400879-5.3701172 5.7200928-10.7202148 8.6201172-16.0600586 13.4799805-24.7797852 27.5499268-49.2397499 42.1899414-73.3496132.4799805-.800293.9699707-1.6000977 1.4599609-2.4003906 5.7900391 2.8500977 11.1201172 6.8901367 15.6000977 11.9702148 4.5799561 5.2099609 8.3898926 11.4697266 13.5200195 15.8398438.7700195.6699219 1.5799561 1.2900391 2.4299316 1.8598633.5999756.4003906 1.1999512.7700195 1.8300781 1.1201172.1098633.0498047.2199707.1103516.3299561.1801758.7099609.3798828 1.4300537.7299805 2.1700439 1.0698242 5.6799318 2.5703124 11.8999025 3.9301757 16.5499269 8.3999023z" fill="url(#SVGID_2_)"/></g><g><g><g><g><g><path d="m85.4386368 39.3519516c0 3.2162666-2.6220627 5.8488884-5.849144 5.8488884v-5.3181114h.5307693l-.0106201-6.3480416c.0212479-.0108871.0425034-.0108871.0530624 0 1.6241989.1591263 3.0467072.9765396 4.0020599 2.1868515.7961579.986908 1.2738725 2.2609749 1.2738725 3.6304131z" fill="url(#SVGID_3_)"/><g><path d="m80.1202621 39.8827286h-.5307693v-6.3801804c.1804428 0 .3503265.0108871.5201492.0321388z" fill="url(#SVGID_4_)"/><path d="m36.5492706 39.3511124c0 3.214817 2.6155167 5.8446007 5.8446007 5.8446007v-11.6891976c-3.229084 0-5.8446007 2.6155167-5.8446007 5.8445969z" fill="url(#SVGID_5_)"/></g><g><g><path d="m92.8283081 81.113739v29.2859268c0 3.930687-2.867981 7.1171417-6.4058228 7.1171417h-50.857357c-3.5378418 0-6.4058285-3.1864548-6.4058285-7.1171417v-29.2859268c0-6.9368515 5.0640087-12.5634689 11.3183956-12.5634689h41.0320854c6.2543946 0 11.3185273 5.6266174 11.3185273 12.5634689z" fill="url(#SVGID_6_)"/><path d="m65.8933029 117.5128937-3.0062218-36.6391754h-3.7926025l-3.007267 36.6391754z" fill="url(#SVGID_7_)"/><path d="m72.1381226 74.7123566-10.2024803 9.8600845c-.523468.5023422-1.3460999.5023422-1.8695679 0l-10.2238655-9.8600845z" fill="url(#SVGID_8_)"/><path d="m70.6061783 68.5498199-9.6143913 6.3268891-9.6142998-6.3268891 2.8930473-9.3661994h13.4425926z" fill="url(#SVGID_9_)"/><g><path d="m70.6061783 68.5498199h7.0975113l-3.2475662 11.0958481c-.3039322 1.0384216-1.4828339 1.5381241-2.4404221 1.0344315l-11.0239143-5.7986298z" fill="url(#SVGID_10_)"/><path d="m51.3773956 68.5498199h-7.0975075l3.2475624 11.0958481c.3039284 1.0384216 1.4828339 1.5381241 2.4404259 1.0344315l11.0239105-5.7986298z" fill="url(#SVGID_11_)"/></g><path d="m80.1182785 33.9787865v9.4832039c0 10.5491028-8.5623169 19.1262245-19.1264915 19.1262245-10.5640831 0-19.1264-8.5771217-19.1264-19.1262245v-9.4832039c0-10.5491009 8.5623169-19.1262207 19.1264-19.1262207 5.2747307 0 10.0527153 2.1474905 13.530262 5.5963182 1.8703156 1.869957 3.3460007 4.1201859 4.3104095 6.6336765.8328629 2.1474905 1.28582 4.4712038 1.28582 6.896226z" fill="url(#SVGID_12_)"/></g></g><path d="m84.1860123 35.7319069-.0212479-.0103683c-.9553528-1.2103119-2.377861-2.0277252-4.0020599-2.1868515l-.0530624-.0321388v.0321388l.0106201 6.3480415h-2.3354187l-.2865753-7.8662453c-3.6305389-.5307732-3.9383698-9.5539379-3.9383698-9.5539379-1.3260269 4.4553699-15.8282623 6.8265018-24.0207863 7.8188019-3.1517296.3817463-5.4866486 3.1028233-5.4004784 6.2764187l.0588531 2.1675224h-2.3354187v-4.6919632s-.1910706-.1487617-.4883385-.4348831c-2.1337241-1.9961071-12.7396315-15.4572392.4916574-24.7591076 19.1264458-13.4462852 35.0596085 4.5115824 35.0596085 4.5115824 17.6040191-.3538494 7.2610168 22.38099 7.2610168 22.38099z" fill="url(#SVGID_13_)"/></g><g><g><path d="m54.5039482 38.6562805c0 1.5444908-.8842125 2.7936707-1.9805527 2.7936707-1.0846863 0-1.9805527-1.2491798-1.9805527-2.7936707s.8958664-2.8063354 1.9805527-2.8063354c1.0963402 0 1.9805527 1.2618446 1.9805527 2.8063354z" fill="url(#SVGID_14_)"/><path d="m71.4408188 38.6562805c0 1.5444908-.8842087 2.7936707-1.9805527 2.7936707-1.0846786 0-1.9805527-1.2491798-1.9805527-2.7936707s.895874-2.8063354 1.9805527-2.8063354c1.096344 0 1.9805527 1.2618446 1.9805527 2.8063354z" fill="url(#SVGID_15_)"/></g><path d="m54.5696335 49.235939c.4350471 3.1621971 3.1405449 5.6003532 6.4221992 5.6003532 3.2816505 0 5.987278-2.4381561 6.4221992-5.6003532z" fill="#fff"/></g></g><path d="m96.3581009 81.1131058v29.2855148c0 3.9281082-3.1787491 7.1185074-7.1068573 7.1185074h-56.5042877c-3.9402046 0-7.1189556-3.1903992-7.1189556-7.1185074v-29.2855148c0-6.9379272 5.8378639-12.5580215 13.0655575-12.5580215h6.3212051s4.4719353 18.2507019 16.655201 42.1456985c11.7238274-23.8949966 16.038784-42.1456985 16.038784-42.1456985h6.0795364c6.9497223-.0000001 12.5698166 5.6200942 12.5698166 12.5580215z" fill="url(#SVGID_16_)"/><g><path d="m74.9034653 85.5980072 9.4614944 3.161705s-12.03125 17.1316833-22.6949692 21.9405823c11.7216797-23.9000626 16.0347519-42.1500244 16.0347519-42.1500244l6.6602173 6.3239975z" fill="url(#SVGID_17_)"/></g><g><path d="m48.436573 85.5980072-9.4614906 3.161705s12.0311928 17.1316833 22.6949081 21.9405823c-11.7216758-23.9000626-16.6596565-42.1500397-16.6596565-42.1500397l-6.0352516 6.3240128z" fill="url(#SVGID_18_)"/></g></g><g><path d="m85.403 103.658h2.248v13.855h-2.248z" fill="url(#SVGID_19_)"/><path d="m34.331 103.658h2.248v13.855h-2.248z" fill="url(#SVGID_20_)"/></g></g></g><g><g><path d="m111.2333374 110.4560242 13.1954193 12.3602905c1.4735641 1.3990631 1.5337601 3.7211685.1346893 5.1947327-1.3966217 1.470993-3.7211685 1.5338135-5.1947327.1347504l-13.1954269-12.3602905c-1.470993-1.3966217-1.5313721-3.7238007-.1347504-5.1947937.6995392-.7367859 1.6286011-1.1189804 2.5694962-1.1433487s1.8910599.311531 2.6253052 1.0086593z" fill="url(#SVGID_21_)"/><g><g><path d="m93.3491745 79.2243423c-10.9762039.2804413-19.6488876 9.4149323-19.3680878 20.4078445.2847824 10.980278 9.4193497 19.653038 20.3955612 19.3725891 10.9968719-.2853394 19.6650238-9.4323425 19.3763733-20.4081345-.2807083-10.9845656-9.4152832-19.6573256-20.4038467-19.3722991zm.9146576 35.2899781c-8.4977341.215889-15.5674744-6.4964294-15.7833786-15.0033569-.2296906-8.5020828 6.4825211-15.5717087 14.9892044-15.7970276 8.5025635-.2113113 15.5723038 6.5010147 15.7971573 14.9985123.2161407 8.507141-6.4960709 15.5767669-15.0029831 15.8018722z" fill="url(#SVGID_22_)"/></g><path d="m93.425293 82.3810577c-9.2361679.2276993-16.5247116 7.9283447-16.285202 17.1639252.2398224 9.2473984 7.9174042 16.5480881 17.1532669 16.3085709 9.247261-.2398148 16.5591888-7.9292374 16.3078308-17.1763382-.2395096-9.2355805-7.9286347-16.5359726-17.1758957-16.2961579zm.833374 32.1347886c-8.4983368.2091293-15.5604706-6.496254-15.7811508-15.0055466-.231926-8.4977417 6.4844131-15.5717163 14.9938507-15.7923965 8.4979019-.2203827 15.5718689 6.4959564 15.7922592 14.9939957.2206726 8.5093001-6.4959564 15.5720138-15.0049591 15.8039474z" fill="url(#SVGID_23_)"/></g></g><path d="m94.258667 114.5158463c-8.4983368.2091293-15.5604706-6.496254-15.7811508-15.0055466-.231926-8.4977417 6.4844131-15.5717163 14.9938507-15.7923965 8.4979019-.2203827 15.5718689 6.4959564 15.7922592 14.9939957.2206726 8.5093001-6.4959564 15.5720138-15.0049591 15.8039474z" fill="#fff"/></g><path d="m101.539917 96.7232285v4.7820053c0 .5991745-.4882507 1.0761795-1.0763168 1.0761795h-3.1287232v3.1177597c0 .5988998-.4771423 1.0761795-1.0650787 1.0761795h-4.7929764c-.5880661 0-1.0652084-.4772797-1.0652084-1.0761795v-3.1177597h-3.1287231c-.5880661 0-1.0761871-.477005-1.0761871-1.0761795v-4.7820053c0-.5991745.488121-1.0761795 1.0761871-1.0761795h3.1287231v-3.1177597c0-.5991669.4771423-1.0761795 1.0652084-1.0761795h4.7929764c.5879364 0 1.0650787.4770126 1.0650787 1.0761795v3.1177597h3.1287231c.5880662 0 1.0763169.477005 1.0763169 1.0761795z" fill="url(#SVGID_24_)"/></g></svg>