<?xml version="1.0" encoding="iso-8859-1"?>
<!-- Generator: Adobe Illustrator 19.0.0, SVG Export Plug-In . SVG Version: 6.00 Build 0)  -->
<svg version="1.1" id="Capa_1" xmlns="http://www.w3.org/2000/svg" xmlns:xlink="http://www.w3.org/1999/xlink" x="0px" y="0px"
	 viewBox="0 0 512.001 512.001" style="enable-background:new 0 0 512.001 512.001;" xml:space="preserve">
<path style="fill:#F17690;" d="M336.724,17.933c-11.979-10.575-38.119-23.868-80.722,2.507C213.4-5.936,187.258,7.358,175.28,17.933
	c-10.299,9.092-17.476,22.544-20.21,37.879c-2.608,14.632-0.794,29.646,4.979,41.19c26.106,52.213,89.143,90.456,91.814,92.057
	c2.523,1.514,5.758,1.514,8.279,0c2.671-1.602,65.708-39.844,91.814-92.057c5.773-11.544,7.587-26.558,4.979-41.19
	C354.199,40.476,347.023,27.024,336.724,17.933z"/>
<path style="fill:#EE5375;" d="M181.153,89.033c-5.773-11.544-7.587-26.558-4.979-41.19c2.734-15.335,9.911-28.788,20.21-37.879
	c1.64-1.446,3.546-2.944,5.72-4.385c-12.286,1.72-21.147,7.341-26.825,12.353c-10.299,9.092-17.476,22.544-20.21,37.879
	c-2.608,14.632-0.794,29.646,4.979,41.19c26.106,52.213,89.143,90.456,91.814,92.057c2.523,1.514,5.758,1.514,8.279,0
	c0.689-0.413,5.409-3.275,12.471-8.183C266.915,177.41,206.555,139.837,181.153,89.033z"/>
<path style="fill:#FBD2A0;" d="M449.126,254.501c-17.777,0-32.187,14.411-32.187,32.187v-24.141
	c0-17.776-14.411-32.187-32.187-32.187c-17.776,0-32.187,14.411-32.187,32.187v-16.094c0-17.777-14.411-32.187-32.187-32.187
	c-17.776,0-32.187,14.411-32.187,32.187v-128.75c0-17.777-14.411-32.187-32.187-32.187c-17.777,0-32.187,14.411-32.187,32.187
	v274.81l-53.353-82.993c-9.613-14.954-29.528-19.282-44.481-9.669s-19.282,29.527-9.669,44.481l107.787,167.668h39.952h36.578
	h180.686v-88.515v-32.187V286.689C481.313,268.912,466.903,254.501,449.126,254.501z"/>
<g>
	<path style="fill:#F9BB70;" d="M268.072,87.866c-3.729-1.51-7.8-2.349-12.07-2.349c-17.777,0-32.187,14.411-32.187,32.187v305.78
		h24.141v-305.78C247.955,104.198,256.277,92.642,268.072,87.866z"/>
	<path style="fill:#F9BB70;" d="M158.131,299.851c0.439-0.282,0.882-0.549,1.33-0.808c-10.098-5.81-23.005-5.926-33.481,0.808
		c-14.953,9.613-19.282,29.527-9.669,44.481L224.097,512h32.151L148.461,344.332C138.849,329.379,143.178,309.464,158.131,299.851z"
		/>
	<path style="fill:#F9BB70;" d="M332.447,216.615c-3.573-1.446-7.462-2.277-11.538-2.345c-17.994-0.294-32.719,14.855-32.719,32.852
		v59.682c0,2.222,1.801,4.023,4.023,4.023h16.094c2.222,0,4.023-1.801,4.023-4.023v-60.351
		C312.33,232.948,320.652,221.391,332.447,216.615z"/>
	<path style="fill:#F9BB70;" d="M396.822,232.709c-3.573-1.446-7.462-2.277-11.538-2.345c-17.994-0.294-32.72,14.855-32.72,32.852
		v43.589c0,2.222,1.801,4.023,4.023,4.023h16.094c2.222,0,4.023-1.801,4.023-4.023v-44.258
		C376.704,249.041,385.027,237.485,396.822,232.709z"/>
	<path style="fill:#F9BB70;" d="M461.196,256.85c-3.573-1.446-7.46-2.277-11.536-2.345c-17.995-0.296-32.722,14.854-32.722,32.851
		v19.448c0,2.222,1.801,4.023,4.023,4.023h16.094c2.222,0,4.023-1.801,4.023-4.023v-20.117
		C441.079,273.182,449.402,261.625,461.196,256.85z"/>
</g>
<g>
	<path style="fill:#80CD4A;" d="M451.65,198.173c-7.037,0-10.644-8.783-5.69-13.737c47.062-47.062,47.062-123.637,0-170.699
		c-3.143-3.143-3.143-8.237,0-11.38c3.142-3.141,8.237-3.141,11.379,0c53.337,53.337,53.337,140.124,0,193.46
		C455.769,197.388,453.71,198.173,451.65,198.173z"/>
	<path style="fill:#80CD4A;" d="M383.37,129.894c-7.037,0-10.644-8.783-5.69-13.737c4.56-4.559,7.07-10.622,7.07-17.07
		c0-6.448-2.512-12.511-7.07-17.069c-3.142-3.142-3.143-8.237,0-11.38c3.142-3.141,8.237-3.141,11.379,0
		c7.599,7.599,11.785,17.703,11.785,28.45s-4.185,20.85-11.785,28.451C387.489,129.108,385.429,129.894,383.37,129.894z"/>
	<path style="fill:#80CD4A;" d="M417.51,164.033c-7.036,0-10.645-8.783-5.69-13.737c13.679-13.679,21.212-31.865,21.212-51.209
		c0-19.344-7.533-37.532-21.212-51.209c-3.143-3.143-3.143-8.237,0-11.38c3.142-3.141,8.237-3.141,11.379,0
		c16.718,16.718,25.926,38.948,25.926,62.59c0,23.644-9.208,45.871-25.926,62.59C421.629,163.247,419.569,164.033,417.51,164.033z"
		/>
	<path style="fill:#80CD4A;" d="M60.353,198.173c-2.059,0-4.119-0.786-5.69-2.357c-53.337-53.337-53.337-140.123,0-193.46
		c3.142-3.141,8.237-3.141,11.379,0c3.143,3.143,3.143,8.237,0,11.38c-47.062,47.062-47.062,123.637,0,170.699
		C70.995,189.391,67.389,198.173,60.353,198.173z"/>
	<path style="fill:#80CD4A;" d="M128.632,129.894c-2.06,0-4.119-0.786-5.69-2.357c-7.599-7.6-11.785-17.704-11.785-28.451
		s4.185-20.85,11.785-28.45c3.143-3.141,8.238-3.14,11.379,0c3.143,3.143,3.142,8.238,0,11.38c-4.56,4.559-7.07,10.622-7.07,17.069
		c0,6.449,2.512,12.511,7.07,17.07C139.276,121.111,135.669,129.894,128.632,129.894z"/>
	<path style="fill:#80CD4A;" d="M94.492,164.033c-2.059,0-4.119-0.786-5.69-2.357c-16.718-16.718-25.926-38.947-25.926-62.59
		c0-23.643,9.208-45.871,25.926-62.59c3.142-3.141,8.237-3.141,11.379,0c3.143,3.143,3.143,8.237,0,11.38
		c-13.678,13.68-21.21,31.867-21.21,51.21c0,19.345,7.533,37.532,21.212,51.209C105.137,155.25,101.528,164.033,94.492,164.033z"/>
</g>
<g>
</g>
<g>
</g>
<g>
</g>
<g>
</g>
<g>
</g>
<g>
</g>
<g>
</g>
<g>
</g>
<g>
</g>
<g>
</g>
<g>
</g>
<g>
</g>
<g>
</g>
<g>
</g>
<g>
</g>
</svg>
