<svg height="300" viewBox="0 0 512 512" width="300" xmlns="http://www.w3.org/2000/svg" version="1.1" xmlns:xlink="http://www.w3.org/1999/xlink" xmlns:svgjs="http://svgjs.dev/svgjs"><g width="100%" height="100%" transform="matrix(1,0,0,1,0,0)"><g id="Layer_1" data-name="Layer 1"><path d="m172.316 122.081c-1.33-14.176 4.1-27.147 16.61-39.654a43.832 43.832 0 0 1 61.986 0 6 6 0 0 0 8.486 0 43.834 43.834 0 0 1 61.987 0c12.511 12.512 17.944 25.489 16.608 39.672-2.656 28.189-31.972 54.97-54.354 71.526v-33.787c0-19-14.349-28.941-28.522-28.941a28.619 28.619 0 0 0 -19.527 7.409c-4.085 3.77-8.955 10.646-8.955 21.97l-.124 33.229c-22.318-16.533-51.554-43.282-54.195-71.424zm219.57 138.67a16.868 16.868 0 0 0 -16.85 16.849v51.548a6 6 0 0 1 -12 0v-63.973c0-12.423-8.7-16.85-16.849-16.85a16.868 16.868 0 0 0 -16.849 16.85v49.9a6 6 0 0 1 -12 0v-58.184a16.85 16.85 0 0 0 -33.7 0v42.752a6 6 0 0 1 -12 0v-139.8c0-11.7-8.3-16.941-16.522-16.941a16.664 16.664 0 0 0 -11.388 4.228c-3.333 3.074-5.094 7.63-5.094 13.174l-.45 182.145a6 6 0 0 1 -11.6 2.161c-23.03-59.656-31.766-66.088-47.589-67.317a14.894 14.894 0 0 0 -13.435 6.252 15.529 15.529 0 0 0 -1.834 15.145c3.748 9.1 5.22 18.559 7.258 31.648 1.565 10.049 3.512 22.554 7.127 39.094 9.624 44.03 30.934 69.614 36.9 76.095h180.873c.368 0 .727.035 1.091.055l10.214-35.7a42.216 42.216 0 0 0 1.63-11.673l-.085-120.595a16.868 16.868 0 0 0 -16.848-16.863zm4 196.771h-184.507a7.829 7.829 0 0 0 -7.821 7.821v29.526a7.83 7.83 0 0 0 7.821 7.822h184.505a7.831 7.831 0 0 0 7.821-7.822v-29.526a7.83 7.83 0 0 0 -7.821-7.821zm-242.554-392.543a6 6 0 0 0 -8.437.9 87.654 87.654 0 0 0 0 110.065 6 6 0 1 0 9.339-7.535 75.655 75.655 0 0 1 0-94.995 6 6 0 0 0 -.902-8.435zm281.2-53.438a6 6 0 1 0 -9.336 7.538 162.018 162.018 0 0 1 0 203.668 6 6 0 1 0 9.336 7.539 174.016 174.016 0 0 0 0-218.745zm-75.864 165.307a6 6 0 0 0 8.437-.9 87.654 87.654 0 0 0 0-110.065 6 6 0 1 0 -9.339 7.535 75.655 75.655 0 0 1 0 95 6 6 0 0 0 .902 8.43zm33.7 27.16a6 6 0 0 0 8.438-.9 130.777 130.777 0 0 0 0-164.391 6 6 0 1 0 -9.336 7.539 118.779 118.779 0 0 1 0 149.314 6 6 0 0 0 .902 8.438zm-341.568-83.095a162.642 162.642 0 0 1 36-101.834 6 6 0 1 0 -9.336-7.538 174.016 174.016 0 0 0 0 218.745 6 6 0 1 0 9.336-7.539 162.629 162.629 0 0 1 -36-101.834zm70.831-83.094a6 6 0 0 0 -8.438.9 130.777 130.777 0 0 0 0 164.391 6 6 0 1 0 9.336-7.538 118.779 118.779 0 0 1 0-149.314 6 6 0 0 0 -.901-8.439z" fill="#f58220" fill-opacity="1" data-original-color="#000000ff" stroke="none" stroke-opacity="1"/></g></g></svg>