<svg version="1.1" id="Layer_1" xmlns="http://www.w3.org/2000/svg" xmlns:xlink="http://www.w3.org/1999/xlink" x="0px" y="0px" viewBox="0 0 512 512" style="enable-background:new 0 0 512 512;" xml:space="preserve">
<g>
	<g>
		<g>
			<line style="fill:none;stroke:#FFCB05;stroke-width:15;stroke-miterlimit:10;" x1="78" y1="129.574" x2="93" y2="129.574"/>
			<line style="fill:none;stroke:#FFCB05;stroke-width:15;stroke-miterlimit:10;" x1="108" y1="129.574" x2="123" y2="129.574"/>
		</g>
		<g>
			<line style="fill:none;stroke:#FFCB05;stroke-width:15;stroke-miterlimit:10;" x1="389" y1="129.574" x2="404" y2="129.574"/>
			<line style="fill:none;stroke:#FFCB05;stroke-width:15;stroke-miterlimit:10;" x1="419" y1="129.574" x2="434" y2="129.574"/>
		</g>
	</g>
	<g>
		<line style="fill:none;stroke:#FFCB05;stroke-width:15;stroke-miterlimit:10;" x1="512" y1="504" x2="428.5" y2="504"/>
		<line style="fill:none;stroke:#FFCB05;stroke-width:15;stroke-miterlimit:10;" x1="413.5" y1="504" x2="0" y2="504"/>
		<polyline style="fill:none;stroke:#FFCB05;stroke-width:15;stroke-miterlimit:10;" points="36,504 36,464 476,464 476,504 &#9;&#9;"/>
		<rect x="61" y="224" style="fill:none;stroke:#FFCB05;stroke-width:15;stroke-miterlimit:10;" width="390" height="240"/>
		<polyline style="fill:none;stroke:#FFCB05;stroke-width:15;stroke-miterlimit:10;" points="465.353,192.147 465.353,224 &#10;&#9;&#9;&#9;46.647,224 46.647,192.147 &#9;&#9;"/>
		<line style="fill:none;stroke:#FFCB05;stroke-width:15;stroke-miterlimit:10;" x1="215.52" y1="67" x2="98.5" y2="67"/>
		<polyline style="fill:none;stroke:#FFCB05;stroke-width:15;stroke-miterlimit:10;" points="83.5,67 31.82,67 31.82,192.15 &#10;&#9;&#9;&#9;156.34,192.15 &#9;&#9;"/>
		<polyline style="fill:none;stroke:#FFCB05;stroke-width:15;stroke-miterlimit:10;" points="363.86,67 480.18,67 480.18,192.15 &#10;&#9;&#9;&#9;269.32,192.15 &#9;&#9;"/>
		<rect x="91" y="258" style="fill:none;stroke:#FFCB05;stroke-width:15;stroke-miterlimit:10;" width="190" height="171"/>
		<rect x="311" y="258" style="fill:none;stroke:#FFCB05;stroke-width:15;stroke-miterlimit:10;" width="110" height="171"/>
		<polygon style="fill:none;stroke:#FFCB05;stroke-width:15;stroke-miterlimit:10;" points="236.824,324 206,324 206,293.176 &#10;&#9;&#9;&#9;166,293.176 166,324 135.176,324 135.176,364 166,364 166,394.824 206,394.824 206,364 236.824,364 &#9;&#9;"/>
		<path style="fill:none;stroke:#FFCB05;stroke-width:15;stroke-miterlimit:10;" d="M345.47,116&#10;&#9;&#9;&#9;c24.706-24.706,24.706-64.764,0-89.47l0,0c-24.706-24.706-64.764-24.706-89.47,0l-44.735,44.735l89.47,89.47L345.47,116z"/>
		<path style="fill:none;stroke:#FFCB05;stroke-width:15;stroke-miterlimit:10;" d="M211.265,71.265L166.53,116&#10;&#9;&#9;&#9;c-24.706,24.706-24.706,64.764,0,89.47l0,0c24.706,24.706,64.764,24.706,89.47,0l44.735-44.735"/>
	</g>
</g>
<g>
</g>
<g>
</g>
<g>
</g>
<g>
</g>
<g>
</g>
<g>
</g>
<g>
</g>
<g>
</g>
<g>
</g>
<g>
</g>
<g>
</g>
<g>
</g>
<g>
</g>
<g>
</g>
<g>
</g>
</svg>