<svg clip-rule="evenodd" fill-rule="evenodd" stroke-linejoin="round" stroke-miterlimit="2" viewBox="0 0 32 32" xmlns="http://www.w3.org/2000/svg"><g transform="translate(-288 -96)"><g transform="matrix(1.289 0 0 1.289 -91.466 -36.067)"><path d="m317.549 124.451-6.209-6.208c-.303-.303-.794-.303-1.097 0s-.303.794 0 1.097l6.208 6.209c.303.303.795.303 1.098 0s.303-.795 0-1.098z" fill="#ee243a"/></g><g transform="matrix(.913 0 0 .913 25.304 8.609)"><path d="m302.5 97.905c-6.952 0-12.595 5.643-12.595 12.595s5.643 12.595 12.595 12.595 12.595-5.643 12.595-12.595-5.643-12.595-12.595-12.595zm0 2.19c5.743 0 10.405 4.662 10.405 10.405s-4.662 10.405-10.405 10.405-10.405-4.662-10.405-10.405 4.662-10.405 10.405-10.405z" fill="#2b2d42"/></g></g></svg>