<svg id="Layer_1" viewBox="0 0 64 64" xmlns="http://www.w3.org/2000/svg" data-name="Layer 1" fill="#FFCB05"><path d="m37.689 30.088h-4.453v-4.453c0-.552-.448-1-1-1h-3.917c-.552 0-1 .448-1 1v4.453h-4.453c-.552 0-1 .448-1 1v3.917c0 .552.448 1 1 1h4.453v4.453c0 .552.448 1 1 1h3.917c.552 0 1-.448 1-1v-4.453h4.453c.552 0 1-.448 1-1v-3.917c0-.552-.448-1-1-1zm-1 3.917h-4.453c-.552 0-1 .448-1 1v4.453h-1.917v-4.453c0-.552-.448-1-1-1h-4.453v-1.917h4.453c.552 0 1-.448 1-1v-4.453h1.917v4.453c0 .552.448 1 1 1h4.453z"/><path d="m37.623 3.036h-14.691c-4.691 0-8.507 3.816-8.507 8.508v4.095h-3.706c-2.835 0-5.142 2.307-5.142 5.142v24.532c0 2.835 2.307 5.142 5.142 5.142h2.542v2.106c0 1.842 1.503 3.34 3.351 3.34h23.017c1.74 3.02 4.995 5.063 8.725 5.063 5.553 0 10.07-4.518 10.07-10.07 0-3.012-1.336-5.712-3.438-7.559v-22.555c0-2.835-2.307-5.142-5.143-5.142h-3.711v-4.095c0-4.691-3.816-8.508-8.507-8.508zm-21.198 8.508c0-3.588 2.919-6.508 6.507-6.508h14.691c3.588 0 6.507 2.919 6.507 6.508v4.095h-27.706v-4.095zm.187 42.358c-.745 0-1.351-.601-1.351-1.34v-2.106h23.044c-.006.147-.022.291-.022.439 0 1.047.161 2.057.459 3.007zm39.812-3.007c0 4.45-3.62 8.07-8.07 8.07s-8.07-3.62-8.07-8.07 3.62-8.07 8.07-8.07 8.07 3.62 8.07 8.07zm-3.438-30.114v21.181c-1.388-.723-2.961-1.138-4.632-1.138-4.71 0-8.664 3.255-9.759 7.631h-27.876c-1.732 0-3.142-1.41-3.142-3.142v-24.532c0-1.732 1.41-3.142 3.142-3.142h4.696s.006.002.01.002h29.706s.006-.002.01-.002h4.702c1.733 0 3.143 1.41 3.143 3.142z"/><path d="m53.014 48.379h-2.834l-.876-2.695c-.134-.412-.518-.691-.951-.691s-.817.279-.951.691l-.875 2.695h-2.834c-.433 0-.817.279-.951.691s.013.863.363 1.118l2.293 1.666-.876 2.695c-.134.412.013.863.363 1.118.175.127.382.191.588.191s.413-.063.588-.191l2.292-1.666 2.293 1.666c.351.255.825.255 1.176 0s.497-.706.363-1.118l-.876-2.695 2.293-1.666c.351-.255.497-.706.363-1.118s-.518-.691-.951-.691zm-3.469 2.284c-.351.255-.497.706-.363 1.118l.149.459-.391-.284c-.175-.127-.382-.191-.588-.191s-.413.063-.588.191l-.391.284.149-.459c.134-.412-.013-.863-.363-1.118l-.391-.284h.483c.433 0 .817-.279.951-.691l.149-.459.149.459c.134.412.518.691.951.691h.483l-.391.284z"/></svg>