<svg id="Layer_1" enable-background="new 0 0 512 512" viewBox="0 0 512 512" xmlns="http://www.w3.org/2000/svg" width="300" height="300" version="1.1" xmlns:xlink="http://www.w3.org/1999/xlink" xmlns:svgjs="http://svgjs.dev/svgjs"><g width="100%" height="100%" transform="matrix(1,0,0,1,0,0)"><g clip-rule="evenodd" fill-rule="evenodd"><path d="m212.63 58.18c-2.48 2.12-6.21 1.83-8.33-.65s-1.83-6.21.65-8.33c27.3-23.38 61.56-34.41 95.42-33.09 28.82 1.13 57.34 11.2 81.05 30.21l-1.49-16.53c-.28-3.25 2.12-6.11 5.37-6.39s6.11 2.12 6.39 5.37l2.83 31.46c.28 3.25-2.12 6.11-5.37 6.39l-31.46 2.83c-3.25.28-6.11-2.12-6.39-5.37s2.12-6.11 5.37-6.39l17.96-1.62c-21.82-17.73-48.15-27.11-74.73-28.15-30.96-1.22-62.29 8.87-87.27 30.26zm-38.69 58.73c-.96 3.12-4.26 4.87-7.38 3.91s-4.87-4.26-3.91-7.38c5.57-18.03 14.72-34.6 27-48.93 2.12-2.48 5.85-2.77 8.33-.65s2.77 5.85.65 8.33c-11.19 13.05-19.62 28.3-24.69 44.72zm-1.7 69.06c.8 3.17-1.11 6.39-4.28 7.2-3.17.8-6.39-1.11-7.2-4.28-2.26-8.82-3.63-17.88-4.12-27.02-.49-9.12-.08-18.27 1.22-27.3.46-3.23 3.46-5.48 6.69-5.02s5.48 3.46 5.02 6.69c-1.2 8.3-1.57 16.69-1.13 25.03.45 8.27 1.72 16.55 3.8 24.7zm33.12 58.04c2.31 2.31 2.31 6.07 0 8.38s-6.07 2.31-8.38 0c-12.36-12.36-22.25-26.9-29.19-42.95-1.29-2.99.09-6.46 3.08-7.75s6.46.09 7.75 3.08c6.35 14.66 15.45 27.94 26.74 39.24zm192.03-164c-1.92-2.63-1.34-6.32 1.3-8.24 2.63-1.92 6.32-1.34 8.24 1.3 9.74 13.37 16.94 28.24 21.37 44.17.87 3.14-.98 6.4-4.12 7.27s-6.4-.98-7.27-4.12c-4.03-14.48-10.67-28.24-19.52-40.38zm23.31 59.87c-.37-3.25 1.96-6.18 5.21-6.55s6.18 1.96 6.55 5.21c.89 7.72 1.13 15.54.71 23.34-.42 7.77-1.48 15.52-3.2 23.16-.71 3.18-3.88 5.18-7.06 4.47s-5.18-3.88-4.47-7.06c1.57-6.97 2.55-14.05 2.93-21.17.37-7.11.15-14.27-.67-21.4zm-8.12 61.51c1.2-3.03 4.63-4.51 7.66-3.31s4.51 4.63 3.31 7.66c-5.63 14.16-13.46 27.11-23.37 38.69-2.12 2.48-5.85 2.77-8.33.65s-2.77-5.85-.65-8.33c8.97-10.48 16.28-22.54 21.38-35.36zm-35.4 49.36c2.48-2.12 6.21-1.83 8.33.65s1.83 6.21-.65 8.33c-24.36 20.86-54.26 31.89-84.47 33.08-30.41 1.2-61.14-7.58-86.89-26.33-2.63-1.92-3.21-5.61-1.3-8.24 1.92-2.63 5.61-3.21 8.24-1.3 23.53 17.14 51.65 25.16 79.48 24.06 27.64-1.08 54.97-11.17 77.26-30.25z" fill="#ffcb05" fill-opacity="1" data-original-color="#b4c2cdff" stroke="none" stroke-opacity="1"/><path d="m261.64 75.08h66.54v46.11h46.11v66.54h-46.11v46.12h-66.54v-46.12h-46.11v-66.54h46.11z" fill="#b7202e" fill-opacity="1" data-original-color="#fa4959ff" stroke="none" stroke-opacity="1"/><path d="m358.66 325.05-115.76 70.99 26.52 43.25 115.76-70.99c11.9-7.29 15.66-22.99 8.36-34.89-7.29-11.89-22.99-15.65-34.88-8.36z" fill="#e19d7a" fill-opacity="1" data-original-color="#e19d7aff" stroke="none" stroke-opacity="1"/><path d="m257.25 419.45 12.17 19.85 115.76-70.99c11.3-6.93 15.26-21.43 9.38-33.06z" fill="#d0a787" fill-opacity="1" data-original-color="#d0a787ff" stroke="none" stroke-opacity="1"/><path d="m404.11 346.83-117.6 67.9 25.37 43.94 117.6-67.9c12.08-6.98 16.26-22.57 9.29-34.65-6.99-12.09-22.58-16.26-34.66-9.29z" fill="#e19d7a" fill-opacity="1" data-original-color="#e19d7aff" stroke="none" stroke-opacity="1"/><path d="m303.84 444.74 8.04 13.93 117.6-67.9c10.59-6.12 15.11-18.86 11.36-30.05z" fill="#d0a787" fill-opacity="1" data-original-color="#d0a787ff" stroke="none" stroke-opacity="1"/><path d="m340.05 413.71c7.41-13.55 5.92-31.77-11.58-41.88l-101.4-58.54c-9.98-5.76-20.62-7.16-31.75-4.18l-98.55 26.41.15 59.33 29.8 52.46 42.5-11.39c11.13-2.98 21.58-2.31 31.17 2.01l87.38 39.34c11.24 5.06 23.48 5.85 36.53 2.35l140.44-37.63c19.35-5.18 31.71-22.35 27.48-38.15s-23.53-24.48-42.87-19.3z" fill="#f0caaf" fill-opacity="1" data-original-color="#f0caafff" stroke="none" stroke-opacity="1"/><path d="m31.46 317.66 40.17-10.77c8.96-2.4 18.26 2.97 20.67 11.93l38.9 145.18c2.4 8.96-2.97 18.26-11.93 20.67l-40.17 10.76c-8.97 2.4-18.26-2.97-20.67-11.93l-38.9-145.16c-2.4-8.97 2.96-18.27 11.93-20.68z" fill="#b7202e" fill-opacity="1" data-original-color="#e0eef0ff" stroke="none" stroke-opacity="1"/><path d="m239.22 378.14c-2.82-1.64-3.79-5.25-2.15-8.08 1.64-2.82 5.25-3.79 8.08-2.15l75.08 43.35c7.24 4.01 14.08 4.4 19.83 2.46-7.29 10.04-15.8 10.84-25.52 7.89-25.15-13.68-50.45-29.11-75.32-43.47z" fill="#d0a787" fill-opacity="1" data-original-color="#d0a787ff" stroke="none" stroke-opacity="1"/></g></g></svg>