<svg clip-rule="evenodd" fill="#ffffff" fill-rule="evenodd" height="1.707in" image-rendering="optimizeQuality" shape-rendering="geometricPrecision" text-rendering="geometricPrecision" viewBox="0 0 1.70666 1.70666" width="1.707in" xmlns="http://www.w3.org/2000/svg">
                  <g id="Layer_x0020_1">
                    <g id="_394061784">
                      <g>
                        <g>
                          <g>
                            <g>
                              <path id="_394063944" d="m1.60395 1.60877h-1.50124c-.0110394 0-.02-.00897244-.02-.02v-1.14009c0-.0110394.00896063-.02.02-.02h1.50124c.0110394 0 .02.00896063.02.02v1.14007c0 .0110433-.00895276.0200157-.02.0200157zm-1.48124-.0400157h1.46124v-1.10007h-1.46124z"></path>
                            </g>
                            <g>
                              <path id="_394064520" d="m1.46471 1.60877h-1.22276c-.0110394 0-.02-.00897244-.02-.02v-1.00084c0-.0110394.00896063-.02.02-.02h1.22276c.0110394 0 .02.00896063.02.02v1.00084c.00001575.0110276-.00895276.02-.02.02zm-1.20276-.0400157h1.18276v-.960827h-1.18276z"></path>
                            </g>
                            <g>
                              <path id="_394064424" d="m1.46471 1.48474h-1.22276c-.0110394 0-.02-.0089685-.02-.0199961v-.121831c0-.0110394.00896063-.02.02-.02l1.22276-.00000394c.0110394 0 .02.00897244.02.02v.121827c.00001575.0110276-.00895276.0200039-.02.0200039zm-1.20276-.0400118h1.18276v-.0818307h-1.18276z"></path>
                            </g>
                            <g>
                              <path id="_394064400" d="m.853331 1.60877c-.0110394 0-.02-.00897244-.02-.02v-1.00084c0-.0110394.00896063-.02.02-.02.0110394 0 .0199961.00896063.0199961.02v1.00084c0 .0110276-.00894094.02-.0199961.02z"></path>
                            </g>
                            <g>
                              <path id="_394063848" d="m.547646 1.01915c-.0980118 0-.177744-.0797441-.177744-.17776 0-.0980118.0797362-.17774.177744-.17774.0980039 0 .17774.0797362.17774.17774 0 .0980079-.0797283.17776-.17774.17776zm0-.315508c-.0759567 0-.137744.0617874-.137744.137744 0 .0759567.0617874.137744.137744.137744.0759528 0 .13774-.0617874.13774-.137744 0-.0759567-.0617874-.137744-.13774-.137744z"></path>
                            </g>
                            <g>
                              <path id="_394064448" d="m1.15902 1.01915c-.0980118 0-.177756-.0797441-.177756-.17776 0-.0980118.0797441-.17774.177756-.17774.0980118 0 .17776.0797362.17776.17774 0 .0980079-.0797638.17776-.17776.17776zm0-.315508c-.0759528 0-.13774.0617874-.13774.137744 0 .0759567.0617874.137744.13774.137744.0759567 0 .137744-.0617874.137744-.137744 0-.0759567-.0617992-.137744-.137744-.137744z"></path>
                            </g>
                            <g>
                              <g>
                                <path id="_394063248" d="m.763528 1.26985h-.10387c-.0110394 0-.02-.00897244-.02-.02v-.157665c0-.0110394.00896063-.02.02-.02h.10387c.0110394 0 .02.00897244.02.02v.157665c0 .0110394-.00894488.02-.02.02zm-.0838701-.0400157h.0638701v-.11765h-.0638701z"></path>
                              </g>
                              <g>
                                <path id="_394063104" d="m1.04702 1.26985h-.10387c-.0110394 0-.02-.00897244-.02-.02v-.157665c0-.0110394.0089685-.02.02-.02h.10387c.0110394 0 .0199961.00897244.0199961.02v.157665c.00001181.0110394-.00895669.02-.0199961.02zm-.0838622-.0400157h.0638622v-.11765h-.0638622z"></path>
                              </g>
                            </g>
                            <g>
                              <g>
                                <path id="_394063704" d="m1.09967.896984c-.00511024 0-.0102323-.00195669-.0141496-.0058622-.00782283-.00782283-.00782283-.0204882 0-.0282913l.0949252-.0949291c.00782283-.0078189.0204882-.0078189.0282953 0 .0078189.00780709.0078189.0204724 0 .0282795l-.0949291.0949409c-.00388976.00390551-.00902756.0058622-.0141417.0058622z"></path>
                              </g>
                              <g>
                                <path id="_394063536" d="m1.16472.920748c-.00511417 0-.0102362-.00195669-.0141535-.0058622-.00780315-.00782283-.0078189-.0204882 0-.0282953l.0536535-.0536496c.00782283-.00782283.0204882-.00782283.0282913 0 .00780709.00780315.00782283.0204724 0 .0282756l-.0536496.0536693c-.00390551.00391339-.00902756.0058622-.0141417.0058622z"></path>
                              </g>
                            </g>
                            <g>
                              <g>
                                <path id="_394063488" d="m.488287.896984c-.00512205 0-.0102362-.00195669-.0141378-.0058622-.0078189-.00782283-.0078189-.0204882 0-.0282913l.0949252-.0949291c.00782283-.0078189.0204724-.0078189.0282795 0 .00782283.00780709.00782283.0204724 0 .0282795l-.0949252.0949409c-.00390551.00390551-.00901969.0058622-.0141417.0058622z"></path>
                              </g>
                              <g>
                                <path id="_394063224" d="m.553339.920748c-.00512205 0-.0102362-.00195669-.0141339-.0058622-.00782283-.00782283-.00782283-.0204882 0-.0282953l.0536496-.0536496c.00780709-.00782283.0204724-.00782283.0282795 0 .0078189.00780315.0078189.0204724 0 .0282756l-.0536535.0536693c-.00388976.00391339-.00901575.0058622-.0141417.0058622z"></path>
                              </g>
                            </g>
                            <g>
                              <g>
                                <path id="_394063560" d="m.241949 1.42383h-.139244c-.0110394 0-.02-.00897244-.02-.02 0-.0110315.00896063-.02.02-.02h.139244c.0110394 0 .02.0089685.02.02 0 .0110276-.00894488.02-.02.02z"></path>
                              </g>
                              <g>
                                <path id="_394062624" d="m1.60397 1.42383h-.139244c-.0110394 0-.02-.00897244-.02-.02 0-.0110315.00897244-.02.02-.02h.139244c.0110394 0 .02.0089685.02.02 0 .0110276-.00896063.02-.02.02z"></path>
                              </g>
                            </g>
                            <g>
                              <g>
                                <path id="_394062504" d="m.241949.747118h-.139244c-.0110394 0-.02-.00896063-.02-.02 0-.0110394.00896063-.02.02-.02h.139244c.0110394 0 .02.00896063.02.02 0 .0110394-.00894488.02-.02.02z"></path>
                              </g>
                              <g>
                                <path id="_394062936" d="m1.60397.747118h-.139244c-.0110394 0-.02-.00896063-.02-.02 0-.0110394.00897244-.02.02-.02h.139244c.0110394 0 .02.00896063.02.02 0 .0110394-.00896063.02-.02.02z"></path>
                              </g>
                            </g>
                          </g>
                          <g>
                            <path id="_394063008" d="m1.20424.468681h-.701783c-.0110354 0-.0199961-.00896063-.0199961-.02v-.330791c0-.0110394.00896063-.02.0199961-.02h.701783c.0110394 0 .02.00896063.02.02v.33078c0 .0110512-.00896063.0200118-.02.0200118zm-.681799-.04h.661783v-.290795h-.661783z"></path>
                          </g>
                          <g>
                            <g>
                              <path id="_394062984" d="m.888205.381988h-.0205551c-.0381496 0-.0691811-.0310354-.0691811-.0691772v-.0590276c0-.0381496.0310315-.0691929.0691811-.0691929h.0205551c.0110394 0 .02.00896063.02.0199961 0 .0110394-.00897244.02-.02.02h-.0205551c-.0160984 0-.0291811.0130984-.0291811.0291969v.0590276c0 .0160984.0130827.0291969.0291811.0291969l.0205551-.00000787c.0110394 0 .02.00896063.02.02 0 .0110394-.00896063.0199882-.02.0199882z"></path>
                            </g>
                            <g>
                              <g>
                                <g>
                                  <path id="_394063032" d="m.646839.381988c-.0110394 0-.02-.00896063-.02-.02v-.157402c0-.0110354.00896063-.0199961.02-.0199961.0110394 0 .02.00896063.02.0199961v.157398c0 .0110433-.00896063.0200039-.02.0200039z"></path>
                                </g>
                                <g>
                                  <path id="_394062384" d="m.707638.224587h-.121606c-.0110394 0-.02-.00896063-.02-.02 0-.0110354.00896063-.0199961.02-.0199961h.121606c.0110394 0 .02.00896063.02.0199961 0 .0110394-.00895276.02-.02.02z"></path>
                                </g>
                                <g>
                                  <path id="_394061664" d="m.707638.381988h-.121606c-.0110394 0-.02-.00896063-.02-.02 0-.0110354.00896063-.0199961.02-.0199961h.121606c.0110394 0 .02.00896063.02.0199961 0 .0110394-.00895276.02-.02.02z"></path>
                                </g>
                              </g>
                              <g>
                                <path id="_394061616" d="m1.05495.381626c-.0227756 0-.0439724-.0091811-.0597047-.0258622-.0118622-.0125669-.0259803-.0353307-.0259803-.0724843v-.0787087c0-.0110354.0089685-.0199961.0199961-.0199961.0110315 0 .02.00896063.02.0199961v.0787087c0 .0403031.0229449.0583425.0456811.0583425.022748 0 .0456929-.0180394.0456929-.0583425v-.0787087c0-.0110354.0089685-.0199961.02-.0199961.0110276 0 .0199961.00896063.0199961.0199961v.0787087c.00002362.0645709-.0430984.0983465-.0856811.0983465z"></path>
                              </g>
                            </g>
                          </g>
                          <g>
                            <path id="_394062024" d="m1.37519.468681h-.170965c-.0110394 0-.02-.00896063-.02-.02v-.165398c0-.0110394.00897244-.02.02-.02h.0534685c.0611614 0 .0852205.057122.101118.0949252l.0348031.0827087c.00261024.00617717.00194094.013248-.00177953.0188189-.00368504.00558268-.00993701.00894488-.0166457.00894488zm-.150949-.04h.120839l-.023122-.0549449c-.0196693-.0467205-.0350118-.0704528-.0642598-.0704528h-.0334567v.125398zm-.721799.04h-.170965c-.00669291 0-.0129606-.0033622-.0166654-.00894488-.00370472-.00558661-.0043622-.0126535-.00176378-.0188189l.0348031-.0827087c.0158976-.0378031.0399409-.0949252.101118-.0949252h.0534724c.0110394 0 .02.00896063.02.02v.165398c0 .0110394-.00894488.02-.02.02zm-.140839-.04h.120858v-.125398h-.0334764c-.0292638 0-.0445945.0237205-.0642598.0704528l-.023122.0549449z"></path>
                          </g>
                        </g>
                        <g>
                          <path id="_394061808" d="m1.68663 1.60877h-1.66661c-.0110394 0-.0199961-.00897244-.0199961-.02 0-.0110276.00895669-.02.0199961-.02h1.66661c.0110394 0 .02.00897244.02.02 0 .0110276-.00896063.02-.02.02z"></path>
                        </g>
                      </g>
                    </g>
                  </g>
                </svg>