<svg id="Layer_1" enable-background="new 0 0 48 48" fill="#ffffff" viewBox="0 0 48 48" xmlns="http://www.w3.org/2000/svg">
                  <path d="m37.07 10.48h-4.55v-4.55c0-.41-.34-.75-.75-.75h-3.88c-.41 0-.75.34-.75.75v4.55h-4.55c-.41 0-.75.34-.75.75v3.88c0 .41.34.75.75.75h4.55v4.55c0 .41.34.75.75.75h3.88c.41 0 .75-.34.75-.75v-4.55h4.55c.41 0 .75-.34.75-.75v-3.88c0-.41-.34-.75-.75-.75zm-.75 3.88h-4.55c-.41 0-.75.34-.75.75v4.55h-2.38v-4.55c0-.41-.34-.75-.75-.75h-4.55v-2.38h4.55c.41 0 .75-.34.75-.75v-4.55h2.38v4.55c0 .41.34.75.75.75h4.55z"></path>
                  <path d="m29.83.5c-6.99 0-12.67 5.68-12.67 12.67s5.68 12.67 12.67 12.67 12.67-5.68 12.67-12.67-5.68-12.67-12.67-12.67zm0 23.84c-6.16 0-11.17-5.01-11.17-11.17s5.01-11.17 11.17-11.17 11.17 5.01 11.17 11.17-5.01 11.17-11.17 11.17z"></path>
                  <path d="m47.5 30.35c0-1.73-1.41-3.14-3.14-3.14s-3.14 1.41-3.14 3.14v3.03h-1.85c-.26-2.52-2.36-4.49-4.95-4.49h-17.82c-.41 0-.75.34-.75.75v3.74h-4.29c2-.19 3.56-1.63 3.56-3.4 0-1.9-1.79-3.44-3.99-3.44s-3.99 1.54-3.99 3.44c0 1.77 1.57 3.22 3.56 3.4h-3.92v-17.92c0-1.73-1.41-3.14-3.14-3.14s-3.14 1.41-3.14 3.14v31.29c0 .41.34.75.75.75h4.78c.41 0 .75-.34.75-.75v-6.64h9.07v3.4c0 .41.34.75.75.75h22.07c.41 0 .75-.34.75-.75v-3.4h1.8v6.64c0 .41.34.75.75.75h4.78c.41 0 .75-.34.75-.75zm-38.86-.37c0-1.07 1.12-1.94 2.49-1.94s2.49.87 2.49 1.94-1.12 1.94-2.49 1.94-2.49-.87-2.49-1.94zm-6.64 16.02v-30.54c0-.9.74-1.64 1.64-1.64s1.64.74 1.64 1.64v18.65.02 5.23.02 6.62zm4.78-7.39v-3.73h9.07v3.73zm31.14 4.15h-20.57v-3.4-5.23-3.74h17.07c1.93 0 3.5 1.57 3.5 3.5v.24 5.23zm1.5-4.15v-3.73h1.8v3.73zm6.58 7.39h-3.28v-6.62c0-.01 0-.01 0-.02v-5.23c0-.01 0-.01 0-.02v-3.76c0-.9.74-1.64 1.64-1.64s1.64.74 1.64 1.64z"></path>
                </svg>