<svg height="512" viewBox="0 0 64 64" width="512" xmlns="http://www.w3.org/2000/svg"><g id="flat"><path d="m31 8h2v5h-2z" fill="#dfdcf4"/><g fill="#8d386c"><path d="m35 7h-9v-2h-2v2h-2v2h2v50h-3v2h8v-2h-3v-50h9z"/><circle cx="58" cy="58" r="3"/><circle cx="6" cy="58" r="3"/></g><path d="m31 32v-2a3 3 0 0 1 3-3h2a1 1 0 0 0 0-2h-2a3 3 0 0 1 -3-3v-2a1 1 0 0 1 2 0v2a1 1 0 0 0 1 1h2a3 3 0 0 1 0 6h-2a1 1 0 0 0 -1 1v2z" fill="#dfdcf4"/><path d="m26 38-16.161-11.408a1 1 0 0 0 -1.409.263l-1.43 2.145 18 13h32v-3a1 1 0 0 0 -1-1z" fill="#7465b8"/><path d="m25 42-18-13-2.074 3.215 19.074 13.785h1 32v-4z" fill="#7ed2ca"/><rect fill="#eb5552" height="8" rx="1" width="6" x="29" y="12"/><path d="m60 35v11h-8v-13a3 3 0 0 0 -3-3h-12a3 3 0 0 0 -3 3v13h-30v-11h-2v16h3v7h2v-7h50v7h2v-7h3v-16zm-13-3h2a1 1 0 0 1 1 1v4h-3zm-6 0h4v5h-4zm-5 1a1 1 0 0 1 1-1h2v5h-3zm0 13v-7h14v7z" fill="#fbc700"/><path d="m29.68 31.432a2.981 2.981 0 0 0 -1.2-1.954l-9.732-7.028a3 3 0 0 0 -4.189.675l-7.613 10.538 1.621 1.171 4.1-5.674 11.348 8.2-4.1 5.675 1.622 1.165 7.613-10.534a2.984 2.984 0 0 0 .53-2.234zm-5.619-2.676-2.928 4.054-3.242-2.343 2.928-4.053zm-7.88-4.46a.99.99 0 0 1 .651-.4 1 1 0 0 1 .745.176l1.623 1.171-2.93 4.057-2.432-1.757zm11.348 8.2-2.343 3.242-2.432-1.756 2.928-4.053 1.618 1.171a1 1 0 0 1 .229 1.395z" fill="#fbc700"/></g></svg>