<svg version="1.1" id="Capa_1" xmlns="http://www.w3.org/2000/svg" xmlns:xlink="http://www.w3.org/1999/xlink" fill="#ffffff" x="0px" y="0px" viewBox="0 0 512.001 512.001" style="enable-background:new 0 0 512.001 512.001;" xml:space="preserve">
<g>
	<g>
		
			<path style="fill-rule:evenodd;clip-rule:evenodd;fill:none;stroke:#ffffff;stroke-width:20;stroke-linecap:round;stroke-linejoin:round;stroke-miterlimit:2.6131;" d="&#10;&#9;&#9;&#9;M459.353,110.87h-255.5L226.759,46l250.242,0l25,161.709l0.001,258.29l-429.126,0c-19.798,0-31.736-14.813-36-32l-16.542-66.656&#10;&#9;&#9;&#9; M196.986,191.333l23.94-78.636 M379.666,367.345l-16.541,66.656c-4.264,17.185-16.203,32-36,32"/>
		
			<path style="fill-rule:evenodd;clip-rule:evenodd;fill:none;stroke:#ffffff;stroke-width:20;stroke-linecap:round;stroke-linejoin:round;stroke-miterlimit:2.6131;" d="&#10;&#9;&#9;&#9;M269,368l-14,28.001c-2.448,4.896-4.407,10-9.789,10h-90.423c-5.382,0-7.34-5.102-9.789-10l-14-28.001"/>
		
			<path style="fill-rule:evenodd;clip-rule:evenodd;fill:none;stroke:#ffffff;stroke-width:20;stroke-linecap:round;stroke-linejoin:round;stroke-miterlimit:2.6131;" d="&#10;&#9;&#9;&#9;M390,341.001c0-8.25-6.75-15-15-15H25c-8.25,0-15,6.75-15,15v10c0,8.25,6.75,15,15,15h350c8.25,0,15-6.75,15-15V341.001z"/>
		
			<line style="fill-rule:evenodd;clip-rule:evenodd;fill:none;stroke:#ffffff;stroke-width:20;stroke-linecap:round;stroke-linejoin:round;stroke-miterlimit:22.9256;" x1="153.387" y1="199.958" x2="143.719" y2="209.624"/>
		
			<line style="fill-rule:evenodd;clip-rule:evenodd;fill:none;stroke:#ffffff;stroke-width:20;stroke-linecap:round;stroke-linejoin:round;stroke-miterlimit:22.9256;" x1="86.181" y1="199.465" x2="95.85" y2="209.131"/>
		
			<line style="fill-rule:evenodd;clip-rule:evenodd;fill:none;stroke:#ffffff;stroke-width:20;stroke-linecap:round;stroke-linejoin:round;stroke-miterlimit:22.9256;" x1="116.749" y1="156.274" x2="126.418" y2="165.939"/>
		
			<polyline style="fill-rule:evenodd;clip-rule:evenodd;fill:none;stroke:#ffffff;stroke-width:20;stroke-linecap:round;stroke-linejoin:round;stroke-miterlimit:2.6131;" points="&#10;&#9;&#9;&#9;171.715,321.228 171.715,247.368 65.386,247.368 65.386,321.228 &#9;&#9;"/>
		
			<path style="fill-rule:evenodd;clip-rule:evenodd;fill:none;stroke:#ffffff;stroke-width:20;stroke-linecap:round;stroke-linejoin:round;stroke-miterlimit:22.9256;" d="&#10;&#9;&#9;&#9;M174.488,326.001c30.623-0.359,55.058-26.246,55.058-57.174c0-17.439-8.599-30.444-16.656-44.835&#10;&#9;&#9;&#9;c-14.889-26.597-30.042-53.041-44.961-79.617c-21.233-37.828-75.079-37.828-96.312,0c-14.92,26.576-30.072,53.02-44.961,79.617&#10;&#9;&#9;&#9;C18.599,238.383,10,251.387,10,268.826c0,30.928,24.435,56.816,55.057,57.174"/>
		
			<polyline style="fill-rule:evenodd;clip-rule:evenodd;fill:none;stroke:#ffffff;stroke-width:20;stroke-linecap:round;stroke-linejoin:round;stroke-miterlimit:22.9256;" points="&#10;&#9;&#9;&#9;376.591,51.535 361.786,167.359 344.739,153.467 324.141,167.359 307.095,153.467 286.497,167.359 301.37,51.014 &#9;&#9;"/>
		
			<polyline style="fill-rule:evenodd;clip-rule:evenodd;fill:none;stroke:#ffffff;stroke-width:20;stroke-linecap:round;stroke-linejoin:round;stroke-miterlimit:2.6131;" points="&#10;&#9;&#9;&#9;438.654,461.931 469.501,386.001 500.901,463.293 &#9;&#9;"/>
		
			<line style="fill-rule:evenodd;clip-rule:evenodd;fill:none;stroke:#ffffff;stroke-width:20;stroke-linecap:round;stroke-linejoin:round;stroke-miterlimit:2.6131;" x1="437" y1="313.119" x2="437.008" y2="313.119"/>
		
			<path style="fill-rule:evenodd;clip-rule:evenodd;fill:none;stroke:#ffffff;stroke-width:20;stroke-linecap:round;stroke-linejoin:round;stroke-miterlimit:2.6131;" d="&#10;&#9;&#9;&#9;M476.989,46.053L437,207.71v60.409 M437,358.119v102.882"/>
	</g>
</g>
<g>
</g>
<g>
</g>
<g>
</g>
<g>
</g>
<g>
</g>
<g>
</g>
<g>
</g>
<g>
</g>
<g>
</g>
<g>
</g>
<g>
</g>
<g>
</g>
<g>
</g>
<g>
</g>
<g>
</g>
</svg>