<svg id="svg8" height="28" viewBox="0 0 28 28" width="28" fill="#ffffff" xmlns="http://www.w3.org/2000/svg" xmlns:svg="http://www.w3.org/2000/svg"><linearGradient id="linearGradient4749"><stop id="stop4747" offset="0"/></linearGradient><g id="layer2" transform="translate(-2 -594)"><g id="g45490" fill="#ffffff" transform="matrix(2 0 0 2 2 594)"><g id="fastforward-clock--time-clock-reset-stopwatch-circle-measure-loading" fill="#ffffff" stroke-linecap="round"><path id="path311" d="m7 3a.5.5 0 0 0 -.5.5v4a.50005.50005 0 0 0 .2773437.4472656l2.5996094 1.3007813a.5.5 0 0 0 .6699219-.2246094.5.5 0 0 0 -.2226562-.6699219l-2.3242188-1.1621094v-3.6914062a.5.5 0 0 0 -.5-.5z" stroke-linejoin="round"/><path id="path310" d="m7 0c-3.8600663 0-7 3.1399337-7 7 0 3.860113 3.1399383 7 7 7 3.304954 0 6.082855-2.296058 6.8125-5.3847656a.5.5 0 0 0 -.371094-.6015625.5.5 0 0 0 -.601562.3710937c-.624754 2.6446864-2.9976042 4.6152344-5.839844 4.6152344-3.3196311 0-6-2.68032-6-6 0-3.3196265 2.6803735-6 6-6 2.3189526 0 4.323862 1.3110659 5.324219 3.2304687a.5.5 0 0 0 .673828.2128907.5.5 0 0 0 .212891-.6738281c-1.167641-2.240373-3.5144556-3.7695313-6.210938-3.7695313z"/><path id="path309" d="m13.5 1.5a.5.5 0 0 0 -.5.5v2h-2a.5.5 0 0 0 -.5.5.5.5 0 0 0 .5.5h2.5a.50005.50005 0 0 0 .5-.5v-2.5a.5.5 0 0 0 -.5-.5z" stroke-linejoin="round"/></g></g></g></svg>