<svg id="Layer_1" enable-background="new 0 0 64 64" height="300" viewBox="0 0 64 64" width="300" xmlns="http://www.w3.org/2000/svg" version="1.1" xmlns:xlink="http://www.w3.org/1999/xlink" xmlns:svgjs="http://svgjs.dev/svgjs"><g width="100%" height="100%" transform="matrix(1,0,0,1,0,0)"><g><g style="fill:none;stroke:#000;stroke-width:2.067;stroke-linecap:round;stroke-linejoin:round;stroke-miterlimit:10"><path d="m49.51 31.52-.64-.86c-.45-.6-.52-1.41-.2-2.09.21-.43.4-.89.57-1.34.26-.72.88-1.24 1.64-1.35l3.21-.49c1.02-.16 1.77-1.02 1.77-2.04v-2.22c0-1.01-.74-1.87-1.77-2.03l-3.21-.49c-.76-.11-1.38-.63-1.64-1.35-.17-.45-.35-.91-.57-1.34-.32-.68-.26-1.48.2-2.09l1.96-2.66c.6-.82.52-1.93-.2-2.66l-1.56-1.55c-.73-.72-1.89-.82-2.73-.2l-2.6 1.91c-.62.45-1.46.53-2.15.2-.43-.21-.87-.38-1.31-.55-.72-.26-1.25-.88-1.36-1.62l-.49-3.24c-.16-1-1.03-1.75-2.07-1.75h-2.17c-1.03 0-1.9.74-2.06 1.75l-.5 3.24c-.1.76-.63 1.38-1.34 1.64-.45.17-.89.34-1.31.55-.7.33-1.53.26-2.15-.2l-2.61-1.91c-.83-.62-1.99-.53-2.73.2l-1.55 1.55c-.72.72-.81 1.84-.21 2.66l1.97 2.66c.44.61.52 1.41.19 2.09-.21.43-.39.89-.56 1.34-.26.72-.89 1.24-1.64 1.35l-3.22.49c-1.01.16-1.77 1.01-1.77 2.03v2.22c0 1.01.75 1.88 1.77 2.04l3.22.49c.75.11 1.38.63 1.64 1.35.17.45.35.91.56 1.34.2.41.25.87.17 1.29" fill="none" fill-opacity="1" stroke="#ffffff" stroke-opacity="1" data-original-stroke-color="#000000ff" stroke-width="2" data-original-stroke-width="2"/><ellipse cx="35.28" cy="22.24" rx="9.45" ry="9.31" fill="none" fill-opacity="1" stroke="#ffffff" stroke-opacity="1" data-original-stroke-color="#000000ff" stroke-width="2" data-original-stroke-width="2"/><path d="m45.32 38.92c1.64-.73 5.34-2.47 6.5-3.55.74-.68 2.16-3.39 2.16-3.39 1.13-1.78 3.08-2.77 5.08-2.77.89 0 1.78.19 2.62.59 1.2.58 1.66 2.04 1.02 3.19-4.04 7.21-9.08 13.05-15.14 17.49-1.43 1.05-3.17 1.58-4.95 1.58h-15.71c-.74 0-1.48.09-2.18.29" fill="none" fill-opacity="1" stroke="#ffffff" stroke-opacity="1" data-original-stroke-color="#000000ff" stroke-width="2" data-original-stroke-width="2"/><path d="m11.96 39.73 3.81-3.62c1.43-1.35 3.34-2.11 5.33-2.11h4.97c1.72 0 3.39.57 4.74 1.61s3.02 1.61 4.73 1.61h6.88c.9 0 1.73.36 2.31.94.59.59.96 1.4.96 2.28 0 1.78-1.47 3.22-3.28 3.22h-13.13" fill="none" fill-opacity="1" stroke="#ffffff" stroke-opacity="1" data-original-stroke-color="#000000ff" stroke-width="2" data-original-stroke-width="2"/><path d="m21.3 58.16-4.18 4.12-16.12-15.89 4.18-4.12c.96-.94 2.51-.94 3.47 0l12.65 12.47c.96.94.96 2.47 0 3.42z" fill="none" fill-opacity="1" stroke="#ffffff" stroke-opacity="1" data-original-stroke-color="#000000ff" stroke-width="2" data-original-stroke-width="2"/></g></g></g></svg>